<?xml version="1.0" encoding="UTF-8" standalone="no"?>
<!-- Created with Inkscape (http://www.inkscape.org/) -->

<svg
   xmlns:dc="http://purl.org/dc/elements/1.1/"
   xmlns:cc="http://creativecommons.org/ns#"
   xmlns:rdf="http://www.w3.org/1999/02/22-rdf-syntax-ns#"
   xmlns:svg="http://www.w3.org/2000/svg"
   xmlns="http://www.w3.org/2000/svg"
   xmlns:sodipodi="http://sodipodi.sourceforge.net/DTD/sodipodi-0.dtd"
   xmlns:inkscape="http://www.inkscape.org/namespaces/inkscape"
   width="658.45416"
   height="551.06995"
   id="svg3073"
   version="1.1"
   inkscape:version="0.48.4 r9939"
   sodipodi:docname="bee.svg">
  <defs
     id="defs3075" />
  <sodipodi:namedview
     id="base"
     pagecolor="#ffffff"
     bordercolor="#666666"
     borderopacity="1.0"
     inkscape:pageopacity="0.0"
     inkscape:pageshadow="2"
     inkscape:zoom="1.0143903"
     inkscape:cx="329.22708"
     inkscape:cy="275.53497"
     inkscape:document-units="px"
     inkscape:current-layer="layer1"
     showgrid="false"
     fit-margin-top="50"
     fit-margin-left="50"
     fit-margin-right="50"
     fit-margin-bottom="50"
     inkscape:window-width="1304"
     inkscape:window-height="746"
     inkscape:window-x="-8"
     inkscape:window-y="-8"
     inkscape:window-maximized="1"
     inkscape:object-paths="true" />
  <metadata
     id="metadata3078">
    <rdf:RDF>
      <cc:Work
         rdf:about="">
        <dc:format>image/svg+xml</dc:format>
        <dc:type
           rdf:resource="http://purl.org/dc/dcmitype/StillImage" />
        <dc:title />
      </cc:Work>
    </rdf:RDF>
  </metadata>
  <g
     inkscape:label="colour"
     inkscape:groupmode="layer"
     id="layer1"
     transform="translate(-664.34778,1251.1087)"
     style="display:inline">
    <path
       style="fill:#000000;fill-opacity:1;fill-rule:evenodd;stroke:none;display:inline"
       d="m 842.05025,-996.16391 c -6.7632,9.67561 -7.83527,21.74275 -2.04122,28.4673 6.49833,7.54183 19.17397,5.499 28.29459,-4.56922 1.44639,-1.59668 2.71176,-3.29132 3.79982,-5.05597 -8.45442,-0.8856 -16.23248,-4.03026 -22.51633,-9.60948 -3.03522,-2.69488 -5.53722,-5.80453 -7.53686,-9.23263 z"
       id="path3782"
       inkscape:connector-curvature="0" />
    <path
       style="fill:#e5ffff;fill-opacity:1;stroke:none"
       d="m 1087.2176,-1199.973 c -19.8231,0.2792 -40.3452,12.3084 -48.2357,27.7452 -8.1339,15.9124 -33.7502,77.2841 -47.32523,110.0694 3.72699,0.7484 7.40653,1.8838 10.99133,3.4701 l 13.5192,5.9823 c 15.7779,6.9821 26.2336,20.7769 29.9432,36.8992 14.8384,-6.2876 32.5833,-9.8356 51.5646,-9.3268 47.5768,-26.3068 59.9584,-54.1848 43.4468,-73.343 -3.4411,-3.9927 -7.9297,-5.7884 -13.1738,-5.8411 22.0518,-29.5478 25.9246,-60.7678 -16.9893,-89.0918 -7.118,-4.6982 -15.3713,-6.6811 -23.7411,-6.5635 z"
       id="path3814"
       inkscape:connector-curvature="0" />
    <path
       style="fill:#ffff00;fill-opacity:1;fill-rule:evenodd;stroke:none"
       d="m 908.10754,-1094.0959 c -17.50438,0.09 -37.0503,9.2127 -51.95707,26.0021 -23.85092,26.8631 -26.79352,63.2007 -6.56336,81.16252 15.83215,14.05685 41.15778,12.68841 62.85417,-1.44457 -1.24115,22.85538 10.34828,44.24637 31.35637,53.54302 l 13.51941,5.98238 c 17.5314,7.75815 37.39473,5.21995 53.44864,-5.02457 13.2429,26.18339 43.643,51.74833 87.2235,67.84735 48.8709,18.05352 100.9678,19.28263 130.4031,4.50641 11.4168,-5.73109 29.0748,-2.01786 41.8138,22.07667 5.9434,-49.18437 -17.1157,-127.22979 -119.1451,-173.31621 -37.8516,-17.0975 -76.673,-15.0284 -104.9506,-3.046 -3.7096,-16.1223 -14.1653,-29.9171 -29.9432,-36.8992 l -13.5192,-5.9823 c -17.47577,-7.7335 -37.26498,-5.2482 -53.29178,4.9146 -0.46101,-12.0213 -4.86285,-22.8714 -13.39367,-30.4458 -7.58627,-6.7356 -17.35228,-9.9302 -27.85501,-9.8764 z"
       id="path3786"
       inkscape:connector-curvature="0" />
    <path
       style="fill:#000000;fill-opacity:1;fill-rule:evenodd;stroke:none"
       d="m 912.37745,-1023.9273 c -10.82096,13.0851 -28.76907,16.8329 -37.78575,8.3712 -9.01668,-8.4619 -7.55409,-25.9292 3.26687,-39.0142 10.8209,-13.0852 29.54214,-16.8331 38.55884,-8.3712 9.01668,8.4617 6.78083,25.9291 -4.03996,39.0142 z"
       id="path3778"
       inkscape:connector-curvature="0"
       sodipodi:nodetypes="sssss" />
    <path
       style="fill:#ffffff;fill-opacity:1;fill-rule:evenodd;stroke:none"
       d="m 901.05081,-1040.4777 c -4.40783,2.9451 -9.0849,2.4551 -10.44652,-1.0944 -1.36157,-3.5493 1.10797,-8.8144 5.51578,-11.7596 4.40794,-2.9452 9.08498,-2.4552 10.44646,1.0942 1.36165,3.5495 -1.10787,8.8146 -5.51572,11.7598 z"
       id="path3780"
       inkscape:connector-curvature="0" />
    <path
       id="path3968"
       d="m 837.9871,-1034.2712 c -4.49568,18.4083 -0.80296,36.32766 11.60001,47.33992 15.83214,14.05687 41.15778,12.68841 62.85417,-1.44457 -1.24115,22.85538 10.34828,44.24637 31.35637,53.54302 l 13.51941,5.98238 c 17.5314,7.75815 37.39473,5.21995 53.44864,-5.02457 13.2429,26.18339 43.643,51.74833 87.2235,67.84735 48.8709,18.05352 100.9678,19.28263 130.4031,4.50641 11.4168,-5.73109 67.968,-29.83239 -10.9794,-108.12156 24.8613,68.72177 -17.5279,80.39871 -57.5529,76.98801 -29.7177,-2.53236 -79.8518,-15.96251 -121.4743,-59.67191 8.7247,-9.85649 19.8238,-45.23362 12.6991,-65.35888 -2.1237,0.3995 -1.646,1.2992 -6.5298,1.8788 -1.7838,-7.4039 -4.5058,-14.4164 -11.494,-24.0243 10.4703,48.86917 -28.0552,81.4816 -48.85197,87.28681 -10.81835,3.01982 -46.51467,-0.34109 -54.14992,-36.82552 2.74007,-2.64524 29.06881,-22.41559 26.78651,-66.89469 -1.84836,0.702 -5.75643,3.4003 -7.87782,3.6382 -0.12302,-1.8463 -1.77392,-9.3157 -2.10042,-12.9688 -4.66501,52.339 -47.9182,78.69389 -72.25518,76.73716 -24.04173,-1.93302 -38.92964,-25.18706 -36.6251,-45.41326 z"
       style="fill:#ebeb00;fill-opacity:1;fill-rule:evenodd;stroke:none"
       inkscape:connector-curvature="0"
       sodipodi:nodetypes="csccccsscsccccsccccsc" />
    <path
       style="fill:#000000;fill-opacity:1;fill-rule:evenodd;stroke:none"
       d="m 1248.78,-930.93532 c 21.2786,36.71808 23.3878,62.7847 21.4257,91.48321 -9.8028,-18.5409 -23.0991,-26.56916 -37.82,-23.97622 17.3504,-9.96522 34.644,-22.03653 16.3943,-67.50699 z"
       id="path3004" />
    <path
       style="fill:#000000;fill-opacity:1;fill-rule:evenodd;stroke:none"
       d="m 1223.9519,-859.4966 c -4.3555,1.96636 -10.8024,3.82585 -14.383,4.60451 23.0689,-22.94996 32.4433,-46.06186 24.2826,-97.34822 2.3515,2.83505 4.5734,5.69077 6.6707,8.56114 11.4771,46.10853 -0.4255,66.53823 -16.5703,84.18257 z"
       id="path3002"
       inkscape:connector-curvature="0"
       sodipodi:nodetypes="ccccc" />
    <path
       style="fill:#000000;fill-opacity:1;fill-rule:evenodd;stroke:none"
       d="m 1097.9954,-866.02879 c -12.1242,-4.47875 -23.229,-9.69004 -33.2285,-15.44351 49.497,-38.13297 66.3024,-72.48013 57.2346,-140.8092 9.619,2.0194 19.3678,5.139 29.0533,9.5139 11.2093,72.85403 -2.9121,109.53568 -53.0594,146.73881 z"
       id="path3000" />
    <path
       style="fill:#000000;fill-opacity:1;fill-rule:evenodd;stroke:none"
       d="m 1200.9836,-983.46864 c -7.1171,-5.40093 -14.1059,-10.17577 -22.559,-15.143 12.1021,80.46598 -3.2699,88.8433 -43.2557,143.04364 5.7381,1.05065 16.2743,2.91981 26.8027,3.65476 31.607,-42.6546 45.5533,-70.39423 39.012,-131.5554 z"
       id="path2998"
       inkscape:connector-curvature="0"
       sodipodi:nodetypes="ccccc" />
    <path
       style="fill:#000000;fill-opacity:1;fill-rule:evenodd;stroke:none"
       d="m 1227.3929,-959.61439 c -4.323,-4.67954 -9.0217,-9.28641 -14.1191,-13.79243 10.8196,60.3514 0.8451,86.69526 -30.5618,121.92231 4.6527,-0.095 10.7459,-0.73604 14.6786,-1.19872 18.6968,-23.31295 37.6459,-47.57481 30.0023,-106.93116 z"
       id="path2994"
       inkscape:connector-curvature="0"
       sodipodi:nodetypes="ccccc" />
    <path
       style="fill:#e5ffff;fill-opacity:1;stroke:none"
       d="m 977.88623,-1007.5477 c 45.62137,123.83559 140.67217,113.92839 181.08837,93.42551 14.9972,-7.60789 -0.8517,-21.55011 -26.7085,-36.08266 0.2418,-1.1014 0.4219,-2.26462 0.5338,-3.48581 4.9255,-53.78494 -123.4631,-52.28694 -123.4631,-52.28694 l -5.1972,2.8578 -26.25337,-4.4279 z"
       id="path3808"
       inkscape:connector-curvature="0" />
  </g>
  <g
     inkscape:groupmode="layer"
     id="layer2"
     inkscape:label="outline"
     style="display:inline"
     transform="translate(-1001.7855,1168.299)">
    <path
       style="font-size:medium;font-style:normal;font-variant:normal;font-weight:normal;font-stretch:normal;text-indent:0;text-align:start;text-decoration:none;line-height:normal;letter-spacing:normal;word-spacing:normal;text-transform:none;direction:ltr;block-progression:tb;writing-mode:lr-tb;text-anchor:start;baseline-shift:baseline;color:#000000;fill:#000000;stroke:none;stroke-width:3.12804389px;marker:none;visibility:visible;display:inline;overflow:visible;enable-background:accumulate;font-family:Sans;-inkscape-font-specification:Sans"
       d="m 1424.6553,-1118.2938 c -5.8563,0.083 -11.7595,1.1724 -17.3818,3.0462 -13.8393,4.6127 -26.053,13.9838 -31.8432,25.3113 -5.6787,11.1098 -19.6712,43.8413 -32.2827,73.8925 -5.3787,12.8164 -10.3081,24.66242 -14.4143,34.57529 -1.6313,-0.30289 -3.2586,-0.5348 -4.899,-0.69091 -12.193,-1.16058 -23.1177,2.50659 -34.0059,8.70255 -1.092,-11.17605 -7.0827,-22.05124 -15.2505,-29.30323 -7.9483,-7.057 -18.1464,-10.3808 -29.0325,-10.3318 -10.1645,0.1214 -20.6265,3.3241 -28.8442,7.474 -10.71,-10.5349 -21.4918,-20.9966 -32.1888,-31.5448 -44.1746,28.1536 -88.4736,56.12669 -132.7269,84.16147 37.7435,-5.84328 95.1653,-55.81787 132.2716,-79.32527 l 29.1425,28.6243 c -5.5402,3.2022 -10.8907,7.19153 -15.8587,11.93329 -14.3038,-4.54341 -28.59,-9.14319 -42.8973,-13.67629 -26.3029,52.63884 -52.6489,105.25645 -78.9798,157.88134 32.7355,-30.42707 58.2939,-107.96701 80.9896,-153.28064 l 37.8728,12.09039 c -11.4609,13.37247 -20.897,31.81578 -22.3594,47.24658 -1.2218,15.12574 2.387,32.84642 12.9848,42.25585 10.5978,9.40938 28.1782,12.35575 43.0532,9.35207 7.341,-1.4824 13.1997,-3.56878 20.3014,-7.75305 0.035,16.18574 4.8564,27.54636 16.2157,38.19669 -11.3217,7.25795 -21.355,14.45517 -32.7313,21.62721 -6.0701,39.4062 -12.209,78.8032 -18.324,118.20291 l -43.8551,13.2994 c 17.1674,-0.67936 37.9634,-4.08116 48.1109,-8.63476 24.6526,-58.52143 26.7443,-98.4922 20.1497,-117.85992 0,0 25.774,-3.07736 33.6932,-19.7954 2.2049,2.20638 5.8729,4.25897 10.2318,5.16243 -5.246,11.18518 -10.3312,20.02705 -15.6077,31.19778 -4.3296,48.79573 -3.3776,100.23139 -7.7059,149.02727 l 5.5439,-11.54887 c 22.4374,-106.46749 8.6897,-133.8809 8.6897,-133.8809 19.7978,-11.65864 21.7578,-28.17506 21.7578,-28.17506 4.4211,2.11774 21.173,4.22736 26.5627,2.62946 4.1627,15.1209 -0.9514,46.11435 -3.013,70.0287 18.6275,4.49532 28.4328,8.23916 41.8453,14.60265 25.4969,12.27502 61.762,34.67476 104.511,75.33708 l -9.7121,-15.08206 c -43.0217,-40.92175 -60.2486,-61.80143 -86.111,-74.25247 -23.7205,-11.4199 -39.4697,-6.74474 -41.7685,-7.13614 28.4861,-47.62273 8.5187,-66.08996 8.5187,-66.08996 7.0504,-1.38177 5.6981,-2.076 12.016,-5.87103 2.8328,5.27192 8.0253,15.77522 12.1679,20.88215 16.3096,20.10663 41.6194,37.19305 75.7604,49.80511 49.1992,18.17474 104.8571,15.56334 128.891,3.27458 20.6319,-10.54928 35.0992,2.5689 43.83,18.09422 8.1878,-38.40309 -7.7388,-75.86518 -17.1364,-91.01762 -18.7978,-30.30918 -49.4172,-62.58894 -100.7988,-85.79778 -16.5495,-7.47546 -34.1652,-11.34105 -50.152,-12.32588 14.8619,-8.62346 26.0428,-17.40096 33.7432,-26.01784 7.6305,-8.53896 11.8715,-16.94328 12.7969,-24.88726 0.9251,-7.94403 -1.5258,-15.38903 -7.0187,-21.76263 -3.177,-3.6862 -7.2455,-5.607 -11.8861,-6.0924 10.2639,-14.227 16.3425,-28.9359 14.9009,-43.6352 -1.5306,-15.6029 -11.5567,-30.9521 -33.4134,-45.3781 -6.1729,-4.0742 -13.1559,-6.1738 -20.3181,-6.6576 -1.3431,-0.09 -2.6839,-0.1292 -4.0355,-0.1106 z m 41.3114,97.8849 c 4.6993,0.1626 8.6458,1.8684 11.745,5.4642 5.1492,5.9746 7.3394,12.7119 6.4848,20.05113 -0.8548,7.33932 -4.8139,15.33059 -12.2317,23.63119 -8.002,8.95477 -20.0106,18.22282 -36.2868,27.33678 -14.6598,-0.44732 -28.5952,1.48918 -41.0915,5.24439 -3.2876,0.9879 -6.486,2.10221 -9.5623,3.32876 -1.0327,-3.89282 -2.4699,-7.64715 -4.2552,-11.19535 28.6299,-20.60964 64.126,-46.11815 84.8208,-73.343 0.1308,-0.1713 0.2479,-0.3466 0.3769,-0.5181 z m -2.8891,0.079 c -20.4029,26.36418 -55.0997,51.42774 -83.3607,71.78843 -0.9491,-1.71081 -1.9853,-3.37869 -3.109,-4.97744 l -1.3818,-1.88421 c -5.3131,-6.91041 -12.3286,-12.57196 -20.8203,-16.32985 l -13.5037,-5.98237 c -3.2464,-1.43668 -6.5747,-2.51255 -9.9391,-3.28167 4.0116,-9.67791 8.8771,-21.34749 14.257,-34.16699 12.6075,-30.0413 26.6611,-62.9065 32.2045,-73.7512 5.432,-10.6269 17.211,-19.7329 30.5555,-24.1808 5.8384,-1.9457 11.9509,-3.01 17.9629,-2.9363 0.859,0.016 1.7219,0.052 2.5751,0.1105 6.826,0.4579 13.435,2.4265 19.2504,6.265 21.5103,14.1973 30.9726,28.9303 32.4241,43.7293 1.4069,14.3444 -4.7722,28.9561 -15.3877,43.3056 z m -237.8503,123.18033 c -14.0128,2.82962 -27.3767,0.24613 -37.0091,-8.30625 -9.6324,-8.5523 -13.8066,-21.51934 -12.6556,-35.76861 1.151,-14.24927 7.7033,-30.29134 19.5157,-43.33246 12.0576,-13.31152 21.8659,-20.37561 40.7417,-24.75721 14.1314,-3.2804 27.0969,1.2162 36.3871,9.2552 7.83,6.95208 12.0446,16.81613 12.734,27.91768 0.3669,18.84154 -9.3851,39.11034 -19.4388,50.70102 -11.2737,11.96065 -24.943,21.07334 -40.275,24.29063 z m 44.9109,33.79021 c -11.8635,-10.13766 -16.0004,-22.28492 -15.3081,-38.68737 5.8165,-3.90842 11.3605,-8.717 16.3771,-14.36711 12.1685,-13.70529 17.7733,-29.82843 18.9952,-44.95417 0.1557,-1.92787 -0.092,-5.70765 -0.123,-7.59768 9.31,-5.70908 18.4116,-9.54903 28.9657,-9.44053 7.2379,0.2164 14.0621,1.64507 20.2393,4.34938 l 13.5037,5.98238 c 8.137,3.60091 14.8074,9.08568 19.8,15.79598 6.346,9.78264 7.775,17.59146 8.4641,29.06968 l -17.2101,-0.63377 c -10.324,-0.52383 -17.0993,-0.45537 -17.0993,-0.45537 -1.9217,0.71907 -3.8241,1.94792 -5.3856,2.81061 -9.2568,-1.54006 -18.5003,-3.16103 -27.7607,-4.67914 7.2562,18.17938 15.9397,36.96242 25.7823,51.31337 4.3142,6.18959 5.9526,9.95137 10.5177,14.88352 -20.863,21.11651 -57.0367,16.02665 -79.7586,-3.38978 z m 116.8487,-58.75602 c -0.1354,-3.40635 -0.5465,-6.76187 -1.2248,-10.03342 3.1282,-1.2691 6.381,-2.42604 9.7508,-3.43871 10.5162,-3.16012 22.1079,-5.00714 34.3083,-5.16587 l 4.7106,0.0157 0,-4e-5 c 1.6022,0.0365 3.2164,0.0925 4.8361,0.1884 15.7004,0.92972 32.1815,4.70083 48.4714,12.05896 53.9845,24.3846 84.2548,57.94664 98.762,92.1644 5.5635,13.12251 -1.6264,44.12132 -26.7572,55.79517 -29.1439,13.53799 -72.8437,10.51768 -121.8265,-5.21479 -34.1901,-10.98131 -61.4032,-29.57575 -77.2527,-49.11512 -4.0912,-5.0436 -6.6393,-9.7228 -9.389,-14.86928 1.9596,-1.31305 2.9734,-3.1768 4.804,-4.71083 16.1427,16.42458 33.8071,26.32831 51.3134,31.62336 34.8558,10.54256 68.9615,2.88952 89.4215,-7.48974 4.4575,-2.23963 7.3461,-6.35914 6.0139,-10.94414 -1.2857,-4.22426 -5.2936,-8.55234 -11.1325,-13.17377 -5.4969,-4.35051 -12.6637,-8.92377 -20.8362,-13.55062 2.5498,-14.44914 -6.7117,-27.40435 -17.3192,-34.70088 -11.5514,-7.55872 -27.2516,-12.41744 -43.0699,-15.60756 -6.4373,-1.29822 -12.8877,-2.32605 -19.0933,-3.12465 z m -33.3348,2.7007 c -3.0266,-0.51326 -6.1189,-1.03643 -8.7146,-1.47596 l 2.1197,-1.16194 c 0.3154,-0.003 5.6322,-0.14883 13.9903,0.32973 26.0227,1.0553 67.799,4.13635 91.3686,20.91477 11.864,8.44555 19.839,15.71014 16.4713,31.67046 -8.6768,-4.82265 -18.3875,-9.68955 -28.4046,-14.39851 -18.8407,-8.85691 -38.6959,-17.15075 -54.6893,-23.53697 -10.8928,-4.32572 -22.3529,-8.74616 -32.1414,-12.34158 z m -0.6439,2.15115 c 11.3225,4.21378 21.652,8.18827 32.2985,12.42009 30.4822,12.73404 58.3267,23.97253 85.1193,39.16021 8.741,5.40065 27.1573,15.44102 30.3516,25.09143 1.178,4.07204 -2.0645,6.8181 -4.8834,8.27483 -19.9561,10.1236 -53.5652,17.68537 -87.7414,7.34842 -30.8086,-12.0178 -51.9293,-27.89254 -69.0092,-54.28101 -8.1121,-12.26202 -15.5599,-26.82209 -22.0453,-44.04344 11.8049,1.99056 25.0026,4.19864 35.9099,6.02947 z"
       id="path27"
       inkscape:connector-curvature="0"
       sodipodi:nodetypes="sssscscsccccccccccccsscccccccccccccccccccscccssscsscssccssssccsscsccsccccccccssssssscccssssccccscssccccccccccccsccccssccssscsssccccccccccccsccccccccccccc" />
  </g>
</svg>
