<?xml version="1.0" encoding="UTF-8" standalone="no"?>
<!-- Created with Inkscape (http://www.inkscape.org/) -->

<svg
   width="687.29022"
   height="449.59415"
   id="svg4491"
   version="1.1"
   inkscape:version="1.1 (c68e22c387, 2021-05-23)"
   sodipodi:docname="modernTurtle.svg"
   xmlns:inkscape="http://www.inkscape.org/namespaces/inkscape"
   xmlns:sodipodi="http://sodipodi.sourceforge.net/DTD/sodipodi-0.dtd"
   xmlns="http://www.w3.org/2000/svg"
   xmlns:svg="http://www.w3.org/2000/svg"
   xmlns:rdf="http://www.w3.org/1999/02/22-rdf-syntax-ns#"
   xmlns:cc="http://creativecommons.org/ns#"
   xmlns:dc="http://purl.org/dc/elements/1.1/">
  <defs
     id="defs4493" />
  <sodipodi:namedview
     id="base"
     pagecolor="#ffffff"
     bordercolor="#666666"
     borderopacity="1.0"
     inkscape:pageopacity="0.0"
     inkscape:pageshadow="2"
     inkscape:zoom="1.2433436"
     inkscape:cx="470.10336"
     inkscape:cy="240.88273"
     inkscape:document-units="px"
     inkscape:current-layer="layer4"
     showgrid="false"
     inkscape:window-width="2560"
     inkscape:window-height="1377"
     inkscape:window-x="-8"
     inkscape:window-y="-8"
     inkscape:window-maximized="1"
     fit-margin-top="5"
     fit-margin-left="5"
     fit-margin-bottom="5"
     fit-margin-right="5"
     inkscape:pagecheckerboard="0" />
  <metadata
     id="metadata4496">
    <rdf:RDF>
      <cc:Work
         rdf:about="">
        <dc:format>image/svg+xml</dc:format>
        <dc:type
           rdf:resource="http://purl.org/dc/dcmitype/StillImage" />
        <dc:title />
      </cc:Work>
    </rdf:RDF>
  </metadata>
  <g
     inkscape:label="colour"
     inkscape:groupmode="layer"
     id="layer1"
     transform="translate(-39.35489,-338.5651)"
     style="display:inline">
    <path
       d="m 134.61719,573.10243 c -16.61493,17.15266 -63.26104,49.41065 -57.445018,65.58803 5.81604,16.17738 -7.998934,40.49186 0.806603,50.6514 8.812084,10.15869 13.489843,32.11816 23.683325,38.35171 10.19836,6.21965 15.51145,3.67509 31.45141,-4.00528 15.94162,-7.66725 23.77758,-19.94607 32.5226,-39.85903 8.74502,-19.91296 37.76613,-72.4949 36.5882,-81.74454 -1.17793,-9.24964 -67.60712,-28.98229 -67.60712,-28.98229 z"
       id="path806"
       inkscape:connector-curvature="0"
       style="fill:#29abe2" />
    <path
       d="m 99.189169,529.24403 c 0,0 -53.881526,4.98713 -54.823702,-2.41128 -0.943009,-7.40496 61.482573,-19.11063 61.482573,-19.11063 l -6.658871,21.52191 z"
       id="path808"
       inkscape:connector-curvature="0"
       style="fill:#29abe2" />
    <path
       d="m 543.92984,524.733 c 6.7251,8.54323 -0.36966,41.41483 -1.4822,62.22378 -1.11086,20.82202 25.58585,156.54235 22.8926,194.48393 18.50584,-2.35669 81.41849,-202.12399 65.57113,-252.75453 -15.85141,-50.61007 -61.42631,-54.20583 -61.42631,-54.20583 L 543.92984,524.733 z"
       id="path810"
       inkscape:connector-curvature="0"
       style="fill:#29abe2" />
    <path
       d="m 545.65621,376.00004 c 15.98128,7.36445 32.83849,-7.93779 49.48653,-10.05789 16.64805,-2.1201 75.14029,-15.21941 87.4134,-7.37609 12.27879,7.83596 33.33573,10.79152 37.3079,27.21036 3.97216,16.41883 -36.15886,70.39567 -109.51578,55.30113 -21.01646,12.08269 -18.70192,15.53717 -37.42959,16.0475 2.48489,-24.75287 -27.26246,-81.12501 -27.26246,-81.12501 z"
       id="path812"
       inkscape:connector-curvature="0"
       style="fill:#29abe2" />
    <path
       transform="matrix(5.379066,3.8147171,-3.8147171,5.379066,-619.29378,-2975.685)"
       style="fill:#2e3192"
       d="m 458.25,302 c 0,0.6898 -1.00736,1.249 -2.25,1.249 -1.24264,0 -2.25,-0.5592 -2.25,-1.249 0,-0.6898 1.00736,-1.249 2.25,-1.249 1.24264,0 2.25,0.5592 2.25,1.249 z"
       id="ellipse814"
       inkscape:connector-curvature="0" />
    <path
       d="M 685.56615,362.83603"
       id="path846"
       inkscape:connector-curvature="0"
       style="fill:#2e3192" />
    <path
       d="m 377.21553,455.72321 -34.90502,6.32636 c 0,0 2.66945,153.8103 -50.07382,153.01532 C 239.49094,614.25029 104.77964,575.00768 97.073549,544.04085 90.275688,505.43336 162.01776,419.21202 269.742,394.2126 c 64.61928,35.01322 64.61928,35.01322 64.61928,35.01322 l 28.88719,-9.31587 c 0,0 -11.70648,-62.43213 8.64402,-65.02373 43.68972,-11.20759 133.43237,-15.11778 156.13958,0.79643 22.70637,15.90769 77.46893,91.64933 15.89043,169.04466 -61.5842,77.40271 -163.44122,-58.13242 -166.70697,-69.0041 z"
       id="path974"
       inkscape:connector-curvature="0"
       style="fill:#00a99d;stroke:none" />
    <path
       d="m 346.88363,424.25412 c -3.07366,-1.3768 -12.52237,4.97167 -12.52237,4.97167 0,0 -7.6757,-15.69458 4.9907,-20.63141 12.66644,-4.93682 22.66036,12.623 26.50476,25.42854 3.84439,12.80554 10.84581,32.96673 -1.95972,36.81114 -12.80555,3.8444 -15.70234,-10.18532 -15.70234,-10.18532 0,0 9.14165,-1.19069 10.62639,-3.57352 4.60575,-7.42022 -3.97074,-29.2488 -11.93742,-32.8211 z"
       id="path980"
       inkscape:connector-curvature="0"
       style="fill:#ff0000" />
    <path
       style="fill:#2e3192;fill-opacity:1;stroke:none"
       d="m 153.00185,698.84213 c -3.22923,9.09651 -13.02544,18.18989 -18.40795,15.84609 -5.38252,-2.34382 -7.1281,-11.61802 -3.89887,-20.71453 3.22925,-9.09649 10.21046,-14.57062 15.59298,-12.22682 5.38252,2.34381 9.94308,7.99876 6.71384,17.09526 z"
       id="path3752"
       inkscape:connector-curvature="0"
       sodipodi:nodetypes="sssss" />
    <path
       inkscape:connector-curvature="0"
       id="path3755"
       d="m 124.13891,715.02948 c -2.45013,8.44018 -8.61686,13.92055 -13.77379,12.24077 -5.15692,-1.67981 -9.76405,-7.87294 -7.31392,-16.31314 2.45013,-8.44017 11.02972,-15.93127 16.18663,-14.25148 5.15692,1.6798 7.3512,9.88366 4.90108,18.32385 z"
       style="fill:#2e3192;fill-opacity:1;stroke:none"
       sodipodi:nodetypes="sssss" />
    <path
       style="fill:#2e3192;fill-opacity:1;stroke:none"
       d="m 97.507095,680.41963 c -5.489124,7.33965 -14.017161,10.75362 -19.047911,7.62534 -5.030735,-3.1283 -4.256996,-16.43992 1.232131,-23.77958 5.48912,-7.33964 10.800037,-5.92792 15.83076,-2.79964 5.030745,3.12829 7.474135,11.61423 1.98502,18.95388 z"
       id="path3757"
       inkscape:connector-curvature="0"
       sodipodi:nodetypes="sssss" />
    <path
       inkscape:connector-curvature="0"
       id="path3759"
       d="m 105.91955,697.58629 c -4.01553,5.09279 -8.645591,9.8745 -12.3258,7.70387 -3.680199,-2.17064 -5.016925,-10.47165 -1.001393,-15.56444 4.015527,-5.09278 8.243443,-5.0488 11.923643,-2.87817 3.6802,2.17064 5.41907,5.64595 1.40355,10.73874 z"
       style="fill:#2e3192;fill-opacity:1;stroke:none"
       sodipodi:nodetypes="sssss" />
    <path
       inkscape:connector-curvature="0"
       id="path3761"
       d="m 97.953294,640.13741 c -6.715432,6.23731 -13.304323,4.85081 -17.693118,0.87173 -4.388776,-3.97909 -2.904798,-13.86966 3.810637,-20.10697 6.715424,-6.23729 13.706471,-3.24224 18.095237,0.73684 4.38879,3.97908 2.50266,12.2611 -4.212756,18.4984 z"
       style="fill:#2e3192;fill-opacity:1;stroke:none"
       sodipodi:nodetypes="sssss" />
    <path
       style="fill:#2e3192;fill-opacity:1;stroke:none"
       d="m 107.36899,612.14567 c -5.36401,0.97825 -8.05114,-1.38722 -8.978305,-4.78736 -0.927155,-3.40014 2.669605,-4.13454 8.033605,-5.1128 5.36399,-0.97825 10.46398,0.98508 11.39114,4.38521 0.92717,3.40014 -5.08246,4.53668 -10.44644,5.51495 z"
       id="path3763"
       inkscape:connector-curvature="0"
       sodipodi:nodetypes="sssss" />
    <path
       inkscape:connector-curvature="0"
       id="path3765"
       d="m 125.14045,599.22982 c -6.89572,1.16242 -11.03917,-1.17054 -12.23109,-5.21083 -1.19191,-4.04029 2.2255,-7.45365 9.12121,-8.61609 6.8957,-1.16243 13.45201,-1.64445 14.64393,2.39583 1.19192,4.04029 -4.63836,10.26864 -11.53405,11.43109 z"
       style="fill:#2e3192;fill-opacity:1;stroke:none"
       sodipodi:nodetypes="sssss" />
    <path
       style="fill:#2e3192;fill-opacity:1;stroke:none"
       d="m 164.62785,668.26855 c 1.47707,6.315 -1.36598,10.65847 -5.35787,12.18176 -3.99189,1.52327 -8.42531,-2.3612 -9.90233,-8.67622 -1.47697,-6.31501 2.97454,-9.8542 6.96643,-11.37748 3.99189,-1.52326 6.81674,1.55693 8.29377,7.87194 z"
       id="path3767"
       inkscape:connector-curvature="0"
       sodipodi:nodetypes="sssss" />
    <path
       inkscape:connector-curvature="0"
       id="path3769"
       d="m 176.47134,647.76825 c -0.0153,4.29519 -2.65687,7.27567 -6.89212,7.64927 -4.23525,0.37358 -6.44973,-6.02262 -6.43437,-10.31782 0.0154,-4.29517 1.0483,-3.25425 5.28355,-3.62785 4.23525,-0.37358 8.05829,2.00123 8.04294,6.2964 z"
       style="fill:#2e3192;fill-opacity:1;stroke:none"
       sodipodi:nodetypes="csssc" />
    <path
       style="fill:#2e3192;fill-opacity:1;stroke:none"
       d="m 120.80638,674.33123 c -0.0153,4.29519 -0.64617,7.27567 -4.88142,7.64927 -4.23525,0.37358 -9.66686,-4.01191 -9.6515,-8.30711 0.0154,-4.29517 3.46115,-8.07995 7.6964,-8.45355 4.23525,-0.37358 6.85187,4.81622 6.83652,9.11139 z"
       id="path3771"
       inkscape:connector-curvature="0"
       sodipodi:nodetypes="csssc" />
    <path
       inkscape:connector-curvature="0"
       id="path3773"
       d="m 115.45238,647.86582 c -0.0153,4.29519 0.56026,8.07996 -3.67499,8.45356 -4.23525,0.37358 -10.069,-2.80549 -10.05364,-7.10069 0.0154,-4.29517 1.45044,-8.88423 5.68569,-9.25783 4.23525,-0.37358 8.05829,3.60979 8.04294,7.90496 z"
       style="fill:#2e3192;fill-opacity:1;stroke:none"
       sodipodi:nodetypes="csssc" />
    <path
       style="fill:#2e3192;fill-opacity:1;stroke:none"
       d="m 143.22179,668.20348 c -0.0153,3.04362 -5.47187,6.93198 -9.70712,7.19672 -4.23525,0.26472 -5.64544,-3.99871 -5.63008,-7.04234 0.0154,-3.0436 1.0483,-4.92126 5.28355,-5.186 4.23525,-0.26472 10.069,1.98802 10.05365,5.03162 z"
       id="path3775"
       inkscape:connector-curvature="0"
       sodipodi:nodetypes="cscsc" />
    <path
       inkscape:connector-curvature="0"
       id="path3777"
       d="m 157.43966,644.65064 c -0.009,3.04362 -2.0494,5.72555 -4.55716,5.99029 -2.50776,0.26472 -6.14189,-2.39014 -6.1328,-5.43377 0.009,-3.0436 3.25583,-3.31269 5.76359,-3.57743 2.50775,-0.26472 4.93546,-0.0227 4.92637,3.02091 z"
       style="fill:#2e3192;fill-opacity:1;stroke:none"
       sodipodi:nodetypes="cscsc" />
    <path
       style="fill:#2e3192;fill-opacity:1;stroke:none"
       d="m 132.98496,649.20035 c -0.009,3.04362 -2.0494,5.72555 -4.55716,5.99029 -2.50776,0.26472 -4.53332,-1.988 -4.52423,-5.03163 0.009,-3.0436 -0.36345,-4.51912 2.14431,-4.78386 2.50775,-0.26472 6.94617,0.7816 6.93708,3.8252 z"
       id="path3779"
       inkscape:connector-curvature="0"
       sodipodi:nodetypes="cscsc" />
    <path
       inkscape:connector-curvature="0"
       id="path3781"
       d="m 116.49226,623.77577 c -0.007,2.41783 -1.66437,3.34192 -3.701,3.55223 -2.03662,0.21029 -3.68164,-1.57926 -3.67426,-3.9971 0.007,-2.41782 1.66438,-4.54834 3.70101,-4.75865 2.03661,-0.21029 3.68164,2.7857 3.67425,5.20352 z"
       style="fill:#2e3192;fill-opacity:1;stroke:none"
       sodipodi:nodetypes="cscsc" />
    <path
       style="fill:#2e3192;fill-opacity:1;fill-rule:nonzero;stroke:none"
       d="m 588.8028,736.73564 c -7.78355,18.54697 -17.81686,32.03437 -22.41002,30.12496 -4.59315,-1.90941 0.83676,-22.47358 8.62031,-41.02054 7.78357,-18.54697 16.11074,-26.91595 20.70389,-25.00654 4.59316,1.90942 0.86939,17.35516 -6.91418,35.90212 z"
       id="path3783"
       inkscape:connector-curvature="0"
       sodipodi:nodetypes="sssss" />
    <path
       inkscape:connector-curvature="0"
       id="path3786"
       d="m 574.12834,700.17358 c -6.02555,13.18682 -11.51787,17.27573 -15.07361,14.04369 -3.55574,-3.23204 -0.41613,-13.97457 5.60942,-27.16138 6.02556,-13.1868 14.40187,-22.25617 17.9576,-19.02413 3.55575,3.23206 -2.46785,18.95501 -8.49341,32.14182 z"
       style="fill:#2e3192;fill-opacity:1;fill-rule:nonzero;stroke:none"
       sodipodi:nodetypes="sssss" />
    <path
       style="fill:#2e3192;fill-opacity:1;fill-rule:nonzero;stroke:none"
       d="m 567.5835,665.08741 c -5.75509,10.13495 -8.62392,15.15203 -12.02006,12.60907 -3.39614,-2.54297 -7.17096,-16.23272 -1.41587,-26.36766 5.7551,-10.13495 12.60493,-8.32749 16.00106,-5.78453 3.39615,2.54298 3.18997,9.40817 -2.56513,19.54312 z"
       id="path3788"
       inkscape:connector-curvature="0"
       sodipodi:nodetypes="sssss" />
    <path
       inkscape:connector-curvature="0"
       id="path3790"
       d="m 566.6169,629.27358 c -8.81219,8.70608 -16.12868,10.34266 -19.14802,7.16315 -3.01934,-3.17952 -2.87303,-13.95212 5.93915,-22.65819 8.8122,-8.70605 19.54098,-6.36166 22.56032,-3.18215 3.01935,3.17953 -0.53926,9.97113 -9.35145,18.67719 z"
       style="fill:#2e3192;fill-opacity:1;fill-rule:nonzero;stroke:none"
       sodipodi:nodetypes="sssss" />
    <path
       style="fill:#2e3192;fill-opacity:1;fill-rule:nonzero;stroke:none"
       d="m 562.34388,599.15829 c -11.55014,3.65649 -19.48718,2.37623 -19.83251,-2.85955 -0.34533,-5.23578 -2.06761,-15.28797 9.48253,-18.94445 11.55015,-3.65647 24.60564,0.46736 24.95096,5.70312 0.34533,5.23581 -3.05082,12.4444 -14.60098,16.10088 z"
       id="path3792"
       inkscape:connector-curvature="0"
       sodipodi:nodetypes="sssss" />
    <path
       inkscape:connector-curvature="0"
       id="path3794"
       d="m 571.4433,569.11843 c -11.55014,1.77281 -25.17432,-5.06115 -25.51965,-10.35325 -0.34533,-5.2921 2.4821,-10.45063 14.03224,-12.22342 11.55015,-1.77277 25.29485,-2.90452 25.51968,6.37226 0.19736,8.14328 -2.48211,14.43163 -14.03227,16.20441 z"
       style="fill:#2e3192;fill-opacity:1;fill-rule:nonzero;stroke:none"
       sodipodi:nodetypes="sssss" />
    <path
       style="fill:#2e3192;fill-opacity:1;fill-rule:nonzero;stroke:none"
       d="m 566.46477,532.30003 c -8.88158,1.2741 -16.29679,-0.77629 -16.56233,-4.57967 -0.26555,-3.80337 6.71912,-5.07591 15.6007,-6.34999 8.88158,-1.27407 16.29681,-6.04826 16.56235,1.7361 0.12998,3.81044 -6.71913,7.91948 -15.60072,9.19356 z"
       id="path3796"
       inkscape:connector-curvature="0"
       sodipodi:nodetypes="sssss" />
    <path
       inkscape:connector-curvature="0"
       id="path3798"
       d="m 600.90358,686.47715 c -6.29367,9.81534 -12.96608,13.72178 -15.60477,10.82996 -2.63871,-2.89185 6.5801,-13.76174 12.87377,-23.57705 6.29368,-9.81535 7.27895,-14.85924 9.91764,-11.96741 2.63872,2.89185 -0.89296,14.89919 -7.18664,24.7145 z"
       style="fill:#2e3192;fill-opacity:1;fill-rule:nonzero;stroke:none"
       sodipodi:nodetypes="sssss" />
    <path
       style="fill:#2e3192;fill-opacity:1;fill-rule:nonzero;stroke:none"
       d="m 608.38766,650.87394 c -10.006,12.50394 -13.4614,18.67677 -16.46433,14.87502 -3.00295,-3.80177 2.97702,-19.55075 10.13946,-28.64237 7.16244,-9.09166 10.28468,-16.79225 13.28761,-12.99049 3.00296,3.80177 0.26875,17.72104 -6.96274,26.75784 z"
       id="path3800"
       inkscape:connector-curvature="0"
       sodipodi:nodetypes="sssss" />
    <path
       inkscape:connector-curvature="0"
       id="path3802"
       d="m 617.48205,610.30069 c -6.4524,11.07103 -5.74512,5.50655 -9.2164,3.22566 -3.47131,-2.28089 -1.30613,-7.26145 0.62676,-16.03518 1.93287,-8.77377 11.43224,-15.17471 14.90353,-12.89381 3.47132,2.28089 0.38659,14.20665 -6.31389,25.70333 z"
       style="fill:#2e3192;fill-opacity:1;fill-rule:nonzero;stroke:none"
       sodipodi:nodetypes="sssss" />
    <path
       style="fill:#2e3192;fill-opacity:1;fill-rule:nonzero;stroke:none"
       d="m 626.01275,572.32588 c -1.93287,4.21505 -6.31384,6.74371 -9.78512,5.64794 -3.47131,-1.09578 -4.71841,-5.40105 -2.78552,-9.61608 1.93287,-4.21506 2.33282,-4.46887 5.80411,-3.37309 3.47132,1.09577 8.69943,3.12619 6.76653,7.34123 z"
       id="path3804"
       inkscape:connector-curvature="0"
       sodipodi:nodetypes="sssss" />
    <path
       style="fill:#2e3192;fill-opacity:1;fill-rule:nonzero;stroke:none"
       d="m 613.4917,547.95293 c -6.47278,-6.2304 -17.20424,-7.02817 -13.44625,-8.79727 3.75801,-1.76913 18.30753,-1.56481 24.78028,4.66559 6.4728,6.2304 5.83,12.14659 2.07199,13.91571 -3.75802,1.76914 -6.93327,-3.55362 -13.40602,-9.78403 z"
       id="path3806"
       inkscape:connector-curvature="0"
       sodipodi:nodetypes="sssss" />
    <path
       sodipodi:nodetypes="sssss"
       inkscape:connector-curvature="0"
       id="path3808"
       d="m 585.20173,503.34745 c -1.30009,3.52007 -4.2468,5.6318 -6.58164,4.7167 -2.33486,-0.9151 -0.33011,-1.66695 0.96998,-5.187 1.30008,-3.52008 -1.27448,-6.57561 1.06037,-5.6605 2.33487,0.9151 5.85139,2.61074 4.55129,6.1308 z"
       style="fill:#2e3192;fill-opacity:1;fill-rule:nonzero;stroke:none" />
    <path
       style="fill:#2e3192;fill-opacity:1;fill-rule:nonzero;stroke:none"
       d="m 586.00601,657.66407 c -1.30009,3.52007 -5.38423,1.08209 -7.71907,0.16699 -2.33486,-0.9151 -3.17368,-4.51052 -1.87359,-8.03057 1.30008,-3.52008 1.56909,-3.73204 3.90394,-2.81693 2.33487,0.9151 6.98882,7.16045 5.68872,10.68051 z"
       id="path3810"
       inkscape:connector-curvature="0"
       sodipodi:nodetypes="sssss" />
    <path
       sodipodi:nodetypes="sssss"
       inkscape:connector-curvature="0"
       id="path3812"
       d="m 584.51369,635.28908 c -1.85379,3.52007 -6.05547,5.6318 -9.38469,4.7167 -3.32925,-0.9151 -4.52531,-4.51052 -2.67153,-8.03057 1.85377,-3.52008 1.66864,-7.71304 4.99787,-6.79793 3.32927,0.9151 8.91215,6.59174 7.05835,10.1118 z"
       style="fill:#2e3192;fill-opacity:1;fill-rule:nonzero;stroke:none" />
    <path
       style="fill:#2e3192;fill-opacity:1;fill-rule:nonzero;stroke:none"
       d="m 586.78855,600.11357 c -1.85379,5.08377 -6.05547,8.13359 -9.38469,6.81198 -3.32925,-1.32161 -2.25045,-5.37678 -0.39667,-10.46053 1.85377,-5.08379 5.64963,-5.38991 8.97886,-4.06829 3.32927,1.32162 2.6563,2.63307 0.8025,7.71684 z"
       id="path3814"
       inkscape:connector-curvature="0"
       sodipodi:nodetypes="sssss" />
    <path
       sodipodi:nodetypes="sssss"
       inkscape:connector-curvature="0"
       id="path3816"
       d="m 592.71373,566.95934 c 3.87956,3.77229 4.94232,8.85423 2.37376,11.3508 -2.56857,2.4966 -8.36452,7.14954 -12.24407,3.37726 -3.8796,-3.77229 -3.43318,-9.9347 -0.8646,-12.43128 2.56858,-2.49661 6.85534,-6.06909 10.73491,-2.29678 z"
       style="fill:#2e3192;fill-opacity:1;fill-rule:nonzero;stroke:none" />
    <path
       style="fill:#2e3192;fill-opacity:1;fill-rule:nonzero;stroke:none"
       d="m 589.30145,529.92789 c 3.87956,3.62282 6.64846,10.20955 4.0799,12.6072 -2.56857,2.39769 -7.79581,1.40447 -11.67536,-2.21836 -3.8796,-3.62282 -4.00189,-8.06026 -1.43331,-10.45793 2.56858,-2.39769 5.1492,-3.55376 9.02877,0.0691 z"
       id="path3818"
       inkscape:connector-curvature="0"
       sodipodi:nodetypes="sssss" />
    <path
       sodipodi:nodetypes="sssss"
       inkscape:connector-curvature="0"
       id="path3820"
       d="m 602.9104,519.86947 c 3.33635,2.72605 -0.86812,6.39853 -3.07703,8.20268 -2.20891,1.80418 -4.99809,1.05681 -8.33442,-1.66924 -3.33637,-2.72605 -1.7354,-7.05051 0.47352,-8.85467 2.20892,-1.80418 7.60159,-0.40484 10.93793,2.32123 z"
       style="fill:#2e3192;fill-opacity:1;fill-rule:nonzero;stroke:none" />
    <path
       sodipodi:nodetypes="sssss"
       style="fill:#2e3192;fill-opacity:1;fill-rule:nonzero;stroke:none"
       d="m 603.51973,622.84512 c -1.34562,4.92369 -5.05066,8.74659 -8.07114,9.30473 -3.02051,0.55814 0.18005,-5.90004 1.52568,-10.82373 1.34563,-4.9237 0.32678,-6.44841 3.34728,-7.00654 3.02052,-0.55815 4.54382,3.60185 3.19818,8.52554 z"
       id="path3822"
       inkscape:connector-curvature="0" />
    <path
       inkscape:connector-curvature="0"
       id="path3824"
       d="m 608.63816,588.15357 c -1.34562,4.92369 -5.05066,8.74659 -8.07114,9.30473 -3.02051,0.55814 0.18005,-5.90004 1.52568,-10.82373 1.34563,-4.9237 0.32678,-6.44841 3.34728,-7.00654 3.02052,-0.55815 4.54382,3.60185 3.19818,8.52554 z"
       style="fill:#2e3192;fill-opacity:1;fill-rule:nonzero;stroke:none"
       sodipodi:nodetypes="sssss" />
    <path
       style="fill:#2e3192;fill-opacity:1;fill-rule:nonzero;stroke:none"
       d="m 603.99604,547.07106 c 4.55858,5.11745 2.96379,15.99256 -0.0543,19.37938 -3.01814,3.38686 -6.31672,-1.99713 -10.87529,-7.11456 -4.55863,-5.11745 -1.29005,-9.17448 1.7281,-12.56131 3.01815,-3.38688 4.64293,-4.82099 9.20153,0.29649 z"
       id="path3826"
       inkscape:connector-curvature="0"
       sodipodi:nodetypes="sssss" />
    <path
       inkscape:connector-curvature="0"
       id="path3828"
       d="m 585.46241,612.5691 c 3.12812,2.33042 5.17964,6.74311 5.12754,9.81379 -0.0521,3.07072 -3.95153,-1.39082 -7.07966,-3.72125 -3.12812,-2.33044 -4.30037,-1.6473 -4.24826,-4.718 0.0521,-3.07073 3.07227,-3.70499 6.20038,-1.37454 z"
       style="fill:#2e3192;fill-opacity:1;fill-rule:nonzero;stroke:none"
       sodipodi:nodetypes="sssss" />
    <path
       sodipodi:nodetypes="sssss"
       style="fill:#2e3192;fill-opacity:1;fill-rule:nonzero;stroke:none"
       d="m 594.56183,600.62611 c 3.12812,2.33042 6.31707,2.76211 6.26497,5.83279 -0.0521,3.07072 -6.7951,6.00246 -9.92323,3.67203 -3.12812,-2.33044 -2.59423,-5.05958 -2.54212,-8.13028 0.0521,-3.07073 3.07227,-3.70499 6.20038,-1.37454 z"
       id="path3830"
       inkscape:connector-curvature="0" />
    <path
       sodipodi:nodetypes="csscc"
       inkscape:connector-curvature="0"
       id="path3832"
       d="m 648.2316,384.20377 c 4.55858,5.11745 -8.69831,7.94973 -13.7271,7.71727 -4.53168,-0.20947 -3.90388,-5.61639 -4.44103,-8.72312 -1.16764,-6.75322 -0.48577,-4.34878 2.53238,-7.73561 2.60493,-2.78446 12.90026,5.92773 15.63575,8.74146 z"
       style="fill:#2e3192;fill-opacity:1;fill-rule:nonzero;stroke:none" />
    <path
       style="fill:#2e3192;fill-opacity:1;fill-rule:nonzero;stroke:none"
       d="m 644.21019,364.49884 c 4.55858,5.11745 2.15951,6.7433 -2.86928,6.51084 -4.53168,-0.20947 -11.14243,2.82858 -11.67958,-0.27815 -1.16764,-6.75322 -1.69219,-3.5445 1.32596,-6.93133 2.60493,-2.78446 10.48741,-2.11509 13.2229,0.69864 z"
       id="path3834"
       inkscape:connector-curvature="0"
       sodipodi:nodetypes="csscc" />
    <path
       style="fill:#2e3192;fill-opacity:1;fill-rule:nonzero;stroke:none"
       d="m 622.89669,374.15024 c 4.55858,5.11745 0.95308,8.35187 -4.07571,8.11941 -4.53168,-0.20947 -3.90388,-5.61639 -4.44103,-8.72312 -1.16764,-6.75322 0.72065,-2.33807 3.7388,-5.7249 2.60493,-2.78446 2.04245,3.51488 4.77794,6.32861 z"
       id="path3836"
       inkscape:connector-curvature="0"
       sodipodi:nodetypes="csscc" />
    <path
       sodipodi:nodetypes="sssss"
       inkscape:connector-curvature="0"
       id="path3838"
       d="m 627.50489,394.40622 c 3.87956,3.62282 4.23561,6.18814 1.66705,8.58579 -2.56857,2.39769 -5.38296,5.42588 -9.26251,1.80305 -3.8796,-3.62282 -4.00189,-8.06026 -1.43331,-10.45793 2.56858,-2.39769 5.1492,-3.55376 9.02877,0.0691 z"
       style="fill:#2e3192;fill-opacity:1;fill-rule:nonzero;stroke:none" />
    <path
       style="fill:#2e3192;fill-opacity:1;fill-rule:nonzero;stroke:none"
       d="m 658.77732,388.9055 c 3.99039,3.82552 3.55233,9.75151 0.9104,12.28331 -2.64195,2.53184 -5.53674,5.72947 -9.52712,1.90393 -3.99043,-3.82552 -1.70336,-7.30482 0.9386,-9.83664 4.68317,-2.80699 5.1509,-6.68326 7.67812,-4.3506 z"
       id="path3842"
       inkscape:connector-curvature="0"
       sodipodi:nodetypes="csscc" />
    <path
       sodipodi:nodetypes="sssss"
       inkscape:connector-curvature="0"
       id="path3844"
       d="m 637.12238,405.36183 c 2.92453,-3.69597 4.7296,-3.86812 6.09417,-1.06228 1.3646,2.80586 3.13579,5.91025 0.21125,9.60621 -2.92453,3.69602 -5.99203,3.48907 -7.3566,0.6832 -1.36461,-2.80586 -1.87336,-5.53115 1.05126,-9.22712 z"
       style="fill:#2e3192;fill-opacity:1;fill-rule:nonzero;stroke:none" />
    <path
       sodipodi:nodetypes="sssss"
       inkscape:connector-curvature="0"
       id="path3846"
       d="m 659.93623,371.97961 c 3.10377,2.50796 3.38861,4.28385 1.3337,5.94367 -2.05493,1.65984 -4.30653,3.75616 -7.41028,1.24819 -3.10379,-2.50796 -3.20162,-5.57986 -1.14668,-7.23968 2.05493,-1.65985 4.1195,-2.46016 7.22326,0.0478 z"
       style="fill:#2e3192;fill-opacity:1;fill-rule:nonzero;stroke:none" />
    <path
       style="fill:#2e3192;fill-opacity:1;fill-rule:nonzero;stroke:none"
       d="m 698.13967,366.34963 c 3.10377,2.50796 6.60574,3.47957 4.55083,5.13939 -2.05493,1.65984 -6.31724,2.95187 -9.42099,0.4439 -3.10379,-2.50796 -5.61446,-5.982 -3.55952,-7.64182 2.05493,-1.65985 5.32592,-0.44945 8.42968,2.05851 z"
       id="path3848"
       inkscape:connector-curvature="0"
       sodipodi:nodetypes="cssssc" />
    <path
       style="fill:#2e3192;fill-opacity:1;fill-rule:nonzero;stroke:none"
       d="m 707.49714,380.4546 c 2.92453,-0.60082 4.7296,0.30813 6.09417,2.77682 1.3646,2.46872 3.13579,5.34684 0.21125,5.94764 -2.92453,0.60085 -5.99203,-1.24689 -7.3566,-3.71558 -1.36461,-2.46873 -1.87336,-4.40806 1.05126,-5.00883 z"
       id="path3850"
       inkscape:connector-curvature="0"
       sodipodi:nodetypes="sssss" />
    <path
       style="fill:#2e3192;fill-opacity:1;fill-rule:nonzero;stroke:none"
       d="m 670.90226,409.78539 c 2.92453,-3.69597 4.7296,-3.86812 6.09417,-1.06228 1.3646,2.80586 3.13579,5.91025 0.21125,9.60621 -2.92453,3.69602 -8.00274,12.73832 -9.36731,9.93245 -0.21281,-5.87056 -0.24099,-13.88225 3.06189,-18.47638 z"
       id="path3852"
       inkscape:connector-curvature="0"
       sodipodi:nodetypes="csscc" />
    <path
       sodipodi:nodetypes="csscc"
       inkscape:connector-curvature="0"
       id="path3854"
       d="m 694.34627,405.44478 c 3.63322,-3.00212 9.85791,-6.41199 10.6051,-3.38272 0.74721,3.0293 -1.5906,5.52397 -4.21654,9.43772 -3.63323,5.41503 -10.49125,10.78157 -11.23843,7.75227 -0.9903,-4.57869 1.46302,-10.00604 4.84987,-13.80727 z"
       style="fill:#2e3192;fill-opacity:1;fill-rule:nonzero;stroke:none" />
    <path
       style="fill:#2e3192;fill-opacity:1;fill-rule:nonzero;stroke:none"
       d="m 667.74235,367.24723 c 2.4388,1.3931 2.66261,2.37956 1.04796,3.30154 -1.61466,0.922 -3.38386,2.08645 -5.82264,0.69334 -2.43882,-1.3931 -2.51569,-3.09946 -0.90101,-4.02144 1.61467,-0.922 3.23691,-1.36655 5.67569,0.0265 z"
       id="path3856"
       inkscape:connector-curvature="0"
       sodipodi:nodetypes="sssss" />
    <path
       sodipodi:nodetypes="sssss"
       inkscape:connector-curvature="0"
       id="path3858"
       d="m 682.97622,367.24723 c 1.55216,1.3931 1.69461,2.37956 0.66697,3.30154 -1.02765,0.922 -2.15365,2.08645 -3.7058,0.69334 -1.55218,-1.3931 -1.6011,-3.09946 -0.57344,-4.02144 1.02765,-0.922 2.06012,-1.36655 3.61227,0.0265 z"
       style="fill:#2e3192;fill-opacity:1;fill-rule:nonzero;stroke:none" />
    <path
       style="fill:#2e3192;fill-opacity:1;fill-rule:nonzero;stroke:none"
       d="m 653.87986,358.06697 c 1.55216,1.3931 0.84154,3.09045 -0.1861,4.01243 -1.02765,0.922 -2.01147,1.37556 -3.56362,-0.0176 -1.55218,-1.3931 -1.45892,-2.38857 -0.43126,-3.31055 1.82624,-0.82866 3.10936,-1.61037 4.18098,-0.68433 z"
       id="path3860"
       inkscape:connector-curvature="0"
       sodipodi:nodetypes="csscc" />
    <path
       sodipodi:nodetypes="csscc"
       inkscape:connector-curvature="0"
       id="path3862"
       d="m 662.86915,357.19369 c 1.55216,1.3931 1.69461,2.37956 0.66697,3.30154 -1.02765,0.922 -1.44276,1.0912 -2.99491,-0.30191 -1.55218,-1.3931 -2.31199,-2.10421 -1.28433,-3.02619 1.82624,-0.82866 2.54065,-0.89948 3.61227,0.0266 z"
       style="fill:#2e3192;fill-opacity:1;fill-rule:nonzero;stroke:none" />
    <path
       style="fill:#2e3192;fill-opacity:1;fill-rule:nonzero;stroke:none"
       d="m 670.57883,356.69816 c 1.55216,1.3931 1.83679,1.24213 0.80915,2.16411 -1.02765,0.922 -1.1584,2.51299 -2.71055,1.11988 -1.55218,-1.3931 -1.6011,-3.09946 -0.57344,-4.02144 1.82624,-0.82866 1.40322,-0.18859 2.47484,0.73745 z"
       id="path3864"
       inkscape:connector-curvature="0"
       sodipodi:nodetypes="csscc" />
    <path
       style="fill:#2e3192;fill-opacity:1;fill-rule:nonzero;stroke:none"
       d="m 650.39657,422.98646 c 4.36236,-1.78406 6.01943,-1.04783 5.83068,2.06652 -0.18873,3.11438 -2.18053,6.68846 -4.53218,8.4725 -3.75488,2.84857 -7.73742,1.30422 -7.54866,-1.81015 1.30209,-4.51878 3.02515,-7.32249 6.25016,-8.72887 z"
       id="path3866"
       inkscape:connector-curvature="0"
       sodipodi:nodetypes="csscc" />
    <path
       d="m 184.14948,542.75858 c 4.12161,-6.163 2.68539,-22.75767 0.46745,-27.921 -2.66415,-6.20214 -18.42852,-13.4094 -25.28836,-15.14674 -5.82871,-1.47619 -11.39236,12.92753 -16.64201,16.87732 -12.77608,9.61264 34.55925,36.51339 41.46292,26.19042 z"
       id="path3868"
       inkscape:connector-curvature="0"
       style="fill:#006837"
       sodipodi:nodetypes="sssss" />
    <path
       sodipodi:nodetypes="sssss"
       style="fill:#006837"
       inkscape:connector-curvature="0"
       id="path3870"
       d="m 236.42787,561.25709 c 4.12161,-6.163 -3.74887,-14.71485 -5.96681,-19.87818 -2.66415,-6.20214 -21.64566,-9.38798 -28.5055,-11.12532 -5.82871,-1.47619 -1.74096,12.92752 -6.99061,16.87731 -12.77608,9.61264 34.55925,24.44916 41.46292,14.12619 z" />
    <path
       d="m 280.66343,569.29992 c 4.12161,-6.163 -12.59598,-20.34483 -14.81392,-25.50816 -2.66415,-6.20214 -7.97285,-3.758 -14.83269,-5.49534 -5.82871,-1.47619 -2.39006,12.8626 -2.16491,23.31158 0.20364,9.45117 24.90785,18.01489 31.81152,7.69192 z"
       id="path3872"
       inkscape:connector-curvature="0"
       style="fill:#006837"
       sodipodi:nodetypes="sssss" />
    <path
       d="m 197.2028,503.23028 c 4.41591,-3.52494 -5.43623,-9.39251 -6.05557,-13.42437 -0.74393,-4.84302 -8.90995,-12.28948 -13.77435,-14.80897 -4.13322,-2.14077 -10.43867,8.70723 -15.25512,10.47022 -11.7218,4.2906 27.68842,23.66735 35.08504,17.76312 z"
       id="path3874"
       inkscape:connector-curvature="0"
       style="fill:#006837"
       sodipodi:nodetypes="sssss" />
    <path
       sodipodi:nodetypes="sssss"
       style="fill:#006837"
       inkscape:connector-curvature="0"
       id="path3876"
       d="m 217.90905,483.97642 c 5.03309,-1.44188 -2.05736,-11.91615 -1.36455,-14.98201 0.8322,-3.68267 0.77084,-12.14882 -2.79495,-15.18328 -3.02979,-2.57832 -13.50559,6.89504 -18.35192,6.96467 -11.79454,0.16944 14.08101,25.61574 22.51142,23.20062 z" />
    <path
       d="m 495.66573,401.91899 c -2.69563,8.99091 -10.63767,17.68573 -1.34816,23.60169 7.12785,4.55586 26.76319,0.38809 28.90046,-6.40415 2.77967,-8.8338 -6.97402,-30.14112 -18.51286,-29.8726 -4.66699,0.10861 -9.03944,12.67506 -9.03944,12.67506 z"
       id="path3878"
       inkscape:connector-curvature="0"
       style="fill:#006837"
       sodipodi:nodetypes="ccssc" />
    <path
       d="m 497.39252,441.27195 c 7.16722,7.92098 11.91256,5.87675 20.84554,8.00204 8.37226,2.00081 15.62311,14.63954 19.90708,7.36339 7.65587,-13.0032 0.76467,-31.45884 -12.26648,-30.91352 -8.51903,0.35657 -33.47991,10.02914 -28.48614,15.54809 z"
       id="path3880"
       inkscape:connector-curvature="0"
       style="fill:#006837"
       sodipodi:nodetypes="scscs" />
    <path
       sodipodi:nodetypes="scsss"
       style="fill:#006837"
       inkscape:connector-curvature="0"
       id="path3882"
       d="m 410.3888,392.03853 c 5.97575,7.23832 -4.07736,22.59512 6.00397,18.16111 7.74916,-3.39302 10.2411,-26.09373 5.78273,-31.64579 -5.79844,-7.22085 -22.49824,-7.7389 -28.68871,2.00251 -2.50379,3.94 12.53778,6.19586 16.90201,11.48217 z" />
    <path
       sodipodi:nodetypes="ccssc"
       style="fill:#006837"
       inkscape:connector-curvature="0"
       id="path3884"
       d="m 468.64258,391.83557 c 5.05738,7.90733 4.51471,18.18608 9.42795,16.61123 3.27665,-2.43185 -1.39379,-23.19239 3.69846,-32.4596 4.45978,-8.11622 -13.72214,-5.82607 -17.02467,-1.42813 -3.72753,4.96394 3.89826,17.2765 3.89826,17.2765 z" />
    <path
       d="m 459.38789,479.69506 c -0.59297,-9.36756 13.14904,-17.66036 2.38358,-19.98382 -8.26609,-1.7983 -20.07975,15.65521 -19.72635,22.767 0.45962,9.24939 13.6798,17.05311 21.99507,18.42583 4.60592,0.76037 -4.21924,-14.36766 -4.6523,-21.20901 z"
       id="path3886"
       inkscape:connector-curvature="0"
       style="fill:#006837"
       sodipodi:nodetypes="scsss" />
    <path
       d="m 508.88074,509.26208 c -0.45014,9.37552 4.19044,5.17755 11.1301,-3.37433 5.34124,-6.55996 3.86202,-19.54215 -2.64119,-22.44229 -8.45789,-3.77183 -19.29408,-13.21313 -20.34713,-1.71931 -0.42591,4.64879 12.31789,17.96229 11.85822,27.53593 z"
       id="path3888"
       inkscape:connector-curvature="0"
       style="fill:#006837"
       sodipodi:nodetypes="scsss" />
    <path
       sodipodi:nodetypes="scsss"
       style="fill:#006837"
       inkscape:connector-curvature="0"
       id="path3890"
       d="m 528.04575,477.51768 c 3.3268,6.04304 4.61827,1.62969 5.67422,-6.39395 0.82125,-6.16168 -5.10258,-13.72065 -10.2932,-13.03484 -6.75075,0.89194 -24.41237,-9.69797 -20.64792,-2.09678 1.52258,3.07438 21.8698,15.35483 25.2669,21.52557 z" />
    <path
       sodipodi:nodetypes="sssss"
       style="fill:#006837"
       inkscape:connector-curvature="0"
       id="path3892"
       d="m 165.65097,578.14702 c 4.12161,-6.163 5.90253,-10.69342 3.68459,-15.85675 -2.66415,-6.20214 -32.10134,-22.25652 -38.96118,-23.99386 -5.82871,-1.47619 -24.58806,16.75501 -18.25057,18.48589 23.41665,6.39551 46.62349,31.68769 53.52716,21.36472 z" />
    <path
       d="m 222.89897,594.35916 c -0.18199,-6.67133 -1.02392,-11.25828 -4.39194,-15.40739 -4.04564,-4.98388 -24.8861,-9.74789 -29.48585,-9.5915 -3.90835,0.13288 -14.11607,16.13812 -10.03114,17.48433 11.87026,3.91192 44.21378,18.68896 43.90893,7.51456 z"
       id="path3894"
       inkscape:connector-curvature="0"
       style="fill:#006837"
       sodipodi:nodetypes="sssss" />
    <path
       sodipodi:nodetypes="sssss"
       style="fill:#006837"
       inkscape:connector-curvature="0"
       id="path3896"
       d="m 288.85017,604.81483 c -0.18199,-6.67133 -6.6539,-6.43258 -15.6519,-6.56027 -6.41857,-0.0911 -19.25612,-6.53076 -23.85587,-6.37437 -3.90835,0.13288 -9.29037,9.70385 -5.20544,11.05006 11.87026,3.91192 45.01806,13.05898 44.71321,1.88458 z" />
    <path
       sodipodi:nodetypes="sssss"
       style="fill:#006837"
       inkscape:connector-curvature="0"
       id="path3898"
       d="m 133.05675,492.84778 c -6.46281,-1.66491 -6.27836,-2.92492 -11.19542,-0.83178 -5.90632,2.51427 -20.25446,27.66695 -19.76411,36.95715 0.20612,3.90518 18.05355,-6.91349 20.47411,-10.46874 7.03384,-10.33108 21.31054,-22.86794 10.48542,-25.65663 z" />
    <path
       d="m 134.29264,480.46394 c 3.13822,2.65297 5.4037,-0.78803 8.76503,-5.38285 2.39776,-3.27763 10.0743,-7.25655 11.69055,-9.69669 1.37331,-2.07334 -1.0577,-8.79402 -3.17678,-7.2385 -6.15778,4.52014 -22.53528,17.87436 -17.2788,22.31804 z"
       id="path3900"
       inkscape:connector-curvature="0"
       style="fill:#006837"
       sodipodi:nodetypes="sssss" />
    <path
       sodipodi:nodetypes="sssss"
       style="fill:#006837"
       inkscape:connector-curvature="0"
       id="path3902"
       d="m 213.90214,421.69382 c 3.96871,5.36555 6.48086,5.42717 11.61773,6.9007 6.17036,1.76999 24.37614,-11.08143 28.05788,-13.84313 3.12833,-2.34657 4.74696,-13.27041 0.62704,-12.03542 -11.97195,3.58868 -46.95021,9.99064 -40.30265,18.97785 z" />
    <path
       sodipodi:nodetypes="sssss"
       style="fill:#006837"
       inkscape:connector-curvature="0"
       id="path3904"
       d="m 321.06095,574.65389 c -3.77392,-1.62611 -6.54982,7.95485 -8.43026,13.32838 -1.3414,3.83311 -8.33401,5.85038 -9.17111,8.65499 -0.71127,2.38302 3.56847,8.10676 5.14384,6.00239 4.57783,-6.11501 18.77879,-25.26206 12.45753,-27.98576 z" />
    <path
       sodipodi:nodetypes="sssss"
       style="fill:#006837"
       inkscape:connector-curvature="0"
       id="path3906"
       d="m 523.34955,363.5905 c -3.42752,5.72641 -8.39651,10.04845 -7.78202,15.35703 0.73811,6.37664 18.1772,28.01723 22.14205,30.35436 3.36887,1.98583 22.06086,-3.85211 20.26164,-7.75873 -6.30675,-13.69376 -28.88063,-47.54436 -34.62167,-37.95266 z" />
    <path
       sodipodi:nodetypes="sssss"
       style="fill:#006837"
       inkscape:connector-curvature="0"
       id="path3908"
       d="m 553.44853,450.78174 c 0.95806,5.72638 8.75283,7.51751 12.49934,-3.19116 2.08287,-5.95348 1.38932,-22.98169 -7.1487,-31.589 -2.58947,-2.61047 -16.20692,1.70284 -15.33971,5.86573 2.51997,12.09679 8.21892,18.33422 9.98907,28.91443 z" />
    <path
       sodipodi:nodetypes="sssss"
       style="fill:#006837"
       inkscape:connector-curvature="0"
       id="path3910"
       d="m 542.55714,498.34336 c 6.47339,0.62188 10.8905,0.50095 14.76322,-1.60287 4.65188,-2.5271 8.29915,-17.93061 7.9306,-21.46814 -0.31318,-3.00582 -16.34487,-12.64274 -17.46049,-9.67056 -3.24185,8.63676 -16.07616,31.69999 -5.23329,32.74159 z" />
  </g>
  <g
     inkscape:groupmode="layer"
     id="layer4"
     inkscape:label="outline"
     style="display:inline"
     transform="translate(-39.35489,-338.5651)">
    <path
       id="path3311"
       style="color:#000000;font-style:normal;font-variant:normal;font-weight:normal;font-stretch:normal;font-size:medium;line-height:normal;font-family:Sans;-inkscape-font-specification:Sans;text-indent:0;text-align:start;text-decoration:none;text-decoration-line:none;letter-spacing:normal;word-spacing:normal;text-transform:none;writing-mode:lr-tb;direction:ltr;baseline-shift:baseline;text-anchor:start;display:inline;overflow:visible;visibility:visible;fill:#000000;fill-opacity:1;stroke:none;stroke-width:0.45493;marker:none;enable-background:accumulate"
       d="m 687.11862,381.2565 c -3.52566,-2.50032 -7.13347,-4.04714 -10.5077,-4.42019 -3.37422,-0.37304 -6.2345,0.45224 -7.9726,2.90311 -1.7381,2.45086 -1.8401,5.51827 -0.37214,8.57924 1.46801,3.06096 3.71886,6.75844 7.24452,9.25876 3.52565,2.50032 7.5356,3.24286 10.90983,3.61591 3.37422,0.37304 6.63664,-0.45224 8.37474,-2.90311 1.7381,-2.45086 1.43796,-5.51827 -0.03,-8.57924 -1.46801,-3.06096 -4.121,-5.95417 -7.64665,-8.45448 z m -1.66894,1.50027 c 3.15859,2.24 5.40126,4.9748 6.58919,7.45192 1.18794,2.47712 1.2964,4.58427 0.40311,5.84388 -0.89329,1.25962 -2.91774,1.85416 -5.64834,1.55233 -2.73061,-0.30182 -6.05323,-1.51381 -9.21182,-3.75381 -3.15858,-2.24 -5.40125,-4.9748 -6.58919,-7.45192 -1.18793,-2.47712 -1.2964,-4.58427 -0.40311,-5.84388 0.8933,-1.25962 2.91774,-1.85416 5.64835,-1.55233 2.7306,0.30182 6.05322,1.51381 9.21181,3.75381 z m -227.62604,-38.2761 c -25.17503,0.77559 -84.88388,4.38306 -93.28125,13.84375 -2.3853,2.46234 -3.02291,4.54946 -4.03125,7.39693 -1.83903,6.48078 -2.25583,14.6415 -2.0625,22.6875 0.36023,14.99245 2.77362,28.50653 3.125,30.4375 l -1.08964,0.21875 c -2.96597,-4.81447 -6.55011,-9.06807 -11.39679,-11.14679 -3.36912,-1.31943 -7.18396,-1.29944 -10.26357,-0.125 -5.95511,2.52754 -7.77805,7.21154 -7.38322,13.08429 0.14083,1.90536 -0.29174,4.28932 0.13322,5.75946 -20.50861,-11.17677 -41.10084,-22.20091 -61.59375,-33.40625 -53.11251,12.28525 -97.40162,38.92971 -130.5625,70.3125 -15.06475,14.5494 -27.05955,29.32859 -34.62089,43.17393 -1.02935,0.19334 -15.776758,2.98709 -30.781251,6.71875 -7.772433,1.93303 -15.519474,4.10345 -21.34375,6.28125 -2.912138,1.0889 -5.345691,2.18027 -7.125001,3.3125 -1.56853,1.02914 -3.256339,2.18407 -3.0625,4.00411 0.487055,1.87419 2.425948,4.26281 3.995892,4.845 1.76789,0.64642 4.030789,1.05016 6.6875,1.34375 5.313423,0.58717 12.17182,0.6618 19,0.5 9.614868,-0.22783 17.178464,-0.89781 21.981358,-1.28125 -1.292367,4.64177 -1.152529,8.0701 -0.21875,11.96745 2.155905,8.66348 12.965262,17.45091 27.631212,25.56872 2.78743,1.54288 4.92488,2.7907 8.02193,4.30939 -8.54447,8.31106 -20.98845,19.48393 -33.10325,30.87189 -6.543062,6.1505 -12.415971,12.29924 -16.34375,18.03125 -3.927779,5.73201 -8.089161,11.2056 -6.365499,16 2.699155,7.50773 0.849103,17.4482 -0.78125,26.84375 -0.815177,4.69778 -2.388714,10.96005 -2.353071,15.11239 0.03564,4.15234 0.852526,7.96465 3.375,10.875 4.141567,4.77446 7.529968,12.73395 11.09375,20.3125 3.563782,7.57855 9.249564,16.5774 14.928,20.04989 5.27567,3.21746 10.54829,5.42195 15.47807,4.54368 4.92978,-0.87827 12.27017,-4.64082 20.2405,-8.48118 16.33232,-7.85516 24.46362,-23.43017 33.25,-43.43732 4.32233,-9.84221 13.7864,-27.99623 22,-44.8125 4.1068,-8.40814 7.90975,-16.49514 10.625,-23.09375 1.35763,-3.29931 2.4344,-6.21329 3.15625,-8.65625 0.72185,-2.44296 1.14475,-3.53709 0.9375,-5.16447 14.41017,4.17253 61.5407,15.5546 86.5095,16.19582 6.95722,0.10486 16.5158,-2.94123 21.71374,-7.25621 5.19794,-4.31498 8.70625,-12.7842 12.35196,-20.0626 7.29143,-14.55681 10.64417,-33.80274 13.61979,-53.0625 5.79278,-37.49386 4.99564,-72.67262 4.96565,-74.64382 l 2.0645,-0.34065 c 0.47781,1.41841 1.62164,2.8762 3.12811,4.83754 2.57421,3.35148 7.36735,7.06743 14.28125,4.99178 3.58325,-1.07574 6.52987,-4.26641 7.75621,-7.24178 0.95895,-2.32662 0.99338,-5.281 0.9344,-8.09686 l 2.56761,-0.65625 c 1.32222,3.04624 3.0436,5.45238 4.75411,7.90004 3.24871,4.63921 6.91579,10.54867 12.42818,17.09375 11.02478,13.09017 28.08736,30.94138 44.99699,43.81981 16.90963,12.87843 35.71567,23.57523 54.40625,25.61368 18.13927,1.97832 35.74124,-4.43481 51.09786,-22.76993 0.77529,1.87074 1.71536,2.34734 1.90214,5.61769 0.25569,4.4768 -0.0296,9.99775 -0.5625,15.90625 -1.06581,11.81699 -3.1244,25.21783 -3.6875,35.75 -0.29936,5.61124 -0.0135,17.86254 2.29358,34.125 2.30704,16.26246 4.65979,36.36832 7.75821,57 6.19684,41.26337 13.36308,89.27169 11.64804,108.57159 13.44366,0.0986 24.03268,-29.3248 27.5798,-37.91532 8.28626,-19.93111 16.58956,-46.76386 24.63322,-75.09375 8.04366,-28.32989 13.41905,-58.15049 17.39143,-84.125 3.97238,-25.97451 4.23232,-47.9915 0.10197,-61.1875 -14.45563,-46.15365 -52.34194,-54.23459 -60.14382,-55.34686 1.09366,-4.92775 1.52511,-8.07532 1.93439,-12.85636 9.23131,-0.2737 13.63857,-1.52496 18.16996,-4.04157 4.5081,-2.50368 7.91548,-5.00935 17.98108,-10.83529 36.75368,7.37353 66.61847,-4.09504 85.51892,-17.89689 9.50776,-6.94294 15.76157,-14.69489 20.22697,-22.01768 4.4654,-7.32279 6.4542,-14.96949 5.28125,-19.81785 -2.1237,-8.77823 -8.86223,-13.39311 -16.3125,-17.24379 -7.45027,-3.85068 -15.74129,-6.55769 -21.625,-10.3125 -3.68347,-2.35398 -9.76997,-2.84792 -17.34375,-2.6875 -7.57378,0.16042 -16.59978,1.12217 -25.75,2.40625 -18.30044,2.56816 -37.15413,6.39855 -45.3125,7.4375 -8.70971,1.10917 -17.16416,5.52957 -25.34375,8.65625 -7.19144,2.74896 -14.04761,3.8869 -20.65625,1.93129 -7.11379,-9.89569 -14.43918,-16.3636 -20.0625,-20.3032 -6.08072,-4.26164 -16.1018,-6.97622 -28.5,-8.6875 -13.31815,-1.79927 -34.35103,-2.41971 -42.59375,-2.1562 z m 42.18755,4.27193 c 12.18025,1.6812 21.88337,4.46078 27.15625,8.15625 6.11462,4.09389 15.29089,13.18782 18.39387,18.97697 0,0 9.38029,13.72333 16.47621,30.83739 5.02934,12.12986 6.35335,26.70296 8.59862,38.12314 0.39377,9.60333 -0.43664,19.63226 -2.96875,29.96875 -4.54971,17.34577 -14.41629,35.91958 -24.9375,49 -15.22259,18.92538 -32.39934,24.75594 -50.21875,22.8125 -14.13472,-1.54158 -28.63921,-8.07337 -42.34375,-17.03125 4.86081,-3.52792 11.28206,-8.15843 15.4375,-16.3125 -6.62208,5.56051 -13.48496,11.66838 -17.96875,14.65625 -2.72044,-1.8496 -5.38968,-3.80068 -8.03125,-5.8125 -16.66082,-12.68897 -31.55234,-28.1635 -42.46875,-41.125 -5.45821,-6.48075 -9.90651,-12.32358 -13.09375,-16.875 -1.4298,-2.13275 -2.98371,-4.29993 -4.125,-6.375 4.02915,-1.36388 8.01122,-3.57672 11.15625,-6.28125 -7.54354,1.44127 -13.39195,3.61373 -18.5,1.95393 -0.74853,-7.23804 -3.42181,-13.63519 -5.28125,-19.82893 -1.133,-3.774 -2.7868,-7.9242 -4.875,-11.84375 0.85833,-0.25779 1.71025,-0.53552 2.5625,-0.8125 -1.10566,-6.50609 -1.90307,-11.8279 -2.46875,-17 6.65077,-1.28666 15.35716,0.15602 17.875,-3.75 -7.02317,1.61555 -11.86385,0.48525 -18.1875,0.78125 -0.37467,-3.99068 -0.64546,-8.27431 -0.75,-12.625 0.26907,-7.52237 0.22302,-15.38321 2.03125,-22 3.37775,3.40677 7.98753,5.35797 13.03125,5.75 -4.67254,-2.86833 -7.43785,-3.64082 -11.875,-8.9375 0.64248,-1.47581 1.37922,-2.77271 2.21875,-3.78125 1.4352,-1.72413 3.1522,-2.41444 5.25,-3 27.8,-7.75992 59.42963,-9.19502 85.75,-9.75 14.10945,0.012 29.32752,0.40245 42.1563,2.125 z m -41.09375,1.15625 c 0.19137,6.11093 -2.73158,8.34792 0.875,10.8125 0.91418,-5.25881 3.64582,-8.77847 -0.875,-10.8125 z m -45.96875,3.9375 c -0.50411,2.74621 -0.35386,7.52024 2.375,8.59375 -0.69191,-5.141 -0.65018,-7.64293 -2.375,-8.59375 z m 268.8125,6 c 6.39508,4.08115 14.73406,6.7467 21.875,10.4375 7.14094,3.6908 12.93278,8.20314 14.78125,15.84375 0.81313,3.36106 -0.7031,9.61854 -4.9375,16.5625 -4.2344,6.94396 -11.05191,14.62695 -20.25,21.34375 -27.15373,16.44051 -55.1158,22.81925 -83.125,15.4688 -7.11903,3.51316 -13.53831,8.94792 -20.03125,12.625 -3.88115,2.15549 -7.78106,3.01486 -15.625,3.34375 -0.66105,-12.90569 -2.10699,-26.87986 -5.40625,-38.75 -4.18108,-14.48588 -10.65566,-27.19042 -17.5625,-37.5 6.43782,0.90286 12.91935,-0.87325 19.21875,-3.28125 8.40635,-3.21336 16.71792,-7.48907 24.65625,-8.5 8.48968,-1.08115 27.16778,-4.88681 45.34375,-7.4375 9.08799,-1.27535 18.04067,-2.21898 25.40625,-2.375 5.00197,0.25343 11.37636,-0.35628 15.65625,2.2187 z m -169.7188,18.3125 c 0.49482,-7.10349 2.90493,-16.47483 7.99525,-19.7405 -6.8381,-3.45744 -11.70126,13.93452 -7.99525,19.7405 z m -62.625,-14.3125 c -3.26322,0.0386 -6.52993,0.14532 -9.78125,0.28125 -13.00529,0.54374 -25.62184,1.81089 -35.46875,3.34375 -4.92346,0.76643 -9.17673,1.57898 -12.4375,2.4375 -3.26077,0.85852 -5.44463,1.54922 -6.84375,2.84375 -1.95824,1.81186 -3.09099,4.02188 -3.53125,6.5 -0.44026,2.47812 -0.251,5.2129 0.21875,8.34375 0.93951,6.2617 3.06187,14.22915 4.4375,25.03125 3.25193,-2.26504 -0.59075,-19.81938 -1.46875,-25.46875 -0.44778,-2.98439 -0.59637,-5.42539 -0.25,-7.375 0.34637,-1.94961 1.11325,-3.41375 2.625,-4.8125 0.33588,-0.31077 2.48932,-1.33889 5.59375,-2.15625 3.10443,-0.81736 7.2396,-1.61936 12.09375,-2.375 9.7083,-1.51129 22.26343,-2.77346 35.15625,-3.3125 12.89282,-0.53904 26.15458,-0.35342 37.28125,0.96875 11.12667,1.32217 20.10732,3.89362 24.28125,7.5625 9.13397,8.02879 20.75442,23.13401 29.6875,38.21875 4.46654,7.54237 8.2799,15.0944 10.8125,21.75 2.5326,6.6556 3.72343,12.44552 3.21875,16.1875 -0.3578,5.2088 -2.00946,10.03909 -2.8125,13.625 -2.30006,9.06808 -5.83116,20.2851 -10.375,30.3125 -3.68697,8.13646 -8.07112,15.46946 -12.84375,20.25 -16.45272,18.05317 -62.7452,-9.81067 -78.53125,-24.53125 -19.0535,-15.60288 -34.25345,-33.01303 -40.125,-40.46875 1.31608,10.99259 36.34393,41.22835 38.21875,42.78125 19.29346,15.79939 42.58328,29.98318 64.875,30.5625 1.0362,0.26815 2.04942,0.41926 3.0625,0.46875 5.00215,6.6536 6.23896,13.32679 8.1875,17.9062 0.15681,-6.4282 -1.72676,-12.94183 -4.78125,-18.125 4.05186,-0.73646 7.85502,-3.09945 11.21875,-6.46875 3.90458,-3.91105 7.37921,-9.16397 10.46875,-15.0625 3.83876,2.56467 11.6662,6.18842 16.1875,4.0625 -6.44547,-1.91081 -10.97125,-3.37679 -14.8125,-6.84375 5.41306,-11.53293 9.84219,-24.62195 12.6875,-36.28125 6.72112,-1.67177 13.09981,-1.50324 20.3125,0.28125 -5.3676,-4.39779 -13.39794,-4.82519 -19.53125,-3.59375 0.7423,-3.36445 1.26496,-6.26262 1.5625,-8.46875 0.63559,-4.71269 -0.78676,-10.7723 -3.40625,-17.65625 -1.67967,-4.41412 -3.8818,-9.17901 -6.4375,-14.03125 4.34059,-3.64961 9.16363,-6.28977 16.84375,-8 -8.21817,-1.17707 -15.07377,2.7251 -18.28125,5.3438 -1.01165,-1.8435 -2.05951,-3.67925 -3.15625,-5.53125 -9.06506,-15.30762 -20.67028,-30.5169 -30.25,-38.9375 -5.18293,-4.5558 -14.56552,-6.96118 -25.9375,-8.3125 -5.68599,-0.67566 -11.8584,-1.04399 -18.25,-1.1875 -3.1958,-0.0717 -6.45553,-0.10115 -9.71875,-0.0625 z m -179.8125,31.96875 64.22821,34.87089 c 3.01988,-0.41871 8.04752,-6.5002 13.66447,-4.18339 2.90772,2.27808 6.53881,7.57292 8.66982,13.25 1.24262,3.31037 1.50703,6.31982 1.77179,9.28536 0.26476,2.96554 -0.33342,4.23947 -1.20107,5.63732 -4.0916,3.46253 -11.68778,4.10828 -15.94572,4.53125 0.40214,33.37774 -1.50805,54.40851 -5.2188,79.42107 -2.94993,19.09345 -7.55165,38.12846 -14.59375,52.1875 -3.52105,7.02952 -7.65478,12.80565 -12.40625,16.75 -4.75147,3.94435 -10.0839,6.09388 -16.3125,6 -21.98031,-0.33946 -58.83294,-7.5273 -94.53125,-18.03125 -9.36172,-2.58111 -21.76536,-6.8849 -30.8538,-9.89784 -6.65356,-2.20575 -27.7444,-10.78774 -33.05245,-13.85216 -3.41323,-1.65281 -6.66213,-3.32542 -9.6875,-5 -1.51964,-0.99507 -15.01647,-7.3864 -23.25,-18.5 7.69958,-6.08561 13.44451,-12.87257 22.4375,-15.96875 -8.26331,-0.95114 -21.23235,11.12083 -24.0625,13.40625 -1.731252,-4.7703 -1.04932,-10.82328 -0.28125,-14.9375 1.24857,-5.18039 4.88316,-16.17517 8.37505,-22.21875 4.19627,-7.82779 9.75747,-16.09006 16.59375,-24.46875 6.50855,-0.47431 12.78711,3.20317 17.65625,7.21875 -1.39398,-7.51264 -13.0811,-10.06992 -15.15625,-10.25 4.52496,-5.32795 9.57227,-10.66633 15.0625,-15.96875 5.88226,-5.68104 12.30145,-11.29337 19.21875,-16.75 5.81719,3.35994 10.29913,8.52053 15.25,13.53125 -2.23824,-9.19122 -10.22068,-13.90548 -12.71875,-15.5 12.2073,-9.39605 25.87491,-18.28588 40.84375,-26.125 5.09056,3.77161 9.80303,9.95514 15.40625,17.84375 -1.08929,-7.16437 -9.89423,-17.05909 -12.5,-19.34375 19.00124,-9.67324 40.01287,-17.65104 62.59375,-22.9375 z m -7.03125,4.4375 c 5.351,10.29097 -1.23821,22.75781 -3.78125,29.78125 3.39696,-4.12152 15.63243,-21.53668 3.78125,-29.78125 z m 98.67928,57 c 2.36669,-6.14076 0.37037,-12.65219 -1.66982,-18.5625 -1.94039,-5.62121 -5.27874,-10.1703 -8.50946,-13.28125 -2.50767,-2.19683 -4.91045,-3.29811 -7.875,-2.40625 -2.96221,0.97228 -5.5957,2.44519 -8.0625,4.03125 -0.55358,-1.39808 -1.3214,-3.53594 -1.53125,-6.375 -0.32922,-5.0598 2.3299,-9.05162 6.3125,-10.65625 2.66638,-1.01431 5.39847,-0.92226 7.8125,0.0625 5.67829,2.7101 8.99954,7.8969 11.78125,12.625 2.09634,3.85689 3.78306,8.03995 4.90625,11.78125 2.16275,8.36549 4.91305,15.85557 5.34375,24.125 0.13578,4.86908 -2.22692,9.53271 -6.28125,10.8125 -6.58743,1.50781 -11.22303,-1.55819 -13.21875,-7.28125 0,0 9.38321,-0.85359 10.99178,-4.875 z M 187.51845,560.78252 c 17.74545,7.22954 35.64767,13.00943 53.01755,16.67499 -0.52896,7.12931 -2.29476,13.56034 -4.33736,20.04509 5.54918,-6.48566 6.33858,-13.54046 7.61601,-19.3772 13.02085,2.55625 25.71553,3.89103 37.79024,3.72095 10.98375,3.18412 18.40007,16.28064 19.25,27.6875 3.86276,-14.92254 -9.80998,-26.55599 -13.96875,-29.125 11.16629,-12.07555 18.33357,-27.71 22.96875,-43.5625 4.09384,-0.30511 6.82944,0.99845 9.4375,3.09375 2.95909,2.37732 5.58956,4.27195 9.09375,8.96875 10e-4,-4.59303 -4.51003,-9.0652 -7.21875,-11.28125 -3.6331,-2.40831 -6.78771,-3.7174 -10.4375,-3.81245 1.35871,-5.00086 2.49952,-10.00757 3.40625,-14.90625 1.35209,-7.3048 2.24577,-14.36505 2.8125,-20.875 2.85646,0.52833 6.08233,0.35351 9.03125,0.875 4.46712,0.63598 7.64267,2.40109 10.78125,4.25 -2.36672,-4.69315 -6.44433,-6.54022 -10.28125,-7.21875 -3.5066,-0.62012 -6.96188,-0.51899 -9.28125,-0.96875 0.73021,-9.89345 0.68931,-18.17119 0.4375,-23.71875 5.65023,-3.81347 12.33616,-6.00191 19.34375,-6 -6.68309,-3.51033 -22.35162,0.21566 -22.3438,6.25 0.41702,9.42627 0.14834,27.30203 -3.46875,46.84375 -3.87686,20.94512 -11.59758,43.64876 -26.15625,59.625 -46.59954,6.69383 -114.04272,-25.6983 -153.375,-48.21875 4.20685,-30.18702 36.62261,-57.72962 71.90625,-75.84375 17.83117,-9.15428 36.331,-15.91873 52.0625,-19.5 15.7315,-3.58127 28.7654,-3.83369 35.15625,-0.65625 7.23522,0.0749 19.80155,-2.6608 23.96875,-7.4375 -8.57664,3.07566 -17.9535,3.60441 -25.0937,3.7187 -4.53388,-1.13373 -9.18731,-1.62366 -13.03125,-1.5625 -6.3082,0.12834 -13.64064,1.17525 -21.65625,3 -16.03123,3.6495 -34.70337,10.48511 -52.75,19.75 -28.75978,15.38545 -68.39095,39.93155 -73.8125,80.125 17.89255,10.49601 36.89581,20.17853 56.12943,28.1984 -6.08139,5.95704 -5.67662,13.45348 -13.25443,20.58285 9.03139,-1.4969 14.47077,-17.71378 16.25731,-19.34508 z M 571.49232,476.1276 c 2.87787,0.26982 42.91404,4.87351 57.98757,53 3.79333,12.11927 2.94498,34.0484 -1,59.84375 -3.94498,25.79535 -10.88944,55.54591 -18.90625,83.78125 -8.01681,28.23534 -17.0931,54.97971 -25.3125,74.75 -5.60119,10.13462 -7.8942,22.57044 -16.53947,29.76643 0.76436,-20.45975 -5.79001,-60.07239 -11.74178,-99.70393 -3.10025,-20.64385 -6.2605,-40.74178 -8.5625,-56.96875 -2.302,-16.22697 -3.72482,-28.76273 -3.46875,-33.5625 0.54944,-10.27678 2.60907,-23.6994 3.6875,-35.65625 0.53921,-5.97843 1.25975,-11.57281 0.98904,-16.3125 -0.23802,-4.16741 0.0681,-7.6309 -1.47351,-10.1875 12.94064,-16.47346 20.38138,-32.93072 24.34065,-48.75 z m -158.98123,21.03125 c 2.11298,-0.0288 5.06444,-0.60511 7.96875,-2.03125 2.90431,-1.42614 5.77251,-3.73698 7.28125,-7.28125 -4.63621,3.72131 -12.17446,5.00055 -15.25,9.3125 z M 103.18507,509.7526 c -3.230116,6.39972 -6.365816,12.50736 -7.710534,18.21875 -3.551377,0.30101 -12.396868,1.08374 -23.369646,1.34375 -6.759973,0.16018 -13.5394,0.0898 -18.59375,-0.46875 -2.527175,-0.27927 -4.640906,-0.69055 -6,-1.1875 -2.051913,-0.73697 -1.456276,-1.39808 0.03125,-2.5 1.454091,-0.92528 3.75485,-1.98142 6.5625,-3.03125 5.6153,-2.09966 13.315164,-4.23724 21.03125,-6.15625 13.229299,-3.29016 24.571975,-5.55051 28.04893,-6.21875 z m 29.81053,66.22496 c 12.59089,5.97078 25.34069,11.39484 40.88451,16.59065 6.31767,2.1118 15.04141,4.9697 21.52485,6.88432 2.16547,0.5256 4.34271,1.14092 5.35618,2.83132 0.0872,0.68503 -0.16981,2.43791 -0.84375,4.71875 -0.67394,2.28084 -1.7284,5.13288 -3.0625,8.375 -2.66819,6.48424 -6.43689,14.55483 -10.53125,22.9375 -8.18873,16.76535 -17.63981,34.8355 -22.0625,44.90625 -8.70366,19.81877 -16.23033,31.64566 -31.78125,39.125 -7.96963,3.84001 -13.23866,6.33456 -17.5,7.09375 -4.26134,0.75919 -7.60856,-0.0291 -12.53125,-3.03125 -4.515047,-2.76106 -8.254761,-9.56326 -11.78125,-17.0625 -3.522491,-7.49074 -6.869013,-15.58445 -11.53125,-20.96875 -0.0059,-0.007 0.0059,-0.0245 0,-0.0312 -1.867244,-2.16791 -2.623994,-5.17983 -2.65625,-8.9375 -0.03236,-3.76954 0.65788,-8.20204 1.46875,-12.875 1.62174,-9.34592 3.773135,-19.6741 0.65625,-28.34375 -1.184349,-3.29429 0.298173,-7.91023 4,-13.3125 3.701827,-5.40227 9.437921,-11.451 15.90625,-17.53125 11.44344,-11.38832 23.13397,-21.91949 34.48446,-31.36884 z"
       inkscape:connector-curvature="0"
       sodipodi:nodetypes="ssscssscsssssssssscccscccccccccsscccssccscssssscscscssssccsssccssscccssscsscssccsscccscsssscsssscccccccsccsscccssccccscccccccccsscccccccccsssccccccsssccccccssssssccsssssssssccsccccccccsccccccsscccssscccccsscccssccsccccccccccscccccccccccsccccccccccccccccccccscccscccsccccsccssccccscccccccssccsscsscccsccccssccssccsccsssscscsccsssscc" />
  </g>
</svg>
