<?xml version="1.0" encoding="UTF-8" standalone="no"?>
<!-- Created with Inkscape (http://www.inkscape.org/) -->

<svg
   xmlns:dc="http://purl.org/dc/elements/1.1/"
   xmlns:cc="http://creativecommons.org/ns#"
   xmlns:rdf="http://www.w3.org/1999/02/22-rdf-syntax-ns#"
   xmlns:svg="http://www.w3.org/2000/svg"
   xmlns="http://www.w3.org/2000/svg"
   xmlns:sodipodi="http://sodipodi.sourceforge.net/DTD/sodipodi-0.dtd"
   xmlns:inkscape="http://www.inkscape.org/namespaces/inkscape"
   width="609.36218"
   height="609.68469"
   id="svg3133"
   version="1.1"
   inkscape:version="0.91 r13725"
   sodipodi:docname="robot.svg"
   inkscape:export-filename="C:\Users\annarose\artProjects\robot\robot.png"
   inkscape:export-xdpi="90"
   inkscape:export-ydpi="90">
  <defs
     id="defs3135" />
  <sodipodi:namedview
     id="base"
     pagecolor="#ffffff"
     bordercolor="#666666"
     borderopacity="1.0"
     inkscape:pageopacity="0.0"
     inkscape:pageshadow="2"
     inkscape:zoom="0.94639083"
     inkscape:cx="250"
     inkscape:cy="304.84233"
     inkscape:document-units="px"
     inkscape:current-layer="layer3"
     showgrid="false"
     inkscape:window-width="1304"
     inkscape:window-height="746"
     inkscape:window-x="-8"
     inkscape:window-y="-8"
     inkscape:window-maximized="1"
     fit-margin-top="50"
     fit-margin-left="50"
     fit-margin-right="50"
     fit-margin-bottom="50"
     inkscape:snap-page="true" />
  <metadata
     id="metadata3138">
    <rdf:RDF>
      <cc:Work
         rdf:about="">
        <dc:format>image/svg+xml</dc:format>
        <dc:type
           rdf:resource="http://purl.org/dc/dcmitype/StillImage" />
        <dc:title></dc:title>
      </cc:Work>
    </rdf:RDF>
  </metadata>
  <g
     inkscape:groupmode="layer"
     id="layer3"
     inkscape:label="background"
     style="display:none"
     transform="translate(-250,-1.6318979e-6)">
    <rect
       style="fill:#000000;fill-rule:evenodd;stroke:none;stroke-width:1px;stroke-linecap:butt;stroke-linejoin:miter;stroke-opacity:1"
       id="rect3391"
       width="1000"
       height="609.68469"
       x="0"
       y="0" />
  </g>
  <g
     inkscape:label="colour"
     inkscape:groupmode="layer"
     id="layer1"
     transform="translate(-233.89031,-663.76457)">
    <path
       style="display:inline;fill:#808080;fill-opacity:1;fill-rule:evenodd;stroke:none"
       d="m 467.8325,1036.968 c -9.76679,19.5737 -19.54592,39.1409 -29.3632,58.7264 29.3632,14.6816 117.45282,14.6816 146.81602,-5.8726 -9.78778,-17.6181 -19.55502,-35.2233 -29.27144,-52.8538 l -88.18138,0 z"
       id="path9105"
       inkscape:connector-curvature="0" />
    <path
       style="display:inline;fill:#4d4d4d;fill-opacity:1;fill-rule:evenodd;stroke:none"
       d="m 539.67364,1037.9731 32.85934,57.1515 c 5.99331,-1.8333 7.63746,-3.2885 12.2291,-5.6473 -1.98124,-2.5977 -29.61362,-51.3647 -29.61362,-51.3647 z"
       id="path3241"
       inkscape:connector-curvature="0"
       sodipodi:nodetypes="ccccc" />
    <path
       style="display:inline;fill:#999999;fill-opacity:1;fill-rule:evenodd;stroke:none"
       d="m 481.15222,1048.6104 -21.4015,53.6319 c 5.65568,1.0993 11.84656,1.9658 18.37955,2.5968 z"
       id="path4367"
       inkscape:connector-curvature="0"
       sodipodi:nodetypes="cccc" />
    <path
       style="fill:#b3b3b3;fill-opacity:1;fill-rule:evenodd;stroke:none"
       d="m 323.99083,862.67103 c -5.68825,0.20255 -11.6668,1.47334 -16.56274,3.13733 11.53124,-2.69045 34.11268,4.25168 35.93032,26.65581 0.8157,10.05431 -2.94501,14.99612 -5.26425,18.93452 1.48207,-0.22492 7.83207,-1.40372 10.00472,-1.99719 1.9514,-2.93222 7.293,-9.15047 5.9608,-20.94774 -1.67657,-14.84684 -14.91026,-26.32249 -30.06885,-25.78273 z"
       id="path3382"
       inkscape:connector-curvature="0"
       sodipodi:nodetypes="scsccss" />
    <path
       sodipodi:nodetypes="ccccc"
       inkscape:connector-curvature="0"
       id="path3362"
       d="m 354.58457,921.66494 7.75518,-1.68293 0,18.79383 -7.75518,1.68294 z"
       style="fill:#4d4d4d;fill-opacity:1;fill-rule:evenodd;stroke:none" />
    <path
       sodipodi:nodetypes="ccccc"
       inkscape:connector-curvature="0"
       id="path3364"
       d="m 346.67823,910.58508 15.66152,9.39693 -7.75518,1.68293 -15.66154,-9.39692 z"
       style="fill:#b3b3b3;fill-opacity:1;fill-rule:evenodd;stroke:none" />
    <path
       sodipodi:nodetypes="ccccccc"
       inkscape:connector-curvature="0"
       id="path3368"
       d="m 354.58457,940.45878 -15.66154,9.39692 -15.66155,-9.39692 2e-5,-18.79384 15.66153,-9.39692 15.66151,9.39692 z"
       style="fill:#999999;fill-opacity:1;fill-rule:evenodd;stroke:none" />
    <path
       style="fill:#4d4d4d;fill-opacity:1;fill-rule:evenodd;stroke:none"
       d="m 381.98058,942.77336 7.75518,-1.68294 0,18.79384 -7.75518,1.68294 z"
       id="path3348"
       inkscape:connector-curvature="0"
       sodipodi:nodetypes="ccccc" />
    <path
       style="fill:#b3b3b3;fill-opacity:1;fill-rule:evenodd;stroke:none"
       d="m 374.07424,931.69351 15.66152,9.39691 -7.75518,1.68294 -15.66152,-9.39692 z"
       id="path3350"
       inkscape:connector-curvature="0"
       sodipodi:nodetypes="ccccc" />
    <path
       style="fill:#999999;fill-opacity:1;fill-rule:evenodd;stroke:none"
       d="m 381.98058,961.5672 -15.66155,9.39692 -15.66152,-9.39692 3e-5,-18.79384 15.66149,-9.39692 15.66155,9.39692 z"
       id="path3354"
       inkscape:connector-curvature="0"
       sodipodi:nodetypes="ccccccc" />
    <path
       style="fill:#c5c5c5;fill-opacity:1;stroke:none"
       d="m 284.29271,896.38182 13.21344,-2.64268 14.88406,-1.37407 0.97207,1.37407 z"
       id="path3380"
       inkscape:connector-curvature="0"
       sodipodi:nodetypes="ccccc" />
    <path
       style="fill:#999999;fill-opacity:1;fill-rule:evenodd;stroke:none"
       d="m 284.29271,896.38182 c 1.75902,15.57702 15.95927,26.96219 32.04828,25.55985 16.08903,-1.40235 27.70576,-15.16684 25.94673,-30.74385 -1.75902,-15.57701 -16.22772,-27.06785 -32.31672,-25.6655 -4.3638,0.38036 -8.73723,2.2515 -12.46485,4.42262 l 15.85613,23.7842 z"
       id="path3358"
       inkscape:connector-curvature="0"
       sodipodi:nodetypes="csssccc" />
    <path
       style="fill:#999999;fill-opacity:1;fill-rule:evenodd;stroke:none"
       d="m 394.42449,923.42414 -12.78217,7.67113 0,18.79245 12.78217,7.67114 0,-34.13472 z"
       id="path3378"
       inkscape:connector-curvature="0" />
    <path
       style="display:inline;fill:#cccccc;fill-opacity:1;fill-rule:evenodd;stroke:none"
       d="m 423.79017,875.47248 220.22403,0 -29.3632,14.68161 -220.22404,0 z"
       id="rect7464"
       inkscape:connector-curvature="0"
       sodipodi:nodetypes="ccccc" />
    <path
       style="display:inline;fill:#4d4d4d;fill-opacity:1;fill-rule:evenodd;stroke:none"
       d="m 614.651,890.15409 29.3632,-14.68161 0,146.81602 -29.3632,14.6816 z"
       id="rect7458"
       inkscape:connector-curvature="0"
       sodipodi:nodetypes="ccccc" />
    <path
       id="rect5374"
       d="m 394.42696,890.15409 220.22404,0 0,146.81601 -220.22404,0 z"
       style="display:inline;fill:#999999;fill-opacity:1;fill-rule:evenodd;stroke:none"
       inkscape:connector-curvature="0"
       sodipodi:nodetypes="ccccc" />
    <path
       style="display:inline;fill:#999999;fill-opacity:1;fill-rule:evenodd;stroke:none"
       d="m 423.16373,714.38564 c -1.72048,0.006 -3.46024,0.39002 -5.11104,1.19288 -5.86944,2.8546 -8.31432,9.9316 -5.45972,15.80108 1.9856,4.08264 6.00696,6.50578 10.2496,6.64343 0.0153,0.65939 0.12605,1.3158 0.34868,1.92695 l 11.72693,32.1894 7.18481,-7.18481 -10.93779,-30.0055 c 3.78474,-3.43832 5.02886,-9.08002 2.67939,-13.91083 -2.05175,-4.21867 -6.28408,-6.66863 -10.68086,-6.6526 z"
       id="path5484"
       inkscape:connector-curvature="0" />
    <path
       style="display:inline;fill:#4d4d4d;fill-opacity:1;fill-rule:evenodd;stroke:none"
       d="m 526.56138,871.37935 5.9952,-0.0342 8.68641,-4.41996 0,8.84099 -14.68161,7.3408 z"
       id="rect7456"
       inkscape:connector-curvature="0"
       sodipodi:nodetypes="cccccc" />
    <path
       style="display:inline;fill:#808080;fill-opacity:1;fill-rule:evenodd;stroke:none"
       d="m 497.17087,871.36164 29.39051,0 0,11.74527 -29.3632,0 z"
       id="rect5372"
       inkscape:connector-curvature="0"
       sodipodi:nodetypes="ccccc" />
    <path
       style="display:inline;fill:#333333;fill-opacity:1;fill-rule:evenodd;stroke:none"
       d="m 585.28779,812.63522 29.36321,-14.6816 -52.85377,58.72641 -29.3632,14.68161 z"
       id="path6187"
       inkscape:connector-curvature="0"
       sodipodi:nodetypes="ccccc" />
    <path
       sodipodi:nodetypes="ccccc"
       inkscape:connector-curvature="0"
       id="rect7448"
       d="m 482.51657,739.22722 102.77122,0 -29.3632,14.68159 -102.77122,0 z"
       style="display:inline;fill:#cccccc;fill-opacity:1;fill-rule:evenodd;stroke:none" />
    <path
       sodipodi:nodetypes="ccccc"
       inkscape:connector-curvature="0"
       id="rect7450"
       d="m 585.28779,783.27201 29.36321,-14.68158 0,29.36319 -29.36321,14.6816 z"
       inkscape:transform-center-y="3.9530222"
       style="display:inline;fill:#4d4d4d;fill-opacity:1;fill-rule:evenodd;stroke:none"
       inkscape:transform-center-x="-1.7323722e-005" />
    <path
       style="color:#000000;font-style:normal;font-variant:normal;font-weight:normal;font-stretch:normal;font-size:medium;line-height:normal;font-family:Sans;-inkscape-font-specification:Sans;text-indent:0;text-align:start;text-decoration:none;text-decoration-line:none;letter-spacing:normal;word-spacing:normal;text-transform:none;direction:ltr;block-progression:tb;writing-mode:lr-tb;baseline-shift:baseline;text-anchor:start;display:inline;overflow:visible;visibility:visible;opacity:1;fill:#4d4d4d;fill-opacity:0.75294118;stroke:none;stroke-width:5.00500011;marker:none;enable-background:accumulate"
       d="m 524.20934,1120.4509 c -1.4556,-1.4692 -16.28223,6.9519 -19.58979,9.6354 -12.90572,10.4711 -18.09522,17.3165 -25.64535,30.7574 -7.10828,12.6543 -6.88593,31.9617 0.52522,44.1194 7.703,13.1164 23.78945,20.9027 38.83768,17.8098 13.87417,-2.3741 26.04484,-13.8753 27.71091,-28.09 1.9588,-13.4945 -6.3251,-28.2218 -19.73466,-32.0184 -11.78286,-3.8273 -26.37685,2.4653 -30.23996,14.5732 -3.74615,10.1062 2.13735,23.1898 13.06114,25.4731 8.22363,2.2144 18.04627,-3.6768 18.47585,-12.528 0.71624,-6.5222 -5.46166,-13.2543 -12.18288,-11.5658 -5.11647,0.8018 -8.12441,8.2495 -3.73561,11.6961 2.26261,3.1316 6.57318,-0.2372 7.50667,-0.6049 -0.5976,5.0852 -7.7106,6.3641 -11.26525,3.42 -5.97888,-4.2529 -5.84431,-13.8266 -0.47295,-18.5389 6.50838,-6.5036 17.9792,-5.7836 24.14589,0.8165 7.98417,7.8576 8.2343,21.7374 0.83844,30.0649 -8.59179,10.4302 -25.10675,12.5004 -36.2058,4.9092 -14.62212,-9.2828 -20.93791,-31.2388 -8.47529,-52.4766 6.68739,-11.396 12.15024,-17.9979 26.39323,-29.942 4.36006,-3.6564 11.19934,-6.3529 10.05251,-7.5104 z"
       id="path9111"
       inkscape:connector-curvature="0"
       sodipodi:nodetypes="ssscccccccccccccccsss" />
    <path
       style="display:inline;fill:#808080;fill-opacity:1;fill-rule:evenodd;stroke:none"
       d="m 555.92459,753.90881 29.3632,-14.68159 29.36321,29.36321 -29.36321,14.68158 z"
       id="rect4427"
       inkscape:connector-curvature="0"
       sodipodi:nodetypes="ccccc" />
    <path
       sodipodi:nodetypes="ccccccccc"
       inkscape:connector-curvature="0"
       id="rect5370"
       d="m 453.15337,753.90881 102.77122,0 29.3632,29.3632 0,29.36321 -52.85376,58.72642 -55.79009,0 -52.85377,-58.72642 0,-29.36321 z"
       style="display:inline;fill:#999999;fill-opacity:1;fill-rule:evenodd;stroke:none" />
    <path
       style="display:inline;fill:#373737;fill-opacity:1;fill-rule:evenodd;stroke:none"
       d="m 503.90564,829.37931 c -7.90116,0.47977 -16.65989,1.12662 -22.79319,6.70766 -2.95661,2.5674 -4.77225,7.12254 -2.68855,10.80015 2.79368,5.60731 9.52325,7.80638 15.32977,9.02134 8.09967,1.54566 16.70039,1.58304 24.6409,-0.67118 4.84525,-1.54281 9.96543,-4.17574 12.56193,-8.77226 1.97277,-4.99804 -1.60954,-10.56393 -6.1577,-12.74886 -6.42902,-3.2187 -13.75176,-4.40832 -20.89316,-4.33685 z"
       id="path5910"
       inkscape:connector-curvature="0" />
    <path
       id="path5000"
       style="display:inline;fill:#000000;fill-opacity:1;stroke:none"
       d="m 509.96861,853.21054 c 0,0.6155 -0.49365,1.11443 -1.10256,1.11443 -0.60891,0 -1.10254,-0.49893 -1.10254,-1.11443 0,-0.61547 0.49363,-1.11443 1.10254,-1.11443 0.60891,0 1.10256,0.49896 1.10256,1.11443 z m -2.74431,0 c 0,0.6155 -0.49365,1.11443 -1.10256,1.11443 -0.60892,0 -1.10257,-0.49893 -1.10257,-1.11443 0,-0.61547 0.49365,-1.11443 1.10257,-1.11443 0.60891,0 1.10256,0.49896 1.10256,1.11443 z m -2.74434,0 c 0,0.6155 -0.49362,1.11443 -1.10257,1.11443 -0.60891,0 -1.10253,-0.49893 -1.10253,-1.11443 0,-0.61547 0.49362,-1.11443 1.10253,-1.11443 0.60895,0 1.10257,0.49896 1.10257,1.11443 z m -2.74434,0 c 0,0.6155 -0.49366,1.11443 -1.10257,1.11443 -0.60892,0 -1.10257,-0.49893 -1.10257,-1.11443 0,-0.61547 0.49365,-1.11443 1.10257,-1.11443 0.60891,0 1.10257,0.49896 1.10257,1.11443 z m 17.76541,-2.52164 c 0,0.61549 -0.49362,1.11442 -1.1026,1.11442 -0.60892,0 -1.10253,-0.49893 -1.10253,-1.11442 0,-0.61547 0.49361,-1.11444 1.10253,-1.11444 0.60898,0 1.1026,0.49897 1.1026,1.11444 z m -2.74431,0 c 0,0.61549 -0.49365,1.11442 -1.10261,1.11442 -0.6089,0 -1.10256,-0.49893 -1.10256,-1.11442 0,-0.61547 0.49366,-1.11444 1.10256,-1.11444 0.60896,0 1.10261,0.49897 1.10261,1.11444 z m -2.74438,0 c 0,0.61549 -0.49361,1.11442 -1.1026,1.11442 -0.60891,0 -1.10253,-0.49893 -1.10253,-1.11442 0,-0.61547 0.49362,-1.11444 1.10253,-1.11444 0.60899,0 1.1026,0.49897 1.1026,1.11444 z m -2.74431,0 c 0,0.61549 -0.49365,1.11442 -1.1026,1.11442 -0.60891,0 -1.10257,-0.49893 -1.10257,-1.11442 0,-0.61547 0.49366,-1.11444 1.10257,-1.11444 0.60895,0 1.1026,0.49897 1.1026,1.11444 z m -2.74437,0 c 0,0.61549 -0.49362,1.11442 -1.10261,1.11442 -0.60891,0 -1.10253,-0.49893 -1.10253,-1.11442 0,-0.61547 0.49362,-1.11444 1.10253,-1.11444 0.60899,0 1.10261,0.49897 1.10261,1.11444 z m -2.74431,0 c 0,0.61549 -0.49366,1.11442 -1.1026,1.11442 -0.60892,0 -1.10257,-0.49893 -1.10257,-1.11442 0,-0.61547 0.49365,-1.11444 1.10257,-1.11444 0.60894,0 1.1026,0.49897 1.1026,1.11444 z m -2.74438,0 c 0,0.61549 -0.49362,1.11442 -1.10257,1.11442 -0.60894,0 -1.10256,-0.49893 -1.10256,-1.11442 0,-0.61547 0.49362,-1.11444 1.10256,-1.11444 0.60895,0 1.10257,0.49897 1.10257,1.11444 z m -2.74432,0 c 0,0.61549 -0.49364,1.11442 -1.10259,1.11442 -0.60892,0 -1.10258,-0.49893 -1.10258,-1.11442 0,-0.61547 0.49366,-1.11444 1.10258,-1.11444 0.60895,0 1.10259,0.49897 1.10259,1.11444 z m -2.74434,0 c 0,0.61549 -0.49362,1.11442 -1.10257,1.11442 -0.60894,0 -1.10256,-0.49893 -1.10256,-1.11442 0,-0.61547 0.49362,-1.11444 1.10256,-1.11444 0.60895,0 1.10257,0.49897 1.10257,1.11444 z m -2.74431,0 c 0,0.61549 -0.49365,1.11442 -1.10259,1.11442 -0.60892,0 -1.10257,-0.49893 -1.10257,-1.11442 0,-0.61547 0.49365,-1.11444 1.10257,-1.11444 0.60894,0 1.10259,0.49897 1.10259,1.11444 z m -2.74444,0 c 0,0.61549 -0.49359,1.11442 -1.10253,1.11442 -0.60895,0 -1.10257,-0.49893 -1.10257,-1.11442 0,-0.61547 0.49362,-1.11444 1.10257,-1.11444 0.60894,0 1.10253,0.49897 1.10253,1.11444 z m 17.91105,-17.65163 c 0,0.61549 -0.49365,1.11442 -1.10256,1.11442 -0.60891,0 -1.10254,-0.49893 -1.10254,-1.11442 0,-0.61548 0.49363,-1.11444 1.10254,-1.11444 0.60891,0 1.10256,0.49896 1.10256,1.11444 z m -2.74431,0 c 0,0.61549 -0.49365,1.11442 -1.10256,1.11442 -0.60892,0 -1.10257,-0.49893 -1.10257,-1.11442 0,-0.61548 0.49365,-1.11444 1.10257,-1.11444 0.60891,0 1.10256,0.49896 1.10256,1.11444 z m -2.74434,0 c 0,0.61549 -0.49362,1.11442 -1.10257,1.11442 -0.60891,0 -1.10253,-0.49893 -1.10253,-1.11442 0,-0.61548 0.49362,-1.11444 1.10253,-1.11444 0.60895,0 1.10257,0.49896 1.10257,1.11444 z m -2.74434,0 c 0,0.61549 -0.49366,1.11442 -1.10257,1.11442 -0.60892,0 -1.10257,-0.49893 -1.10257,-1.11442 0,-0.61548 0.49365,-1.11444 1.10257,-1.11444 0.60891,0 1.10257,0.49896 1.10257,1.11444 z m 17.76541,2.52164 c 0,0.61549 -0.49362,1.11443 -1.1026,1.11443 -0.60892,0 -1.10253,-0.49894 -1.10253,-1.11443 0,-0.61547 0.49361,-1.11443 1.10253,-1.11443 0.60898,0 1.1026,0.49896 1.1026,1.11443 z m -2.74431,0 c 0,0.61549 -0.49365,1.11443 -1.10261,1.11443 -0.6089,0 -1.10256,-0.49894 -1.10256,-1.11443 0,-0.61547 0.49366,-1.11443 1.10256,-1.11443 0.60896,0 1.10261,0.49896 1.10261,1.11443 z m -2.74438,0 c 0,0.61549 -0.49361,1.11443 -1.1026,1.11443 -0.60891,0 -1.10253,-0.49894 -1.10253,-1.11443 0,-0.61547 0.49362,-1.11443 1.10253,-1.11443 0.60899,0 1.1026,0.49896 1.1026,1.11443 z m -2.74431,0 c 0,0.61549 -0.49365,1.11443 -1.1026,1.11443 -0.60891,0 -1.10257,-0.49894 -1.10257,-1.11443 0,-0.61547 0.49366,-1.11443 1.10257,-1.11443 0.60895,0 1.1026,0.49896 1.1026,1.11443 z m -2.74437,0 c 0,0.61549 -0.49362,1.11443 -1.10261,1.11443 -0.60891,0 -1.10253,-0.49894 -1.10253,-1.11443 0,-0.61547 0.49362,-1.11443 1.10253,-1.11443 0.60899,0 1.10261,0.49896 1.10261,1.11443 z m -2.74431,0 c 0,0.61549 -0.49366,1.11443 -1.1026,1.11443 -0.60892,0 -1.10257,-0.49894 -1.10257,-1.11443 0,-0.61547 0.49365,-1.11443 1.10257,-1.11443 0.60894,0 1.1026,0.49896 1.1026,1.11443 z m -2.74438,0 c 0,0.61549 -0.49362,1.11443 -1.10257,1.11443 -0.60894,0 -1.10256,-0.49894 -1.10256,-1.11443 0,-0.61547 0.49362,-1.11443 1.10256,-1.11443 0.60895,0 1.10257,0.49896 1.10257,1.11443 z m -2.74432,0 c 0,0.61549 -0.49364,1.11443 -1.10259,1.11443 -0.60892,0 -1.10258,-0.49894 -1.10258,-1.11443 0,-0.61547 0.49366,-1.11443 1.10258,-1.11443 0.60895,0 1.10259,0.49896 1.10259,1.11443 z m -2.74434,0 c 0,0.61549 -0.49362,1.11443 -1.10257,1.11443 -0.60894,0 -1.10256,-0.49894 -1.10256,-1.11443 0,-0.61547 0.49362,-1.11443 1.10256,-1.11443 0.60895,0 1.10257,0.49896 1.10257,1.11443 z m -2.74431,0 c 0,0.61549 -0.49365,1.11443 -1.10259,1.11443 -0.60892,0 -1.10257,-0.49894 -1.10257,-1.11443 0,-0.61547 0.49365,-1.11443 1.10257,-1.11443 0.60894,0 1.10259,0.49896 1.10259,1.11443 z m -2.74444,0 c 0,0.61549 -0.49359,1.11443 -1.10253,1.11443 -0.60895,0 -1.10257,-0.49894 -1.10257,-1.11443 0,-0.61547 0.49362,-1.11443 1.10257,-1.11443 0.60894,0 1.10253,0.49896 1.10253,1.11443 z m 34.29045,2.52168 c 0,0.6155 -0.49359,1.11442 -1.10254,1.11442 -0.60895,0 -1.10257,-0.49892 -1.10257,-1.11442 0,-0.61547 0.49362,-1.11443 1.10257,-1.11443 0.60895,0 1.10254,0.49896 1.10254,1.11443 z m -2.74432,0 c 0,0.6155 -0.49365,1.11442 -1.10256,1.11442 -0.60891,0 -1.10257,-0.49892 -1.10257,-1.11442 0,-0.61547 0.49366,-1.11443 1.10257,-1.11443 0.60891,0 1.10256,0.49896 1.10256,1.11443 z m -2.74434,0 c 0,0.6155 -0.49359,1.11442 -1.10253,1.11442 -0.60895,0 -1.10257,-0.49892 -1.10257,-1.11442 0,-0.61547 0.49362,-1.11443 1.10257,-1.11443 0.60894,0 1.10253,0.49896 1.10253,1.11443 z m -2.74435,0 c 0,0.6155 -0.49365,1.11442 -1.10256,1.11442 -0.60891,0 -1.10257,-0.49892 -1.10257,-1.11442 0,-0.61547 0.49366,-1.11443 1.10257,-1.11443 0.60891,0 1.10256,0.49896 1.10256,1.11443 z m -2.74433,0 c 0,0.6155 -0.49363,1.11442 -1.10254,1.11442 -0.60894,0 -1.10257,-0.49892 -1.10257,-1.11442 0,-0.61547 0.49363,-1.11443 1.10257,-1.11443 0.60891,0 1.10254,0.49896 1.10254,1.11443 z m -2.74432,0 c 0,0.6155 -0.49365,1.11442 -1.10256,1.11442 -0.60891,0 -1.10257,-0.49892 -1.10257,-1.11442 0,-0.61547 0.49366,-1.11443 1.10257,-1.11443 0.60891,0 1.10256,0.49896 1.10256,1.11443 z m -2.74437,0 c 0,0.6155 -0.49363,1.11442 -1.10254,1.11442 -0.60891,0 -1.10257,-0.49892 -1.10257,-1.11442 0,-0.61547 0.49366,-1.11443 1.10257,-1.11443 0.60891,0 1.10254,0.49896 1.10254,1.11443 z m -2.74435,0 c 0,0.6155 -0.49362,1.11442 -1.10257,1.11442 -0.60894,0 -1.10253,-0.49892 -1.10253,-1.11442 0,-0.61547 0.49359,-1.11443 1.10253,-1.11443 0.60895,0 1.10257,0.49896 1.10257,1.11443 z m -2.74431,0 c 0,0.6155 -0.49366,1.11442 -1.10257,1.11442 -0.60894,0 -1.1026,-0.49892 -1.1026,-1.11442 0,-0.61547 0.49366,-1.11443 1.1026,-1.11443 0.60891,0 1.10257,0.49896 1.10257,1.11443 z m -2.74435,0 c 0,0.6155 -0.49361,1.11442 -1.10256,1.11442 -0.60895,0 -1.10254,-0.49892 -1.10254,-1.11442 0,-0.61547 0.49359,-1.11443 1.10254,-1.11443 0.60895,0 1.10256,0.49896 1.10256,1.11443 z m -2.7443,0 c 0,0.6155 -0.49366,1.11442 -1.10257,1.11442 -0.60895,0 -1.10261,-0.49892 -1.10261,-1.11442 0,-0.61547 0.49366,-1.11443 1.10261,-1.11443 0.60891,0 1.10257,0.49896 1.10257,1.11443 z m -2.74442,0 c 0,0.6155 -0.49361,1.11442 -1.10256,1.11442 -0.60894,0 -1.10257,-0.49892 -1.10257,-1.11442 0,-0.61547 0.49363,-1.11443 1.10257,-1.11443 0.60895,0 1.10256,0.49896 1.10256,1.11443 z m -2.7443,0 c 0,0.6155 -0.49366,1.11442 -1.10256,1.11442 -0.60896,0 -1.10261,-0.49892 -1.10261,-1.11442 0,-0.61547 0.49365,-1.11443 1.10261,-1.11443 0.6089,0 1.10256,0.49896 1.10256,1.11443 z m -2.74435,0 c 0,0.6155 -0.49362,1.11442 -1.10256,1.11442 -0.60895,0 -1.10257,-0.49892 -1.10257,-1.11442 0,-0.61547 0.49362,-1.11443 1.10257,-1.11443 0.60894,0 1.10256,0.49896 1.10256,1.11443 z m -2.74431,0 c 0,0.6155 -0.49365,1.11442 -1.10256,1.11442 -0.60895,0 -1.1026,-0.49892 -1.1026,-1.11442 0,-0.61547 0.49365,-1.11443 1.1026,-1.11443 0.60891,0 1.10256,0.49896 1.10256,1.11443 z m -2.74433,0 c 0,0.6155 -0.49363,1.11442 -1.10254,1.11442 -0.60898,0 -1.10261,-0.49892 -1.10261,-1.11442 0,-0.61547 0.49363,-1.11443 1.10261,-1.11443 0.60891,0 1.10254,0.49896 1.10254,1.11443 z m 41.16505,10.08666 c 0,0.6155 -0.49359,1.11442 -1.10254,1.11442 -0.60895,0 -1.10257,-0.49892 -1.10257,-1.11442 0,-0.61547 0.49362,-1.11444 1.10257,-1.11444 0.60895,0 1.10254,0.49897 1.10254,1.11444 z m -2.74432,0 c 0,0.6155 -0.49365,1.11442 -1.10256,1.11442 -0.60891,0 -1.10257,-0.49892 -1.10257,-1.11442 0,-0.61547 0.49366,-1.11444 1.10257,-1.11444 0.60891,0 1.10256,0.49897 1.10256,1.11444 z m -2.74434,0 c 0,0.6155 -0.49359,1.11442 -1.10253,1.11442 -0.60895,0 -1.10257,-0.49892 -1.10257,-1.11442 0,-0.61547 0.49362,-1.11444 1.10257,-1.11444 0.60894,0 1.10253,0.49897 1.10253,1.11444 z m -2.74435,0 c 0,0.6155 -0.49365,1.11442 -1.10256,1.11442 -0.60891,0 -1.10257,-0.49892 -1.10257,-1.11442 0,-0.61547 0.49366,-1.11444 1.10257,-1.11444 0.60891,0 1.10256,0.49897 1.10256,1.11444 z m -2.74433,0 c 0,0.6155 -0.49363,1.11442 -1.10254,1.11442 -0.60894,0 -1.10257,-0.49892 -1.10257,-1.11442 0,-0.61547 0.49363,-1.11444 1.10257,-1.11444 0.60891,0 1.10254,0.49897 1.10254,1.11444 z m -2.74432,0 c 0,0.6155 -0.49365,1.11442 -1.10256,1.11442 -0.60891,0 -1.10257,-0.49892 -1.10257,-1.11442 0,-0.61547 0.49366,-1.11444 1.10257,-1.11444 0.60891,0 1.10256,0.49897 1.10256,1.11444 z m -2.74437,0 c 0,0.6155 -0.49363,1.11442 -1.10254,1.11442 -0.60891,0 -1.10257,-0.49892 -1.10257,-1.11442 0,-0.61547 0.49366,-1.11444 1.10257,-1.11444 0.60891,0 1.10254,0.49897 1.10254,1.11444 z m -2.74435,0 c 0,0.6155 -0.49362,1.11442 -1.10257,1.11442 -0.60894,0 -1.10253,-0.49892 -1.10253,-1.11442 0,-0.61547 0.49359,-1.11444 1.10253,-1.11444 0.60895,0 1.10257,0.49897 1.10257,1.11444 z m -2.74431,0 c 0,0.6155 -0.49366,1.11442 -1.10257,1.11442 -0.60894,0 -1.1026,-0.49892 -1.1026,-1.11442 0,-0.61547 0.49366,-1.11444 1.1026,-1.11444 0.60891,0 1.10257,0.49897 1.10257,1.11444 z m -2.74435,0 c 0,0.6155 -0.49361,1.11442 -1.10256,1.11442 -0.60895,0 -1.10254,-0.49892 -1.10254,-1.11442 0,-0.61547 0.49359,-1.11444 1.10254,-1.11444 0.60895,0 1.10256,0.49897 1.10256,1.11444 z m -2.7443,0 c 0,0.6155 -0.49366,1.11442 -1.10257,1.11442 -0.60895,0 -1.10261,-0.49892 -1.10261,-1.11442 0,-0.61547 0.49366,-1.11444 1.10261,-1.11444 0.60891,0 1.10257,0.49897 1.10257,1.11444 z m -2.74442,0 c 0,0.6155 -0.49361,1.11442 -1.10256,1.11442 -0.60894,0 -1.10257,-0.49892 -1.10257,-1.11442 0,-0.61547 0.49363,-1.11444 1.10257,-1.11444 0.60895,0 1.10256,0.49897 1.10256,1.11444 z m -2.7443,0 c 0,0.6155 -0.49366,1.11442 -1.10256,1.11442 -0.60896,0 -1.10261,-0.49892 -1.10261,-1.11442 0,-0.61547 0.49365,-1.11444 1.10261,-1.11444 0.6089,0 1.10256,0.49897 1.10256,1.11444 z m -2.74435,0 c 0,0.6155 -0.49362,1.11442 -1.10256,1.11442 -0.60895,0 -1.10257,-0.49892 -1.10257,-1.11442 0,-0.61547 0.49362,-1.11444 1.10257,-1.11444 0.60894,0 1.10256,0.49897 1.10256,1.11444 z m -2.74431,0 c 0,0.6155 -0.49365,1.11442 -1.10256,1.11442 -0.60895,0 -1.1026,-0.49892 -1.1026,-1.11442 0,-0.61547 0.49365,-1.11444 1.1026,-1.11444 0.60891,0 1.10256,0.49897 1.10256,1.11444 z m -2.74433,0 c 0,0.6155 -0.49363,1.11442 -1.10254,1.11442 -0.60898,0 -1.10261,-0.49892 -1.10261,-1.11442 0,-0.61547 0.49363,-1.11444 1.10261,-1.11444 0.60891,0 1.10254,0.49897 1.10254,1.11444 z m 42.52343,-2.52169 c 0,0.6155 -0.49366,1.11443 -1.10256,1.11443 -0.60896,0 -1.10261,-0.49893 -1.10261,-1.11443 0,-0.61546 0.49365,-1.11442 1.10261,-1.11442 0.6089,0 1.10256,0.49896 1.10256,1.11442 z m -2.74434,0 c 0,0.6155 -0.49362,1.11443 -1.10257,1.11443 -0.60894,0 -1.10257,-0.49893 -1.10257,-1.11443 0,-0.61546 0.49363,-1.11442 1.10257,-1.11442 0.60895,0 1.10257,0.49896 1.10257,1.11442 z m -2.74431,0 c 0,0.6155 -0.49366,1.11443 -1.10257,1.11443 -0.60895,0 -1.1026,-0.49893 -1.1026,-1.11443 0,-0.61546 0.49365,-1.11442 1.1026,-1.11442 0.60891,0 1.10257,0.49896 1.10257,1.11442 z m -2.74438,0 c 0,0.6155 -0.49362,1.11443 -1.10257,1.11443 -0.60894,0 -1.10256,-0.49893 -1.10256,-1.11443 0,-0.61546 0.49362,-1.11442 1.10256,-1.11442 0.60895,0 1.10257,0.49896 1.10257,1.11442 z m -2.74431,0 c 0,0.6155 -0.49365,1.11443 -1.10257,1.11443 -0.60894,0 -1.1026,-0.49893 -1.1026,-1.11443 0,-0.61546 0.49366,-1.11442 1.1026,-1.11442 0.60892,0 1.10257,0.49896 1.10257,1.11442 z m -2.74437,0 c 0,0.6155 -0.49363,1.11443 -1.10254,1.11443 -0.60898,0 -1.1026,-0.49893 -1.1026,-1.11443 0,-0.61546 0.49362,-1.11442 1.1026,-1.11442 0.60891,0 1.10254,0.49896 1.10254,1.11442 z m -2.74432,0 c 0,0.6155 -0.49366,1.11443 -1.10257,1.11443 -0.60894,0 -1.10259,-0.49893 -1.10259,-1.11443 0,-0.61546 0.49365,-1.11442 1.10259,-1.11442 0.60891,0 1.10257,0.49896 1.10257,1.11442 z m -2.74437,0 c 0,0.6155 -0.49363,1.11443 -1.10258,1.11443 -0.60893,0 -1.10256,-0.49893 -1.10256,-1.11443 0,-0.61546 0.49363,-1.11442 1.10256,-1.11442 0.60895,0 1.10258,0.49896 1.10258,1.11442 z m -2.74431,0 c 0,0.6155 -0.49365,1.11443 -1.10261,1.11443 -0.60891,0 -1.10256,-0.49893 -1.10256,-1.11443 0,-0.61546 0.49365,-1.11442 1.10256,-1.11442 0.60896,0 1.10261,0.49896 1.10261,1.11442 z m -2.74435,0 c 0,0.6155 -0.49362,1.11443 -1.10256,1.11443 -0.60895,0 -1.10257,-0.49893 -1.10257,-1.11443 0,-0.61546 0.49362,-1.11442 1.10257,-1.11442 0.60894,0 1.10256,0.49896 1.10256,1.11442 z m -2.7443,0 c 0,0.6155 -0.49366,1.11443 -1.10261,1.11443 -0.60891,0 -1.10257,-0.49893 -1.10257,-1.11443 0,-0.61546 0.49366,-1.11442 1.10257,-1.11442 0.60895,0 1.10261,0.49896 1.10261,1.11442 z m -2.74442,0 c 0,0.6155 -0.49362,1.11443 -1.10256,1.11443 -0.60892,0 -1.10258,-0.49893 -1.10258,-1.11443 0,-0.61546 0.49366,-1.11442 1.10258,-1.11442 0.60894,0 1.10256,0.49896 1.10256,1.11442 z m -2.74431,0 c 0,0.6155 -0.49365,1.11443 -1.1026,1.11443 -0.60892,0 -1.10256,-0.49893 -1.10256,-1.11443 0,-0.61546 0.49364,-1.11442 1.10256,-1.11442 0.60895,0 1.1026,0.49896 1.1026,1.11442 z m -2.74431,0 c 0,0.6155 -0.49365,1.11443 -1.1026,1.11443 -0.60891,0 -1.10257,-0.49893 -1.10257,-1.11443 0,-0.61546 0.49366,-1.11442 1.10257,-1.11442 0.60895,0 1.1026,0.49896 1.1026,1.11442 z m -2.74434,0 c 0,0.6155 -0.49366,1.11443 -1.10261,1.11443 -0.6089,0 -1.10253,-0.49893 -1.10253,-1.11443 0,-0.61546 0.49363,-1.11442 1.10253,-1.11442 0.60895,0 1.10261,0.49896 1.10261,1.11442 z m -2.74435,0 c 0,0.6155 -0.49365,1.11443 -1.10259,1.11443 -0.60892,0 -1.10257,-0.49893 -1.10257,-1.11443 0,-0.61546 0.49365,-1.11442 1.10257,-1.11442 0.60894,0 1.10259,0.49896 1.10259,1.11442 z m -2.74437,0 c 0,0.6155 -0.49363,1.11443 -1.10261,1.11443 -0.6089,0 -1.10253,-0.49893 -1.10253,-1.11443 0,-0.61546 0.49363,-1.11442 1.10253,-1.11442 0.60898,0 1.10261,0.49896 1.10261,1.11442 z m 43.90946,-5.04333 c 0,0.6155 -0.49366,1.11443 -1.10256,1.11443 -0.60896,0 -1.10261,-0.49893 -1.10261,-1.11443 0,-0.61546 0.49365,-1.11443 1.10261,-1.11443 0.6089,0 1.10256,0.49897 1.10256,1.11443 z m -2.74434,0 c 0,0.6155 -0.49362,1.11443 -1.10257,1.11443 -0.60894,0 -1.10257,-0.49893 -1.10257,-1.11443 0,-0.61546 0.49363,-1.11443 1.10257,-1.11443 0.60895,0 1.10257,0.49897 1.10257,1.11443 z m -2.74431,0 c 0,0.6155 -0.49366,1.11443 -1.10257,1.11443 -0.60895,0 -1.1026,-0.49893 -1.1026,-1.11443 0,-0.61546 0.49365,-1.11443 1.1026,-1.11443 0.60891,0 1.10257,0.49897 1.10257,1.11443 z m -2.74438,0 c 0,0.6155 -0.49362,1.11443 -1.10257,1.11443 -0.60894,0 -1.10256,-0.49893 -1.10256,-1.11443 0,-0.61546 0.49362,-1.11443 1.10256,-1.11443 0.60895,0 1.10257,0.49897 1.10257,1.11443 z m -2.74431,0 c 0,0.6155 -0.49365,1.11443 -1.10257,1.11443 -0.60894,0 -1.1026,-0.49893 -1.1026,-1.11443 0,-0.61546 0.49366,-1.11443 1.1026,-1.11443 0.60892,0 1.10257,0.49897 1.10257,1.11443 z m -2.74437,0 c 0,0.6155 -0.49363,1.11443 -1.10254,1.11443 -0.60898,0 -1.1026,-0.49893 -1.1026,-1.11443 0,-0.61546 0.49362,-1.11443 1.1026,-1.11443 0.60891,0 1.10254,0.49897 1.10254,1.11443 z m -2.74432,0 c 0,0.6155 -0.49366,1.11443 -1.10257,1.11443 -0.60894,0 -1.10259,-0.49893 -1.10259,-1.11443 0,-0.61546 0.49365,-1.11443 1.10259,-1.11443 0.60891,0 1.10257,0.49897 1.10257,1.11443 z m -2.74437,0 c 0,0.6155 -0.49363,1.11443 -1.10258,1.11443 -0.60893,0 -1.10256,-0.49893 -1.10256,-1.11443 0,-0.61546 0.49363,-1.11443 1.10256,-1.11443 0.60895,0 1.10258,0.49897 1.10258,1.11443 z m -2.74431,0 c 0,0.6155 -0.49365,1.11443 -1.10261,1.11443 -0.60891,0 -1.10256,-0.49893 -1.10256,-1.11443 0,-0.61546 0.49365,-1.11443 1.10256,-1.11443 0.60896,0 1.10261,0.49897 1.10261,1.11443 z m -2.74435,0 c 0,0.6155 -0.49362,1.11443 -1.10256,1.11443 -0.60895,0 -1.10257,-0.49893 -1.10257,-1.11443 0,-0.61546 0.49362,-1.11443 1.10257,-1.11443 0.60894,0 1.10256,0.49897 1.10256,1.11443 z m -2.7443,0 c 0,0.6155 -0.49366,1.11443 -1.10261,1.11443 -0.60891,0 -1.10257,-0.49893 -1.10257,-1.11443 0,-0.61546 0.49366,-1.11443 1.10257,-1.11443 0.60895,0 1.10261,0.49897 1.10261,1.11443 z m -2.74442,0 c 0,0.6155 -0.49362,1.11443 -1.10256,1.11443 -0.60892,0 -1.10258,-0.49893 -1.10258,-1.11443 0,-0.61546 0.49366,-1.11443 1.10258,-1.11443 0.60894,0 1.10256,0.49897 1.10256,1.11443 z m -2.74431,0 c 0,0.6155 -0.49365,1.11443 -1.1026,1.11443 -0.60892,0 -1.10256,-0.49893 -1.10256,-1.11443 0,-0.61546 0.49364,-1.11443 1.10256,-1.11443 0.60895,0 1.1026,0.49897 1.1026,1.11443 z m -2.74431,0 c 0,0.6155 -0.49365,1.11443 -1.1026,1.11443 -0.60891,0 -1.10257,-0.49893 -1.10257,-1.11443 0,-0.61546 0.49366,-1.11443 1.10257,-1.11443 0.60895,0 1.1026,0.49897 1.1026,1.11443 z m -2.74434,0 c 0,0.6155 -0.49366,1.11443 -1.10261,1.11443 -0.6089,0 -1.10253,-0.49893 -1.10253,-1.11443 0,-0.61546 0.49363,-1.11443 1.10253,-1.11443 0.60895,0 1.10261,0.49897 1.10261,1.11443 z m -2.74435,0 c 0,0.6155 -0.49365,1.11443 -1.10259,1.11443 -0.60892,0 -1.10257,-0.49893 -1.10257,-1.11443 0,-0.61546 0.49365,-1.11443 1.10257,-1.11443 0.60894,0 1.10259,0.49897 1.10259,1.11443 z m -2.74437,0 c 0,0.6155 -0.49363,1.11443 -1.10261,1.11443 -0.6089,0 -1.10253,-0.49893 -1.10253,-1.11443 0,-0.61546 0.49363,-1.11443 1.10253,-1.11443 0.60898,0 1.10261,0.49897 1.10261,1.11443 z m 45.26782,2.52165 c 0,0.6155 -0.49366,1.11443 -1.1026,1.11443 -0.60891,0 -1.10257,-0.49893 -1.10257,-1.11443 0,-0.61546 0.49366,-1.11443 1.10257,-1.11443 0.60894,0 1.1026,0.49897 1.1026,1.11443 z m -2.74435,0 c 0,0.6155 -0.49362,1.11443 -1.10256,1.11443 -0.60896,0 -1.10257,-0.49893 -1.10257,-1.11443 0,-0.61546 0.49361,-1.11443 1.10257,-1.11443 0.60894,0 1.10256,0.49897 1.10256,1.11443 z m -2.74434,0 c 0,0.6155 -0.49365,1.11443 -1.1026,1.11443 -0.60891,0 -1.10257,-0.49893 -1.10257,-1.11443 0,-0.61546 0.49366,-1.11443 1.10257,-1.11443 0.60895,0 1.1026,0.49897 1.1026,1.11443 z m -2.74434,0 c 0,0.6155 -0.49362,1.11443 -1.10257,1.11443 -0.60896,0 -1.10257,-0.49893 -1.10257,-1.11443 0,-0.61546 0.49361,-1.11443 1.10257,-1.11443 0.60895,0 1.10257,0.49897 1.10257,1.11443 z m -2.74431,0 c 0,0.6155 -0.49366,1.11443 -1.1026,1.11443 -0.60892,0 -1.10258,-0.49893 -1.10258,-1.11443 0,-0.61546 0.49366,-1.11443 1.10258,-1.11443 0.60894,0 1.1026,0.49897 1.1026,1.11443 z m -2.74438,0 c 0,0.6155 -0.49362,1.11443 -1.10257,1.11443 -0.60891,0 -1.10256,-0.49893 -1.10256,-1.11443 0,-0.61546 0.49365,-1.11443 1.10256,-1.11443 0.60895,0 1.10257,0.49897 1.10257,1.11443 z m -2.74438,0 c 0,0.6155 -0.49362,1.11443 -1.10257,1.11443 -0.60891,0 -1.10253,-0.49893 -1.10253,-1.11443 0,-0.61546 0.49362,-1.11443 1.10253,-1.11443 0.60895,0 1.10257,0.49897 1.10257,1.11443 z m -2.74431,0 c 0,0.6155 -0.49366,1.11443 -1.10257,1.11443 -0.6089,0 -1.10256,-0.49893 -1.10256,-1.11443 0,-0.61546 0.49366,-1.11443 1.10256,-1.11443 0.60891,0 1.10257,0.49897 1.10257,1.11443 z m -2.74434,0 c 0,0.6155 -0.49363,1.11443 -1.10257,1.11443 -0.60892,0 -1.10253,-0.49893 -1.10253,-1.11443 0,-0.61546 0.49361,-1.11443 1.10253,-1.11443 0.60894,0 1.10257,0.49897 1.10257,1.11443 z m -2.74431,0 c 0,0.6155 -0.49366,1.11443 -1.10257,1.11443 -0.60891,0 -1.10257,-0.49893 -1.10257,-1.11443 0,-0.61546 0.49366,-1.11443 1.10257,-1.11443 0.60891,0 1.10257,0.49897 1.10257,1.11443 z m -2.74441,0 c 0,0.6155 -0.49363,1.11443 -1.10257,1.11443 -0.60895,0 -1.10254,-0.49893 -1.10254,-1.11443 0,-0.61546 0.49359,-1.11443 1.10254,-1.11443 0.60894,0 1.10257,0.49897 1.10257,1.11443 z m -2.74432,0 c 0,0.6155 -0.49365,1.11443 -1.10256,1.11443 -0.60895,0 -1.10257,-0.49893 -1.10257,-1.11443 0,-0.61546 0.49362,-1.11443 1.10257,-1.11443 0.60891,0 1.10256,0.49897 1.10256,1.11443 z m -2.74434,0 c 0,0.6155 -0.49363,1.11443 -1.10253,1.11443 -0.60898,0 -1.10257,-0.49893 -1.10257,-1.11443 0,-0.61546 0.49359,-1.11443 1.10257,-1.11443 0.6089,0 1.10253,0.49897 1.10253,1.11443 z m -2.74431,0 c 0,0.6155 -0.49365,1.11443 -1.10257,1.11443 -0.60894,0 -1.10259,-0.49893 -1.10259,-1.11443 0,-0.61546 0.49365,-1.11443 1.10259,-1.11443 0.60892,0 1.10257,0.49897 1.10257,1.11443 z m -2.74438,0 c 0,0.6155 -0.49362,1.11443 -1.10253,1.11443 -0.60898,0 -1.10261,-0.49893 -1.10261,-1.11443 0,-0.61546 0.49363,-1.11443 1.10261,-1.11443 0.60891,0 1.10253,0.49897 1.10253,1.11443 z m -2.7443,0 c 0,0.6155 -0.49366,1.11443 -1.10258,1.11443 -0.60894,0 -1.10259,-0.49893 -1.10259,-1.11443 0,-0.61546 0.49365,-1.11443 1.10259,-1.11443 0.60892,0 1.10258,0.49897 1.10258,1.11443 z m -2.74438,0 c 0,0.6155 -0.49362,1.11443 -1.10253,1.11443 -0.60899,0 -1.10261,-0.49893 -1.10261,-1.11443 0,-0.61546 0.49362,-1.11443 1.10261,-1.11443 0.60891,0 1.10253,0.49897 1.10253,1.11443 z m -2.74431,0 c 0,0.6155 -0.49366,1.11443 -1.10257,1.11443 -0.60895,0 -1.1026,-0.49893 -1.1026,-1.11443 0,-0.61546 0.49365,-1.11443 1.1026,-1.11443 0.60891,0 1.10257,0.49897 1.10257,1.11443 z"
       inkscape:connector-curvature="0"
       sodipodi:nodetypes="ssssssssssssssssssssssssssssssssssssssssssssssssssssssssssssssssssssssssssssssssssssssssssssssssssssssssssssssssssssssssssssssssssssssssssssssssssssssssssssssssssssssssssssssssssssssssssssssssssssssssssssssssssssssssssssssssssssssssssssssssssssssssssssssssssssssssssssssssssssssssssssssssssssssssssssssssssssssssssssssssssssssssssssssssssssssssssssssssssssssssssssssssssssssssssssssssssssssssssssssssssssssssssssssssssssssssssssssssssssssssssssssssssssssssssssssssssssssssssssssssssssssssssssssssssssssssssssssssssssssssssssssssssssssssssssssssssssssssssssssssssssssssss" />
    <path
       style="display:inline;fill:#999999;fill-opacity:1;fill-rule:evenodd;stroke:none"
       d="m 631.88335,714.51035 c -4.39678,-0.0161 -8.62911,2.42476 -10.68087,6.64343 -2.34914,4.83016 -1.10411,10.47238 2.6794,13.91082 l -13.85576,38.0437 c -1.09155,-0.22252 -2.22392,-0.34869 -3.38597,-0.34869 -8.82285,0 -15.9754,6.76181 -15.9754,15.09453 0,8.33272 7.15255,15.08535 15.9754,15.08535 8.82288,0 15.97544,-6.75263 15.97544,-15.08535 0,-4.0237 -1.66789,-7.68223 -4.38613,-10.38723 l 13.62635,-37.4014 c 0.22351,-0.61345 0.33421,-1.265 0.34871,-1.92694 4.24252,-0.13771 8.26401,-2.56084 10.24958,-6.64343 2.85461,-5.86946 0.40974,-12.93729 -5.45973,-15.7919 -1.65077,-0.80285 -3.39054,-1.1866 -5.11102,-1.19289 z"
       id="path3878"
       inkscape:connector-curvature="0" />
    <path
       style="display:inline;fill:#4d4d4d;fill-opacity:1;fill-rule:evenodd;stroke:none"
       d="m 676.25037,907.56206 13.08588,-2.83975 0,31.71226 -13.08588,2.83976 z"
       id="rect6240"
       inkscape:connector-curvature="0"
       sodipodi:nodetypes="ccccc" />
    <path
       style="display:inline;fill:#cccccc;fill-opacity:1;fill-rule:evenodd;stroke:none"
       d="m 662.90936,888.86618 26.42689,15.85613 -13.08588,2.83975 -26.42689,-15.85613 z"
       id="rect6233"
       inkscape:connector-curvature="0"
       sodipodi:nodetypes="ccccc" />
    <path
       style="display:inline;fill:#999999;fill-opacity:1;fill-rule:evenodd;stroke:none"
       d="m 676.25037,939.27432 -26.42693,15.85613 -26.42688,-15.85613 3e-5,-31.71226 26.42685,-15.85613 26.42689,15.85613 z"
       id="path9087"
       inkscape:connector-curvature="0"
       sodipodi:nodetypes="ccccccc" />
    <path
       sodipodi:nodetypes="ccccc"
       inkscape:connector-curvature="0"
       id="path3214"
       d="m 690.12351,950.75762 7.75523,-1.68293 0,18.79384 -7.75523,1.68294 z"
       style="display:inline;fill:#4d4d4d;fill-opacity:1;fill-rule:evenodd;stroke:none" />
    <path
       sodipodi:nodetypes="ccccc"
       inkscape:connector-curvature="0"
       id="path3216"
       d="m 682.21716,939.67777 15.66158,9.39692 -7.75523,1.68293 -15.66152,-9.39692 z"
       style="display:inline;fill:#cccccc;fill-opacity:1;fill-rule:evenodd;stroke:none" />
    <path
       sodipodi:nodetypes="ccccccc"
       inkscape:connector-curvature="0"
       id="path3220"
       d="m 690.12351,969.55147 -15.66152,9.39692 -15.66154,-9.39692 3e-5,-18.79385 15.66151,-9.39692 15.66152,9.39692 z"
       style="display:inline;fill:#999999;fill-opacity:1;fill-rule:evenodd;stroke:none" />
    <path
       sodipodi:nodetypes="ccccc"
       inkscape:connector-curvature="0"
       id="path3264"
       d="m 715.26783,972.7604 7.75518,-1.68294 0,18.79384 -7.75518,1.68294 z"
       style="display:inline;fill:#4d4d4d;fill-opacity:1;fill-rule:evenodd;stroke:none" />
    <path
       sodipodi:nodetypes="ccccc"
       inkscape:connector-curvature="0"
       id="path3266"
       d="m 707.36147,961.68054 15.66154,9.39692 -7.75518,1.68294 -15.66153,-9.39692 z"
       style="display:inline;fill:#cccccc;fill-opacity:1;fill-rule:evenodd;stroke:none" />
    <path
       sodipodi:nodetypes="ccccccc"
       inkscape:connector-curvature="0"
       id="path3270"
       d="m 715.26783,991.55424 -15.66155,9.39696 -15.66152,-9.39696 0,-18.79384 15.66152,-9.39692 15.66153,9.39692 z"
       style="display:inline;fill:#999999;fill-opacity:1;fill-rule:evenodd;stroke:none" />
    <path
       style="display:inline;fill:#4d4d4d;fill-opacity:1;fill-rule:evenodd;stroke:none"
       d="m 740.88224,950.47585 7.75518,-1.68295 0,18.79384 -7.75518,1.68294 z"
       id="path3274"
       inkscape:connector-curvature="0"
       sodipodi:nodetypes="ccccc" />
    <path
       sodipodi:nodetypes="ccccc"
       inkscape:connector-curvature="0"
       style="display:inline;fill:#333333;fill-opacity:1;fill-rule:evenodd;stroke:none"
       d="m 740.88224,969.26968 7.75518,-1.68294 -15.6615,9.39693 -7.7552,1.68294 z"
       id="path3278" />
    <path
       style="display:inline;fill:#999999;fill-opacity:1;fill-rule:evenodd;stroke:none"
       d="m 740.88224,969.26968 -15.66153,9.39692 -15.66155,-9.39692 0,-18.79383 15.66155,-9.39693 15.66151,9.39693 z"
       id="path3280"
       inkscape:connector-curvature="0"
       sodipodi:nodetypes="ccccccc" />
    <path
       inkscape:connector-curvature="0"
       id="path6334"
       d="m 778.74335,924.12781 c -1.86269,14.55534 -13.31073,21.61558 -19.07268,23.71368 4.72851,-0.80731 29.65282,-8.022 32.18346,-26.51966 z"
       style="display:inline;fill:#373737;fill-opacity:1;stroke:none"
       sodipodi:nodetypes="cccc" />
    <path
       style="display:inline;fill:#cccccc;fill-opacity:1;stroke:none"
       d="m 749.57111,921.32183 13.21345,-2.64269 29.06957,2.64269 -12.96873,2.80389 z"
       id="path6328"
       inkscape:connector-curvature="0"
       sodipodi:nodetypes="ccccc" />
    <path
       style="display:inline;fill:#999999;fill-opacity:1;fill-rule:evenodd;stroke:none"
       d="m 778.73743,923.94279 c -1.75903,15.57702 -16.22771,27.06785 -32.31673,25.6655 -16.08901,-1.40234 -27.70573,-15.16683 -25.94673,-30.74385 1.75902,-15.57701 16.22772,-27.06785 32.31673,-25.6655 4.36381,0.38036 8.90894,2.16757 12.63654,4.33869 l -15.82153,23.86599 z"
       id="path7494"
       inkscape:connector-curvature="0"
       sodipodi:nodetypes="csssccc" />
    <path
       sodipodi:nodetypes="ccccc"
       inkscape:connector-curvature="0"
       id="path3338"
       d="m 749.57111,921.32183 13.21345,-2.64269 15.85614,-23.78419 -13.21346,2.64268 z"
       style="display:inline;fill:#4d4d4d;fill-opacity:1;stroke:none" />
    <path
       sodipodi:nodetypes="cccc"
       inkscape:connector-curvature="0"
       id="path3340"
       d="m 733.8592,897.73504 c 13.25196,-10.67418 32.46234,-10.23158 44.7815,-2.84009 l -13.21346,2.64268 c -5.84259,-3.28629 -16.83975,-8.30443 -31.56804,0.19741 z"
       style="display:inline;fill:#cccccc;fill-opacity:1;stroke:none" />
    <path
       style="display:inline;fill:#373737;fill-opacity:1;fill-rule:evenodd;stroke:none"
       d="m 487.1917,801.94299 c 0,8.09574 -6.56288,14.65863 -14.65862,14.65863 -8.09573,0 -14.65861,-6.56289 -14.65861,-14.65863 0,-8.09572 6.56288,-14.65862 14.65861,-14.65862 8.09574,0 14.65862,6.5629 14.65862,14.65862 z"
       id="path4225"
       inkscape:connector-curvature="0" />
    <path
       style="display:inline;fill:#373737;fill-opacity:1;fill-rule:evenodd;stroke:none"
       d="m 487.1917,801.94299 c 0,8.09574 -6.56288,14.65863 -14.65862,14.65863 -8.09573,0 -14.65861,-6.56289 -14.65861,-14.65863 0,-8.09572 6.56288,-14.65862 14.65861,-14.65862 8.09574,0 14.65862,6.5629 14.65862,14.65862 z"
       id="path4227"
       inkscape:connector-curvature="0" />
    <path
       style="display:inline;fill:#0000b2;fill-opacity:1;fill-rule:evenodd;stroke:none"
       d="m 470.41453,793.71825 c -5.36069,-0.0759 -8.39894,8.19329 -3.89063,11.38742 3.34215,2.98168 9.7695,1.3353 10.55244,-3.29419 1.03126,-3.96188 -2.37569,-8.58576 -6.66181,-8.09323 z"
       id="path4258"
       inkscape:connector-curvature="0" />
    <path
       style="display:inline;fill:#0000cc;fill-opacity:1;fill-rule:evenodd;stroke:none"
       d="m 470.26267,795.44957 c -3.9887,0.28412 -5.8868,6.75968 -2.05543,8.72638 2.88334,1.99783 7.97233,-0.48489 7.26739,-4.2852 -0.2421,-2.56421 -2.55357,-4.81507 -5.21196,-4.44118 z"
       id="path4293"
       inkscape:connector-curvature="0" />
    <path
       style="display:inline;fill:#0000ff;fill-opacity:1;fill-rule:evenodd;stroke:none"
       d="m 470.30854,798.18402 c -2.09254,0.12138 -1.21897,3.97093 0.82584,2.94549 1.53257,-0.78922 0.98146,-3.21338 -0.82584,-2.94549 z"
       id="path4290"
       inkscape:connector-curvature="0" />
    <path
       style="display:inline;fill:#373737;fill-opacity:1;fill-rule:evenodd;stroke:none"
       d="m 551.20349,801.94299 c 0,8.09574 -6.56289,14.65863 -14.65861,14.65863 -8.09573,0 -14.65862,-6.56289 -14.65862,-14.65863 0,-8.09572 6.56289,-14.65862 14.65862,-14.65862 8.09572,0 14.65861,6.5629 14.65861,14.65862 z"
       id="path4299"
       inkscape:connector-curvature="0" />
    <path
       id="path4301"
       d="m 551.20349,801.94299 c 0,8.09574 -6.56289,14.65863 -14.65861,14.65863 -8.09573,0 -14.65862,-6.56289 -14.65862,-14.65863 0,-8.09572 6.56289,-14.65862 14.65862,-14.65862 8.09572,0 14.65861,6.5629 14.65861,14.65862 z"
       style="display:inline;fill:#373737;fill-opacity:1;fill-rule:evenodd;stroke:none"
       inkscape:connector-curvature="0" />
    <path
       inkscape:connector-curvature="0"
       id="path4303"
       d="m 534.42632,793.71825 c -5.3607,-0.0759 -8.39893,8.19329 -3.89063,11.38742 3.34216,2.98168 9.76949,1.3353 10.55244,-3.29419 1.03126,-3.96188 -2.37569,-8.58576 -6.66181,-8.09323 z"
       style="display:inline;fill:#0000b2;fill-opacity:1;fill-rule:evenodd;stroke:none" />
    <path
       style="display:inline;fill:#0000cc;fill-opacity:1;fill-rule:evenodd;stroke:none"
       d="m 534.27445,795.44957 c -3.98869,0.28412 -5.88679,6.75968 -2.05542,8.72638 2.88335,1.99783 7.97232,-0.48489 7.26739,-4.2852 -0.24209,-2.56421 -2.55357,-4.81507 -5.21197,-4.44118 z"
       id="path4305"
       inkscape:connector-curvature="0" />
    <path
       style="display:inline;fill:#0000ff;fill-opacity:1;fill-rule:evenodd;stroke:none"
       d="m 534.32033,798.18402 c -2.09254,0.12138 -1.21898,3.97093 0.82584,2.94549 1.53257,-0.78922 0.98146,-3.21338 -0.82584,-2.94549 z"
       id="path4307"
       inkscape:connector-curvature="0" />
  </g>
  <g
     inkscape:groupmode="layer"
     id="layer2"
     inkscape:label="outline"
     transform="translate(-250,-1.6318979e-6)">
    <path
       id="path6085"
       style="color:#000000;font-style:normal;font-variant:normal;font-weight:normal;font-stretch:normal;font-size:medium;line-height:normal;font-family:Sans;-inkscape-font-specification:Sans;text-indent:0;text-align:start;text-decoration:none;text-decoration-line:none;letter-spacing:normal;word-spacing:normal;text-transform:none;direction:ltr;block-progression:tb;writing-mode:lr-tb;baseline-shift:baseline;text-anchor:start;display:inline;overflow:visible;visibility:visible;fill:#000000;fill-opacity:1;stroke:none;stroke-width:8;marker:none;enable-background:accumulate"
       d="m 553.38967,122.89218 c -8.7305,0 -16.27764,6.18889 -15.82862,15.83778 0.35795,7.69158 5.94728,14.88841 16.82665,14.58106 6.73174,-0.19018 14.59025,-6.34958 14.34072,-14.83057 -0.25672,-8.72672 -6.60825,-15.58827 -15.33875,-15.58827 z m -0.73528,1.7976 c 7.46095,0 13.48872,6.02774 13.48872,13.48871 0,7.46098 -6.02777,13.47955 -13.48872,13.47955 -7.46096,0 -13.47956,-6.01857 -13.47956,-13.47955 0,-7.46097 6.0186,-13.48871 13.47956,-13.48871 z m -63.2765,-1.7976 c -8.73051,0 -16.40527,6.87662 -15.82863,15.83778 0.56065,8.71248 7.44824,15.01068 16.14326,14.53051 8.71722,-0.48139 15.18538,-6.04952 15.18538,-14.78002 0,-8.73049 -6.76951,-15.58827 -15.50001,-15.58827 z m -0.7353,1.7976 c 7.46097,0 13.48873,6.02774 13.48873,13.48871 0,7.46098 -6.02776,13.47955 -13.48873,13.47955 -7.46095,0 -13.47955,-6.01857 -13.47955,-13.47955 0,-7.46097 6.0186,-13.48871 13.47955,-13.48871 z m 32.42893,40.35202 c -7.10125,0.0776 -14.78074,1.07414 -21.07957,4.54652 -3.65171,2.0131 -7.33782,6.39987 -6.99408,10.76206 0.35903,4.55619 4.44507,8.35861 8.26703,10.16311 8.00237,3.77825 20.43806,4.36926 30.01609,3.06488 5.6423,-0.76838 10.94384,-2.84579 15.13726,-6.76609 2.54406,-2.37836 3.61273,-6.74852 2.23126,-10.17109 -2.56689,-6.35946 -9.4004,-9.14435 -15.42008,-10.49113 -3.94373,-0.88232 -8.12132,-1.1524 -12.15791,-1.10826 z m -1.047,1.22318 c 7.43724,-0.26219 15.17995,1.30292 21.65317,5.12693 3.57328,2.1109 6.46215,7.1795 4.47481,11.1538 -2.61562,5.23071 -8.61288,7.41635 -14.11572,8.65214 -8.57132,1.9249 -17.65807,1.4929 -26.08559,-0.94766 -4.52406,-1.31013 -9.35846,-3.81549 -11.07155,-8.48118 -1.35406,-3.68784 0.77615,-7.66267 3.71817,-9.85347 6.03564,-4.49446 14.19523,-5.39563 21.42671,-5.65056 z M 438.45903,50.13227 c -10.22151,0.98363 -12.91194,11.00122 -11.00201,16.03837 1.90383,5.02103 5.05995,8.3534 10.73216,8.67924 3.65466,10.75957 11.82373,33.23009 11.82373,33.23009 l -10.97848,10.99158 -0.0983,30.08686 53.26565,59.50907 19.87628,0.21752 0,1.30299 -72.27019,0.37623 -30.35421,15.42485 -0.12847,33.03361 -12.51606,7.42338 0,3.7557 -6.33479,-3.6122 -8.21644,1.77156 -2.36994,1.42438 -0.0678,-13.71763 c 0,0 -11.11668,-6.50252 -15.47573,-9.12081 5.08421,-5.8564 7.84226,-13.5596 6.9187,-21.73795 -1.76399,-15.62095 -15.86165,-26.63686 -27.96238,-26.82772 -12.45349,-0.19642 -22.85545,3.62132 -30.38781,7.64988 4.81429,7.22154 14.75583,21.84129 14.75583,21.84129 l -14.10079,1.29975 c 0,0 -10.55909,2.04072 -13.56798,2.94759 2.2929,21.96222 23.88311,29.6984 38.86183,26.62396 l 0.0882,18.3789 16.42586,9.92426 10.38285,-2.30286 0.0749,13.53163 c 5.71681,3.41519 11.14914,7.14603 16.85365,10.58175 l 8.30427,-2.00955 c 0,0 11.22764,-6.11834 16.58105,-9.59809 l 0,-3.73463 1.7526,1.05524 c 0,26.68381 0.31198,79.67522 0.31198,79.67522 0,0 48.01495,0.3762 72.17843,0.3762 -10.17843,20.317 -20.11881,40.3693 -28.95027,57.9098 39.61323,16.685 117.30386,15.9146 153.41902,-5.8451 -11.43491,-17.8821 -30.82764,-50.8902 -30.82764,-50.8902 l 56.48746,0 30.36065,-15.5037 0,-69.42289 c 1.44669,0.86879 3.88419,2.14992 3.88419,2.14992 l 7.50594,-1.8352 0,15.37898 c 5.71426,3.41948 16.90096,10.04647 16.90096,10.04647 0,0 5.59116,-1.14758 8.24129,-1.72384 l 0,13.68142 c 5.71427,3.41952 17.13161,10.27714 17.13161,10.27714 2.78234,-0.613 8.30426,-2.0095 8.30426,-2.0095 0,0 11.2294,-6.11525 16.58106,-9.59817 l 0,-10.76613 9.03834,-1.92427 16.58106,-10.17474 0,-17.61019 c 7.35081,0.1318 17.93147,-2.62964 25.67835,-7.57957 9.83679,-6.2853 15.9104,-12.85984 17.21029,-22.47993 -9.43514,-0.82603 -29.15093,-2.49696 -29.15093,-2.49696 l 15.69889,-23.60067 c 0,0 -8.00878,-6.33368 -21.50854,-5.72978 -9.33559,0.41762 -18.50581,2.58108 -25.58524,8.41311 -6.62326,5.47076 -12.06123,12.63715 -13.07291,21.59633 -0.87779,7.77316 1.17323,14.99527 5.6323,20.73112 -2.89375,1.68093 -16.91901,10.21037 -16.91901,10.21037 l 0,10.75427 -8.74471,1.75909 0,-13.90811 -13.42449,-8.05653 4.88164,-2.57846 0,-33.47405 c 0,0 -22.10158,-13.50787 -27.63813,-16.82879 l -13.09429,2.83542 c 0,0 -3.5769,1.79931 -4.588,2.45916 l 0,-18.59976 -102.77121,0.24776 0,-6.3865 19.99449,-10.00184 c 0,0 32.45282,-36.06138 48.6787,-54.09253 7.29614,-1.96164 12.69958,-8.32111 12.69958,-15.92037 0,-4.09167 -1.59043,-7.83498 -4.17506,-10.71757 4.45369,-12.4924 9.93254,-29.90541 13.25015,-38.02534 4.28561,-0.55839 8.59047,-2.80773 10.61661,-6.97378 3.20154,-6.58282 0.80137,-13.63855 -5.77169,-16.859 -6.63469,-3.25064 -14.61076,-0.633 -17.36748,5.23303 -2.41014,5.12851 -1.73492,11.48058 2.3334,14.53478 l -10.63372,29.50479 c -8.76921,-8.76919 -26.7639,-26.73365 -26.7639,-26.73365 l -103.39245,0.7224 -29.5284,14.45077 -10.18931,10.23105 -9.60602,-27.93678 c 3.6746,-3.90477 5.37132,-9.97611 2.5601,-14.89267 -2.90025,-5.07222 -7.05784,-7.14019 -13.32356,-6.44027 z m 214.53491,2.61388 c 5.19185,2.43398 7.63027,9.68356 4.7361,14.63303 -2.64374,4.52117 -7.44309,6.93659 -12.80178,5.42823 -0.36255,1.11436 1.46498,2.34397 1.08276,3.50272 -3.98984,12.09564 -14.94769,42.49406 -14.94769,42.49406 -0.71922,1.88554 -3.15654,1.78932 -3.15654,1.78932 0,0 4.46929,2.67071 7.39582,-3.45017 2.83314,5.38818 1.97585,13.35435 -3.5511,17.57204 -9.41481,6.90141 -23.53337,1.80507 -23.80254,-10.86438 0.10039,-10.48701 11.7338,-16.15492 19.5724,-13.42449 5.15424,-14.08599 9.28949,-26.96398 13.75108,-39.14232 -5.24046,-3.02438 -5.08381,-10.45087 -3.39388,-13.81617 2.80722,-5.59024 9.23469,-7.47878 15.11537,-4.72187 z m -203.70896,4.49449 c 2.62962,7.57937 -0.0902,12.63217 -7.16833,15.68426 1.21467,1.18337 5.10548,-0.13835 5.10548,-0.13835 l 10.12636,28.18723 -6.0405,5.93562 -11.27068,-33.55897 c -4.47928,-0.13875 -9.43721,-2.73812 -11.15656,-6.99244 -2.42645,-6.00395 0.31909,-12.87283 8.21868,-15.05537 4.56629,-1.26161 10.89122,2.20739 12.18555,5.93802 z m 147.56103,19.1062 -24.90366,13.15838 -100.27535,0.0236 27.20956,-13.45705 z m 4.51459,0.84419 26.50948,26.14242 -1.67006,2.20224 -3.89062,1.95449 c -5.39999,0.20411 -10.19849,2.75477 -13.25931,6.62507 l -7.23985,3.80804 -27.55555,-27.42707 z m -131.5484,13.66307 102.24026,0.70655 28.50065,28.50066 0,28.19785 c -17.32505,19.29119 -52.03708,58.31349 -52.03708,58.31349 l -55.20016,0.12846 -52.44353,-58.32267 -0.15871,-28.65935 z m 136.69615,27.82162 c -0.60658,1.68004 -0.94514,3.48128 -0.94514,5.35879 0,7.1228 4.74756,13.16247 11.3507,15.50745 l -13.79151,6.90035 0,-26.07819 z m 15.01194,21.84807 c 0.62138,0.0394 1.16575,0.077 1.7159,0.055 l -45.98093,51.09198 c -7.39274,3.69806 -14.78499,7.39708 -22.1784,11.09378 15.83278,-17.58356 31.65793,-35.17401 47.48578,-52.76201 z m -281.57913,58.85757 c 20.44737,-0.40219 28.15191,16.08335 29.48934,25.41483 0.8952,7.92759 -1.69365,15.32669 -6.22234,20.38573 -2.05361,0.45878 -6.12371,1.43845 -8.03968,1.6275 3.84144,-5.5316 5.83349,-11.37292 4.59989,-20.05208 -2.17693,-15.31606 -16.91555,-26.87028 -33.92145,-25.21565 5.13025,-1.34287 9.9794,-2.07938 14.09424,-2.16033 z m -6.84034,3.65081 c 16.13297,2.68914 25.14436,14.03076 24.51418,29.45076 -0.61189,14.97251 -14.46795,24.40858 -26.71874,25.055 -14.32174,0.78099 -27.89568,-9.56491 -29.77067,-24.53964 9.98635,-0.91046 29.7,-2.59514 29.7,-2.59514 0,0 -1.30792,-1.23633 -16.44715,-23.95542 6.51863,-3.73529 12.44093,-4.44643 18.72238,-3.41556 z m 223.66441,2.23748 0,6.41403 -13.69977,6.56732 0.0826,-9.23753 5.43219,0 z m -43.0079,3.62849 27.70234,0.11533 0,9.92843 -27.8204,0.0302 z m -73.63742,2.72131 71.9582,0.12847 0.0182,9.01083 29.36321,0 17.58122,-8.63462 96.62329,0.24775 -24.99543,12.49772 -218.24056,0.61084 z m 218.79258,2.41329 0,16.5168 c -6.89044,4.09022 -13.71638,8.2896 -20.61847,12.36008 l 0,33.37311 c 6.87099,4.12614 13.74536,8.24666 20.61847,12.36926 l 0,68.91174 -26.42689,13.2135 0,-143.53105 z m 20.1046,11.39659 24.50911,14.82842 -10.6625,1.92696 -25.09636,-14.23198 z m -268.46875,0.95304 219.1294,1.11155 0,143.87971 -218.68247,1.3856 z m 382.15046,4.43057 -10.05711,1.94801 c -4.6175,-2.12854 -12.63698,-6.70109 -27.02334,-2.02934 14.32818,-7.56734 30.09953,-3.70348 37.08045,0.0813 z m -463.92968,-2.12614 0.65775,1.02031 -25.73009,2.3506 10.01035,-2.03476 z m 337.41994,0.32116 25.546,14.97523 0,31.23512 -25.546,14.97523 c 0,0 -17.22604,-9.98412 -25.54599,-14.97523 l 0,-31.23512 c 8.3199,-4.99116 17.22793,-9.98091 25.54599,-14.97523 z m 114.18902,5.03888 c -5.47787,8.2157 -16.23539,24.30076 -16.23539,24.30076 0,0 19.43103,2.4716 29.59281,3.23517 -1.32134,9.91008 -11.52083,20.57804 -21.70127,22.45367 -9.65465,1.77877 -21.47439,-0.65705 -27.87399,-8.79456 -4.73784,-6.46215 -7.25633,-12.13951 -6.55815,-19.56594 1.92499,-20.47637 24.36399,-32.1232 42.77599,-21.6291 z m 12.41177,-1.66481 -14.63224,21.74982 -10.72341,2.1749 14.68727,-21.86804 z m -88.55711,10.34406 0,29.28979 -10.14863,2.20225 0,-29.87707 z m -341.18001,4.85848 14.78738,8.48292 -6.8517,1.50983 -13.44941,-8.5346 z m -7.6951,2.05396 14.83113,9.12366 -0.17642,16.5656 -14.72459,9.61978 -14.63633,-9.05378 0,-17.21064 z m 423.49562,6.00215 25.33822,2.15887 -9.51209,1.66626 -24.67048,-2.12362 z m -401.44006,1.81581 0.02,13.3955 -5.5431,3.33151 0,-15.43042 z m 428.77766,1.96992 c -1.44169,8.16378 -14.29356,18.66569 -23.84278,21.8664 8.26285,-4.18865 12.5443,-14.39059 13.45201,-19.73757 3.29723,-0.70965 7.09288,-1.42214 10.39077,-2.12883 z m -396.86561,1.56075 0.0403,31.5035 -10.90881,-6.6478 -0.21598,-18.3057 z m -19.29027,7.16979 6.77421,4.00368 0,5.02759 -12.9096,-7.63775 z m -7.70969,2.40079 14.48381,8.77141 0,17.34265 -14.12185,8.76308 -15.07745,-8.51533 -0.0182,-16.9291 z m 316.56221,6.59024 12.85537,7.68805 -5.58314,1.13657 -12.66416,-7.71432 z m 42.46096,0.99478 14.91765,8.89174 0,18.04504 -14.91765,8.99645 -14.89934,-8.99789 0,-17.94807 z m -50.86782,0.98849 14.43656,8.52451 0.11533,17.43423 -14.43656,8.79996 -14.5519,-8.52451 0,-17.52994 z m 22.88226,7.94247 0,12.55528 -5.99193,3.60366 0,-15.10371 z m 50.17427,-0.33807 0,16.32806 -4.81739,1.03544 0,-16.36999 z m -364.60961,1.5981 5.70877,3.41973 0,3.07214 -5.79697,1.01472 z m 324.41215,10.59913 1.11696,0.84834 0,4.14672 -6.3131,-3.84787 z m -7.70766,2.20243 14.53211,8.50471 0,17.73864 -14.30146,8.51533 -14.67638,-8.75515 0,-17.31367 z m 16.88117,9.97392 5.40465,3.18906 0,11.15865 c -1.60879,0.33392 -3.79343,0.72395 -5.40465,1.04604 z m -249.17434,63.5127 87.72531,0.9121 c 9.35756,16.9759 19.22142,33.0149 28.64474,49.9781 -41.68162,19.414 -106.68316,20.0822 -144.81565,6.1845 9.45145,-18.8581 19.04194,-38.2279 28.4456,-57.0747 z"
       inkscape:connector-curvature="0"
       sodipodi:nodetypes="ssssssssssssssssssssssssssssssssssssscscccccccccccccccccsscccccccccccccccccccccccccccccccccccscccscsccccccccccccccccsccssscccccccscsscscccccccssscccccssscccccccccccccccccccccccsccccccccccscccscscscccccccccccccccccccccccccccccccccccccccccccccccccccccccccccccccscscccccccccccccccccccccccccccccccccccccccccccccccccccccccccccccccccccccccccccccccccccccccccccccccccccccccccccccc" />
  </g>
</svg>
