<?xml version="1.0" encoding="UTF-8" standalone="no"?>
<!-- Created with Inkscape (http://www.inkscape.org/) -->

<svg
   xmlns:dc="http://purl.org/dc/elements/1.1/"
   xmlns:cc="http://creativecommons.org/ns#"
   xmlns:rdf="http://www.w3.org/1999/02/22-rdf-syntax-ns#"
   xmlns:svg="http://www.w3.org/2000/svg"
   xmlns="http://www.w3.org/2000/svg"
   xmlns:sodipodi="http://sodipodi.sourceforge.net/DTD/sodipodi-0.dtd"
   xmlns:inkscape="http://www.inkscape.org/namespaces/inkscape"
   width="648.68274"
   height="501.62067"
   id="svg2"
   version="1.1"
   inkscape:version="0.48.4 r9939"
   sodipodi:docname="seagull.svg">
  <defs
     id="defs4" />
  <sodipodi:namedview
     id="base"
     pagecolor="#ffffff"
     bordercolor="#666666"
     borderopacity="1.0"
     inkscape:pageopacity="0.0"
     inkscape:pageshadow="2"
     inkscape:zoom="1"
     inkscape:cx="324.34137"
     inkscape:cy="250.81033"
     inkscape:document-units="px"
     inkscape:current-layer="layer3"
     showgrid="false"
     fit-margin-top="5"
     fit-margin-left="5"
     fit-margin-right="5"
     fit-margin-bottom="5"
     inkscape:window-width="1304"
     inkscape:window-height="746"
     inkscape:window-x="-8"
     inkscape:window-y="-8"
     inkscape:window-maximized="1"
     inkscape:object-paths="false"
     inkscape:object-nodes="false"
     inkscape:snap-page="false" />
  <metadata
     id="metadata7">
    <rdf:RDF>
      <cc:Work
         rdf:about="">
        <dc:format>image/svg+xml</dc:format>
        <dc:type
           rdf:resource="http://purl.org/dc/dcmitype/StillImage" />
        <dc:title />
      </cc:Work>
    </rdf:RDF>
  </metadata>
  <g
     inkscape:groupmode="layer"
     id="layer3"
     inkscape:label="colours"
     style="display:inline"
     transform="translate(-290.17314,-15.024743)">
    <path
       sodipodi:nodetypes="csssssssssssscssccscsssscsssccssssscsssccsccccssssscc"
       inkscape:connector-curvature="0"
       id="path4152"
       d="m 932.48959,90.256366 c 0,0 2.4563,-11.298994 -10.31647,-22.106753 C 909.40033,57.341884 893.67997,58.815683 880.90718,55.376851 868.13442,51.93802 857.81793,44.077826 853.3966,39.165228 c -4.42137,-4.912598 -8.35147,-8.842696 -21.61549,-13.264027 -13.26406,-4.421364 -33.40575,-7.860195 -46.17854,-0.982533 -12.77276,6.877663 -33.40572,17.685391 -35.86205,47.652308 -2.4563,29.966914 -1.47377,32.914484 -2.4563,47.652304 -0.98253,14.73783 -0.49127,26.03682 -19.65042,35.86205 -19.15919,9.82523 -64.3552,23.08926 -93.83085,34.38828 -29.47565,11.29899 -58.9513,25.54555 -64.84643,29.47565 -5.89513,3.93007 -14.24656,11.299 -18.66793,11.79026 -4.42133,0.49127 -6.87766,0.49127 -8.35142,2.94757 -1.4738,2.4563 -0.98254,2.4563 -0.98254,2.4563 -8.84269,0 -53.54743,11.79026 -57.96877,14.73782 -4.42136,2.94757 -8.35146,6.87766 -20.63298,12.28153 -12.2815,5.40386 -24.56302,9.33396 -28.00186,16.21159 -3.80278,2.4891 -8.94407,5.04571 -10.31649,16.21162 -0.49127,4.9126 -5.89513,3.9301 -5.89513,6.87767 0,2.94756 2.94757,3.43883 2.94757,3.43883 0,0 -14.24656,3.4388 -27.51062,8.84269 -13.26403,5.40387 -24.56302,10.31646 -32.91448,11.79026 -8.35143,1.47377 -49.61734,9.8252 -49.61734,14.24656 0,4.42133 11.29899,4.42133 20.63295,4.9126 9.33396,0.49127 18.66792,-0.49127 18.66792,-0.49127 0,0 -6.38639,3.9301 -22.59802,6.87767 -16.21159,2.94756 -33.89698,11.79026 -32.42321,14.24656 1.4738,2.45633 -3.93007,8.35146 39.30088,4.42136 43.23097,-3.9301 48.63484,-2.94757 48.63484,-2.94757 l 4.91259,6.87767 c 0,0 21.61549,-4.91263 28.00189,-4.91263 6.38639,0 30.45818,-2.4563 38.80961,-4.9126 8.35143,-2.4563 37.82708,-8.8427 44.70474,-6.87766 6.87766,1.96506 15.22909,3.93009 19.15919,3.43883 3.93007,-0.49127 26.03682,8.84269 38.31835,9.82523 12.28152,0.9825 24.56305,-0.98254 24.56305,-0.98254 0,0 0,5.40387 10.80773,5.89513 10.80773,0.49127 34.38825,4.9126 43.72221,4.42137 9.33396,-0.49127 18.17665,-2.94757 21.61549,-3.43883 3.43883,-0.49127 20.14169,3.43883 20.14169,3.43883 4.81131,-2.53228 11.79026,-0.98254 11.79026,-0.98254 0,0 7.36892,-1.96503 8.35146,0 0.9825,1.96504 0.72926,6.34081 0.72926,6.34081 0,0 7.69736,0.14675 9.72319,1.41274 -0.25336,-2.78548 2.24436,-4.3451 5.02984,-4.09189 l 3.1856,-0.22295 c 0,0 -0.9825,-11.79026 4.91263,-16.70289 5.89513,-4.9126 50.1086,-5.89513 86.95318,-38.31835 36.84455,-32.42321 45.68725,-74.67165 47.65231,-112.00747 1.96503,-37.33584 -0.98253,-63.86393 -9.82523,-85.47942 -8.84269,-21.61549 -19.15919,-28.00185 0,-42.248441 19.15919,-14.24656 45.68728,-9.825196 62.8814,-1.965033 10.80773,-3.930097 23.08926,2.947565 23.08926,2.947565 z"
       style="fill:#ffffff;stroke:none" />
    <path
       style="fill:#cccccc;stroke:none;display:inline"
       d="m 388.39941,375.51636 c 7.59962,-4.88547 8.53979,-7.20089 56.30881,-12.62918 -10.85658,3.79981 -18.99905,7.59962 -18.99905,7.59962 9.87587,-1.01292 30.72443,-4.45037 42.66671,-7.70736 11.94225,-3.25696 27.49049,-5.25363 42.01471,-3.40108 6.53581,0.83365 36.22459,11.60858 45.49139,12.62921 10.26225,1.13026 25.76342,-0.9052 25.76342,-0.9052 1.26615,6.07747 6.74951,5.57243 30.25436,8.17881 15.99809,1.774 26.12998,3.00375 36.11639,0.65197 6.64521,-1.56496 12.55922,-3.29337 29.92696,1.55573 5.28421,-2.31683 7.16731,-1.44802 11.50997,-0.90518 6.18659,-0.83242 10.49143,-2.69903 8.97348,6.27305 4.30625,0.10912 6.04248,0.60327 10.0969,1.54344 -0.7233,-3.87118 3.29146,-3.83669 5.06405,-3.83669 0,0 1.82939,-0.75968 3.22388,-1.01241 0.77097,-11.30966 0.60497,-17.42865 17.44053,-20.15605 4.12743,-0.66869 87.07099,-11.83592 113.74241,-95.32259 -2.71415,2.17133 -5.93476,-0.1803 -5.39192,-2.89463 0.54285,-2.71415 -2.17133,-5.42829 -4.88547,-2.17133 4.34263,-9.77092 10.42147,-28.04666 9.87866,-68.75888 -0.42965,-32.22516 -3.81856,-58.91448 -5.60863,-72.69016 -7.54029,-13.20765 -11.165,-22.677008 6.87466,-33.91056 6.62389,-4.468524 9.48287,-4.859856 3.51173,-6.488369 2.42777,-0.639646 6.13272,1.775795 6.13272,1.775795 -16.61324,-18.909557 -3.52468,-17.60565 7.21315,-18.732925 4.36705,-0.458498 12.81177,0.285033 16.12107,0.189081 3.77463,-0.109121 0.10159,-2.758327 -1.52369,-4.663625 -0.78521,-0.920477 -1.41466,-2.118336 -1.72992,-4.248996 -1.89247,-0.57872 -4.08901,-1.542845 -5.97208,-2.082024 -0.21918,7.003496 8.12942,9.72037 8.12942,9.72037 0,0 -7.56528,-0.154589 -12.49836,-0.976512 -4.93304,-0.822173 -7.81065,-0.411087 -9.45499,0 -1.64435,0.411087 -5.34413,2.466522 -10.27721,1.233261 -4.93304,-1.233261 -6.98847,-2.055434 -4.11087,-5.755248 2.87761,-3.699782 7.39957,-0.411087 7.39957,-0.411087 2.46655,-2.466521 5.75525,-2.877608 9.86611,-2.466521 -2.8776,-3.288695 -9.45503,-10.688259 -20.55437,-14.388072 1.64435,2.466552 1.64435,4.933074 1.64435,4.933074 0,0 -7.39957,-3.699782 -11.92155,-1.644348 -3.69979,-2.877639 -9.455,-4.933074 -16.03242,-2.466521 2.87763,-2.466553 6.57742,-4.1109 6.57742,-4.1109 0,0 -9.04395,-0.822174 -16.44351,1.23326 -7.39956,2.055435 -1.64435,-2.055434 2.05543,-2.877608 3.69979,-0.822174 -2.05543,-2.466521 -6.1663,-1.233261 -4.1109,1.233261 -4.52199,3.288696 -15.21024,5.34413 -10.6883,2.055466 -18.08786,5.344161 -21.78764,10.68829 -3.69978,5.34413 -4.52199,7.399564 -6.57742,9.043912 4.93307,-8.221738 5.34416,-11.510433 7.81068,-13.565867 2.46652,-2.055435 4.93304,-4.933074 8.63282,-7.399596 -3.98026,0 -15.6044,5.095941 -23.09809,27.062154 -3.17864,23.789608 -1.58973,49.674503 -4.94885,69.914313 -3.00899,18.13009 -23.99092,22.83858 -34.52813,28.05876 4.11087,1.23326 30.09915,0.75758 47.36483,-4.58655 17.26568,-5.34413 35.35353,-15.21025 42.34204,-22.60981 6.98848,-7.3996 13.56587,-21.37658 22.19872,-1.64435 8.63283,19.7322 16.22314,78.0575 14.79916,101.12753 -0.33021,5.34975 -4.93307,23.43199 -6.57742,26.3096 -1.64435,2.87763 -16.4435,-3.2887 -23.43198,-0.82218 -6.98848,2.46655 -22.60981,20.14329 -32.47593,23.43202 -9.86608,3.28869 -16.85459,4.52195 -21.37655,7.39956 -4.52195,2.87761 -11.09934,6.1663 -25.8985,7.39956 -2.87761,4.1109 -11.92155,5.75525 -11.92155,5.75525 l -9.86609,0.41109 -2.05547,5.34413 -8.63282,0.82217 c 0,0 3.69978,5.34413 -2.05543,9.04395 -5.75522,3.69978 -21.78764,6.1663 -25.07634,9.04391 -3.28872,2.8776 -3.28872,2.46652 -4.1109,5.75521 -0.82217,3.28873 -22.63693,17.69342 -30.24715,7.12099 -0.15302,-0.2126 -2.32889,-4.05279 -5.21017,-3.93646 -3.79821,0.15334 -10.58237,0.84165 -18.19478,1.4611 -0.97087,0.079 -0.60955,3.69458 -1.63284,3.78009 -63.44886,5.30067 -225.99431,24.58955 -225.99431,24.58955 z"
       id="path3020"
       inkscape:connector-curvature="0"
       sodipodi:nodetypes="cccssscssccccccscscsccccssscccsssscccccccssssscsccscsssssssscccccssssssscc" />
    <path
       style="fill:#ffff00;stroke:none"
       d="m 858.56622,82.913245 c -3.58586,-4.303023 -9.98458,-12.393376 -8.14231,-14.903484 2.1004,-2.86171 5.37878,-4.661587 32.27261,-3.585831 2.86871,-2.151512 -3.73653,-2.555763 -3.95286,-9.678102 5.47749,2.460752 28.78994,3.021755 39.86502,10.739716 12.54414,8.741726 14.95666,19.392044 13.88091,24.770822 -3.59164,-1.768238 -14.70867,-6.242907 -23.2578,-2.883001 -10.04037,-4.303055 -29.08225,-11.557782 -50.66557,-4.46012 z"
       id="path4142"
       inkscape:connector-curvature="0"
       sodipodi:nodetypes="csccsccc" />
    <path
       style="fill:#808080;stroke:none"
       d="m 587.20583,213.36811 c 0,0 -24.99907,12.79019 -21.51082,13.95296 3.48822,1.16274 18.02257,-12.20887 11.62749,-4.65102 -6.39512,7.55789 4.0696,5.81376 1.74409,8.72063 -2.32548,2.90686 5.73091,12.24666 -0.6642,13.99075 -6.39511,1.74412 -28.06435,9.61159 -23.99474,-0.27186 -10.46472,1.74412 -27.08332,9.53596 -29.4088,-0.34737 -11.62749,1.74412 -50.57955,13.95296 -69.18351,27.32454 -2.32551,1.16277 1.23834,0.38519 14.60992,-3.10303 -15.1157,6.39511 -26.81876,17.63738 -10.54032,16.47465 0,2.90689 -5.23234,12.79022 36.04521,2.90689 -9.88337,6.97647 -13.37162,8.72059 -17.44122,12.20881 -4.06963,3.48825 2.90686,8.13927 6.39511,9.88336 0.58136,3.48825 6.39509,11.62749 21.51082,7.55786 2.90687,4.06963 8.72063,5.81376 13.37162,4.65102 1.16273,5.23234 9.88333,8.13923 18.02256,6.39511 5.23238,4.65099 15.11574,5.23237 21.51086,3.48822 -2.32548,6.39511 -6.39512,15.69712 33.1383,13.953 13.37161,-1.16274 18.21156,-5.11899 17.04882,-8.02586 3.77755,0 13.77552,-2.32638 19.96769,-1.64739 14.77373,1.62002 31.00671,7.94972 33.91109,0.95265 0.89602,-2.15866 1.82418,-7.17727 1.82418,-7.17727 2.42526,-3.30717 38.3682,-7.53691 29.37174,-19.22601 2.325,1.827 4.26552,-0.58819 7.38583,-1.00069 2.51302,-0.33219 3.04132,-3.6244 3.99321,-5.47332 2.42074,0.30542 6.88284,0.4786 9.72307,-1.37305 -0.96845,-2.1861 -1.65015,-10.50705 0.79468,-12.35678 2.64829,-2.00376 12.39858,-2.41162 15.32698,-2.05619 0.12041,-2.13674 -1.07453,-4.73399 -1.82496,-6.24435 1.24562,-1.07958 3.37687,-0.85205 5.94916,-1.95901 -1.30723,-0.79524 -5.92163,-1.59644 -7.23018,-3.72496 3.27214,0.12135 9.6497,1.65156 15.44931,0.11696 -1.95465,-1.18046 -2.25734,-1.03982 -5.31816,-1.89241 2.19817,0.94108 3.51249,-0.21323 5.48564,-0.92716 -0.89436,-0.47631 -3.88181,-1.73641 -5.10585,-3.33673 5.48671,1.26844 8.98885,1.8704 9.62382,1.25558 -0.43385,-1.09174 -0.73189,-6.0177 1.23123,-3.28399 2.52089,3.51045 4.71084,4.8947 6.73382,4.30814 1.25547,-1.24678 6.44312,-4.70699 7.96876,-5.58213 2.36919,-1.359 5.11632,-4.54899 4.60263,-5.98632 -0.5996,-1.67764 -1.21629,-4.44914 -8.35209,1.47271 -1.21886,1.0115 1.9016,-4.13859 3.0898,-4.73111 1.84626,-0.92076 6.74776,0.0944 8.07788,-0.63529 1.38399,-0.75914 1.20225,-0.61669 2.33454,-1.52406 -0.74429,-0.21323 -7.49533,-0.94522 -0.87994,-5.40471 4.5584,-3.07287 12.29385,-10.2809 12.99618,-11.50996 4.65096,-8.13924 -0.58138,-31.97557 -4.65099,-33.13831 -4.06963,-1.16277 -18.0226,0 -28.48731,-1.16277 -10.46475,-1.16274 -21.51085,-11.0461 -55.8119,1.74416 -5.23237,2.90686 -36.0452,5.23234 -36.0452,-2.32551 -6.39508,4.0696 -18.60396,5.23237 -10.46472,-4.06964 -10.46472,5.81376 -20.34808,5.81376 -11.62749,-5.23234 -9.88333,4.65099 -31.04681,9.68716 -41.51152,21.31462 8.1282,-9.14288 20.03849,-16.35405 20.03849,-16.35405 0,0 -17.98905,9.13143 -25.61824,15.38751 -4.53039,3.71499 -10.46472,6.39511 -5.23237,-2.32548 z"
       id="path4146"
       inkscape:connector-curvature="0"
       sodipodi:nodetypes="cssssccccccscccccccssccsccscccccccccscssssscssssccccccscc" />
    <path
       id="path3014"
       style="fill:#6e5b3d;fill-opacity:1;stroke:none"
       d="m 809.76676,46.663503 c 0,0.729138 3.4151,6.481125 10.15535,6.643145 6.74029,0.162114 11.41354,-4.212716 11.59331,-5.103874 0.17968,-0.891127 -1.79743,-3.564603 -5.7517,-5.34692 -3.95431,-1.782286 -12.94137,-1.377251 -15.99696,3.807649 z M 694.76836,486.26762 c 0,0 -2.30761,-6.85198 -0.53457,-17.65811 1.38788,-8.45889 -1.57806,-16.78865 -5.87312,-35.75901 -4.29522,-18.97036 -12.16968,-33.70643 -12.52761,-39.07542 -0.35794,-5.36897 2.14759,-12.52759 2.14759,-12.52759 0,0 7.66738,-2.8132 11.91873,-0.4562 -0.14863,7.37774 4.06145,11.82509 5.13523,13.25681 1.07381,1.43172 3.35369,12.27569 1.61935,13.77395 -2.9511,2.54934 -1.88742,8.12635 0.61808,16.35875 2.50553,8.23243 12.30993,37.33418 10.62861,59.39356 1.45167,-2.15797 3.99457,-4.61371 3.85654,-13.24854 -0.30949,-19.36853 -6.70244,-46.27001 -9.56591,-53.78659 -2.86343,-7.51656 -4.7624,-14.12719 -2.82424,-19.01646 1.17977,-2.97613 -0.1549,-8.99628 -1.67432,-10.76887 4.65309,0 11.07003,1.65221 11.07003,1.65221 0,0 -1.01659,-5.26382 4.87587,-3.71031 0.0608,11.17613 4.21216,17.46021 6.71769,21.39746 0,5.01106 -1.99232,21.03181 0.57611,42.80327 3.69401,31.31243 7.78591,32.37436 11.96674,40.04679 8.32004,1.62409 23.87389,-0.67019 33.87892,7.96399 8.94827,2.50553 25.76922,10.63555 24.69541,11.35139 -1.07378,0.71587 -10.66183,-1.88373 -15.31495,-3.67338 -4.65309,-1.78966 -10.44088,-3.26521 -15.85365,0.14863 -16.03866,-5.08164 -34.33767,-2.70173 -41.49839,-3.11441 -3.84863,-0.2217 -7.11453,1.95186 -8.23886,-6.17474 -0.46822,-3.38418 -3.91097,-5.89714 -4.16421,-8.29794 0,0 -7.3302,-1.38562 -11.63507,-0.87915 z"
       inkscape:connector-curvature="0" />
    <path
       id="path3017"
       style="fill:#4d4d4d;stroke:none;display:inline"
       d="m 566.32835,302.61281 c 9.10042,-5.63979 18.18892,-4.06408 18.18892,-4.06408 -15.22025,13.86128 -51.87064,28.51168 -47.52801,33.39716 4.34266,4.88547 9.77095,21.71319 72.73921,11.94224 0.54281,-0.54281 0.54281,-3.79981 0.54281,-3.79981 0,0 15.74206,-1.62848 18.45624,-1.08566 2.71411,0.54285 4.88544,8.68528 15.74205,8.68528 10.85658,0 24.07966,-12.42677 31.49311,-16.5424 7.05524,-3.91681 14.10734,-8.28599 18.24364,-12.91017 3.02978,-3.38716 2.98359,-7.91886 7.80319,-7.45986 -1.08567,0 5.42832,-5.42829 5.42832,-5.42829 l 8.68525,-0.54282 c 0,0 -2.71414,-7.59962 -0.54281,-12.4851 3.25696,-2.71414 11.67797,-3.2562 16.02059,-3.79905 -0.5436,-4.06936 -5.43506,-8.14018 -7.06354,-7.59737 -1.62851,0.54282 -5.15728,-1.08864 -5.15728,-1.08864 0,0 -0.54281,2.1713 0.54285,5.42829 -2.17133,-1.08566 -3.79981,-4.34266 -3.79981,-4.34266 0,0 -10.85661,-0.54281 -11.39943,-3.79981 -0.54281,-3.25696 0,5.97114 0,7.59962 0,1.62849 -11.3994,-7.59962 -23.34167,-4.88544 -11.94225,2.71412 -10.85659,0.54282 -6.51396,-3.79981 4.34263,-4.34266 -8.68528,-3.79984 -10.31376,-1.08566 -1.62849,2.71414 -7.59962,0 -7.05678,-2.71418 0.54282,-2.71411 3.25697,-7.05677 -9.2281,-6.51392 -12.48509,0.54281 -21.17038,9.2281 -24.42734,5.9711 10.57679,-11.19216 2.597,-7.47685 -15.19924,-3.25696 -16.82772,3.79978 -21.71319,3.25696 -10.31376,-2.71414 11.39943,-5.97114 17.37053,-13.02795 -1.62852,-8.68529 -18.99902,4.34263 -10.85658,8.14244 -35.28392,18.99905 -10.85658,7.05677 -19.54187,11.3994 -23.34168,17.37054 7.05681,-1.62851 21.17035,-4.88548 30.9413,-11.94225 -5.42829,10.85658 -27.68656,19.26107 -36.91466,24.14654 l -25.62918,12.4935 c -2.01104,0.41698 -4.36464,0.56593 -6.27145,0.90856 -5.06477,3.03888 -18.24811,8.11858 -26.85824,10.14447 4.5583,2.53237 24.31095,0 34.44052,-0.50647 -11.64899,3.54535 -26.33687,3.54535 -38.49234,5.57125 10.63605,3.03887 16.71377,2.5324 27.34982,1.51942 10.63602,-1.01292 32.96581,-5.25843 41.06943,-6.77786 0.95334,-1.17681 2.48769,-2.33874 1.98118,-3.35169 -10.63602,4.5583 -12.66194,0.50648 -5.06477,-5.06477 15.8349,-9.8701 24.0108,-14.66448 31.70182,-17.93286 z m -89.22761,11.4714 c 0,0 -19.94885,9.23255 -30.64297,11.90606 2.00514,2.67354 7.62398,5.22228 16.31297,4.55387 0.66837,-3.3419 6.30941,-10.44449 14.33,-16.45993 z m 19.4661,-26.05347 -58.90066,15.35934 c -4.67867,6.68382 -13.65162,12.22976 -2.7983,19.08911 4.20641,2.65849 8.14535,-1.71117 11.48729,-5.72148 -2.67354,6.68385 4.67868,0 9.35735,-3.3419 1.33677,-0.66837 1.33677,2.00514 1.33677,2.00514 z m 155.17028,-33.98538 c 5.43021,-4.20431 12.34682,-2.64576 18.52017,0.88194 7.05533,-3.5277 17.6383,-7.93724 27.33932,0.88191 8.81915,-5.29152 25.5755,-15.87448 30.86701,-14.99254 5.29145,0.88191 30.86695,-5.29148 31.74886,-9.70105 0.88191,-4.40958 -7.0553,-7.93724 -11.46487,-6.17339 -4.40957,1.76381 -8.81915,-1.76385 -12.34681,-3.52767 -3.52764,-1.76381 -14.1106,-5.29148 -45.85946,2.64576 -31.74892,7.93721 -37.92231,23.81165 -37.92231,23.81165 -0.45934,1.20645 -0.52444,4.59411 -0.88191,6.17339 z"
       inkscape:connector-curvature="0"
       sodipodi:nodetypes="ccsccsssscccccscccsssssssccsscccccccccsccccccccccscccccccssssscc" />
    <path
       inkscape:connector-curvature="0"
       id="path3050"
       d="m 909.40033,87.308801 c -1.56865,-0.834779 -5.62615,-2.275903 -5.62615,-2.275903 0,0 -1.81932,-4.80539 5.99136,-3.983216 7.81065,0.822174 11.74743,1.420899 10.10308,5.120681 -3.58348,0.04233 -8.02218,0.323006 -10.46829,1.138438 z"
       style="fill:#ff0000;stroke:none;display:inline"
       sodipodi:nodetypes="ccscc" />
  </g>
  <g
     inkscape:groupmode="layer"
     id="layer2"
     inkscape:label="outline"
     style="display:inline"
     transform="translate(-290.17314,-15.024743)">
    <path
       style="fill:#000000;fill-opacity:1;fill-rule:nonzero;stroke:none;display:inline"
       d="m 798.65757,20.0405 c -16.12091,1.41883 -34.51957,13.706408 -44.35671,30.998522 -13.05134,27.610835 -6.09378,58.723618 -13.73492,87.505848 -9.14488,17.46154 -31.87958,21.71944 -48.32779,29.23003 -44.2453,15.4796 -90.46241,29.33907 -130.42975,54.28433 -5.72119,6.07772 -12.97965,7.75825 -20.57156,9.641 -6.3191,7.53205 -18.42255,4.49377 -27.08074,8.59708 -15.67063,3.92727 -32.23013,7.24077 -44.52053,17.74679 -13.80615,7.6263 -30.45504,10.95027 -40.95889,23.27347 -5.97327,4.08278 -6.83897,10.61708 -9.51819,15.84318 -5.49059,0.7759 -3.76475,12.29542 -8.47425,12.40432 -17.83484,6.74954 -33.44632,13.60312 -47.46809,17.68543 -3.02517,3.55905 -2.87224,2.53861 -5.95652,1.16672 -1.8619,0.43285 -3.7344,0.8688 -5.64952,1.22815 -1.29221,1.98921 -4.26846,2.34222 -6.44779,1.04393 -11.49858,3.07258 -34.14762,7.3244 -34.14263,11.05337 0.009,5.99529 16.57223,4.55846 39.23945,4.48276 -3.08293,2.3844 -10.78894,3.97635 -19.77325,6.01796 -1.74362,1.31711 -4.15934,1.55278 -6.07935,2.02646 -2.06638,2.25699 -4.27932,1.79937 -5.46526,1.53516 -1.11711,1.34147 -2.4895,3.43476 -5.46529,0.98253 -7.02297,2.39992 -13.6135,5.59815 -18.23805,10.13228 -1.27412,8.47572 16.54275,6.21728 26.7737,5.7723 22.03846,-0.80436 38.35024,-3.98807 60.4251,-4.11432 3.4789,14.0572 13.56029,6.45865 22.32371,6.00968 21.72354,-2.69144 43.83691,-3.26242 64.9242,-9.71877 13.64824,-3.44391 28.62403,-5.33773 42.06017,-0.42987 20.02141,0.67937 38.31622,15.20479 60.56427,11.20085 6.37247,-2.28014 9.06238,0.47166 14.00094,3.3774 18.66008,2.13803 35.41217,6.56413 54.36616,5.28916 10.43396,-1.99824 24.2815,-4.21902 34.62581,0.0452 -4.69865,15.87398 7.58579,30.11511 9.48541,45.51134 2.25195,14.56919 10.6126,29.26183 6.33733,44.04562 -0.84149,6.17113 1.89341,13.34706 2.67325,15.0079 3.8323,-2.49186 11.66483,0.10975 14.32028,4.90451 1.58054,4.31484 1.01969,11.64445 8.60112,10.27551 14.43499,-0.38447 29.68537,-0.69587 43.75091,2.80837 10.38566,-4.39245 18.42465,3.11398 28.56263,4.7407 8.41625,-0.40303 3.19717,-7.07132 -3.38972,-9.15378 -10.55042,-4.33419 -22.57686,-9.57582 -31.5922,-12.82187 -7.72885,-3.06227 -21.00266,1.4494 -23.88757,-8.62169 -7.7856,-15.18566 -7.5047,-34.93881 -9.03924,-51.84439 -0.78144,-11.21521 4.76121,-23.24632 -3.86867,-32.64018 -2.52114,-5.22986 -0.90906,-10.32922 3.09591,-12.5722 -1.06214,-7.43017 2.34837,-17.26091 11.31041,-16.72164 42.52555,-7.4011 82.17696,-29.24656 104.12671,-67.4068 24.04887,-41.67211 25.10694,-93.14775 19.7979,-139.82514 -1.90116,-19.48665 -11.16837,-36.52487 -18.46731,-54.18614 -0.27155,-12.452048 16.79019,-20.221088 26.81472,-23.134318 15.28403,-3.871648 33.30444,0.48349 45.68724,6.124411 8.74117,-2.963369 15.97068,-0.579441 23.67466,3.160477 C 937.50428,74.519264 917.25482,58.945813 897.44181,56.979244 878.16651,56.077706 861.03516,47.600411 848.72519,32.862335 834.64012,22.9267 815.80093,19.770769 798.65757,20.040469 z m 3.62305,2.116549 c 10.18502,-0.283152 20.72709,2.087857 29.01709,4.851201 13.26406,4.421332 16.04782,7.20509 20.46918,12.117688 4.42133,4.912629 16.3427,13.689852 29.11546,17.128683 12.77279,3.438831 27.57609,1.965064 40.34885,12.772792 12.77279,10.807728 10.31649,19.584794 10.31649,19.584794 0,0 -11.36446,-6.648382 -22.17219,-2.718285 -17.19413,-7.860163 -44.18077,-12.052246 -63.33996,2.194314 -19.15916,14.246564 -9.53048,22.237824 -0.68778,43.853314 8.84269,21.61545 11.79026,47.68501 9.82523,85.02086 -1.96504,37.33581 -12.25528,79.26003 -49.09983,111.68324 -36.84458,32.42325 -78.4642,31.46038 -84.35933,36.37297 -5.89513,4.9126 -5.89108,17.08927 -5.89108,17.08927 -3.14129,-0.34263 -9.11817,0.95259 -8.27367,4.28622 -2.69912,-1.00056 -4.32572,-0.87109 -7.12312,-1.59659 -0.55445,-3.42523 -1.08432,-6.89896 -5.59232,-6.93906 -2.39873,0.096 -4.82251,1.08896 -4.82251,1.08896 0,0 -9.19492,-1.84924 -12.70735,0.524 0,0 -15.7858,-3.01301 -19.22463,-2.52177 -3.43883,0.49126 -13.19859,2.0305 -22.53255,2.52177 -9.33396,0.49126 -32.22667,-4.07738 -43.0344,-4.56862 -10.80776,-0.49126 -10.80776,-5.89513 -10.80776,-5.89513 0,0 -11.80662,2.39892 -24.08815,1.41642 -12.2815,-0.98253 -31.69442,-9.19882 -35.62449,-8.70758 -3.9301,0.49127 -15.59349,-1.47377 -22.47115,-3.4388 -6.87766,-1.96506 -36.88152,4.00783 -45.23295,6.46413 -8.35143,2.4563 -31.66331,4.37151 -38.39206,4.66698 -6.03188,0.26496 -19.89984,5.50019 -25.82799,2.83302 -2.03847,-0.91712 -3.25865,-3.92602 -3.25865,-3.92602 36.40677,-4.00128 141.06705,-14.90687 224.90331,-22.78058 l 1.02756,-5.71339 c -2.59386,-0.97268 -3.52481,3.2104 -3.52481,3.2104 -23.77854,5.81131 -88.90699,6.07988 -28.55454,-19.46623 -48.44313,18.03636 -41.81039,8.63197 -43.02218,7.0447 0,0 39.0171,-24.2869 55.3037,-37.44146 -24.7431,15.34699 -48.91824,34.80401 -68.83792,37.88851 -31.22517,4.83508 -49.44363,4.58065 -60.35386,2.66752 -2.44686,-1.05807 8.16868,-2.61136 17.98259,-2.91317 -5.71126,-2.50296 12.26221,-7.29869 21.49266,-9.88662 -0.31488,4.54368 11.50338,3.55416 14.06237,3.37743 0.98391,3.40415 5.81527,2.97089 6.57062,2.33348 -6.89795,-0.13515 -3.67166,-4.06274 -5.15825,-5.09682 -2.52964,-4.87087 4.13988,-9.09638 33.95841,-26.22108 -42.6775,21.966 -47.08343,23.78456 -48.205,22.90504 -22.71686,10.15867 -37.98405,12.18005 -40.03776,12.0973 -8.21948,-0.16619 -19.68877,-3.90269 -18.92336,-14.37675 -4.40245,7.62113 -6.17975,6.70595 -10.87652,5.92216 -6.21926,-4.05568 -4.02044,-9.91553 0.69267,-14.81888 0.40908,-0.42561 12.29454,-4.92602 24.62448,-8.7813 11.19404,-3.50013 29.35436,-7.32584 36.27959,-9.93084 -14.12404,2.54768 -28.96848,6.42158 -32.59514,7.53594 -12.89483,3.96223 -27.83842,8.85627 -28.2475,8.90412 -11.21913,1.31159 -17.25555,1.41591 -17.25555,-1.35097 0,-2.94757 5.40386,-1.96504 5.89513,-6.87767 0.49126,-4.91259 4.42136,-13.75529 10.31649,-16.21159 3.43883,-6.87766 15.72033,-10.80776 28.00185,-16.21162 12.28153,-5.40387 16.21163,-9.33396 20.63296,-12.28153 4.4133,-2.94217 48.95047,-14.69496 57.9074,-14.73782 -0.0693,-0.11508 -0.0615,-0.61406 1.04393,-2.4563 1.47377,-2.4563 3.93007,-2.4563 8.35143,-2.94757 4.42133,-0.49126 12.77279,-7.86016 18.66792,-11.79026 5.89513,-3.9301 35.37078,-18.17666 64.84643,-29.47565 29.47566,-11.29899 74.67166,-24.56305 93.83085,-34.38828 19.15916,-9.8252 18.66789,-21.12422 19.65043,-35.86205 0.98253,-14.73782 1.37562,-17.68539 3.83192,-47.652304 2.45629,-29.966917 21.71366,-39.628306 34.48642,-46.505968 4.78981,-2.579123 10.59187,-3.698872 16.70289,-3.868669 z m 14.24656,21.083207 c -1.27923,0.918063 -2.57912,2.300581 -2.57912,3.868669 0.55225,3.225135 3.44786,4.447327 6.07935,5.158247 2.80361,0 5.71091,-2.478594 5.71091,-5.158247 0,-1.204412 -0.9571,-2.326012 -1.78081,-3.193182 0,0 0.30698,1.637323 0.30698,3.193182 0,2.085255 -1.92844,3.807273 -4.23714,3.807273 -1.15434,0 -2.37076,-0.457181 -3.25461,-1.166722 -0.88383,-0.709571 -1.41237,-1.628825 -1.41237,-2.640551 0,-1.32247 1.16675,-3.868669 1.16675,-3.868669 z m 3.50023,2.087857 c -0.94305,0 -1.71942,0.752813 -1.71942,1.596591 0,0.843779 0.77637,1.535195 1.71942,1.535195 0.94305,0 1.71941,-0.691416 1.71941,-1.535195 0,-0.843778 -0.77636,-1.596591 -1.71941,-1.596591 z m 60.91637,19.404806 c 2.87908,0.221379 15.065,4.039815 17.50116,4.48276 2.43614,0.442914 8.2266,0.431845 9.33397,-0.675487 -3.32203,0.664418 -6.00288,-0.66238 -7.55315,-1.105325 -0.66439,0.221379 -4.65391,-0.267787 -5.09682,-1.596591 -2.87908,0.221378 -7.31964,-0.662411 -14.18516,-1.105357 z m -41.88001,0.982532 c -4.63753,-0.0602 -8.31621,1.249065 -10.80772,4.114318 0.66438,0.88586 8.18937,2.223758 9.51818,1.780813 1.3288,-0.442946 4.66096,-3.318014 7.98298,-2.210682 3.32203,1.107332 3.94917,2.65162 0.18407,3.316007 -3.76497,0.664418 -5.71693,2.467399 -2.3949,3.131786 3.32202,0.664418 10.19367,0.636228 10.19367,1.965064 0,1.328805 -3.76096,3.340183 -2.21069,3.561624 1.55028,0.221379 6.63202,-0.921104 6.63202,-0.921104 0,0 9.28764,-3.263673 7.73737,-5.035423 -1.55028,-1.77175 -3.9915,-2.456299 -3.9915,-2.456299 0,0 25.21951,-0.644255 42.49406,2.456299 -13.2881,-3.100554 -30.31224,-3.818373 -36.29188,-4.482759 -5.97967,-0.664387 -5.94957,1.124452 -16.58007,-2.64052 -4.65086,-1.64717 -8.85878,-2.532183 -12.46574,-2.579124 z M 639.91886,193.19766 c -3.51452,3.38901 -6.87863,4.03085 -11.05334,5.71091 3.41434,0 6.10377,-0.91511 9.27253,-2.57912 -0.616,1.12201 -1.38145,2.19466 -1.78081,3.31601 -0.73745,2.07051 -1.10661,4.02558 -0.36844,5.64951 0.36907,0.81195 1.09638,1.48123 2.02643,1.78081 0.93007,0.29946 2.00156,0.27751 3.31603,0 1.79963,-0.37992 4.28782,-1.5399 7.12328,-3.07039 -0.48276,0.57634 -0.68749,1.37779 -0.92113,1.96504 -0.14801,0.58417 -0.1756,1.26101 0.18406,1.84224 0.35982,0.58122 0.97567,0.91536 1.65802,1.04392 0.68236,0.12857 1.46656,0.12512 2.4563,0 1.97952,-0.25022 4.763,-0.97356 8.65847,-2.27207 -4.28587,-0.4997 -9.28523,1.7058 -11.11477,0.18406 0.0125,-0.45796 0.4336,-1.10523 0.61406,-1.53519 1.46539,-2.34035 2.17098,-3.88354 1.53519,-5.15825 -4.88704,3.08096 -8.36052,4.63208 -10.56211,5.09685 -1.10077,0.23235 -1.86804,0.21134 -2.33347,0.0615 -0.46543,-0.14989 -0.69208,-0.36807 -0.85971,-0.73688 -0.3353,-0.73767 -0.22828,-2.38958 0.42984,-4.23715 0.92123,-3.03872 3.05515,-5.11118 1.71942,-7.06185 z m -23.94896,7.67595 c 0,0 -6.4377,3.00391 -12.46575,6.01795 -3.21488,1.60744 -6.9395,4.88269 -10.37789,7.3689 -1.71919,1.24311 -3.38408,2.27123 -4.72837,2.82477 -1.3443,0.55351 -2.24643,0.56985 -2.82475,0.18406 -0.24897,-0.16619 -0.15145,-0.0724 -0.12291,-0.24552 0.0282,-0.1734 0.20225,-0.63137 0.67548,-1.16675 0.94648,-1.07071 2.82048,-2.47116 5.03543,-3.86867 4.42986,-2.79505 10.44239,-5.65387 14.43078,-7.12328 -6.41302,1.4716 -12.61708,4.4811 -15.47471,6.26357 -2.29353,1.44712 -4.26486,2.75635 -5.4653,4.11432 -1.65964,1.28017 -1.05543,2.2538 -0.18406,3.68445 1.35392,0.9026 3.0459,0.66752 4.66698,0 1.62111,-0.66749 3.32733,-1.79088 5.09685,-3.07039 2.33495,-1.68834 4.50045,-3.18177 6.69341,-4.72838 -2.06772,2.12894 -3.86773,4.6365 -5.28104,7.43033 -0.074,0.14675 -0.23549,0.22012 -0.30698,0.36844 l 1.4738,1.22815 c 9.81582,-7.2552 17.91301,-11.47572 23.15065,-12.28153 -7.0986,-0.58668 -17.87024,6.44924 -19.95747,7.8602 2.32924,-5.02633 6.87133,-8.48636 15.96598,-14.86065 z m 14.30799,32.54604 c -9.15003,9.08552 -36.81301,7.66534 -42.00283,14.43078 0,0 21.37442,-5.66748 28.73877,-7.67594 7.45183,-2.03233 11.61983,-4.28854 13.26406,-6.75484 z m 113.41984,2.21068 c -5.34413,2.46652 -9.44998,0.8307 -16.02737,2.88614 -6.57742,2.05543 -19.32808,9.01672 -23.02786,11.48324 -3.69981,2.46652 -7.0039,2.46141 -11.11477,1.22815 -4.11087,-1.23326 -14.41037,-3.71345 -19.34341,-1.65802 -4.93304,2.05544 -6.99023,2.89128 -9.45676,1.65802 -2.46652,-1.23326 -5.74333,-3.30236 -7.79876,-1.65802 -2.05544,1.64435 -7.00049,1.28958 -7.00049,1.28958 l -0.79828,2.4563 c 0,0 4.51518,2.87761 6.57062,0 2.05543,-2.87761 6.15442,-2.4853 7.79876,-0.42987 1.64435,2.05543 7.81241,1.64435 9.45676,0 1.64435,-1.64435 14.39669,-3.2887 17.68539,0 3.28869,3.2887 8.25084,3.67592 12.77279,0.79831 4.52199,-2.87761 17.25386,-11.04826 22.59799,-12.28153 5.34416,-1.23326 14.3967,-2.89469 17.68539,-5.7723 z m -188.45994,7.86016 -1.22815,0.67549 c 0,0 -4.76598,2.59489 -15.78179,4.11432 -5.46661,0.754 -8.78744,0.32454 -10.50068,-0.49127 -1.71324,-0.81584 -1.99413,-1.85519 -1.84224,-3.07039 -4.23031,-0.94926 0.0329,4.34206 1.04393,4.8512 2.31666,1.10316 5.88114,1.39525 11.54464,0.61409 10.30492,-1.42137 14.97905,-3.65293 15.78175,-4.05292 0.30416,0.41821 0.47879,0.95444 0.92111,1.16676 0.80781,0.38775 1.68602,0.49126 2.64055,0.49126 1.20739,0 2.35044,-0.36797 3.50023,-0.67549 -0.074,0.28002 -0.4183,0.53351 -0.36844,0.85971 0.0821,0.53714 0.48035,1.03289 0.9211,1.22815 0.44075,0.19535 0.91772,0.24552 1.41237,0.24552 1.63281,0 4.58567,-0.75851 7.86016,-1.59659 -0.13075,0.53972 -0.25744,1.15864 0.0615,1.84224 0.1756,0.37594 0.5129,0.73736 0.92111,0.92111 0.4082,0.18375 0.8571,0.20319 1.35097,0.18406 2.50954,-0.61296 3.69423,-2.03477 3.31601,-2.88617 -1.67511,0.65144 -2.79401,0.89888 -3.37744,0.92114 -0.25524,0.009 -0.37916,0.0188 -0.42984,0 0.006,-0.0188 -0.0361,-0.28974 0.0611,-0.67549 0.1063,-0.42046 0.30824,-0.86438 0.42987,-1.35097 l 0.42984,-1.65802 -1.65799,0.42987 c -4.40581,1.14935 -7.58585,1.90364 -8.96552,1.90364 -0.17089,0 -0.20821,0.0157 -0.30698,0 0.0508,-0.0126 0.12386,-0.33907 0.73688,-1.10533 l -1.16672,-1.4738 c -1.19798,0.51341 -3.18327,0.92111 -4.72841,0.92111 -0.77257,0 -1.38923,-0.11916 -1.78081,-0.30699 -0.39158,-0.18814 -0.50303,-0.32805 -0.55266,-0.67548 z m -32.36182,13.7553 c -7.20371,4.69805 -26.59541,10.35324 -29.41426,11.60604 -2.81884,1.25282 -16.9485,11.23759 -16.9485,11.23759 0,0 5.99302,-1.83578 10.37789,-5.28104 4.38486,-3.44522 9.05726,-5.37921 13.75532,-6.63201 4.69805,-1.25283 12.83344,-4.0401 22.22955,-10.93058 z m -22.5366,1.90363 c 0,0 -9.40721,1.5473 -15.04487,4.05292 -5.63766,2.50563 -11.87583,4.08964 -16.88711,5.34247 -5.01124,1.2528 -13.1412,4.35994 -13.1412,4.35994 9.08289,-1.56602 20.62628,-4.05882 27.20357,-6.87767 6.57727,-2.81884 17.86961,-6.87766 17.86961,-6.87766 z m 247.47268,7.61455 c -0.63334,0.41108 -0.032,3.4551 0.55266,5.40389 -1.8708,0 -6.87233,-0.59026 -11.23757,-2.14928 0.6236,2.18265 5.64949,4.35993 5.64949,4.35993 l -6.87767,0.92114 6.87767,1.84221 c 0,0 -11.52502,0.65222 -16.82569,-1.84221 0.93541,5.30064 9.02692,5.89513 9.02692,5.89513 0,0 -6.54202,0.0329 -8.41283,1.90364 2.49443,0 4.67175,2.48436 4.35994,4.66698 -3.11805,-0.62363 -11.52981,-0.30761 -16.51867,3.74584 -1.24721,4.98886 -1.25671,9.66431 0.61409,12.1587 -6.54788,2.49443 -14.66633,-1.22282 -19.34341,-5.58808 0.31169,5.61248 9.02692,8.10581 9.02692,8.10581 0,0 -1.52087,2.19162 -2.4563,3.43883 -0.9354,1.24722 -6.85327,0.30228 -12.46575,0.61406 9.04231,2.80624 5.57012,6.81094 -1.28954,11.1762 -12.71736,7.72426 -11.52781,7.48871 -28.43173,19.77325 -13.30027,9.66565 -26.40476,0.21762 -30.45818,-1.96503 l 4.49257,6.71062 c 9.11814,13.61983 40.62834,-12.0312 44.69493,-14.63221 7.96954,-5.09736 24.3546,-14.79161 17.43974,-19.22059 2.02675,0.31169 5.78636,-0.12292 6.87767,-0.12292 1.09131,0 3.39621,-3.15505 4.17571,-5.64948 2.18262,0.46772 5.44566,0.33088 10.74633,-1.22815 -3.11802,-2.65033 -2.78241,-8.43587 -1.53519,-12.95701 6.08016,-3.89755 12.32364,-3.23583 15.59753,-2.4563 0.77953,-1.09131 0.15145,-4.26041 -1.71938,-6.75484 2.96214,-0.77953 7.18467,-1.53519 7.18467,-1.53519 0,0 -3.06518,-2.06983 -8.04438,-3.50023 5.62521,1.23708 15.84315,-0.24552 15.84315,-0.24552 l -4.23711,-2.02647 4.66698,-0.79828 c 0,0 -0.43859,-0.60904 -5.89513,-2.94756 4.20933,1.40303 9.8252,1.28955 9.8252,1.28955 0,0 -0.79352,-1.13336 -1.10533,-3.31601 -0.31169,-2.18262 2.04045,0.95393 3.13179,2.82474 0.58856,0.88771 -0.31075,-3.58132 -1.16676,-2.94757 -1.52005,-2.45545 -2.38333,-3.19418 -2.76334,-2.94756 z m -217.07592,1.78084 c -1.87921,1.2528 -7.2091,2.19218 -9.08831,3.13179 -5.63769,4.69805 -10.01588,5.31211 -6.57062,0.61406 l -12.22013,10.62353 c 5.01128,-0.93963 16.27895,-7.51617 19.09779,-9.39538 2.81882,-1.87921 4.08321,-0.90236 8.78127,-4.974 z m 21.30844,1.22815 c -9.08292,4.38486 -29.15603,14.11731 -32.91448,17.56257 0,0 22.26558,-9.73248 32.91448,-17.56257 z m -153.21935,71.37616 c 0.99805,-0.19974 9.9678,0.74297 9.16937,2.9386 -0.79844,2.19569 -4.66865,8.17646 -5.6667,8.57569 -0.99805,0.3992 -8.10089,-2.93775 -8.10089,-2.93775 0,0 3.60016,-8.37692 4.59822,-8.57654 z m -52.25053,15.57703 c 1.8963,-0.2496 3.13207,0.75168 1.5352,3.74584 -3.19375,5.98829 -8.38235,2.39531 -7.18468,0 1.19764,-1.99611 3.75318,-3.49634 5.64948,-3.74584 z m 338.24954,25.44317 c 3.08152,0.0157 3.61474,0.97018 3.61474,0.97018 0.49126,2.94756 2.27211,7.57776 4.23714,9.5428 1.96503,1.96506 3.16048,9.51818 3.16048,13.44827 0,1.23399 -3.56589,3.77263 -2.02646,9.75979 1.51214,5.88102 7.27457,23.34027 11.03701,42.24844 1.32256,6.6466 3.91683,20.17195 3.11137,26.00813 0.84942,-1.77325 2.96882,-3.03288 4.18804,-7.67999 1.30898,-4.98917 0.53573,-24.63921 -3.97917,-43.66909 -4.28958,-18.08073 -8.39649,-25.94673 -8.39649,-29.38556 0,-3.43883 1.73578,-12.01954 0.26214,-13.98457 0,0 5.02749,1.29265 10.25914,2.11654 0.75115,-0.51309 0.12888,-1.03546 0.42984,-2.88616 1.47336,-0.55919 1.63296,-3.29321 1.80126,-1.76445 l 0.67545,6.1367 c 0.41197,3.74268 2.6636,7.55447 5.64951,12.91199 1.16356,2.0877 -2.0634,17.60697 0.85971,42.449 2.61562,22.22876 4.78539,28.32834 7.26244,33.61866 2.17299,4.64086 5.1542,7.52038 5.1542,7.52038 5.6281,2.39277 9.69905,0.11508 22.02899,2.76335 4.34937,0.93411 8.79115,3.20641 11.48726,5.54305 0,0 6.37875,1.36192 10.97562,3.47157 4.96057,2.27656 13.14051,5.57131 12.33464,6.05471 -2.83393,-0.3633 -9.5491,-2.82434 -13.44405,-4.38863 -10.2576,-3.68903 -15.27412,0.3521 -15.27412,0.3521 -5.21249,-1.43792 -14.90523,-3.82856 -22.09443,-3.69677 -7.38401,0.13546 -8.99835,0.70826 -12.95701,0.58132 -4.1098,-0.13169 -7.45845,0.95284 -10.95097,-0.73688 -2.0733,-1.0031 -0.81596,-6.47269 -3.4879,-8.61746 -1.29983,-1.04339 -3.12172,-3.34247 -3.93838,-5.13783 -2.35003,-0.59271 -7.68011,-2.27559 -10.44333,-1.48609 -1.24549,-4.00934 -2.10137,-9.79067 -1.07262,-14.6108 1.49108,-6.98638 -0.0778,-11.14347 -4.49909,-32.26769 -4.42137,-21.12422 -12.39206,-39.88223 -12.8833,-43.81233 -0.26026,-2.08105 0.3026,-6.12083 0.88417,-8.91638 2.2427,-1.85115 4.1854,-2.46536 6.03432,-2.4563 z"
       id="path3000"
       inkscape:connector-curvature="0"
       sodipodi:nodetypes="ccccccccccccccccccccccccccccccccccccccccccccccccccccccsssssccsssssccccccssscsssssscccccccscccccccccccsscsssscssccsssssssscccscsssscssssscsccccccsssssccsccssscscsssscccccccccscccccssscsssccccsscccccccccsscssssssccsssssscccscccscsscccscccccccccccscccsccccscssccsscscccccccccccccccsccsccscsccccccccccccscccccccsccccssscssscsscscsscssscccccssscscscccccssccssscsscc" />
  </g>
</svg>
