<?xml version="1.0" encoding="UTF-8" standalone="no"?>
<!-- Created with Inkscape (http://www.inkscape.org/) -->

<svg
   xmlns:dc="http://purl.org/dc/elements/1.1/"
   xmlns:cc="http://creativecommons.org/ns#"
   xmlns:rdf="http://www.w3.org/1999/02/22-rdf-syntax-ns#"
   xmlns:svg="http://www.w3.org/2000/svg"
   xmlns="http://www.w3.org/2000/svg"
   xmlns:xlink="http://www.w3.org/1999/xlink"
   xmlns:sodipodi="http://sodipodi.sourceforge.net/DTD/sodipodi-0.dtd"
   xmlns:inkscape="http://www.inkscape.org/namespaces/inkscape"
   width="80"
   height="80"
   viewBox="0 0 21.166666 21.166667"
   version="1.1"
   id="svg8"
   inkscape:version="0.92.4 (5da689c313, 2019-01-14)"
   sodipodi:docname="wN.svg">
  <defs
     id="defs2">
    <linearGradient
       inkscape:collect="always"
       xlink:href="#linearGradient6910"
       id="linearGradient6878"
       gradientUnits="userSpaceOnUse"
       gradientTransform="matrix(2.6376052,0,0,2.9331112,-15.444366,-477.41144)"
       x1="9.2093735"
       y1="259.50635"
       x2="15.229297"
       y2="261.77649" />
    <linearGradient
       inkscape:collect="always"
       id="linearGradient6910">
      <stop
         style="stop-color:#e6e6fa;stop-opacity:1"
         offset="0"
         id="stop6906" />
      <stop
         style="stop-color:#8a2be2;stop-opacity:1"
         offset="1"
         id="stop6908" />
    </linearGradient>
  </defs>
  <sodipodi:namedview
     id="base"
     pagecolor="#ffffff"
     bordercolor="#666666"
     borderopacity="1.0"
     inkscape:pageopacity="0.0"
     inkscape:pageshadow="2"
     inkscape:zoom="1"
     inkscape:cx="40"
     inkscape:cy="40"
     inkscape:document-units="px"
     inkscape:current-layer="layer1"
     showgrid="true"
     units="px"
     inkscape:window-width="939"
     inkscape:window-height="666"
     inkscape:window-x="-7"
     inkscape:window-y="712"
     inkscape:window-maximized="0"
     inkscape:snap-global="false">
    <inkscape:grid
       type="xygrid"
       id="grid842" />
  </sodipodi:namedview>
  <metadata
     id="metadata5">
    <rdf:RDF>
      <cc:Work
         rdf:about="">
        <dc:format>image/svg+xml</dc:format>
        <dc:type
           rdf:resource="http://purl.org/dc/dcmitype/StillImage" />
        <dc:title></dc:title>
      </cc:Work>
    </rdf:RDF>
  </metadata>
  <g
     inkscape:label="Layer 1"
     inkscape:groupmode="layer"
     id="layer1"
     transform="translate(0,-275.83332)">
    <path
       style="display:inline;fill:#e6e6fa;fill-opacity:1;stroke:none;stroke-width:0.75113493;stroke-linecap:butt;stroke-linejoin:miter;stroke-opacity:1"
       d="m 8.0636122,278.3867 c 4.6962798,0.80737 8.6098468,1.61476 8.6098468,4.84428 0,3.2295 -2.348142,8.07378 -2.348142,8.07378 l 1.565428,4.03693 H 5.715472 l -0.7827155,-2.42215 c 0,0 -1.5654248,-4.84429 7.0444215,-8.07378 -1.942233,0.65658 -3.9135658,1.61472 -5.4789936,0 -0.9179358,-0.73585 -2.3481406,0.80736 -2.3481406,0.80736 l -1.5654275,-2.42214 6.2617084,-3.22952 z"
       id="path6802"
       inkscape:connector-curvature="0" />
    <path
       inkscape:connector-curvature="0"
       id="path6804"
       d="m 8.9809563,279.03086 c 4.1871967,0.77604 7.6765257,1.55214 7.6765257,4.65632 0,3.10421 -2.093595,7.76052 -2.093595,7.76052 l 1.39573,3.88028 H 6.8873572 l -0.6978683,-2.32814 c 0,0 -2.4077096,-4.8353 5.2688161,-7.93948 -1.7316923,0.63111 -2.4773487,1.73103 -3.8730823,0.17882 -0.8184306,-0.70729 -2.5851314,-0.17851 -2.5851314,-0.17851 L 4.09589,283.68691 9.6788216,280.58272 Z"
       style="display:inline;fill:url(#linearGradient6878);fill-opacity:1;stroke:none;stroke-width:0.69535911;stroke-linecap:butt;stroke-linejoin:miter;stroke-opacity:1"
       sodipodi:nodetypes="cscccccccccc" />
    <path
       style="color:#000000;font-style:normal;font-variant:normal;font-weight:normal;font-stretch:normal;font-size:medium;line-height:normal;font-family:sans-serif;font-variant-ligatures:normal;font-variant-position:normal;font-variant-caps:normal;font-variant-numeric:normal;font-variant-alternates:normal;font-feature-settings:normal;text-indent:0;text-align:start;text-decoration:none;text-decoration-line:none;text-decoration-style:solid;text-decoration-color:#000000;letter-spacing:normal;word-spacing:normal;text-transform:none;writing-mode:lr-tb;direction:ltr;text-orientation:mixed;dominant-baseline:auto;baseline-shift:baseline;text-anchor:start;white-space:normal;shape-padding:0;clip-rule:nonzero;display:inline;overflow:visible;visibility:visible;opacity:1;isolation:auto;mix-blend-mode:normal;color-interpolation:sRGB;color-interpolation-filters:linearRGB;solid-color:#000000;solid-opacity:1;vector-effect:none;fill:#000000;fill-opacity:1;fill-rule:nonzero;stroke:none;stroke-width:0.75113493;stroke-linecap:butt;stroke-linejoin:miter;stroke-miterlimit:4;stroke-dasharray:none;stroke-dashoffset:0;stroke-opacity:1;color-rendering:auto;image-rendering:auto;shape-rendering:auto;text-rendering:auto;enable-background:accumulate"
       d="m 7.1105406,277.7008 c 0.3254258,0.76069 0.802422,1.52552 1.240039,2.21984 l -6.3036935,3.25415 2.0342819,3.18884 c 0.3232473,-0.39615 0.7215366,-0.70127 1.0409426,-0.95955 1.4199682,-0.88881 1.6095355,1.16743 3.9275948,0.6401 -2.2572688,1.04514 -3.7498873,2.38338 -4.255544,3.65164 -0.7328225,1.72783 -0.5687247,3.10871 -0.3539552,3.79792 l 0.8666855,2.22944 H 16.360219 l -0.0047,-2.21761 -1.592239,-1.20582 c 0.06349,-0.13244 1.044728,-2.19829 1.604226,-3.73729 0.594149,-1.63433 0.97825,-3.32406 0.97825,-5.03417 0,-0.88683 -0.433297,-1.97568 -0.924509,-2.58088 -0.491237,-0.60518 -1.177379,-1.06211 -1.993414,-1.4304 -1.632072,-0.73651 -4.249403,-1.28724 -6.6008312,-1.69149 z m 1.3941164,0.86703 c 2.001098,0.35747 3.922754,0.71314 5.234783,1.30524 0.74939,0.33818 1.33246,0.73611 1.721815,1.21583 0.389355,0.47974 0.740684,1.42189 0.839722,2.14259 0.208796,1.51941 -0.216487,3.77079 -0.978584,5.36602 -0.57992,1.59518 -1.706408,3.74747 -1.706408,3.74747 l 1.687723,1.16059 1.97e-4,1.45524 -5.7062771,-0.17393 -3.6159892,0.17393 -0.6991263,-1.71092 c 0,0 -0.3538091,-1.50171 0.283117,-3.00342 2.0535807,-4.18267 5.4457606,-3.15694 6.2979016,-5.76346 -0.771561,0.64769 -1.43896,0.88742 -2.324626,1.01118 -0.8616161,0.11076 -2.0752716,-0.19194 -2.6014293,-0.69858 -0.5261576,-0.50668 -1.0330933,-0.51031 -1.3686283,-0.45782 -0.3355346,0.0525 -0.5153578,0.14219 -0.7774579,0.3054 -0.3214525,0.19987 -0.3954824,0.3078 -0.5546792,0.45891 l -1.1151351,-1.72245 6.2228027,-3.20647 z"
       id="path6816"
       inkscape:connector-curvature="0"
       sodipodi:nodetypes="cccccccccccccsccccccsscccccccccccsccccc" />
    <path
       style="color:#000000;font-style:normal;font-variant:normal;font-weight:normal;font-stretch:normal;font-size:medium;line-height:normal;font-family:sans-serif;font-variant-ligatures:normal;font-variant-position:normal;font-variant-caps:normal;font-variant-numeric:normal;font-variant-alternates:normal;font-feature-settings:normal;text-indent:0;text-align:start;text-decoration:none;text-decoration-line:none;text-decoration-style:solid;text-decoration-color:#000000;letter-spacing:normal;word-spacing:normal;text-transform:none;writing-mode:lr-tb;direction:ltr;text-orientation:mixed;dominant-baseline:auto;baseline-shift:baseline;text-anchor:start;white-space:normal;shape-padding:0;clip-rule:nonzero;display:inline;overflow:visible;visibility:visible;opacity:1;isolation:auto;mix-blend-mode:normal;color-interpolation:sRGB;color-interpolation-filters:linearRGB;solid-color:#000000;solid-opacity:1;vector-effect:none;fill:#000000;fill-opacity:1;fill-rule:nonzero;stroke:none;stroke-width:0.60090798;stroke-linecap:butt;stroke-linejoin:miter;stroke-miterlimit:4;stroke-dasharray:none;stroke-dashoffset:0;stroke-opacity:1;color-rendering:auto;image-rendering:auto;shape-rendering:auto;text-rendering:auto;enable-background:accumulate"
       d="m 7.2816674,293.4231 v 0.60793 l 2.2990852,-0.087 2.3553904,0.087 v -0.60793 l -2.3553904,-0.087 z"
       id="path6852"
       inkscape:connector-curvature="0"
       sodipodi:nodetypes="ccccccc" />
    <path
       style="color:#000000;font-style:normal;font-variant:normal;font-weight:normal;font-stretch:normal;font-size:medium;line-height:normal;font-family:sans-serif;font-variant-ligatures:normal;font-variant-position:normal;font-variant-caps:normal;font-variant-numeric:normal;font-variant-alternates:normal;font-feature-settings:normal;text-indent:0;text-align:start;text-decoration:none;text-decoration-line:none;text-decoration-style:solid;text-decoration-color:#000000;letter-spacing:normal;word-spacing:normal;text-transform:none;writing-mode:lr-tb;direction:ltr;text-orientation:mixed;dominant-baseline:auto;baseline-shift:baseline;text-anchor:start;white-space:normal;shape-padding:0;clip-rule:nonzero;display:inline;overflow:visible;visibility:visible;opacity:1;isolation:auto;mix-blend-mode:normal;color-interpolation:sRGB;color-interpolation-filters:linearRGB;solid-color:#000000;solid-opacity:1;vector-effect:none;fill:#000000;fill-opacity:1;fill-rule:nonzero;stroke:none;stroke-width:0.75113493;stroke-linecap:butt;stroke-linejoin:miter;stroke-miterlimit:4;stroke-dasharray:none;stroke-dashoffset:0;stroke-opacity:1;color-rendering:auto;image-rendering:auto;shape-rendering:auto;text-rendering:auto;enable-background:accumulate"
       d="m 7.8363463,280.5197 c -0.6321223,0 -1.1497951,0.53402 -1.149803,1.18604 7.9e-6,0.65205 0.5176807,1.19201 1.149803,1.19201 0.632122,0 1.1555729,-0.53996 1.1555807,-1.19201 -7.8e-6,-0.65202 -0.5234587,-1.18604 -1.1555807,-1.18604 z m 0,0.76288 c 0.2324296,0 0.4160061,0.1834 0.416009,0.42316 -2.9e-6,0.23984 -0.1835794,0.42914 -0.416009,0.42914 -0.2324327,0 -0.4102284,-0.1895 -0.4102313,-0.42914 2.9e-6,-0.23985 0.1777989,-0.42316 0.4102313,-0.42316 z"
       id="path6864"
       inkscape:connector-curvature="0" />
  </g>
</svg>
