<?xml version="1.0" encoding="UTF-8" standalone="no"?>
<!-- Created with Inkscape (http://www.inkscape.org/) -->

<svg
   xmlns:dc="http://purl.org/dc/elements/1.1/"
   xmlns:cc="http://creativecommons.org/ns#"
   xmlns:rdf="http://www.w3.org/1999/02/22-rdf-syntax-ns#"
   xmlns:svg="http://www.w3.org/2000/svg"
   xmlns="http://www.w3.org/2000/svg"
   xmlns:xlink="http://www.w3.org/1999/xlink"
   xmlns:sodipodi="http://sodipodi.sourceforge.net/DTD/sodipodi-0.dtd"
   xmlns:inkscape="http://www.inkscape.org/namespaces/inkscape"
   width="80"
   height="80"
   viewBox="0 0 21.166666 21.166667"
   version="1.1"
   id="svg8"
   inkscape:version="0.92.4 (5da689c313, 2019-01-14)"
   sodipodi:docname="wP.svg">
  <defs
     id="defs2">
    <linearGradient
       inkscape:collect="always"
       xlink:href="#linearGradient6904"
       id="linearGradient6898"
       gradientUnits="userSpaceOnUse"
       gradientTransform="matrix(2.6033535,0,0,3.0419266,2.0541265,-507.32635)"
       x1="3.2842243"
       y1="260.68024"
       x2="6.0667095"
       y2="261.22427" />
    <linearGradient
       inkscape:collect="always"
       id="linearGradient6904">
      <stop
         style="stop-color:#e6e6fa;stop-opacity:1"
         offset="0"
         id="stop6900" />
      <stop
         style="stop-color:#8a2be2;stop-opacity:1"
         offset="1"
         id="stop6902" />
    </linearGradient>
  </defs>
  <sodipodi:namedview
     id="base"
     pagecolor="#ffffff"
     bordercolor="#666666"
     borderopacity="1.0"
     inkscape:pageopacity="0.0"
     inkscape:pageshadow="2"
     inkscape:zoom="9.975"
     inkscape:cx="40"
     inkscape:cy="40"
     inkscape:document-units="px"
     inkscape:current-layer="layer1"
     showgrid="false"
     units="px"
     inkscape:window-width="1278"
     inkscape:window-height="1378"
     inkscape:window-x="-7"
     inkscape:window-y="0"
     inkscape:window-maximized="0" />
  <metadata
     id="metadata5">
    <rdf:RDF>
      <cc:Work
         rdf:about="">
        <dc:format>image/svg+xml</dc:format>
        <dc:type
           rdf:resource="http://purl.org/dc/dcmitype/StillImage" />
        <dc:title></dc:title>
      </cc:Work>
    </rdf:RDF>
  </metadata>
  <g
     inkscape:label="Layer 1"
     inkscape:groupmode="layer"
     id="layer1"
     transform="translate(0,-275.83332)">
    <g
       id="g836"
       transform="translate(0.3978738,-0.13526675)">
      <path
         sodipodi:nodetypes="scccccccccccs"
         inkscape:connector-curvature="0"
         style="display:inline;opacity:1;fill:#e6e6fa;fill-opacity:1;stroke:none;stroke-width:0.79118156;stroke-miterlimit:4;stroke-dasharray:none;stroke-opacity:1"
         d="m 10.236147,278.80294 c -2.3122224,0 -4.1866604,1.87499 -4.186654,4.18714 7.8e-6,1.57581 0.875022,2.94214 2.1620221,3.65681 l -0.9567169,0.69681 0.837334,0.83767 -2.5120045,6.11953 h 4.6053363 4.605338 l -2.481367,-6.13326 0.806698,-0.82394 -0.940399,-0.65309 c 1.333495,-0.70014 2.247081,-2.09053 2.247091,-3.70053 6e-6,-2.31215 -1.874419,-4.18714 -4.186678,-4.18714 z"
         id="path6892" />
      <path
         id="path6894"
         d="m 10.705889,279.18555 c -1.9020834,0 -3.4440266,1.80191 -3.4440217,4.02346 6.5e-6,1.51568 0.7198077,2.8293 1.7785149,3.51515 l -0.7870114,0.66956 0.688805,0.8047 -2.0664158,5.88246 h 3.788405 3.788437 l -2.041192,-5.89474 0.663587,-0.79242 -0.773568,-0.62692 c 1.096931,-0.67281 1.848471,-2.00876 1.848477,-3.55779 3e-6,-2.22155 -1.541928,-4.02346 -3.444017,-4.02346 z"
         style="display:inline;opacity:1;fill:url(#linearGradient6898);fill-opacity:1;stroke:none;stroke-width:0.70352811;stroke-miterlimit:4;stroke-dasharray:none;stroke-opacity:1"
         inkscape:connector-curvature="0"
         sodipodi:nodetypes="scccccccccccs" />
      <path
         sodipodi:nodetypes="scccccccccccsccccccccccccccc"
         inkscape:connector-curvature="0"
         id="path6896"
         d="m 10.236147,278.40818 c -2.5260142,0 -4.582432,2.05555 -4.5824255,4.58192 8.1e-6,1.59128 0.8715061,2.67778 2.1064184,3.49767 l -1.4703181,0.85595 1.5470257,1.09278 -2.8111266,6.25916 h 5.1597431 5.159734 l -2.811149,-6.25916 1.547058,-1.09278 -1.452318,-0.80789 c 1.280736,-0.81223 2.189795,-1.91877 2.189804,-3.54573 6e-6,-2.52637 -2.056429,-4.58192 -4.582446,-4.58192 z m 3.79091,4.58192 c -7e-6,1.46122 -0.825935,2.71671 -2.034434,3.35053 l -0.300894,0.15682 1.227388,0.84626 -1.222375,0.83765 2.539662,5.72362 -4.05093,-0.19905 -4.0509236,0.19905 2.5396475,-5.72362 -1.2223703,-0.83765 1.2421519,-0.88143 -0.2911042,-0.16229 c -1.1663521,-0.64749 -1.9575883,-1.87984 -1.9575955,-3.31 -5.9e-6,-2.09908 1.6924517,-3.79127 3.7908772,-3.79121 2.098474,4e-5 3.790922,1.69336 3.790915,3.79131 z"
         style="color:#000000;font-style:normal;font-variant:normal;font-weight:normal;font-stretch:normal;font-size:medium;line-height:normal;font-family:sans-serif;font-variant-ligatures:normal;font-variant-position:normal;font-variant-caps:normal;font-variant-numeric:normal;font-variant-alternates:normal;font-feature-settings:normal;text-indent:0;text-align:start;text-decoration:none;text-decoration-line:none;text-decoration-style:solid;text-decoration-color:#000000;letter-spacing:normal;word-spacing:normal;text-transform:none;writing-mode:lr-tb;direction:ltr;text-orientation:mixed;dominant-baseline:auto;baseline-shift:baseline;text-anchor:start;white-space:normal;shape-padding:0;clip-rule:nonzero;display:inline;overflow:visible;visibility:visible;opacity:1;isolation:auto;mix-blend-mode:normal;color-interpolation:sRGB;color-interpolation-filters:linearRGB;solid-color:#000000;solid-opacity:1;vector-effect:none;fill:#000000;fill-opacity:1;fill-rule:nonzero;stroke:none;stroke-width:0.79118156;stroke-linecap:butt;stroke-linejoin:miter;stroke-miterlimit:4;stroke-dasharray:none;stroke-dashoffset:0;stroke-opacity:1;color-rendering:auto;image-rendering:auto;shape-rendering:auto;text-rendering:auto;enable-background:accumulate" />
    </g>
  </g>
</svg>
