<?xml version="1.0" encoding="UTF-8" standalone="no"?>
<!-- Created with Inkscape (http://www.inkscape.org/) -->

<svg
   xmlns:dc="http://purl.org/dc/elements/1.1/"
   xmlns:cc="http://creativecommons.org/ns#"
   xmlns:rdf="http://www.w3.org/1999/02/22-rdf-syntax-ns#"
   xmlns:svg="http://www.w3.org/2000/svg"
   xmlns="http://www.w3.org/2000/svg"
   xmlns:sodipodi="http://sodipodi.sourceforge.net/DTD/sodipodi-0.dtd"
   xmlns:inkscape="http://www.inkscape.org/namespaces/inkscape"
   width="442.36337"
   height="1088.7922"
   id="svg2"
   version="1.1"
   inkscape:version="0.92.4 (5da689c313, 2019-01-14)"
   sodipodi:docname="Thynee.svg">
  <defs
     id="defs4" />
  <sodipodi:namedview
     id="base"
     pagecolor="#ffffff"
     bordercolor="#666666"
     borderopacity="1.0"
     inkscape:pageopacity="0.0"
     inkscape:pageshadow="2"
     inkscape:zoom="8.5206715"
     inkscape:cx="183.81248"
     inkscape:cy="214.09761"
     inkscape:document-units="px"
     inkscape:current-layer="layer2"
     showgrid="true"
     showborder="true"
     inkscape:window-width="1920"
     inkscape:window-height="1013"
     inkscape:window-x="-9"
     inkscape:window-y="-9"
     inkscape:window-maximized="1"
     inkscape:snap-grids="false"
     inkscape:object-paths="true"
     inkscape:snap-global="false"
     fit-margin-top="0"
     fit-margin-left="0"
     fit-margin-right="0"
     fit-margin-bottom="0" />
  <metadata
     id="metadata7">
    <rdf:RDF>
      <cc:Work
         rdf:about="">
        <dc:format>image/svg+xml</dc:format>
        <dc:type
           rdf:resource="http://purl.org/dc/dcmitype/StillImage" />
        <dc:title></dc:title>
      </cc:Work>
    </rdf:RDF>
  </metadata>
  <g
     inkscape:label="skeleton"
     inkscape:groupmode="layer"
     id="layer1"
     transform="translate(-192.65172,33.811091)"
     style="display:inline" />
  <g
     inkscape:groupmode="layer"
     id="layer2"
     inkscape:label="skinjob"
     style="display:inline"
     transform="translate(-192.65172,46.173263)">
    <path
       sodipodi:nodetypes="cscsssssscccssssssscsssssscssssssccccsssscsscccc"
       inkscape:connector-curvature="0"
       id="path4001"
       d="m 289.70991,211.97421 c -29.64179,0.0555 -42.7483,30.01721 -40.34473,60.26702 0.70394,8.85936 6.73314,85.08378 7.26048,131.96228 -7.01721,56.56455 -11.99923,105.30946 -14.78829,108.4102 -3.39536,3.77478 -13.79041,23.35678 -10.71836,34.60255 3.7563,13.75056 11.99545,16.87371 16.15247,16.76886 9.29433,-0.23443 -4.90809,-16.03011 3.96829,-30.14936 2.00346,-3.18684 4.14933,14.38434 6.45903,14.32629 6.28376,-0.15792 4.40575,-32.42657 3.57644,-36.57312 -0.61535,-3.07675 22.37589,-83.40096 23.1194,-104.04706 6.88199,-33.06903 0.76349,-76.31117 0.11548,-91.52503 4.26914,10.78781 12.32093,16.59327 15.50364,19.27682 30.25099,80.64622 -12.40092,98.03318 -20.39099,126.27207 -19.68651,69.57701 -10.57369,249.9462 -0.49032,290.04426 3.43349,13.65379 2.45638,29.63399 0.52428,41.76919 -9.30173,58.42269 3.83909,138.53216 0.63286,178.4684 -0.87557,10.906 -31.09828,40.74772 -0.63286,39.87062 10.33705,-0.2976 21.02799,0.9304 29.72021,0.1274 7.45107,-0.6884 8.50117,-15.34842 4.13155,-29.77432 -1.05669,-3.4885 -2.43033,-6.96343 -4.10705,-10.2237 -1.8986,-69.61533 19.93651,-90.11969 10.14449,-178.83912 -1.13021,-10.24013 -0.88383,-26.14074 0.52428,-40.50346 6.32867,-64.55241 27.93609,-181.89488 30.46756,-202.14661 2.66891,-21.35131 16.37908,-21.50846 18.986,0 2.53651,20.92741 18.98599,140.4964 30.3776,201.25159 3.24894,17.32768 2.77848,30.23347 1.733,39.75324 -9.89019,90.05612 8.39286,111.5019 7.12713,181.11723 -9.493,18.98603 -8.83244,39.62845 0.92687,39.69485 8.2514,0.056 18.99495,0.1686 30.08359,0.1758 29.72447,0.019 3.8897,-29.18302 1e-5,-39.87065 -14.33416,-39.38554 10.3136,-120.5091 0.63286,-180.367 -1.64481,-10.17017 -4.17545,-23.80165 0,-40.50346 10.12587,-40.50347 19.56168,-220.77866 10e-6,-287.32147 -6.58604,-22.40368 -48.54821,-50.77542 -16.77097,-130.68696 5.45104,-6.08137 14.02234,-9.493 15.61382,-27.63828 -3.35865,12.14894 -2.26134,74.15299 -3.91752,101.59313 2.498,54.40939 26.44019,96.84111 26.44019,115.5337 -2.08908,6.49936 -4.54468,22.17127 0.92713,26.43725 2.41491,1.88272 3.50551,-17.3999 5.17884,-15.3903 11.67578,14.02213 -5.93773,30.24988 2.76381,30.30512 6.68184,0.0424 13.0229,-5.03135 17.68194,-15.31051 5.52038,-12.17951 -7.16923,-29.67444 -10.86943,-36.40208 0,0 -12.69146,-44.65824 -11.58768,-104.56481 0.73062,-39.65352 1.03384,-116.25956 3.65173,-136.26772 3.79463,-29.00179 -9.51659,-59.54907 -39.47799,-59.71065 -61.6284,0.0652 -61.59123,-23.5387 -46.77077,-63.97465 -10.90035,5.08003 -35.66879,5.56533 -46.69231,0.28142 14.53006,40.02511 14.89361,63.48866 -46.86572,63.48103 z"
       style="fill:#f2cb91;fill-opacity:1;stroke:none"
       inkscape:export-xdpi="90"
       inkscape:export-ydpi="90" />
    <path
       inkscape:connector-curvature="0"
       id="path4003"
       d="m 315.58687,315.29061 c 0,3.60307 -3.00938,6.52398 -6.72165,6.52398 -3.71227,0 -6.72165,-2.92091 -6.72165,-6.52398 0,-3.60313 3.00938,-6.52397 6.72165,-6.52397 3.71227,0 6.72165,2.92084 6.72165,6.52397 z"
       style="fill:#f2a991;fill-opacity:0.87843137;fill-rule:nonzero;stroke:none"
       inkscape:export-xdpi="90"
       inkscape:export-ydpi="90" />
    <path
       inkscape:connector-curvature="0"
       id="path4005"
       d="m 359.50749,404.39781 c -4.58828,3.32255 -6.48688,13.92307 0,14.08128 6.48688,0.15822 6.32867,-8.86013 3.32255,-9.17656 -3.00612,-0.31643 -4.90472,3.16433 -3.7972,4.58828 1.42395,-2.05681 5.85402,-3.32255 3.32255,0.31643 -2.53147,3.63899 -7.27797,-0.31643 -2.8479,-9.80943 z"
       style="fill:#000000;stroke:none"
       inkscape:export-xdpi="90"
       inkscape:export-ydpi="90" />
    <path
       inkscape:connector-curvature="0"
       id="path4007"
       d="m 307.99846,313.07121 c -4.14789,3.43882 3.17771,6.47011 2.675,0.64016 1.56575,2.14014 -0.34252,5.03255 -3.01105,4.26972 -2.55919,-0.73154 -2.43355,-4.46999 0.33605,-4.90988 z"
       style="fill:#000000;stroke:none"
       inkscape:export-xdpi="90"
       inkscape:export-ydpi="90" />
    <path
       inkscape:connector-curvature="0"
       id="path4009"
       d="m 305.28883,309.55546 c -4.88024,5.24857 -2.36132,10.75288 1.96919,11.70599 4.27123,0.94007 9.21876,-1.91891 7.37618,-9.45572 3.31146,6.99905 -2.94866,12.40093 -8.08999,10.90812 -5.01276,-1.45547 -7.67646,-9.14192 -1.25538,-13.15839 z"
       style="fill:#000000;stroke:none"
       inkscape:export-xdpi="90"
       inkscape:export-ydpi="90" />
    <path
       sodipodi:nodetypes="scccsccccccccccccccscsccsccsscscsccsccsccccscsscccccscccccccccccccscccsccsscccccccsccsssssssssccsccccccssccs"
       inkscape:connector-curvature="0"
       id="path4011"
       d="m 303.33164,335.90458 c -19.038,-10.23954 -24.08504,-30.84685 -14.93476,-55.53869 0.0364,-3.39912 -3.44166,-8.90684 -3.93349,-12.12326 -4.3768,14.58299 -5.57566,35.61488 -0.9251,48.23535 2.62123,21.17102 2.1211,70.63317 -0.53441,89.70845 -5.24558,37.68046 -26.7092,86.16323 -27.19719,110.01237 6.30843,12.51596 2.24959,42.66506 -3.53889,13.76024 -9.95058,8.22904 0.0587,32.15505 -7.72484,29.48003 -19.35905,-4.19674 -6.425,-34.87455 -0.96128,-47.06108 6.25406,-26.44734 11.84752,-86.36568 17.23748,-110.01805 1.03228,-20.87632 -5.6436,-84.25434 -6.17029,-118.08767 -13.49907,-68.99627 28.82346,-71.30818 34.79214,-71.68995 73.32752,7.97046 56.48086,-44.2503 51.98072,-61.92905 l -6.89891,-3.67484 c 23.77449,58.57372 -9.31107,67.59242 -47.49866,61.80032 -42.94335,1.99343 -42.96562,48.58213 -37.08562,77.83154 1.54877,25.67833 2.09306,88.7905 5.08769,113.95159 -6.11793,32.19748 -9.89914,68.08064 -13.26995,97.39496 -3.0825,3.58656 -3.40238,6.0492 -2.09604,8.89621 -1.31493,2.42914 -9.92625,22.10859 -10.83537,29.00698 -2.51781,19.10517 4.5529,35.6955 21.49792,29.31174 5.18762,-1.69504 -0.25367,-20.49965 1.52829,-21.67731 1.91871,-1.26804 1.73377,9.21347 5.86552,8.33826 10.00697,-8.41372 6.59158,-31.76091 4.12394,-43.28086 6.30155,-25.30246 22.41291,-77.02768 25.582,-101.26716 2.41304,-18.45671 2.56653,-69.24417 -0.30339,-83.50741 2.735,5.73121 7.14068,10.04255 11.09015,12.49411 6.97082,11.51495 18.52122,54.22271 8.50691,73.7121 -13.47087,26.21641 -32.0705,44.32573 -37.25628,85.44929 -10.45597,82.91633 -4.33978,179.56385 6.40852,262.3825 4.81999,30.70452 -2.14017,43.26041 -3.5089,69.6648 -1.36395,26.31203 11.09924,130.81935 6.39943,144.55545 -24.83513,29.89196 -17.54236,43.90776 13.8814,43.88136 47.54457,-0.04 27.39003,-41.98525 20.13683,-59.24252 5.79481,-49.56526 20.68801,-114.46485 12.64573,-164.60561 -2.08237,-60.5249 8.59944,-110.64894 19.74457,-169.86006 5.57884,-29.63892 9.2701,-60.57977 9.04577,-77.23108 3.37578,2.27799 9.77858,3.32199 13.88805,0.26341 0.30557,16.49508 2.14802,57.88859 6.58875,79.43195 9.35858,45.40142 20.87869,120.69452 25.84459,165.24207 -10.27456,25.70661 -7.16266,82.02777 2.17043,131.036 11.1837,31.72364 -10.32654,62.06242 -1.44068,91.14744 21.79255,5.5256 76.50246,6.7401 50.57477,-24.65972 -19.49883,-33.82667 -10.73094,-82.64111 -7.19765,-119.15202 3.51126,-36.28332 -1.19072,-71.07954 -3.04151,-106.91651 14.90073,-82.77637 14.7343,-174.0543 9.69126,-257.8687 -1.86236,-30.95192 -9.66595,-40.98862 -32.24436,-90.85965 -9.38305,-20.72524 -8.41396,-48.07637 5.6482,-76.94357 3.64612,-3.00464 7.60465,-5.80404 9.81968,-10.2341 -0.31643,17.72026 0.39845,61.11029 -0.65458,79.42934 1.34674,43.10255 18.98646,75.52816 27.41852,118.11222 -8.19739,12.51007 3.84022,49.49792 5.72444,17.77638 7.41742,12.52106 -9.4494,34.10065 8.36063,24.94843 22.82643,-11.73003 13.72256,-40.74075 4.2424,-59.95269 -3.61689,-34.85704 -7.89426,-74.15097 -12.22425,-107.53717 -0.77982,-24.50688 2.12643,-81.336 3.28965,-109.11625 8.09956,-75.61156 -30.37062,-80.69904 -47.33482,-80.41953 -58.00779,8.71404 -46.80958,-40.65603 -37.17634,-63.9212 l -5.93879,5.13753 c -15.05786,43.35924 -3.23488,64.0771 41.06602,62.90482 42.43386,-2.24512 53.16555,42.31268 43.87592,74.35889 -1.68597,28.21907 -2.15572,84.74104 -3.42395,115.54313 5.11415,35.48948 4.97842,68.56119 13.9801,110.86802 16.13435,13.29627 13.98692,39.66109 -3.21221,48.1188 5.32904,-12.82166 -7.61696,-45.5853 -9.37056,-12.69306 -2.18885,-23.62887 5.62034,-28.68615 1.42458,-39.12645 -8.18196,-25.72616 -26.50507,-83.35904 -26.25414,-106.53091 0.20491,-18.92189 -0.85695,-61.76686 1.26392,-87.21113 7.35471,-22.27905 0.23408,-40.53677 -5.14529,-49.39691 -1.8986,3.48077 -2.2073,6.30927 -3.28258,9.29649 14.84753,25.27194 4.64424,50.16076 -10.50837,57.89745 -5.59909,2.85881 -24.16181,11.65848 -44.72998,-4.16318 10.75873,14.55594 32.8653,13.7644 42.95382,8.62585 -10.69011,20.91743 -10.42316,58.86729 -0.21357,84.91263 10.91565,27.84656 26.29882,39.23173 27.27029,87.43924 1.21363,60.22504 5.21128,72.53088 4.32468,133.98134 -1.14413,41.71411 -10.195,88.20718 -13.04986,124.77834 4.95706,38.0407 6.54579,76.07607 1.24068,114.25071 -2.72876,36.52434 -14.76424,72.4042 8.96312,104.21812 15.01455,27.20872 -51.1198,32.48212 -41.01914,4.5321 11.32666,-27.07685 1.73329,-55.89425 -1.74945,-84.22143 -8.81184,-45.88157 -4.99673,-93.86127 1.39686,-125.54274 -6.46378,-61.84343 -31.65154,-164.85218 -32.28411,-233.11789 -0.14065,-15.17806 5.37421,-27.16316 24.17771,-38.76149 -14.1045,5.42627 -24.63691,14.96623 -29.30988,26.15188 0,0 2.44023,-5.0651 3.56482,-8.24925 0.91015,-2.57698 -2.7837,-2.85687 -2.93634,-3.53039 -0.55229,-2.43701 2.11434,-3.65967 1.30061,-4.99329 -0.33206,-0.54421 -4.32829,-0.7354 -4.81603,-1.11899 -0.99717,-0.78423 -3.41297,-2.63492 -4.98465,-2.76844 -1.28764,-0.10939 -3.8715,1.98707 -5.26007,3.02534 -0.80413,0.60127 -4.22414,0.8789 -5.13976,1.97444 -0.22661,0.27113 1.22451,2.75939 1.4621,4.88295 0.20404,1.82367 -1.95807,2.24843 -1.69439,4.3528 0.44188,3.52668 2.90972,7.07889 2.53742,7.62486 -2.77897,-8.202 -16.037,-18.12656 -31.07213,-26.34639 13.15222,10.37965 26.3867,21.08561 25.95361,36.20495 -1.63837,57.19718 -27.8301,156.55171 -29.95875,235.40418 8.02636,51.68966 -3.20201,118.38892 -13.21749,187.32155 -3.67955,11.34395 18.64369,11.50575 6.77898,36.04557 -21.92658,3.6348 -56.78335,2.2825 -31.13748,-26.49132 12.3978,-31.18251 1.25377,-61.38983 -1.22629,-97.82499 -3.72682,-38.74746 0.55678,-76.42537 3.05542,-114.93489 -14.57733,-86.14985 -14.54061,-173.60815 -7.63334,-260.68281 3.87857,-48.89411 17.70976,-56.56767 32.48864,-85.00012 13.14408,-25.28733 7.58035,-55.77094 -1.58669,-81.59374 3.80877,2.75455 27.03065,5.78642 40.90328,-10.54749 -14.99139,13.20138 -36.03347,9.67812 -42.65611,6.11614 z"
       style="fill:#000000;stroke:none"
       inkscape:export-xdpi="90"
       inkscape:export-ydpi="90" />
    <path
       style="fill:#f2a991;fill-opacity:0.87843137;fill-rule:nonzero;stroke:none"
       d="m 405.96841,315.29061 c 0,3.60307 3.00938,6.52398 6.72165,6.52398 3.71227,0 6.72166,-2.92091 6.72166,-6.52398 0,-3.60313 -3.00939,-6.52397 -6.72166,-6.52397 -3.71227,0 -6.72165,2.92084 -6.72165,6.52397 z"
       id="path4013"
       inkscape:connector-curvature="0"
       inkscape:export-xdpi="90"
       inkscape:export-ydpi="90" />
    <path
       inkscape:connector-curvature="0"
       style="fill:#000000;stroke:none"
       d="m 413.55682,313.07121 c 4.14789,3.43882 -3.17771,6.47011 -2.67499,0.64016 -1.56575,2.14014 0.34251,5.03255 3.01104,4.26972 2.55919,-0.73154 2.43355,-4.46999 -0.33605,-4.90988 z"
       id="path4015"
       inkscape:export-xdpi="90"
       inkscape:export-ydpi="90" />
    <path
       inkscape:connector-curvature="0"
       style="fill:#000000;stroke:none"
       d="m 416.26646,309.55546 c 4.88024,5.24857 2.36132,10.75288 -1.96919,11.70599 -4.27123,0.94007 -9.21877,-1.91891 -7.37618,-9.45572 -3.31146,6.99905 2.94865,12.40093 8.08998,10.90812 5.01277,-1.45547 7.67647,-9.14192 1.25539,-13.15839 z"
       id="path4017"
       inkscape:export-xdpi="90"
       inkscape:export-ydpi="90" />
  </g>
  <g
     inkscape:groupmode="layer"
     id="layer4"
     inkscape:label="head 1"
     style="display:inline"
     transform="translate(-192.65172,46.173263)">
    <path
       style="display:inline;fill:#006666;fill-opacity:1;stroke:none"
       d="m 358.80504,54.29236 c 11.3916,-41.136323 40.18703,-50.6293206 51.57863,-60.7551846 -20.8846,39.8705896 13.49299,60.1223176 -11.1888,120.2446446 -8.22726,19.61885 -71.91952,20.25173 -78.88106,0.63285 -19.61885,-30.377582 -19.41605,-81.006905 0.83567,-121.5103596 1.38495,39.9251346 28.14274,41.4577866 37.65556,61.3880496 z"
       id="path4019"
       inkscape:connector-curvature="0"
       sodipodi:nodetypes="cccccc"
       inkscape:export-xdpi="90"
       inkscape:export-ydpi="90" />
    <path
       style="display:inline;fill:#ffffff;fill-opacity:1;fill-rule:nonzero;stroke:none"
       d="m 387.05507,113.76092 c 0,5.39514 -4.64703,9.76879 -10.37936,9.76879 -5.73235,0 -10.37937,-4.37365 -10.37937,-9.76879 0,-5.39509 4.64702,-9.76873 10.37937,-9.76873 5.73233,0 10.37936,4.37364 10.37936,9.76873 z"
       id="path4021"
       inkscape:connector-curvature="0"
       inkscape:export-xdpi="90"
       inkscape:export-ydpi="90" />
    <path
       style="display:inline;fill:#ffffff;fill-opacity:1;fill-rule:nonzero;stroke:none"
       d="m 353.05508,113.76092 c 0,5.39514 -4.64703,9.76879 -10.37937,9.76879 -5.73233,0 -10.37936,-4.37365 -10.37936,-9.76879 0,-5.39509 4.64703,-9.76873 10.37936,-9.76873 5.73234,0 10.37937,4.37364 10.37937,9.76873 z"
       id="path4023"
       inkscape:connector-curvature="0"
       inkscape:export-xdpi="90"
       inkscape:export-ydpi="90" />
    <path
       style="display:inline;fill:#000000;fill-opacity:1;fill-rule:nonzero;stroke:none"
       d="m 382.10397,113.7434 c 0,2.79617 -2.40844,5.06292 -5.37937,5.06292 -2.97095,0 -5.37937,-2.26675 -5.37937,-5.06292 0,-2.79616 2.40842,-5.06291 5.37937,-5.06291 2.97093,0 5.37937,2.26675 5.37937,5.06291 z"
       id="path4025"
       inkscape:connector-curvature="0"
       inkscape:export-xdpi="90"
       inkscape:export-ydpi="90" />
    <path
       style="display:inline;fill:#000000;fill-opacity:1;fill-rule:nonzero;stroke:none"
       d="m 348.05508,113.7609 c 0,2.79619 -2.40843,5.06294 -5.37937,5.06294 -2.97094,0 -5.37936,-2.26675 -5.37936,-5.06294 0,-2.79613 2.40842,-5.06288 5.37936,-5.06288 2.97094,0 5.37937,2.26675 5.37937,5.06288 z"
       id="path4027"
       inkscape:connector-curvature="0"
       inkscape:export-xdpi="90"
       inkscape:export-ydpi="90" />
    <path
       sodipodi:nodetypes="cccccccccccccc"
       inkscape:connector-curvature="0"
       id="path4029"
       d="m 395.30273,123.33699 c 39.74879,-80.109905 -11.71393,-80.253876 17.7235,-133.763392 -51.68674,35.129087 -50.08839,46.248386 -54.59829,60.98393 -12.10598,-22.484686 -35.6932,-26.924739 -36.7377,-62.249029 -21.0327,43.184165 -23.11775,77.530944 -9.88253,112.716931 3.93839,7.94437 6.83933,17.60117 14.81888,22.45498 l 0.3648,-6.95055 C 309.73362,92.892098 304.77456,63.262422 309.25225,35.037706 c 2.04162,-12.492729 5.65226,-24.738582 10.83194,-36.2926776 1.05208,15.5852686 9.7271,29.6788276 22.00875,39.0418336 7.04758,5.657187 13.76292,12.188287 17.085,20.770666 8.68132,-29.894095 12.89422,-36.015846 47.375,-60.2187496 C 386.44672,30.179554 424.21276,57.6274 394.07064,114.33421 Z"
       style="color:#000000;font-style:normal;font-variant:normal;font-weight:normal;font-stretch:normal;font-size:medium;line-height:normal;font-family:Sans;-inkscape-font-specification:Sans;text-indent:0;text-align:start;text-decoration:none;text-decoration-line:none;letter-spacing:normal;word-spacing:normal;text-transform:none;writing-mode:lr-tb;direction:ltr;baseline-shift:baseline;text-anchor:start;display:inline;overflow:visible;visibility:visible;fill:#000000;fill-opacity:1;stroke:none;stroke-width:3;marker:none;enable-background:accumulate"
       inkscape:export-xdpi="90"
       inkscape:export-ydpi="90" />
    <path
       id="path4031"
       d="m 359.67794,53.588778 c -27.25143,0 -41.25366,24.7601 -40.28125,51.781252 -6.26003,-11.190152 -19.91796,-28.119122 -23.59375,-32.000002 -10.22824,-10.799184 10.04629,53.262002 19.625,53.312502 3.79253,0.0197 5.5912,-1.99828 6.4375,-4.84375 7.16072,26.84854 28.65636,51.75 37.8125,51.75 9.41631,0 30.50982,-25.01216 37.71875,-51.46875 0.75918,2.52749 2.31882,4.28539 5.5,4.3125 10.16601,0.0858 26.52848,-59.11868 20.5625,-52.937502 -2.12543,2.20209 -16.74283,16.48665 -23.4375,29.156252 -0.0116,-25.893912 -14.01014,-49.062502 -40.34375,-49.062502 z m -16.84375,55.875002 c 4.85545,-0.008 7.84375,1.18862 7.84375,4 0,10.02851 -18.02024,5.1251 -17.96875,0.0625 0.0301,-2.95637 5.26955,-4.05401 10.125,-4.0625 z m 33.84375,0.0937 c 5.02617,-0.0251 10.13813,1.20226 10.125,3.96875 -0.0236,4.97453 -18.16145,9.99088 -18,-0.0625 0.0443,-2.75989 2.84883,-3.8811 7.875,-3.90625 z"
       style="display:inline;fill:#ffcc99;fill-opacity:1;stroke:none"
       inkscape:connector-curvature="0"
       inkscape:export-xdpi="90"
       inkscape:export-ydpi="90" />
    <path
       style="display:inline;fill:#d66464;fill-opacity:1;stroke:none"
       d="m 357.22284,148.9059 h 5.3794 l 6.9615,4.74651 c 0,0 -4.7465,5.37935 -9.8094,5.37935 -5.0629,0 -10.1259,-5.37935 -10.1259,-5.37935 z"
       id="path4033"
       inkscape:connector-curvature="0"
       sodipodi:nodetypes="cccscc"
       inkscape:export-xdpi="90"
       inkscape:export-ydpi="90" />
    <path
       style="display:inline;fill:#ad5454;fill-opacity:1;stroke:none"
       d="m 349.79924,153.60168 7.3839,-4.69879 h 5.3141 l 6.9922,4.6988 c 0,0 -5.8025,-1.03032 -7.2719,-0.83908 -0.7016,0.0913 -1.79,0.39158 -2.4053,0.39158 -0.6153,0 -1.4266,-0.33983 -2.2935,-0.39158 -1.356,-0.081 -5.3141,1.28658 -7.7195,0.83907 z"
       id="path4035"
       inkscape:connector-curvature="0"
       sodipodi:nodetypes="ccccsssc"
       inkscape:export-xdpi="90"
       inkscape:export-ydpi="90" />
    <path
       sodipodi:nodetypes="csccccccccccscsccccccccccccsc"
       inkscape:connector-curvature="0"
       id="path4037"
       d="m 388.62054,66.711244 c 11.30011,21.611024 7.58446,35.074576 9.90115,35.940036 6.41669,2.39712 16.9029,-23.490932 24.39047,-25.273562 -2.63542,14.26923 -7.27297,28.305052 -14.0669,41.146112 -1.41734,5.28745 -9.418,9.48061 -10.43049,1.76062 -0.64743,-2.74997 -1.28522,-4.71927 -1.85017,-0.78591 -4.87285,18.12185 -14.37977,35.40694 -28.35962,48.07844 -4.6265,5.49649 -12.31794,5.50148 -16.96108,0.0314 -14.83651,-13.43137 -24.72871,-31.91786 -29.28471,-51.30087 -1.26214,3.4664 -1.50811,9.2346 -6.53125,8.875 -6.32128,-4.17654 -8.51246,-12.29122 -11.72379,-18.81126 -3.99566,-10.386892 -8.23422,-20.993792 -9.21371,-32.157492 8.74507,9.90849 17.88622,30.800342 23.59375,31.875002 4.95026,0.93208 -1.41337,-16.459952 12.9598,-39.413217 0,0 -5.76133,6.223397 -8.36748,11.026585 -4.19458,7.7307 -4.34752,14.17794 -4.62357,22.761652 -6.69521,-10.193342 -13.82877,-20.222392 -22.20238,-29.107543 -7.69967,-2.128583 -3.10592,10.513321 -2.31297,14.514391 3.93009,13.26333 8.26642,26.789232 16.14659,38.298582 2.24298,4.41115 8.78212,5.5941 11.83751,1.35707 5.7565,17.4225 15.33265,35.20218 29.74988,46.86553 4.98021,4.93627 12.71852,4.30979 17.52718,-0.49607 13.92529,-11.68959 23.27642,-29.09425 28.97294,-46.18196 5.52542,5.95073 12.07641,-1.39508 14.23082,-6.66321 6.80124,-13.42535 11.6724,-27.946662 14.15743,-42.794892 1.24341,-7.855772 -6.0151,-3.024865 -8.07518,0.6078 -6.2643,6.52105 -12.07735,13.51441 -16.87557,21.19405 -0.35308,-6.97892 -1.99524,-14.13618 -4.70353,-20.7521 -2.87837,-7.031395 -7.88512,-10.594184 -7.88512,-10.594184 z"
       style="color:#000000;font-style:normal;font-variant:normal;font-weight:normal;font-stretch:normal;font-size:medium;line-height:normal;font-family:Sans;-inkscape-font-specification:Sans;text-indent:0;text-align:start;text-decoration:none;text-decoration-line:none;letter-spacing:normal;word-spacing:normal;text-transform:none;writing-mode:lr-tb;direction:ltr;baseline-shift:baseline;text-anchor:start;display:inline;overflow:visible;visibility:visible;fill:#000000;fill-opacity:1;stroke:none;stroke-width:3;marker:none;enable-background:accumulate"
       inkscape:export-xdpi="90"
       inkscape:export-ydpi="90" />
  </g>
  <g
     inkscape:groupmode="layer"
     id="layer5"
     inkscape:label="head 2"
     style="display:inline"
     transform="translate(-192.65172,46.173263)">
    <path
       style="display:inline;fill:#008080;stroke:none"
       d="m 340.76834,77.708418 c -5.06293,12.61779 -19.82166,13.30494 -20.45453,36.706252 -5.06293,-20.884592 -11.1888,-89.867036 59.05939,-140.496357 -29.74472,49.996454 35.01047,70.248183 19.82167,140.496357 0,-31.010452 -19.1888,-31.010452 -39.44052,-31.010452 -9.49301,0 -14.55594,5.06293 -18.98601,-5.6958 z"
       id="path4039"
       inkscape:connector-curvature="0"
       sodipodi:nodetypes="ccccsc"
       inkscape:export-xdpi="90"
       inkscape:export-ydpi="90" />
    <path
       d="m 356.95914,148.52628 -7.8881,4.90125 c 3.9032,3.12924 5.21,6.41413 10.9076,6.24992 5.6028,-0.16147 6.4484,-3.31937 10.1368,-6.08867 l -7.4375,-5.0625 z m 0.3801,0.54281 h 5.0887 l 6.2188,3.98844 c 0,0 -5.2663,-0.8125 -5.9376,-0.8125 -0.6711,0 -2.3272,0.50657 -2.7187,0.5625 -0.3916,0.0559 -1.6857,-0.5625 -2.4687,-0.5625 -0.7832,0 -5.5407,1.1925 -7.2188,0.96875 z m 11.4719,4.82063 c -9.6774,10.85198 -18.2154,0.0953 -18.2154,0.0953 2.5172,0.0559 6.0697,-1.83251 9.426,-0.49 3.3361,-1.39347 6.6331,-1e-5 8.7894,0.39469 z m -12.8608,-13.05287 c 2.3732,2.05681 5.3793,1.58216 6.8033,-1e-5 -0.7911,3.16434 -5.3793,3.63899 -6.8033,1e-5 z m -4.3653,-35.50969 c -0.4475,5.37005 -17.6765,-9.397592 -25.9553,1.34251 3.1325,-5.1463 4.6659,-8.382352 18.3477,-4.69879 5.8176,1.56626 7.6076,3.35628 7.6076,3.35628 z m 16.0447,0 c 0.4475,5.37005 17.6765,-9.397592 25.9553,1.34251 -3.1325,-5.1463 -4.6659,-8.382352 -18.3477,-4.69879 -5.8176,1.56626 -7.6076,3.35628 -7.6076,3.35628 z m 23.3993,5.44852 c -0.4746,1.42395 -2.8479,2.8479 -3.639,2.21503 -1.5821,-2.21503 -13.6591,-7.07505 -19.4606,1.58217 1.8986,3.16434 9.9677,8.06905 19.3024,0.31643 0,0 1.2658,0.15822 1.2658,0.9493 -1.9796,2.21507 -14.0099,8.52694 -21.3592,-1.26573 0.8828,-6.21402 12.527,-10.07015 23.8906,-3.7972 z m -62.4501,0 c 0.4746,1.42395 2.8479,2.8479 3.639,2.21503 1.5821,-2.21503 13.6591,-7.07505 19.4606,1.58217 -1.8986,3.16434 -9.9677,8.06905 -19.3024,0.31643 0,0 -1.2658,0.15822 -1.2658,0.9493 1.9796,2.21507 14.0099,8.52694 21.3592,-1.26573 -0.8828,-6.21402 -12.527,-10.07015 -23.8906,-3.7972 z"
       style="display:inline;fill:#000000;stroke:none"
       id="path4041"
       inkscape:connector-curvature="0"
       inkscape:export-xdpi="90"
       inkscape:export-ydpi="90" />
    <path
       sodipodi:nodetypes="ccccccccccccccccccccccccc"
       inkscape:connector-curvature="0"
       id="path4043"
       d="m 381.14209,-29.584319 c -26.86882,19.054941 -51.12235,48.793496 -59.99045,80.800371 -5.7657,20.583681 -6.93659,42.636536 -2.2862,63.560228 5.27469,0.75608 2.20983,-6.27066 4.10764,-9.41152 1.83366,-8.995052 9.72926,-14.442022 15.38057,-20.976062 1.66958,-2.59374 2.60481,-4.50914 4.25472,-0.78203 4.60258,4.81773 11.49038,1.03883 17.13207,1.29461 10.38632,0.24312 22.37524,-0.7084 30.75453,6.62429 6.1509,5.80876 7.17224,14.859622 7.21422,22.875712 4.41383,1.94831 3.33663,-3.73801 4.17961,-6.52056 3.29475,-19.877972 -0.8227,-40.430733 -9.7753,-58.338915 -7.26949,-15.924836 -18.65796,-31.016571 -19.14886,-49.1618586 -0.96446,-9.274217 5.09544,-23.6396844 8.17745,-29.9642654 z m -6.08915,8.798097 c -5.95508,11.9136204 -6.65062,26.1764554 -1.69,38.559202 7.19997,18.872152 19.81065,35.509848 24.25129,55.472976 2.32679,9.628242 2.9107,19.653712 1.87621,29.499074 -1.61784,-8.896012 -8.15501,-16.865262 -17.15262,-18.936162 -9.01542,-2.26404 -18.50667,-2.22813 -27.71633,-1.51414 -5.30834,1.99211 -11.53629,0.47149 -12.72709,-5.76015 -0.76734,-2.954945 -1.52355,-3.060135 -2.26754,-0.0369 -3.52215,9.38283 -14.06285,13.69861 -17.62718,23.11719 -1.27577,2.785042 -2.11521,7.763282 -2.27306,1.882012 -3.74836,-34.522621 7.11339,-70.208733 29.2348,-96.9466346 7.66075,-9.434443 16.50525,-17.8789854 26.09152,-25.3364674 z"
       style="color:#000000;font-style:normal;font-variant:normal;font-weight:normal;font-stretch:normal;font-size:medium;line-height:normal;font-family:Sans;-inkscape-font-specification:Sans;text-indent:0;text-align:start;text-decoration:none;text-decoration-line:none;letter-spacing:normal;word-spacing:normal;text-transform:none;writing-mode:lr-tb;direction:ltr;baseline-shift:baseline;text-anchor:start;display:inline;overflow:visible;visibility:visible;fill:#000000;fill-opacity:1;stroke:none;stroke-width:3;marker:none;enable-background:accumulate"
       inkscape:export-xdpi="90"
       inkscape:export-ydpi="90" />
  </g>
  <g
     inkscape:groupmode="layer"
     id="layer3"
     inkscape:label="dress"
     style="display:inline"
     transform="translate(-192.65172,46.173263)">
    <path
       sodipodi:nodetypes="ccscccccccccscsccc"
       inkscape:connector-curvature="0"
       id="path4116"
       d="m 285.58234,273.4907 c -7.93578,5.83567 -11.5996,43.35038 8.5857,68.27149 22.1959,83.0691 -12.9677,99.58999 -26.81754,154.5476 -5.65453,22.43774 -23.91203,199.75564 -16.05148,245.78433 9.09673,1.90672 16.86076,-39.93297 39.43332,-54.15854 -1.3685,10.53988 7.9904,33.85361 4.5033,42.20463 13.4826,-5.46448 38.7831,-82.23129 45.6961,-87.90952 2.0881,8.354 3.7736,37.73617 5.4026,42.85351 10.2465,-7.87573 23.5217,-55.32235 29.307,-71.99793 8.2862,7.76108 3.9783,61.62873 7.4006,58.42504 -0.4098,6.43953 39.8928,-51.76756 40.1695,-69.79052 10.1929,7.93629 25.8434,36.30612 38.9206,40.36411 5.5329,-38.68525 -0.1391,-115.99398 -9.6578,-145.95451 -19.231,-60.53084 -45.86348,-74.40946 -26.72478,-154.05883 22.0604,-18.7365 21.84026,-60.61295 5.64005,-75.31186 -18.87224,-17.12332 -50.14844,-51.70512 -55.64497,-92.67048 -7.2182,4.18826 -24.0732,4.32313 -31.7698,0.005 -4.86484,37.3881 -38.61505,78.26472 -58.3924,99.39648 z"
       style="fill:#800080;fill-opacity:1;stroke:none"
       inkscape:export-xdpi="90"
       inkscape:export-ydpi="90" />
    <path
       style="fill:#4d4d4d;fill-opacity:1;stroke:none"
       d="m 270.48001,859.96744 c 1.34251,11.1876 10.46593,107.8467 6.68502,113.51807 -13.42512,20.13767 -14.76764,29.74529 -7.60757,42.27539 12.97758,0.4475 51.64548,0.4475 51.64548,0.4475 6.265,-5.8175 1.6075,-29.50772 -6,-44.72289 0.4475,-14.32014 14.475,-107.96558 14.475,-107.96558 0,0 -35.9277,2.26506 -59.19793,-3.55249 z"
       id="path4123"
       inkscape:connector-curvature="0"
       sodipodi:nodetypes="csccccc"
       inkscape:export-xdpi="90"
       inkscape:export-ydpi="90" />
    <path
       sodipodi:nodetypes="csccccc"
       inkscape:connector-curvature="0"
       id="path4125"
       d="m 452.62154,857.96744 c -1.3425,11.1876 -12.8297,110.1069 -8.685,115.51807 16.1102,21.03267 12.5301,31.08779 7.6076,42.27539 -12.9776,0.4475 -51.6455,0.4475 -51.6455,0.4475 -7.16,-8.5026 0.1825,-28.61272 6,-44.72289 -0.4475,-14.32014 -16.475,-107.96558 -16.475,-107.96558 0,0 39.9277,0.26506 63.1979,-5.55249 z"
       style="fill:#4d4d4d;fill-opacity:1;stroke:none"
       inkscape:export-xdpi="90"
       inkscape:export-ydpi="90" />
    <path
       style="color:#000000;font-style:normal;font-variant:normal;font-weight:normal;font-stretch:normal;font-size:medium;line-height:normal;font-family:Sans;-inkscape-font-specification:Sans;text-indent:0;text-align:start;text-decoration:none;text-decoration-line:none;letter-spacing:normal;word-spacing:normal;text-transform:none;writing-mode:lr-tb;direction:ltr;baseline-shift:baseline;text-anchor:start;display:inline;overflow:visible;visibility:visible;fill:#000000;fill-opacity:1;stroke:none;stroke-width:3;marker:none;enable-background:accumulate"
       d="m 379.22604,167.76219 c -13.87737,15.04541 -27.95309,8.83768 -37.43856,1.87948 0.63043,8.47621 -1.77738,21.18656 -3.58771,25.93113 -12.84149,33.65548 -33.72575,54.32392 -56.79989,80.98595 -7.86207,21.79964 -2.6362,47.61917 11.37181,65.84253 10.52164,34.81788 9.94333,73.63566 -8.15046,105.9562 -14.43998,26.34472 -22.17782,55.52779 -24.31112,85.38495 -6.78534,66.76513 -14.69268,133.96263 -11.43367,201.16304 3.12154,23.83051 19.37505,-14.48886 22.79691,-21.65039 7.12923,-14.67982 20.87655,-31.11163 20.08472,-5.62955 6.1955,8.94904 -5.22753,36.73133 10.23232,18.307 16.53133,-24.5541 24.24911,-53.6999 38.0625,-79.65625 3.63332,11.41257 0.11307,34.79724 7.18755,40 15.78637,-19.86942 20.09476,-46.18603 28.8125,-69.5625 6.44377,17.96757 0.84307,38.53264 5.9062,56.15625 15.10116,-8.10974 23.18866,-30.09358 33.06085,-44.98576 6.72012,-11.022 8.24879,-32.66259 18.87126,-11.91437 7.78883,8.46662 19.04198,28.71873 29.72414,26.33768 4.69231,-47.84274 1.76422,-96.73835 -8.82227,-143.63136 -11.37439,-40.15599 -39.67554,-76.79114 -33.65554,-120.50067 0.2056,-20.23256 6.84693,-37.58991 18.56156,-53.40262 9.18406,-22.30484 5.70845,-50.1509 -15.18414,-64.877 -17.07915,-17.26238 -33.27539,-40.89997 -41.99773,-63.73597 -3.2365,-8.47348 -4.83421,-14.29384 -3.29123,-28.39777 z m -34.1106,8.45159 c 8.80464,6.51754 21.66862,6.4772 29.99282,0.0156 -0.0641,8.33953 1.97647,17.31693 3.65217,22.90179 9.4672,31.55282 30.01095,50.48588 53.60593,72.68857 27.45615,50.21284 -17.03743,77.77088 -33.70726,77.24742 13.55665,4.11262 24.2912,-2.02555 24.07209,-1.09056 -7.64923,32.64164 -7.37627,67.8289 8.06909,98.28311 15.77482,32.31457 27.43027,66.82559 29.21936,103.00758 2.67622,30.05085 4.15784,60.41829 0.84585,90.47777 -16.70541,-9.81497 -23.87856,-29.56887 -39.09375,-41.0625 -2.8921,24.26242 -19.4106,44.41737 -32.40579,64.3492 -11.81195,17.30407 -4.30814,-21.2112 -7.31491,-29.89488 1.70195,-8.30918 -7.56878,-34.73342 -10.35449,-12.95102 -7.28941,20.7333 -12.01941,43.00718 -24.39361,61.46545 -3.56258,-11.60767 -0.17607,-35.76747 -7.3125,-40.59375 -16.86847,26.92627 -22.93704,60.02555 -42.53125,85.46875 -2.38037,-10.93644 -2.78891,-37.33855 -7.53125,-39.875 -19.5583,12.22522 -23.51485,37.23959 -37.3125,53.84375 -4.79297,-57.69463 2.19233,-115.63297 7.03653,-173.12974 4.37447,-37.28027 5.32025,-76.33462 24.05942,-110.00932 16.43447,-29.52895 23.80608,-64.281 16.11462,-97.56803 -0.008,-3.8244 -0.68516,-7.38009 -1.77305,-10.77298 -0.54896,-1.71207 14.53068,1.39028 22.99838,-1.66671 -37.53999,-4.73233 -54.95719,-56.02876 -24.70607,-81.11674 15.65108,-18.86966 36.47792,-43.82499 45.43946,-66.84815 2.79415,-7.17848 3.02302,-15.65941 3.33071,-23.16958 z"
       id="path4059"
       inkscape:connector-curvature="0"
       sodipodi:nodetypes="ccscccccccccccccccccccscccsccscccccccccccccccsccscc"
       inkscape:export-xdpi="90"
       inkscape:export-ydpi="90" />
    <path
       style="color:#000000;font-style:normal;font-variant:normal;font-weight:normal;font-stretch:normal;font-size:medium;line-height:normal;font-family:sans-serif;text-indent:0;text-align:start;text-decoration:none;text-decoration-line:none;text-decoration-style:solid;text-decoration-color:#000000;letter-spacing:normal;word-spacing:normal;text-transform:none;writing-mode:lr-tb;direction:ltr;baseline-shift:baseline;text-anchor:start;white-space:normal;clip-rule:nonzero;display:inline;overflow:visible;visibility:visible;opacity:1;isolation:auto;mix-blend-mode:normal;color-interpolation:sRGB;color-interpolation-filters:linearRGB;solid-color:#000000;solid-opacity:1;fill:#000000;fill-opacity:1;fill-rule:nonzero;stroke:none;stroke-width:4;stroke-linecap:butt;stroke-linejoin:miter;stroke-miterlimit:4;stroke-dasharray:none;stroke-dashoffset:0;stroke-opacity:1;color-rendering:auto;image-rendering:auto;shape-rendering:auto;text-rendering:auto;enable-background:accumulate"
       d="m 273.75021,918.94425 c 0.98691,13.12126 1.81338,26.06936 2.15625,36.05273 0.17143,4.99169 0.22022,9.2476 0.11328,12.37305 -0.0535,1.56272 -0.1483,2.84562 -0.27344,3.75586 -0.12515,0.91024 -0.42488,1.51818 -0.24609,1.25 -6.77693,10.16539 -10.62956,17.80039 -11.83008,24.75979 -1.20053,6.95932 0.43439,13.11422 4.15039,19.61722 l 0.55273,0.9687 1.11524,0.039 c 13.11432,0.4522 51.71484,0.4472 51.71484,0.4472 h 0.78516 l 0.57617,-0.5332 c 3.97571,-5.8055 5.45382,-15.1482 4.58417,-21.49522 -1.33749,-8.5857 -4.34555,-18.1668 -8.13671,-25.91013 0.13095,-3.44423 -0.72731,-10.85205 0.6248,-21.44229 1.37602,-10.77742 3.17049,-23.81843 4.95118,-36.41406 2.40688,-17.02523 4.89559,-34.03878 7.43359,-51.04492 -23.28495,-1.4159 -46.13405,0.18355 -63.87305,-4.04487 2.3096,22.14178 4.18285,42.96183 5.60157,61.62114 z m 53.59961,-53.31445 c -0.32194,2.15245 -3.33478,22.25864 -6.72266,46.22265 -1.78212,12.60575 -3.57703,25.66011 -4.95703,36.46875 -1.38,10.80864 -2.87719,19.44028 -4.94167,24.51577 7.34712,7.32181 9.28922,16.56411 10.70145,24.84161 0.64793,4.15922 0.85909,8.00442 0.5586,11.02932 -0.26372,2.6548 -0.99283,4.4397 -1.82227,5.4903 -1.46621,-3e-4 -35.98832,-0.021 -49.37109,-0.4258 -3.01188,-5.5684 -4.4506,-10.3482 -3.18164,-15.95702 2.3669,-10.4618 12.62127,-20.7629 17.8457,-24.64457 -3.01921,-3.62235 -5.21478,-8.14012 -5.55664,-18.31055 -0.34635,-10.08489 -1.17492,-23.06396 -2.16406,-36.21484 -1.85453,-24.65641 -4.1429,-48.41655 6.0517,-49.99198 10.1946,-1.57543 37.65183,-2.70442 43.55961,-3.02364 z"
       id="path3433"
       inkscape:connector-curvature="0"
       sodipodi:nodetypes="cscccsccccccccscccccssccsccsccscc"
       inkscape:export-xdpi="90"
       inkscape:export-ydpi="90" />
    <path
       style="color:#000000;font-style:normal;font-variant:normal;font-weight:normal;font-stretch:normal;font-size:medium;line-height:normal;font-family:sans-serif;text-indent:0;text-align:start;text-decoration:none;text-decoration-line:none;text-decoration-style:solid;text-decoration-color:#000000;letter-spacing:normal;word-spacing:normal;text-transform:none;writing-mode:lr-tb;direction:ltr;baseline-shift:baseline;text-anchor:start;white-space:normal;clip-rule:nonzero;display:inline;overflow:visible;visibility:visible;opacity:1;isolation:auto;mix-blend-mode:normal;color-interpolation:sRGB;color-interpolation-filters:linearRGB;solid-color:#000000;solid-opacity:1;fill:#000000;fill-opacity:1;fill-rule:nonzero;stroke:none;stroke-width:4;stroke-linecap:butt;stroke-linejoin:miter;stroke-miterlimit:4;stroke-dasharray:none;stroke-dashoffset:0;stroke-opacity:1;color-rendering:auto;image-rendering:auto;shape-rendering:auto;text-rendering:auto;enable-background:accumulate"
       d="m 387.04903,861.50482 c 3.20919,19.07642 5.93543,35.25154 8.47071,50.94531 2.03045,12.59477 4.07386,25.63737 5.63672,36.41211 1.54227,10.63286 0.81297,19.01556 0.93926,22.38672 -2.8705,7.94712 -6.99172,15.80742 -8.6749,23.98612 -1.7132,8.32472 0.65114,17.15872 4.94853,22.26192 l 0.59961,0.7109 h 0.92968 c 0,0 38.6005,0.01 51.71485,-0.4472 l 1.25586,-0.045 0.50586,-1.1485 c 2.47822,-5.6324 5.84959,-9.9387 5.30675,-16.99202 -0.54285,-7.0534 -4.96617,-16.6116 -13.15832,-27.30679 0.25593,0.33413 -0.0814,-0.22845 -0.20703,-1.12696 -0.1256,-0.8985 -0.2131,-2.1868 -0.25195,-3.76367 -0.0777,-3.15373 0.0329,-7.47353 0.28906,-12.55078 0.51228,-10.1545 1.60004,-23.36088 2.85938,-36.74805 2.03171,-20.94045 4.23517,-41.86631 6.74023,-62.75581 -23.09953,4.8212 -47.66726,6.26758 -67.9043,6.1817 z m 57.18164,56.20115 c -0.88476,19.01156 -4.2174,36.80506 -6.05698,54.69734 8.78373,5.69317 14.61551,16.90407 15.45933,26.06437 0.43004,5.58762 -1.28537,10.23812 -3.47266,15.30662 -13.44617,0.4007 -47.51487,0.4235 -49.11914,0.4239 -5.32907,-13.9779 0.71777,-33.86792 10.09704,-40.61904 -3.35769,-4.88014 -4.67394,-18.26063 -6.02285,-25.29116 -1.56816,-10.81132 -3.61608,-23.868 -5.64844,-36.47461 -3.87063,-24.00928 -7.33157,-44.22584 -7.6875,-46.30859 5.85875,0.007 36.77936,-0.21986 47.20303,1.24765 10.42366,1.46751 6.42308,25.70716 5.24817,50.95352 z"
       id="path3435"
       inkscape:connector-curvature="0"
       sodipodi:nodetypes="ccscsccccccsccsscccsccccccsccs"
       inkscape:export-xdpi="90"
       inkscape:export-ydpi="90" />
  </g>
  <g
     inkscape:groupmode="layer"
     id="layer6"
     inkscape:label="sachel"
     transform="translate(-192.65172,46.173263)">
    <path
       style="display:inline;fill:#4d4d4d;stroke:none"
       d="m 285.22614,437.69943 c 51.4141,20.96523 97.0013,7.65026 142.9911,-16 2.2151,3.48076 10.215,23.5944 8.3165,26.12586 -35.6134,14.73745 -88.5203,39.24222 -130.8675,35.88144 -4.4844,7.96964 -7.0897,17.74054 -14.5213,24.80323 -6.9598,-1.1343 -19.39256,-6.4683 -26.40772,-13.06543 0.11149,-6.45347 4.63908,-32.75818 11.12172,-31.61924 -1.8986,-4.11363 8.4179,-22.6451 9.3672,-26.12586 z"
       id="path4121"
       inkscape:connector-curvature="0"
       sodipodi:nodetypes="cccccccc"
       inkscape:export-xdpi="90"
       inkscape:export-ydpi="90" />
    <path
       style="color:#000000;font-style:normal;font-variant:normal;font-weight:normal;font-stretch:normal;font-size:medium;line-height:normal;font-family:Sans;-inkscape-font-specification:Sans;text-indent:0;text-align:start;text-decoration:none;text-decoration-line:none;letter-spacing:normal;word-spacing:normal;text-transform:none;writing-mode:lr-tb;direction:ltr;baseline-shift:baseline;text-anchor:start;display:inline;overflow:visible;visibility:visible;fill:#000000;fill-opacity:1;stroke:none;stroke-width:4;marker:none;enable-background:accumulate"
       d="m 428.92794,419.08878 c -31.10811,16.26622 -65.66268,29.50444 -101.37577,26.72047 -15.03686,-1.07416 -29.78632,-4.96912 -43.65548,-10.81422 -2.70606,9.34518 -9.05501,17.51416 -10.3125,27.3125 -6.95004,4.88965 -7.42791,14.70718 -9.48581,22.31683 -0.21782,5.00435 -4.20364,12.22552 2.2852,14.83066 7.49654,5.51437 16.20304,9.64675 25.41941,11.19626 7.48804,-6.57509 10.67917,-16.24902 15.0625,-24.875 31.18932,1.62326 61.44104,-8.57944 90.20172,-19.50627 13.69555,-5.31488 27.17826,-11.15416 40.73578,-16.80623 2.73111,-5.86545 -1.67643,-12.49194 -3.20668,-18.28217 -1.6575,-4.12391 -3.17759,-8.37975 -5.66837,-12.09283 z m -1.65625,5.28125 c 3.28845,7.00048 6.3765,14.31405 7.53125,22 -35.2359,14.5633 -70.6965,30.78118 -108.99203,35.02817 -7.0606,0.70426 -14.1856,0.84091 -21.25797,0.22188 -4.82555,8.13307 -7.41443,17.69772 -14.125,24.625 -8.5577,-2.12769 -16.80471,-6.01764 -23.59375,-11.6875 1.04112,-9.4145 2.35995,-19.29089 7.19609,-27.58982 1.14233,-2.91975 7.20031,1.62346 4.2469,-2.66849 -1.66163,-5.48325 2.69344,-10.95033 4.41289,-16.03645 2.11793,-3.93849 2.80282,-10.69022 8.34297,-6.24826 29.3268,10.83482 62.02157,10.21332 91.64167,0.84536 15.42858,-4.68098 30.23869,-11.19944 44.59698,-18.48989 z"
       id="path4052"
       inkscape:connector-curvature="0"
       inkscape:export-xdpi="90"
       inkscape:export-ydpi="90" />
  </g>
</svg>
