<?xml version="1.0" encoding="UTF-8" standalone="no"?>
<!-- Created with Inkscape (http://www.inkscape.org/) -->

<svg
   xmlns:dc="http://purl.org/dc/elements/1.1/"
   xmlns:cc="http://creativecommons.org/ns#"
   xmlns:rdf="http://www.w3.org/1999/02/22-rdf-syntax-ns#"
   xmlns:svg="http://www.w3.org/2000/svg"
   xmlns="http://www.w3.org/2000/svg"
   xmlns:xlink="http://www.w3.org/1999/xlink"
   xmlns:sodipodi="http://sodipodi.sourceforge.net/DTD/sodipodi-0.dtd"
   xmlns:inkscape="http://www.inkscape.org/namespaces/inkscape"
   width="317.8544mm"
   height="201.30067mm"
   viewBox="0 0 1126.2558 713.27011"
   id="svg2"
   version="1.1"
   inkscape:version="0.92.4 (5da689c313, 2019-01-14)"
   sodipodi:docname="tree.svg">
  <defs
     id="defs4">
    <linearGradient
       inkscape:collect="always"
       id="linearGradient4219">
      <stop
         style="stop-color:#000080;stop-opacity:0.84337348"
         offset="0"
         id="stop4221" />
      <stop
         style="stop-color:#000080;stop-opacity:0;"
         offset="1"
         id="stop4223" />
    </linearGradient>
    <linearGradient
       inkscape:collect="always"
       id="linearGradient4208">
      <stop
         style="stop-color:#980000;stop-opacity:0.70481926"
         offset="0"
         id="stop4210" />
      <stop
         style="stop-color:#4c007f;stop-opacity:1"
         offset="1"
         id="stop4212" />
    </linearGradient>
    <linearGradient
       inkscape:collect="always"
       id="linearGradient4200">
      <stop
         style="stop-color:#008000;stop-opacity:1;"
         offset="0"
         id="stop4202" />
      <stop
         style="stop-color:#008000;stop-opacity:0;"
         offset="1"
         id="stop4204" />
    </linearGradient>
    <linearGradient
       inkscape:collect="always"
       xlink:href="#linearGradient4200"
       id="linearGradient4206"
       x1="377.53723"
       y1="1023.1806"
       x2="384.83264"
       y2="709.47821"
       gradientUnits="userSpaceOnUse"
       gradientTransform="matrix(1.5793223,0,0,0.7447342,-211.11889,70.547068)" />
    <linearGradient
       inkscape:collect="always"
       xlink:href="#linearGradient4208"
       id="linearGradient4214"
       x1="440.36386"
       y1="601.45807"
       x2="-77.583832"
       y2="515.73706"
       gradientUnits="userSpaceOnUse"
       gradientTransform="matrix(0.66229254,0,0,0.5880482,28.676346,177.03783)" />
    <linearGradient
       inkscape:collect="always"
       xlink:href="#linearGradient4219"
       id="linearGradient4225"
       x1="373.88953"
       y1="15.502738"
       x2="370.24182"
       y2="712.21393"
       gradientUnits="userSpaceOnUse"
       gradientTransform="matrix(1.5793223,0,0,0.69270771,-211.11889,107.90396)" />
  </defs>
  <sodipodi:namedview
     id="base"
     pagecolor="#ffffff"
     bordercolor="#666666"
     borderopacity="1.0"
     inkscape:pageopacity="0.0"
     inkscape:pageshadow="2"
     inkscape:zoom="1.0777824"
     inkscape:cx="600.66971"
     inkscape:cy="380.41074"
     inkscape:document-units="px"
     inkscape:current-layer="layer4"
     showgrid="false"
     inkscape:window-width="1920"
     inkscape:window-height="1013"
     inkscape:window-x="-9"
     inkscape:window-y="-9"
     inkscape:window-maximized="1"
     fit-margin-top="0"
     fit-margin-left="0"
     fit-margin-right="0"
     fit-margin-bottom="0" />
  <metadata
     id="metadata7">
    <rdf:RDF>
      <cc:Work
         rdf:about="">
        <dc:format>image/svg+xml</dc:format>
        <dc:type
           rdf:resource="http://purl.org/dc/dcmitype/StillImage" />
        <dc:title></dc:title>
      </cc:Work>
    </rdf:RDF>
  </metadata>
  <g
     inkscape:label="Layer 1"
     inkscape:groupmode="layer"
     id="layer1"
     sodipodi:insensitive="true"
     style="display:none"
     transform="translate(188.0753,-119.27452)">
    <image
       sodipodi:absref="D:\sarahRosannaBusch.ca\projects\artwork\tree\IMG_20160516_163610794.jpg"
       xlink:href="IMG_20160516_163610794.jpg"
       transform="matrix(0.99966504,0.02588046,-0.0162231,0.9998684,0,0)"
       width="822.38837"
       height="1396.1501"
       preserveAspectRatio="none"
       id="image3344"
       x="7.3990331"
       y="-161.95882" />
  </g>
  <g
     inkscape:groupmode="layer"
     id="layer4"
     inkscape:label="background"
     style="display:inline"
     transform="translate(188.0753,-119.27452)">
    <path
       style="opacity:1;fill:url(#linearGradient4225);fill-opacity:1;stroke:none;stroke-width:1.5;stroke-opacity:1"
       d="M -188.0753,119.27452 H 938.1804 V 600.62833 H -188.0753 Z"
       id="rect4216"
       inkscape:export-filename="C:\Users\annarose\projects\IoTflowerpot\flowerPot\images\backgroundTree.png"
       inkscape:export-xdpi="90"
       inkscape:export-ydpi="90"
       inkscape:connector-curvature="0" />
    <path
       style="opacity:1;fill:url(#linearGradient4206);fill-opacity:1;stroke:none;stroke-width:1.5;stroke-opacity:1"
       d="M -188.0753,601.63627 H 935.29995 V 832.54465 H -188.0753 Z"
       id="rect4197"
       inkscape:export-filename="C:\Users\annarose\projects\IoTflowerpot\flowerPot\images\backgroundTree.png"
       inkscape:export-xdpi="90"
       inkscape:export-ydpi="90"
       inkscape:connector-curvature="0" />
  </g>
  <g
     inkscape:groupmode="layer"
     id="layer3"
     inkscape:label="colours"
     transform="translate(188.0753,-119.27452)">
    <path
       style="fill:url(#linearGradient4214);fill-opacity:1;fill-rule:evenodd;stroke:none;stroke-width:1px;stroke-linecap:butt;stroke-linejoin:miter;stroke-opacity:1"
       d="m 228.5429,665.43603 c 13.6661,-53.08666 28.18632,-107.69009 20.07207,-156.98484 -3.84358,-32.98957 -20.07206,-42.84851 -42.70653,-45.12366 -22.63445,-2.27514 -50.3937,9.47976 -54.66435,45.50285 -2.98946,-10.23815 -0.42707,-21.61385 0.42706,-26.16414 -2.56239,1.51676 -11.1037,5.30867 -11.1037,5.30867 l 0.42707,-3.03353 -10.67663,0.75837 c 0,0 40.99826,-14.03003 41.42533,-21.61384 0.42707,-7.5838 -46.97718,-5.68785 -77.298821,11.37571 13.666091,-9.47974 28.186311,-16.68437 40.571201,-20.09707 12.38489,-3.41274 34.16523,-9.10058 34.59229,-11.75491 0.42707,-2.65436 -24.76978,-23.13062 -43.98772,-25.02658 -19.21795,-1.89595 2.13532,-4.17109 2.13532,-4.17109 -4.27065,-3.79191 -24.76979,-18.95952 -26.47805,-20.85548 8.11425,3.03351 15.80142,8.34219 14.94729,-9.10057 3.41653,8.34219 2.56239,15.16763 18.36381,26.92252 15.80141,11.7549 57.22675,29.57684 93.95437,30.33523 36.72761,0.75839 28.18631,-34.12714 26.90511,-39.05661 -5.97891,-17.44276 -23.48859,-39.81499 -49.11251,-41.33175 -10.24956,1.51676 -21.35326,4.17109 -32.88403,16.30519 -0.85413,7.20461 -0.42706,17.06356 -5.55185,26.92252 -0.42706,-6.82542 6.83304,-25.78496 -20.49914,-18.58034 14.09316,-7.20462 33.3111,-14.40924 16.22849,-19.3387 13.66609,-0.75839 29.04044,-5.68787 23.48859,-12.51329 -11.53076,-1.51676 -25.19685,-2.65434 -40.99827,0.75837 7.68717,-4.17108 17.08261,-7.58379 19.21794,-7.96299 -0.42707,-4.1711 -3.41652,-8.72138 -3.41652,-13.27167 5.55185,4.1711 11.95783,13.65087 20.07207,13.27167 10.24957,1.51675 34.59229,4.92947 31.17577,-1.13756 -3.41652,-6.06706 -11.95783,-42.09015 -90.11078,-39.05663 20.49913,-4.55028 39.29001,-6.44624 31.60283,-12.13409 -7.68718,-5.68786 -24.34272,-14.03005 -47.40425,-19.33871 13.23903,-1.13756 30.32163,3.7919 31.60283,2.27515 1.2812,-1.51676 0.42707,-9.85896 0,-11.37572 4.69772,5.30865 9.39544,10.99653 11.95783,13.65085 2.56239,2.65434 13.23902,11.75491 22.63446,14.78843 9.39544,3.03352 30.7487,17.06357 35.01936,19.7179 4.27065,2.65434 8.5413,8.72138 14.52022,-5.30865 5.97891,-14.03005 6.83304,-35.64391 -5.12479,-45.50286 6.83305,3.41272 11.1037,10.99652 10.24957,-12.13409 4.62445,20.42701 2.32848,37.62993 21.78033,5.30866 0.42706,6.82543 -1.70826,14.40923 -8.54131,23.13061 -6.83304,8.72139 -11.10369,24.64738 -7.2601,54.60342 3.84358,29.95605 36.30055,36.02309 38.00881,32.98958 3.41652,-26.92252 4.27065,-45.88205 1.28119,-50.81153 -2.98945,-4.92947 -8.11424,-14.78843 -6.83304,-30.71441 1.70825,6.06704 6.40597,20.85546 9.8225,21.61385 3.41652,0.75838 5.55185,-10.99652 6.40597,-15.926 0.85414,-4.92947 7.68718,-21.61386 8.11425,-17.06357 0.42706,4.55028 -2.13533,14.03005 11.1037,6.82541 -2.13533,4.55031 -7.26012,9.85896 -9.39544,12.5133 -2.13533,2.65434 -6.40598,-0.37918 -7.26011,18.58033 -0.85413,18.95953 -7.26011,68.25428 8.5413,54.22424 15.80142,-14.03005 21.35327,-26.16414 17.08262,-37.53986 -4.27065,-11.37571 0,-23.889 1.70826,-27.6809 -0.42707,8.72137 1.70826,23.889 6.40598,25.02656 4.69772,1.13758 13.66609,-14.78842 13.66609,-14.78842 -2.5624,9.10058 -3.84359,15.16762 -10.67663,25.78495 -6.83305,10.61733 -9.39544,17.82195 3.84358,12.51327 13.23903,-5.30865 34.16523,-27.30169 34.59229,-33.36875 0.42707,-6.06704 -4.27065,-18.95952 -1.70826,-24.64737 2.13533,5.68785 4.27065,21.23466 14.09315,11.3757 -2.13532,7.20463 -14.52022,28.4393 -25.62391,38.67744 -11.1037,10.23814 -37.58175,23.88899 -42.27947,31.4728 -6.40597,13.65086 -16.65554,34.88552 -3.41652,36.78148 13.23903,1.89594 63.63273,-50.43234 63.63273,-59.15371 0,-8.72137 10.67664,-38.29823 25.62392,-48.91557 -2.5624,6.06705 -16.22848,27.30172 -16.65555,32.23118 -0.42707,4.92947 -8.96837,16.68439 26.47805,-0.37918 -9.8225,9.47976 -19.21794,17.06357 -23.06153,20.09709 -3.84359,3.03353 -20.49913,17.44275 -9.8225,17.82195 10.67663,0.37919 47.83132,-12.89248 54.66436,-12.51328 -5.55185,2.65432 -13.23903,3.7919 -3.84358,9.85894 -10.24957,0.75839 -28.61338,3.03353 -33.73817,5.68786 -5.12478,2.65434 -3.84358,4.1711 4.69772,14.40924 8.5413,10.23815 11.95783,14.03004 21.78033,14.78842 9.8225,0.75839 8.96837,-1.89594 21.35327,2.27514 -10.24957,1.13757 -24.76979,-1.51675 -15.80142,10.99653 -10.24957,-6.82543 -13.66609,-14.40923 -17.50968,-4.55028 -6.83304,-10.61733 -16.22848,-31.47281 -33.31109,-29.95605 -17.08261,1.51676 -43.56066,31.09361 -61.92446,75.0797 -18.36381,43.9861 -13.94178,174.30053 6.59291,215.05599 -3.01981,2.68128 -12.07923,9.65261 -12.07923,9.65261 0,0 1.81188,-13.4064 3.32179,-15.01517 -6.03962,2.94941 -16.91092,13.13828 -19.02479,15.01517 0.60397,-5.89881 2.11387,-9.65261 2.11387,-9.65261 0,0 -10.26735,5.89882 -13.58914,10.457 -0.90594,-5.36257 0,-13.13828 6.64359,-22.25464 -5.43567,2.14503 -14.49509,4.29005 -26.57432,19.57336 0,-6.16695 1.20793,-12.60202 2.71783,-15.01518 -6.3416,2.41316 -16.60894,8.31197 -19.32677,15.01518 -1.20792,-3.21754 -0.90594,-5.63069 -0.90594,-5.63069 l -8.75745,7.50758 c 0,0 0.81653,-9.1107 3.27708,-17.29143 z"
       id="path3395"
       inkscape:connector-curvature="0"
       sodipodi:nodetypes="ccscccccscssscccsscccccccccccscscscsssscccsscscssscsssscscsssccscsscscssccssscccssccccccccccccc"
       inkscape:export-filename="C:\Users\annarose\projects\IoTflowerpot\flowerPot\images\backgroundTree.png"
       inkscape:export-xdpi="90"
       inkscape:export-ydpi="90" />
  </g>
  <g
     inkscape:groupmode="layer"
     id="layer2"
     inkscape:label="ink"
     transform="translate(188.0753,-119.27452)">
    <path
       style="fill:#000000;fill-rule:evenodd;stroke:none;stroke-width:1px;stroke-linecap:butt;stroke-linejoin:miter;stroke-opacity:1"
       d="m 126.80435,679.04002 c 0,0 -4.05712,8.37452 0.85413,11.40359 0.64059,-5.34543 5.97891,-7.30543 5.97891,-7.30543 -1.9218,4.09817 -1.70826,7.12726 -0.6406,9.44361 3.20299,-3.56362 15.37436,-16.21449 27.54571,-19.77811 -3.20299,5.52361 -5.55185,11.58178 -4.27065,18.35266 5.33832,-4.27634 10.24957,-9.79997 12.81196,-10.33451 0,5.52362 1.92179,8.19634 4.05712,9.08724 1.9218,-3.7418 9.18191,-13.36359 20.28561,-17.46176 -1.49474,3.74181 -5.55185,12.29451 -0.21354,16.92722 1.06766,-6.05817 8.54131,-9.62179 10.67663,-10.86906 -0.85413,4.63271 3.41653,8.90907 3.41653,8.90907 5.12478,-7.30543 10.03603,-12.82905 19.645,-17.63995 -5.12478,6.59271 -5.33831,13.18541 -1.06766,17.28359 1.70826,-4.27636 2.98945,-6.23635 6.19244,-7.83998 -0.42706,3.38544 0.64061,4.81089 2.13533,6.59271 2.56239,-3.74182 8.75484,-13.54179 16.44202,-15.14542 -3.63006,6.41453 -0.21354,13.00724 -0.21354,13.00724 5.76538,-6.23634 14.52022,-15.67995 23.70213,-17.81812 -4.69773,6.94907 -7.68718,15.50176 -2.34887,20.66902 1.70827,-2.8509 4.27066,-8.01816 9.82251,-9.44361 -1.06767,3.56362 -1.06767,6.94907 0.42706,9.08725 5.33832,-5.34544 10.03604,-12.65087 18.15028,-15.50178 -2.34886,4.63272 -4.69772,8.01816 -2.98946,15.85814 4.69772,-4.27635 8.75484,-8.37452 14.09315,-10.33451 -2.34886,4.09816 -2.13532,7.30543 -1.28119,9.97815 3.84359,-3.91999 8.96837,-8.73088 11.95783,-9.26542 -2.77593,4.27633 -2.56239,9.79996 -1.2812,12.29449 4.27066,-5.16725 11.53076,-12.82904 17.29615,-14.25449 -2.13533,4.09817 -1.2812,7.30543 -1.2812,9.08724 4.91125,-4.45453 17.29614,-15.1454 24.34272,-15.67995 -5.55185,6.59271 -6.61951,11.4036 -6.40598,15.32359 5.33832,-4.63271 10.03604,-6.94908 12.3849,-7.12725 -0.6406,3.56363 3.20298,8.01816 3.20298,8.01816 5.76538,-6.41453 12.59843,-12.11633 19.43148,-12.11633 -0.6406,4.09817 0,7.12725 1.49473,8.90906 1.06766,-5.70179 6.6195,-13.89814 12.81196,-15.32359 -8.96838,0.53455 -23.48859,4.09816 -32.88403,12.82906 1.06766,-4.45453 3.20299,-7.30544 11.31723,-10.5127 -6.61951,0.53455 -17.50968,4.09817 -22.42093,7.12726 2.98945,-4.98909 17.08261,-16.92723 26.90511,-19.42177 -6.83304,-0.17818 -28.18631,4.63271 -43.77419,18.70905 2.34886,-5.16727 8.75484,-9.6218 11.31723,-11.40362 -6.40598,0.71273 -24.12919,10.33452 -29.4675,16.57086 1.70826,-4.98907 6.40598,-9.26543 11.74429,-11.4036 -7.47364,0 -19.21793,6.23636 -22.84799,9.79997 1.49472,-5.34543 8.5413,-9.08725 8.5413,-9.08725 -6.19244,0.53455 -16.22848,4.98909 -22.63445,11.04724 1.06766,-4.45453 1.49472,-12.11632 24.55625,-23.51993 -8.32777,0.89091 -32.88403,13.18542 -40.14414,23.51993 0.64059,-3.56363 5.12478,-8.73088 9.60897,-11.04724 -8.75484,0.17818 -16.01495,5.87999 -21.99387,12.11633 0.85413,-10.51269 7.68718,-18.35266 25.83746,-31.53808 -16.44201,6.77089 -35.23289,15.32359 -45.05539,28.509 0.42706,-6.59271 8.11424,-15.50176 14.73375,-19.9563 -9.60897,2.13817 -27.54571,11.75995 -31.60283,19.42176 0.42707,-2.49454 1.92179,-6.05817 4.05712,-7.66181 -6.19245,2.49455 -11.7443,7.48363 -13.87962,9.97817 1.49473,-6.77089 4.91125,-11.58179 17.50967,-20.66904 -7.04658,1.24727 -30.10809,11.75997 -35.23288,22.80721 -1.2812,-2.49454 0.21353,-9.08724 5.55185,-11.04724 -7.04658,1.60364 -15.16082,4.8109 -18.36382,8.5527 2.77593,-6.77088 6.19245,-13.00723 24.1292,-21.73812 -11.7443,2.31636 -38.43588,14.2545 -45.90952,26.37084 -1.06767,-3.74182 1.49473,-9.79997 9.39543,-14.43269 -11.10369,3.20727 -19.0044,9.62179 -23.27506,13.89814 3.63006,-6.77089 4.48419,-13.00723 20.9262,-22.8072 -10.4631,1.96 -31.81636,11.58178 -42.27946,22.09447 1.9218,-4.98907 4.05712,-7.83997 12.59843,-13.54177 -8.11425,2.13817 -17.93675,9.08724 -19.85854,11.04723 3.84359,-7.12724 13.45256,-16.03631 21.56679,-20.49085 -13.66608,4.63272 -49.96663,24.58903 -47.61777,41.15988 5.12478,-8.5527 16.44201,-20.13449 21.78033,-22.27265 z"
       id="path3348"
       inkscape:connector-curvature="0"
       sodipodi:nodetypes="ccccccccccccccccccccccccccccccccccccccccccccccccccccccccccccccccccccccccc"
       inkscape:export-filename="C:\Users\annarose\projects\IoTflowerpot\flowerPot\images\backgroundTree.png"
       inkscape:export-xdpi="90"
       inkscape:export-ydpi="90" />
    <path
       style="fill:#000000;fill-rule:evenodd;stroke:none;stroke-width:1px;stroke-linecap:butt;stroke-linejoin:miter;stroke-opacity:1"
       d="m -157.17283,739.78769 c -11.17329,-10.07945 -14.19309,-28.97843 32.9159,-55.68899 -12.68319,14.11125 -25.66836,20.15891 -10.26734,45.60954 -8.15348,-4.28377 -14.49508,-12.59932 -12.38121,-24.19069 -6.94555,6.29965 -18.72281,19.15096 -10.26735,34.27014 z"
       id="path3350"
       inkscape:connector-curvature="0"
       inkscape:export-filename="C:\Users\annarose\projects\IoTflowerpot\flowerPot\images\backgroundTree.png"
       inkscape:export-xdpi="90"
       inkscape:export-ydpi="90" />
    <path
       style="fill:#000000;fill-rule:evenodd;stroke:none;stroke-width:1px;stroke-linecap:butt;stroke-linejoin:miter;stroke-opacity:1"
       d="m -93.24709,767.00225 c 0,0 -0.90594,-39.81388 60.39616,-56.44498 -11.777249,8.06357 -28.386194,19.90693 -31.707982,34.01816 9.663384,-12.09534 33.519862,-35.78206 58.886246,-38.30193 -13.589134,7.81159 -31.70798,17.13508 -37.747591,37.294 7.549519,-8.31556 21.440634,-19.65495 28.688172,-20.91489 -9.965368,9.82748 -17.816865,15.87515 -18.118845,21.92282 11.475265,-14.36321 34.727783,-36.79001 58.58426,-36.28603 -12.079226,5.79569 -30.500048,13.60725 -39.861456,37.54596 9.663385,-10.58342 19.628752,-18.39499 32.613928,-22.93075 -7.549518,6.80363 -20.232712,16.6311 -20.232712,23.68671 8.757438,-11.84336 27.78223,-30.74233 44.99513,-31.49829 -13.28715,7.81158 -24.158464,14.36323 -25.668365,35.0261 7.247545,-14.36322 25.970345,-44.09761 58.282285,-44.3496 -14.49507,8.06356 -32.9159,21.41884 -35.63372,39.05788 8.15348,-8.31554 17.2129,-11.84335 23.25252,-12.5993 -8.75745,9.82746 -10.56933,11.33939 -12.07924,22.1748 -2.71782,-6.80364 -2.11386,-11.84336 -0.90594,-13.35528 -4.83169,2.51987 -9.96537,6.80363 -12.07923,12.8513 -3.32179,-8.81953 -6.03962,-15.37117 11.47526,-34.27014 -8.15347,5.03972 -20.83666,11.84336 -32.009953,36.79001 -4.831692,-5.03974 -5.133675,-11.59139 0.905942,-25.70262 -6.945559,6.29967 -20.534689,19.40295 -22.044596,25.9546 -2.415849,-7.05561 -2.717826,-11.33939 0,-16.37911 -6.039611,5.79568 -11.475268,11.08739 -12.683195,17.63904 -3.019803,-11.33939 -1.509901,-19.15096 9.361404,-33.76617 -8.455461,6.04768 -22.648555,15.87514 -31.707975,37.04199 -0.603964,-6.04766 0.30198,-14.86719 1.81188,-18.89897 -6.643575,5.29171 -10.569327,12.85131 -11.777249,16.37911 -2.113866,-6.55165 -3.321788,-13.10329 9.361405,-33.51419 -7.549519,5.79569 -15.099038,11.33939 -29.292132,33.51419 -3.623773,-6.80363 0.603958,-22.42678 8.153477,-31.75028 -11.173285,8.56754 -27.782228,21.67082 -33.217888,40.06586 z"
       id="path3352"
       inkscape:connector-curvature="0"
       sodipodi:nodetypes="ccccccccccccccccccccccccccccccccc"
       inkscape:export-filename="C:\Users\annarose\projects\IoTflowerpot\flowerPot\images\backgroundTree.png"
       inkscape:export-xdpi="90"
       inkscape:export-ydpi="90" />
    <path
       style="fill:#000000;fill-rule:evenodd;stroke:none;stroke-width:1px;stroke-linecap:butt;stroke-linejoin:miter;stroke-opacity:1"
       d="m 299.97146,762.2145 c -1.20792,-8.81954 9.3614,-43.84565 47.41098,-58.96483 -9.66339,9.82747 -22.64856,23.43473 -20.83667,44.85357 2.71782,-8.56753 9.3614,-22.1748 22.34657,-26.71054 -4.83169,5.79567 -14.79706,16.3791 -7.54951,31.49828 3.62376,-7.3076 10.26733,-16.12713 16.00497,-18.395 -3.32179,5.5437 -11.47526,14.86719 -3.32179,23.43473 -3.92575,-1.51191 -6.94556,-4.53575 -6.64357,-8.81952 -2.11387,4.53576 -3.32179,7.30761 -2.71783,10.07946 -6.03962,-4.78774 -9.96537,-14.36324 -9.3614,-21.92282 -3.01981,5.29172 -6.64358,8.06356 -5.73764,22.1748 -6.34159,-8.06357 -11.17329,-15.87513 -3.92575,-36.53802 -13.28715,14.36322 -15.40102,15.62315 -25.66836,39.30989 z"
       id="path3354"
       inkscape:connector-curvature="0"
       inkscape:export-filename="C:\Users\annarose\projects\IoTflowerpot\flowerPot\images\backgroundTree.png"
       inkscape:export-xdpi="90"
       inkscape:export-ydpi="90" />
    <path
       style="fill:#000000;fill-rule:evenodd;stroke:none;stroke-width:1px;stroke-linecap:butt;stroke-linejoin:miter;stroke-opacity:1"
       d="m 494.53866,723.15659 c -0.30197,-7.55959 6.94556,-27.46651 25.97035,-30.74234 -7.54952,6.04768 -13.58913,13.60727 -13.28715,20.91488 4.22773,-4.78775 8.15348,-8.56754 12.07923,-9.3235 -3.92575,5.79568 -6.03962,8.06356 -5.13368,17.13508 -2.41584,-3.02384 -3.0198,-6.55166 -3.0198,-7.81158 -2.11387,3.52781 -3.01981,4.78774 -4.22773,7.55959 -3.3218,-5.03973 -4.22773,-8.06357 -1.20793,-16.63111 -4.52971,4.78774 -8.75744,10.07946 -11.17329,18.89898 z"
       id="path3356"
       inkscape:connector-curvature="0"
       inkscape:export-filename="C:\Users\annarose\projects\IoTflowerpot\flowerPot\images\backgroundTree.png"
       inkscape:export-xdpi="90"
       inkscape:export-ydpi="90" />
    <path
       style="fill:#000000;fill-rule:evenodd;stroke:none;stroke-width:1px;stroke-linecap:butt;stroke-linejoin:miter;stroke-opacity:1"
       d="m 535.18722,743.5675 c 0,0 -0.30198,-21.41884 32.31194,-40.06584 -9.66339,11.84336 -18.11885,22.42678 -11.77725,38.04994 -6.3416,-6.55165 -6.94556,-8.81953 -4.52971,-21.41884 -5.43565,5.03972 -13.89111,15.37117 -16.00498,23.43474 z"
       id="path3358"
       inkscape:connector-curvature="0"
       inkscape:export-filename="C:\Users\annarose\projects\IoTflowerpot\flowerPot\images\backgroundTree.png"
       inkscape:export-xdpi="90"
       inkscape:export-ydpi="90" />
    <path
       style="fill:#000000;fill-rule:evenodd;stroke:none;stroke-width:1px;stroke-linecap:butt;stroke-linejoin:miter;stroke-opacity:1"
       d="m 742.52847,720.88872 c 1.81193,-11.08741 9.96541,-29.23043 40.76742,-42.08173 -10.26732,8.81952 -14.49504,16.37912 -14.19308,20.41091 5.43562,-6.55165 18.72282,-24.94666 46.20303,-31.4983 -7.5495,6.80363 -24.76241,21.67082 -28.08419,32.00227 5.13366,-5.54371 11.77723,-12.34734 22.64858,-15.87515 -5.13372,5.29172 -7.85153,7.05562 -10.26738,14.11125 6.03966,-6.80364 14.19314,-16.37913 30.19809,-18.64701 -8.75746,6.55165 -25.66835,21.16685 -19.62875,33.76618 -4.8317,-3.77979 -6.0396,-11.84336 -1.50992,-18.395 -6.34161,4.53576 -12.3812,8.81952 -11.17325,18.14301 -3.92576,-4.28377 -4.52974,-11.84336 -2.11389,-15.87514 -7.85152,7.55959 -10.87129,13.35528 -10.87129,17.38706 -4.52974,-7.05561 -6.64357,-15.87514 7.85147,-31.24631 -11.77723,8.56753 -23.85648,19.40295 -26.27233,29.23042 -2.71781,-8.31555 -2.11383,-16.12712 -0.30196,-19.15096 -6.34161,5.29171 -19.02477,14.86719 -23.25255,27.7185 z"
       id="path3360"
       inkscape:connector-curvature="0"
       inkscape:export-filename="C:\Users\annarose\projects\IoTflowerpot\flowerPot\images\backgroundTree.png"
       inkscape:export-xdpi="90"
       inkscape:export-ydpi="90" />
    <path
       style="fill:#000000;fill-rule:evenodd;stroke:none;stroke-width:1px;stroke-linecap:butt;stroke-linejoin:miter;stroke-opacity:1"
       d="m 840.65777,752.38702 c 1.50985,-5.54371 6.03959,-12.09535 22.64852,-16.63111 -2.41585,2.77185 -3.62375,4.03179 -3.62375,4.03179 0,0 7.24755,-9.57548 19.02478,-8.31555 -6.0396,3.77979 -13.28714,6.04767 -14.19308,14.36321 4.22772,-3.02383 6.34155,-6.55164 16.30697,-6.55164 -6.03965,3.02385 -7.54957,6.29966 -7.24755,13.1033 -2.41585,-2.01589 -3.6238,-5.29172 -3.01983,-6.55166 -2.7178,0.75596 -6.94553,3.27583 -8.15348,4.78775 -0.30196,-5.29172 -0.30196,-8.06356 1.81187,-11.0874 -3.62374,2.77186 -7.85146,6.55164 -8.7574,10.83542 -2.71787,-2.26789 -3.01983,-5.29172 -2.41585,-7.30761 -5.43567,2.51986 -9.05942,4.03178 -12.3812,9.3235 z"
       id="path3362"
       inkscape:connector-curvature="0"
       inkscape:export-filename="C:\Users\annarose\projects\IoTflowerpot\flowerPot\images\backgroundTree.png"
       inkscape:export-xdpi="90"
       inkscape:export-ydpi="90" />
    <path
       style="fill:#000000;fill-rule:evenodd;stroke:none;stroke-width:1px;stroke-linecap:butt;stroke-linejoin:miter;stroke-opacity:1"
       d="m 856.64644,650.91181 c 0,0 3.63009,-5.16726 9.18195,-6.23635 -1.06767,1.42545 -0.85415,3.56362 -0.85415,3.56362 0,0 2.98942,-2.8509 6.406,-2.49453 1.92175,-1.95999 5.12475,-3.20726 7.68713,-2.8509 -3.203,2.49453 -8.96838,6.05815 -4.05709,9.79997 -2.77595,0 -4.69771,-2.13817 -4.27066,-3.74182 -1.70829,-0.17818 -1.70829,2.85092 -1.70829,2.85092 0,0 -2.98942,-0.35637 -2.7759,-1.78183 -1.28119,0.35638 -3.203,2.13819 -3.63004,3.20727 -1.49477,-1.60363 -2.34886,-3.20727 -1.70829,-4.09817 -1.06767,0.53454 -4.27066,1.78182 -4.27066,1.78182 z"
       id="path3364"
       inkscape:connector-curvature="0"
       inkscape:export-filename="C:\Users\annarose\projects\IoTflowerpot\flowerPot\images\backgroundTree.png"
       inkscape:export-xdpi="90"
       inkscape:export-ydpi="90" />
    <path
       style="fill:#000000;fill-rule:evenodd;stroke:none;stroke-width:1px;stroke-linecap:butt;stroke-linejoin:miter;stroke-opacity:1"
       d="m 716.15227,623.13125 c 0.64057,-2.49453 2.7759,-7.30542 9.18189,-5.87997 2.34886,-1.42545 5.12476,-3.38545 7.68719,-3.02909 -2.13533,1.96 -4.48419,4.81089 -4.48419,4.81089 0,0 2.7759,-2.85089 6.83304,-2.31634 -4.27066,3.38543 -8.3278,6.23633 -9.18189,8.73088 -0.85415,-2.49455 -1.70829,-4.45454 -1.28125,-5.52363 -1.92175,0.53455 -5.33827,4.09817 -5.33827,4.09817 0,0 -0.64062,-2.31636 -0.21352,-3.20726 -1.70829,1.06909 -3.203,2.31635 -3.203,2.31635 z"
       id="path3366"
       inkscape:connector-curvature="0"
       inkscape:export-filename="C:\Users\annarose\projects\IoTflowerpot\flowerPot\images\backgroundTree.png"
       inkscape:export-xdpi="90"
       inkscape:export-ydpi="90" />
    <path
       style="fill:#000000;fill-rule:evenodd;stroke:none;stroke-width:1px;stroke-linecap:butt;stroke-linejoin:miter;stroke-opacity:1"
       d="m 617.5785,666.27949 c 1.49471,-3.74181 8.32775,-8.5527 12.59842,-8.37453 -0.64057,0.89091 -1.49471,2.31636 -1.49471,2.31636 0,0 8.96837,-6.23634 14.3067,-5.34544 -3.6301,1.24727 -8.32781,3.91999 -8.11429,7.48362 3.63005,-2.85091 6.61952,-5.87998 8.11429,-3.74181 2.7759,-2.31635 8.75479,-4.81089 11.53075,-4.27634 -3.84357,2.31635 -7.26014,4.98906 -7.26014,7.66178 3.20299,-3.56362 12.59841,-9.79997 18.36384,-9.26542 -4.69771,2.8509 -8.3278,5.7018 -8.96837,8.37452 3.63004,-2.67272 7.04656,-3.38544 8.11423,-3.91998 -3.203,3.74179 -6.19248,5.52361 -2.98948,10.15632 -3.41652,-0.8909 -4.05708,-2.49453 -4.05708,-3.74179 -1.70829,1.42544 -3.63005,2.67271 -3.84362,3.56361 -1.06767,-3.02908 -1.28119,-4.09816 -1.06767,-5.87998 -3.41652,1.60363 -5.9789,4.98908 -5.9789,7.30543 -1.92181,-1.06909 -3.84356,-3.7418 -3.41652,-6.41453 -2.77595,2.13819 -4.05714,7.48363 -5.33833,5.87999 -1.28119,-1.60363 -1.92181,-1.95999 -1.92181,-2.8509 -1.06766,1.60363 -2.56237,2.8509 -2.98942,3.20726 -1.06766,-1.95999 -2.56237,-4.98907 -2.13533,-6.59271 -2.34885,1.96 -4.05714,2.67273 -4.48419,4.09817 -1.28118,-1.95999 -1.70828,-3.02908 -1.28118,-4.27634 -2.77596,1.60363 -7.04657,3.20726 -7.68719,4.63271 z"
       id="path3368"
       inkscape:connector-curvature="0"
       inkscape:export-filename="C:\Users\annarose\projects\IoTflowerpot\flowerPot\images\backgroundTree.png"
       inkscape:export-xdpi="90"
       inkscape:export-ydpi="90" />
    <path
       style="fill:#000000;fill-rule:evenodd;stroke:none;stroke-width:1px;stroke-linecap:butt;stroke-linejoin:miter;stroke-opacity:1"
       d="m 468.58949,650.9625 c -1.35891,-3.27583 1.35891,-9.3235 16.60894,-12.47333 -2.71782,2.01589 -4.52971,2.89785 -4.6807,4.78774 1.5099,-1.63791 4.37873,-2.51986 4.37873,-2.51986 0,0 -0.45297,0.88195 -0.60396,1.7639 2.56683,-3.02383 7.39852,-6.67763 11.62625,-7.55959 -3.32179,2.89785 -6.64358,6.42566 -6.49258,7.81158 2.56684,-2.89784 6.79456,-7.81158 13.13616,-9.32349 -1.96287,2.51985 -7.54952,6.92962 -7.8515,10.20544 3.32179,-3.14983 8.30447,-6.67764 11.32428,-5.16572 -1.96288,1.63791 -4.98268,2.26788 -5.43565,5.41771 1.50989,-1.76391 4.83168,-3.27582 7.24753,-2.26788 -2.11386,0.88195 -3.77476,0.62997 -4.52971,6.29966 -1.35891,-0.62996 -3.01981,-0.88195 -3.1708,-1.6379 -0.75495,1.00794 -1.81188,2.14187 -1.81188,3.02383 -1.35892,-1.25993 -1.20793,-3.40182 -0.75496,-5.03973 -1.66089,1.00794 -5.28466,4.40976 -6.1906,5.92168 -0.60396,-1.76391 -0.60396,-4.15778 -0.60396,-4.91374 -1.6609,1.51192 -3.62377,3.52782 -3.92575,4.53577 -0.60396,-2.0159 -0.75496,-3.77981 -0.60396,-4.53577 -2.41585,1.25994 -4.52971,3.40182 -5.13367,4.53577 -0.30199,-1.13395 -0.75495,-2.0159 -0.60397,-2.89786 -1.35891,1.00795 -2.56683,2.26789 -3.1708,3.27583 -0.75495,-1.63791 -1.81188,-3.90578 -1.05693,-6.04768 -2.41585,1.25994 -5.73763,1.8899 -7.70051,6.80364 z"
       id="path3370"
       inkscape:connector-curvature="0"
       inkscape:export-filename="C:\Users\annarose\projects\IoTflowerpot\flowerPot\images\backgroundTree.png"
       inkscape:export-xdpi="90"
       inkscape:export-ydpi="90" />
    <path
       style="fill:#000000;fill-rule:evenodd;stroke:none;stroke-width:1px;stroke-linecap:butt;stroke-linejoin:miter;stroke-opacity:1"
       d="m 372.78718,614.17248 c -2.41584,-0.88194 -4.52971,-1.8899 0,-5.54369 0.151,0.37798 0.151,1.38593 0.151,1.38593 0,0 3.62377,-3.14983 6.1906,-3.27583 -1.05693,1.38593 -1.05693,2.39388 -1.05693,3.02384 0.90594,-0.88195 1.96287,-1.38592 2.86882,-1.13394 -0.90595,1.13394 -1.96288,2.89785 -1.5099,4.53575 -1.05694,-0.75596 -2.11387,-1.25993 -2.26486,-1.88989 -0.75495,0.75595 -1.35892,1.76389 -1.6609,2.26787 -0.90594,-0.75596 -1.05693,-2.14189 -1.05693,-2.14189 0,0 -2.41584,1.13394 -1.6609,2.77185 z"
       id="path3372"
       inkscape:connector-curvature="0"
       inkscape:export-filename="C:\Users\annarose\projects\IoTflowerpot\flowerPot\images\backgroundTree.png"
       inkscape:export-xdpi="90"
       inkscape:export-ydpi="90" />
    <path
       style="fill:#000000;fill-rule:evenodd;stroke:none;stroke-width:1px;stroke-linecap:butt;stroke-linejoin:miter;stroke-opacity:1"
       d="m -31.846601,671.37821 c 0,0 -1.067663,-9.4436 25.837448,-20.8472 -5.551845,4.8109 -7.900705,7.48361 -7.900705,9.08725 3.630058,-1.60364 6.192448,-4.98908 9.60897,-6.05816 -2.34886,3.02908 -7.26011,7.12724 -7.473647,9.44361 2.562397,-3.02909 15.160823,-16.39269 21.780331,-15.14542 -3.843588,2.49454 -14.093154,7.83998 -13.666088,13.54177 2.56239,-3.91998 9.39544,-8.3745 13.452558,-9.79995 -4.057118,3.91998 -11.103698,9.79995 -10.036036,15.50176 2.562396,-4.27634 10.676632,-14.78904 21.139732,-16.03632 -6.192446,4.8109 -13.23902,8.01816 -12.598424,20.49085 -2.34886,-2.49454 -2.775926,-6.05815 -2.775926,-6.94907 -2.775926,3.20726 -7.046574,6.94907 -7.046574,6.94907 0,0 -1.921794,-4.98907 -1.921794,-5.70179 -1.067669,0.71272 -3.416522,2.49453 -2.989463,0.8909 0.427066,-1.60363 -1.067662,-4.09817 -1.067662,-4.09817 0,0 -5.551845,4.98908 -6.405977,6.77088 -1.067663,-1.06908 -1.281199,-4.09816 -1.281199,-4.63271 -0.854125,0.89091 -2.135323,2.85091 -2.135323,2.85091 0,0 -2.348861,-3.38544 -0.640597,-8.37453 -3.843587,3.20727 -11.103699,7.83998 -13.879624,12.11632 z"
       id="path3374"
       inkscape:connector-curvature="0"
       inkscape:export-filename="C:\Users\annarose\projects\IoTflowerpot\flowerPot\images\backgroundTree.png"
       inkscape:export-xdpi="90"
       inkscape:export-ydpi="90" />
    <path
       style="fill:#000000;fill-rule:evenodd;stroke:none;stroke-width:1px;stroke-linecap:butt;stroke-linejoin:miter;stroke-opacity:1"
       d="m -45.288766,636.81105 c 0.213533,-1.78181 5.124782,-5.34543 6.833046,-6.23634 -0.213536,1.0691 -0.640596,2.49454 -0.640596,2.49454 l 4.057118,-3.02909 c 0,0 0.21353,2.13818 -0.213536,2.85091 1.494735,-1.06909 4.270654,-1.42545 4.270654,-1.42545 0,0 -0.854126,3.20726 -2.34886,4.63271 -0.21353,-0.8909 0,-1.7818 0,-1.7818 0,0 -2.348854,1.7818 -3.202986,2.67271 -0.854132,-0.17819 -0.640602,-1.96 -0.640602,-1.96 0,0 -2.135324,0.71273 -2.989456,1.96 -1.067662,-0.71273 -1.494728,-1.96 -1.494728,-1.96 z"
       id="path3376"
       inkscape:connector-curvature="0"
       inkscape:export-filename="C:\Users\annarose\projects\IoTflowerpot\flowerPot\images\backgroundTree.png"
       inkscape:export-xdpi="90"
       inkscape:export-ydpi="90" />
    <path
       style="fill:#000000;fill-rule:evenodd;stroke:none;stroke-width:1px;stroke-linecap:butt;stroke-linejoin:miter;stroke-opacity:1"
       d="m -146.25645,622.11006 c 0,0 4.98268,-7.18161 11.0223,-6.55165 1.66089,-1.25993 4.83169,-2.51987 6.64358,-2.39387 -1.6609,1.13394 -2.71783,3.52781 -2.71783,3.52781 0,0 1.81188,-1.7639 2.41584,-2.01589 -0.30198,0.88195 0.151,1.88989 0.151,1.88989 0,0 3.92574,-4.78774 8.15347,-3.90578 -2.71782,1.7639 -5.88862,2.64586 -5.73763,9.32349 -1.35891,-0.75596 -3.32179,-2.51986 -3.32179,-2.51986 0,0 -1.35892,1.38593 -1.35892,2.26788 -0.90593,-1.00795 -2.11385,-2.39387 -2.11385,-2.39387 0,0 -1.96288,1.25993 -1.96288,2.0159 -1.20792,-0.62998 -1.35892,-1.13396 -1.20792,-2.26789 -1.35892,-0.12599 -1.6609,2.01589 -1.6609,2.01589 0,0 -2.26485,-0.25198 -2.56683,-1.51191 -1.96288,0.62995 -5.73764,2.51986 -5.73764,2.51986 z"
       id="path3378"
       inkscape:connector-curvature="0"
       inkscape:export-filename="C:\Users\annarose\projects\IoTflowerpot\flowerPot\images\backgroundTree.png"
       inkscape:export-xdpi="90"
       inkscape:export-ydpi="90" />
    <path
       style="fill:#000000;fill-rule:evenodd;stroke:none;stroke-width:1px;stroke-linecap:butt;stroke-linejoin:miter;stroke-opacity:1"
       d="m 116.265,644.91482 c 0.75494,-2.64585 5.73762,-7.05561 8.75743,-7.93757 -0.45297,1.13394 -0.15098,1.8899 -0.15098,1.8899 0,0 6.19059,-5.79567 9.51239,-5.79567 -1.35892,1.76389 -3.1708,6.04766 -3.1708,6.04766 0,0 4.22773,-6.17366 8.60645,-7.05561 -1.96287,2.51985 -3.1708,5.2917 -3.1708,7.1816 1.6609,-2.26788 4.37873,-4.03179 5.43566,-4.03179 -1.05693,2.26789 -3.01981,4.03179 -2.41585,5.92169 0.90594,-1.8899 3.77476,-3.6538 5.13367,-4.15778 -1.5099,2.26788 -4.07674,4.66175 0,7.81158 -1.96287,-0.12599 -4.37872,-0.50397 -4.37872,-1.00794 -0.75495,1.25993 -1.81188,2.01589 -1.81188,2.01589 0,0 -1.81189,-1.38593 -1.81189,-2.26788 -0.90594,0.75596 -2.56684,1.25993 -2.56684,1.25993 0,0 -1.5099,-2.01589 -1.05693,-4.15777 -1.96287,2.14188 -2.71782,5.4177 -2.71782,6.04767 -1.5099,-0.25199 -3.77476,-2.01589 -3.92576,-5.5437 -0.90594,1.25993 -1.5099,2.26788 -1.35891,3.40182 -1.96287,-0.126 -3.47277,-1.38593 -4.07674,-2.39388 -1.35891,1.00795 -4.83168,2.77185 -4.83168,2.77185 z"
       id="path3380"
       inkscape:connector-curvature="0"
       inkscape:export-filename="C:\Users\annarose\projects\IoTflowerpot\flowerPot\images\backgroundTree.png"
       inkscape:export-xdpi="90"
       inkscape:export-ydpi="90" />
    <path
       style="fill:#000000;fill-rule:evenodd;stroke:none;stroke-width:1px;stroke-linecap:butt;stroke-linejoin:miter;stroke-opacity:1"
       d="m 168.47306,616.81834 c -0.15099,-1.00795 2.11387,-4.91373 4.98268,-4.66175 1.96287,-1.25992 4.98269,-3.14982 4.98269,-3.14982 0,0 -0.15099,2.89784 -0.45297,3.40181 1.05693,-0.50397 2.56683,-0.50397 2.56683,-0.50397 0,0 -3.32179,2.77185 -2.71782,5.16572 -0.90595,0 -2.11387,-1.25994 -2.11387,-1.25994 l -1.81189,1.00795 -1.05693,-2.39387 -1.5099,2.0159 c 0,0 -0.90594,-1.38593 -2.86882,0.37797 z"
       id="path3382"
       inkscape:connector-curvature="0"
       inkscape:export-filename="C:\Users\annarose\projects\IoTflowerpot\flowerPot\images\backgroundTree.png"
       inkscape:export-xdpi="90"
       inkscape:export-ydpi="90" />
    <path
       style="fill:#000000;fill-rule:evenodd;stroke:none;stroke-width:1px;stroke-linecap:butt;stroke-linejoin:miter;stroke-opacity:1"
       d="m 314.32587,629.79565 c -1.20792,-1.8899 0.30198,-4.78774 9.05941,-8.18956 0.45298,0.50397 0.151,1.76391 0.151,1.76391 0,0 8.75744,-6.92963 11.47526,-5.29172 -1.96286,2.01589 -4.98267,4.91373 -5.43565,7.81157 1.6609,-1.88989 5.58665,-5.16572 6.64359,-5.4177 -0.151,1.13394 -0.30199,2.77185 -0.30199,2.77185 0,0 4.98269,-6.55165 10.11636,-7.05563 -0.60396,2.26789 -5.28466,5.54371 -4.98269,8.44155 1.96288,-2.51986 4.37873,-4.91373 7.70051,-5.5437 -1.66089,2.26789 -2.11386,4.53576 -2.11386,4.53576 0,0 3.0198,-4.03178 5.43565,-4.91374 -1.05693,2.51986 -5.58664,6.92963 -2.56683,10.20546 -2.71783,0.37797 -3.62377,-1.51192 -3.92576,-2.14189 -0.75494,0.50397 -1.81188,3.52781 -1.81188,3.52781 0,0 -0.90594,-2.26788 -1.05693,-3.65381 -1.05693,1.00795 -2.41585,2.14189 -2.71783,3.27583 -1.5099,-0.37798 -3.32179,-1.51192 -2.56683,-4.28377 -1.20792,1.00794 -3.47279,3.90579 -3.47279,4.53576 -1.20792,-0.75596 -2.56683,-1.63791 -2.56683,-2.39387 -1.05693,0.88194 -2.56683,2.26787 -3.1708,3.6538 -1.6609,-1.63791 -2.71783,-4.15778 -2.71783,-4.78775 -1.5099,1.00795 -3.77475,2.14189 -3.17079,4.40977 -1.81189,-0.75596 -3.01981,-2.77186 -3.01981,-4.15777 -1.35892,0.37797 -4.6807,1.25993 -4.98268,2.89784 z"
       id="path3384"
       inkscape:connector-curvature="0"
       inkscape:export-filename="C:\Users\annarose\projects\IoTflowerpot\flowerPot\images\backgroundTree.png"
       inkscape:export-xdpi="90"
       inkscape:export-ydpi="90" />
    <path
       style="fill:#000000;fill-rule:evenodd;stroke:none;stroke-width:1px;stroke-linecap:butt;stroke-linejoin:miter;stroke-opacity:1"
       d="M 313.57482,673.14177 C 293.64409,648.47398 294.24805,521.9175 295.45598,509.58362 c 10.26734,-82.58347 36.23769,-97.59865 57.67832,-116.90386 17.81687,-15.01519 28.99015,-1.8769 33.51986,2.94941 4.52972,4.8263 10.26735,19.30521 15.40103,26.54467 0,1.07252 1.20792,12.87014 6.03961,19.57336 1.81189,14.47891 7.85151,21.71837 10.56933,23.59527 2.71783,1.87688 0,-2.14502 -3.92575,-7.50759 -3.92575,-5.36255 -2.41585,-10.99325 -2.41585,-10.99325 0,0 -2.11386,1.60876 9.66339,9.11636 11.77724,7.50758 13.28715,4.8263 9.3614,3.21753 -3.92575,-1.60876 -11.77725,-8.04384 -16.91092,-13.94266 3.32178,0 11.77725,7.23947 12.98517,6.97133 1.20793,-0.26813 -4.22773,-5.89882 -9.66339,-8.04385 -5.43565,-2.14501 -6.03961,-4.29004 -6.94555,-5.8988 -0.90594,-1.60877 -2.71783,-6.16695 -3.01981,-9.92075 12.98517,14.74705 24.76242,20.91399 33.21789,19.57335 -13.28716,-3.21753 -17.51489,-8.31197 -17.51489,-8.31197 0,0 1.81188,-1.07251 12.98518,3.21754 11.17328,4.29004 5.43565,0.26813 3.0198,-1.07251 -2.41585,-1.34064 -11.77725,-5.63069 -20.53469,-5.36257 -3.62377,-3.75379 -13.28715,-15.2833 -16.00498,-23.05902 -2.71783,-7.77571 5.73763,0.80439 13.58913,6.97134 7.85151,6.16694 35.93571,17.96459 43.78721,20.37773 1.81189,2.41316 18.11885,9.65261 25.66837,8.84824 7.54952,-0.80439 -2.11387,-1.8769 -7.24754,-2.68129 -5.13367,-0.80438 -10.87131,-4.8263 -10.87131,-4.8263 0,0 12.07924,-0.26813 19.93073,-4.29006 -3.01981,0.80439 -16.00498,2.94941 -27.48025,0.26813 -11.47526,-2.68127 -6.34159,-3.48566 -3.92574,-4.29004 2.41584,-0.8044 6.94555,-0.53626 14.19309,0 7.24754,0.53625 2.11387,-1.34064 2.11387,-1.34064 0,0 -6.94556,-2.41316 -16.60895,-1.07252 -9.66338,1.34064 -9.96536,0.80439 -12.98517,-0.53626 -3.01981,-1.34063 -10.26734,-5.09444 -21.13865,-12.87015 -10.87131,-7.77571 -5.43566,-8.5801 0.90594,-9.11635 6.34159,-0.53626 19.02479,0.80438 29.29214,2.94941 10.26734,2.14503 18.11884,15.2833 29.29213,17.42833 11.17329,2.14502 4.52971,0 -1.20793,-2.41316 -5.73762,-2.41316 -15.40102,-11.5295 -15.40102,-11.5295 0,0 7.85151,2.41315 14.19311,5.89881 6.34159,3.48567 8.15347,2.14503 -0.60397,-2.68127 -8.75744,-4.82632 -24.15846,-10.457 -24.15846,-10.457 0,0 0.90594,-0.26813 9.05942,-1.07252 8.15349,-0.80438 20.53469,4.82631 22.34658,4.29005 -4.8317,-4.02193 -22.64856,-8.84823 -32.9159,-6.16695 -10.26735,2.68129 -31.70799,-2.94941 -38.65354,-2.41315 -13.28715,1.34064 -22.34658,-10.72512 -27.78223,-18.23271 -5.43566,-7.5076 -3.92575,-7.23946 12.07922,-10.72513 27.17828,-5.36255 55.26249,0 65.22785,1.34064 9.96537,1.34064 10.56933,2.94941 11.77725,5.36257 1.20793,2.41314 9.66339,10.99325 17.21291,13.13827 7.54952,2.14504 2.71782,-1.34064 2.71782,-1.34064 0,0 -5.43565,-0.26812 -13.58913,-8.31197 -8.15348,-8.04384 -0.60396,-4.29005 2.41585,-3.48566 3.0198,0.80438 13.58913,6.43507 20.23271,12.3339 -1.81189,-4.82631 -18.72281,-15.81958 -29.59412,-19.57336 6.64358,-4.55818 24.46045,0 32.00997,2.14502 -10.26735,-6.97132 -30.19808,-6.7032 -35.02978,-5.09442 -4.83169,1.60876 -8.15348,0.26812 -12.68319,-0.53626 -4.52971,-0.80439 -34.12382,-2.94941 -43.48523,-4.02193 12.98518,-5.6307 29.89609,-6.43508 35.93571,-6.97133 6.03962,-0.53626 10.26735,-1.34064 13.58914,1.60877 3.32179,2.94942 11.17328,4.55818 18.42083,5.89883 7.24753,1.34063 8.75743,-0.53627 3.32178,-1.34065 -12.68319,-1.87691 -12.68319,-3.48567 -17.51488,-6.70321 7.54952,-1.07252 22.95053,3.48568 29.59411,4.02192 -4.52971,-3.7538 -32.00996,-7.23946 -38.95552,-7.50759 0.30198,-4.8263 4.83169,-10.72511 9.66339,-15.2833 4.8317,-4.55817 1.5099,-4.02192 -0.90594,-2.14502 -2.41585,1.8769 -11.17329,6.97133 -14.79706,18.2327 -17.21291,-2.14502 -50.43079,6.97135 -72.77737,13.13829 -22.34658,6.16694 -15.40101,-2.41314 -9.3614,-7.77572 6.03962,-5.36257 26.87629,-21.45025 35.33175,-27.08094 2.41585,1.60877 19.02479,2.14504 22.95054,0.80439 3.92575,-1.34064 19.62875,2.41315 23.5545,0 13.28715,-8.58011 7.85149,-8.04386 6.94556,-7.23946 -0.90594,0.80439 -1.20793,3.48565 -8.15349,4.8263 -14.49507,1.60877 -10.26734,0 -7.85149,-0.80438 2.41584,-0.80439 5.73763,-1.07251 7.54952,-2.94941 4.83168,-4.55817 0.60396,-2.41316 -1.50991,-1.34065 -2.11387,1.07253 -9.66338,3.48567 -16.00498,4.55819 4.52971,-5.89883 8.75744,-2.94942 12.68319,-7.23946 3.92576,-4.29005 0,-2.14502 -2.41584,-1.34064 -2.41585,0.80439 -9.05943,3.75379 -11.47527,5.09444 -2.41585,1.34063 -7.24754,6.16694 -12.6832,5.09443 -5.43565,-1.07252 -6.03961,-1.60877 -8.75744,-2.68129 40.46542,-24.39966 64.3219,-18.50083 75.79717,-16.08767 -7.54952,-5.36258 -31.40599,-4.82631 -44.08918,-2.68129 2.41584,-1.60876 7.85149,-4.29005 17.81685,-6.70322 9.96538,-2.41314 -1.20792,-3.21752 -12.3812,1.07252 -11.17329,4.29006 -17.81687,9.65262 -25.66837,12.3339 -7.8515,2.68129 -23.85648,10.99325 -35.63373,19.57336 -11.77725,8.58011 -15.09904,4.29005 -9.66339,-9.11637 9.66339,-22.52276 18.72281,-28.15344 27.17828,-30.03033 1.5099,1.0725 1.5099,3.21752 8.75744,5.09442 13.58913,3.48567 16.60894,-1.07252 16.60894,-1.07252 0,0 -3.62377,2.41316 -12.07923,-0.53625 -8.45546,-2.9494 -12.98517,-5.89882 -4.52971,-7.50758 8.45546,-1.60877 17.81687,0 26.87629,1.8769 -2.71783,-2.41317 -9.66339,-4.55819 -15.70301,-5.09443 3.62378,-4.82631 12.98518,-5.6307 19.62876,-6.70322 -4.8317,-1.60877 -16.30696,-0.53625 -21.44064,3.48567 -5.13367,4.02192 -7.54951,3.48567 -10.56932,4.02192 -3.01981,0.53627 -8.15349,1.87689 -14.1931,4.82631 22.64856,-29.22597 60.69813,-31.37099 70.05954,-31.63912 -6.3416,-3.21753 -24.76243,0 -33.82185,2.94941 0.60396,-3.7538 6.34159,-8.31197 10.56932,-12.33389 12.38122,1.60876 28.68818,-3.48567 35.02978,-7.23946 6.34159,-3.7538 3.01981,-4.55818 -3.62377,-0.80439 -6.64358,3.7538 -19.02479,5.89882 -27.78223,5.09445 0,0 6.34159,-5.6307 14.49507,-7.5076 8.15348,-1.87689 7.85151,-4.02193 0.30199,-2.41316 -7.54952,1.60877 -15.40103,5.6307 -22.95054,12.06577 2.11386,-8.84823 11.17329,-11.79764 17.51488,-15.2833 6.34159,-3.48566 0.60396,-3.7538 -8.75744,1.87689 -9.3614,5.6307 -9.96537,5.89883 -16.00499,18.50084 -6.03961,12.60204 -4.22772,7.77573 -23.55449,21.18213 -32.91591,23.05901 -43.48523,50.67621 -47.71296,67.56827 -4.22773,16.8921 -33.21789,39.95111 -48.61891,53.35751 -15.40101,13.40641 -21.44063,-1.34065 -13.28715,-16.89208 8.15348,-15.55141 2.71782,-13.40638 24.15846,-24.39965 21.44064,-10.99326 42.27731,-37.80606 51.63871,-57.91569 9.3614,-20.1096 9.96537,-20.1096 17.21291,-30.83472 2.71782,-2.94941 6.34159,-1.0725 17.81686,-7.77572 11.47527,-6.70319 10.56933,-9.38448 6.64358,-6.43507 -3.92575,2.94941 -11.17329,5.89882 -18.42083,8.04384 8.75745,-11.26136 16.30697,-23.05902 15.703,-28.6897 -0.60396,-5.6307 -2.41584,-3.21755 -2.41584,1.07251 0,4.29005 -4.8317,10.99325 -10.87131,19.30523 -4.22773,-13.67454 4.83169,-24.39966 7.54952,-28.68971 -5.43565,2.14502 -9.05943,8.5801 -10.26735,13.94265 -1.20792,5.36258 0,18.50084 -0.90595,20.10961 -0.90594,1.60877 -6.34159,6.70321 -9.96536,9.65263 -0.30197,-6.97135 -3.01981,-20.37775 -8.45546,-27.08095 0.90594,2.14502 2.41585,8.58011 3.32179,13.67453 -5.13368,-5.36256 -8.15348,-10.99324 -8.15348,-16.62394 0,-5.6307 -3.62377,-8.31197 -2.41585,3.21753 1.20793,11.52951 10.56933,17.69646 10.56933,17.69646 0,0 2.41584,9.92074 -5.13368,23.59528 -7.54952,13.67453 -11.47526,27.6172 -16.00498,7.77571 -4.52971,-19.84148 6.94556,-32.4435 12.38122,-40.2192 -12.68319,6.97131 -22.64856,35.66103 -17.51489,50.13994 5.13367,14.47892 -1.81188,17.96459 -3.92575,19.57335 -2.11386,1.60876 -4.52971,10.72512 -21.74261,20.10962 -17.21291,9.38448 -14.79706,4.29003 -6.64358,-10.18887 12.38122,-21.71837 18.11884,-38.87857 19.02479,-52.01686 10.26735,-12.33389 9.96536,-20.914 9.96536,-24.66778 0,-3.7538 -0.60396,-5.63069 1.81189,-12.87016 2.41584,-7.23945 2.71783,-8.58009 -0.90594,-16.3558 0,0 1.5099,2.14502 -0.30199,9.65259 -1.81188,7.5076 -1.20792,9.11637 -4.22772,3.75381 -3.01981,-5.36257 -4.52971,-2.94941 -2.41585,-0.53627 2.11386,2.41316 1.81188,5.6307 3.62376,14.47893 -9.05941,-3.21753 -9.66337,-13.94266 -9.66337,-19.57335 -6.64358,10.72512 2.41584,21.45025 9.05942,25.20403 -0.30199,2.14503 -2.41585,7.23946 -6.3416,13.67454 0,-1.0725 -1.20792,-7.23945 -8.45546,-13.40641 10.8713,17.42833 0.60396,40.48735 -6.64358,50.13997 -7.24754,9.65261 -9.3614,18.50082 -13.89111,6.16694 -4.52972,-14.47892 4.52971,-31.37099 10.26734,-40.48734 -12.07923,9.11635 -21.13865,34.85665 -17.81687,47.72679 3.3218,12.87016 7.54953,11.79765 -9.36139,34.05228 -10.26735,12.60204 -12.38122,8.04385 -12.6832,-4.82631 -0.30197,-12.87014 0,-22.52276 0.60396,-38.07419 0.60397,-15.55143 2.71783,-18.50084 8.45546,-23.59527 5.73764,-5.09443 17.51489,-18.23271 26.27233,-34.05227 8.75744,-15.81957 21.13866,-37.26981 11.47528,-49.60371 6.94555,18.23272 -12.38122,45.5818 -26.27234,62.20573 -13.89111,16.62394 -15.40101,11.26138 -9.66338,-6.16695 8.45546,-25.47217 23.25252,-37.80606 30.19808,-46.11803 -6.94556,3.48567 -19.93073,17.96457 -25.97035,26.54468 1.5099,-20.1096 9.66338,-25.7403 14.49508,-30.29849 4.83169,-4.55817 3.92575,-6.43507 -2.41585,-1.07251 -12.6832,11.79764 -13.89111,18.76897 -15.40102,26.54469 -1.5099,7.77572 0.60396,12.60203 -5.13367,22.25463 -5.73764,9.65263 -7.8515,12.3339 -11.17329,29.49411 -3.32179,17.1602 -6.64358,16.3558 -11.17329,-2.94942 -7.85149,-38.34231 16.00498,-50.67621 21.74261,-53.89376 5.73764,-3.21754 1.50991,-2.9494 -3.32178,-0.26812 -4.83169,2.68127 -11.77725,8.04385 -17.81686,16.89207 1.81187,-13.67454 10.8713,-25.20404 17.2129,-29.22597 6.34159,-4.02191 3.01981,-6.16694 -5.13368,1.34065 -14.49507,13.4064 -15.40101,21.18212 -18.72281,34.85665 -0.90593,-9.38447 -0.60396,-14.74705 2.11387,-23.8634 2.71783,-9.11636 -2.11387,-5.89881 -5.13367,7.23946 -4.22773,19.84148 4.52971,61.66946 10.82833,76.61569 2.86622,6.3623 1.43311,18.57795 0.57325,36.13792 -0.85988,17.55999 -14.33119,12.72465 -26.08276,-2.7994 -11.75157,-15.52406 -12.89806,-36.13794 -11.46494,-51.153 1.43311,-15.01506 13.328,-31.17535 15.62098,-35.7562 2.29299,-4.58088 -0.42993,-6.74407 4.58598,-17.17825 5.01591,-10.4342 5.73247,-21.63186 4.58598,-26.59448 -1.14649,-4.9626 -2.14968,-1.78145 -1.71974,3.05391 0.42993,4.83535 -3.29617,15.26955 -6.01909,21.12289 0,-0.89073 -2.14969,-4.96261 -3.86943,-8.01652 -1.71974,-3.05391 -4.58598,-4.58087 -1.86305,0.89073 2.72292,5.47159 0.42993,14.88781 -1.14649,19.59592 -3.72612,-5.47157 -4.58598,-18.95969 -4.15605,-22.52259 0.42993,-3.5629 -1.71974,-2.92666 -2.4363,2.79942 -0.71655,5.72608 1.14649,17.17826 3.00955,21.88636 1.86306,4.70811 0,7.38029 -3.00955,10.81594 -3.00954,3.43564 -4.29935,0.63622 -4.29935,-1.65422 0,-2.29042 -1.1465,-7.88927 -2.29299,-12.08839 -1.1465,-4.19911 1.14649,-9.54347 0.71656,-22.39534 -0.42994,-12.85188 -8.59871,-24.04955 -15.47767,-28.37592 -6.87898,-4.32638 -2.43631,0.63624 2.5796,5.72609 5.01591,5.08984 9.31527,16.7965 8.74202,26.33998 -0.57324,9.54346 -3.15286,2.16318 -8.31208,-4.83536 -5.15922,-6.99855 -18.2006,-16.92376 -25.79612,-19.59594 -7.59553,-2.67217 -5.15923,0.509 1.57642,3.43566 6.73566,2.92665 18.2006,14.25158 21.06684,18.83244 2.86624,4.58089 5.01591,6.36231 -2.43631,4.32638 -7.45221,-2.03594 -15.76429,-8.39825 -19.20378,-10.94318 -3.43948,-2.54492 -2.00636,0.12726 0.14332,2.03594 2.14967,1.9087 7.02228,6.23508 10.74838,8.39825 3.72611,2.1632 13.90125,5.85333 15.19106,7.1258 1.2898,1.27246 3.29616,11.96115 3.29616,11.96115 0,0 3.5828,8.90724 -1.86304,3.94464 -5.44585,-4.96263 -18.63054,-9.0345 -18.63054,-9.0345 l -7.45221,-1.52694 c -7.45222,-1.52696 -10.17514,-3.43566 -12.46813,-5.34435 -2.29299,-1.9087 -3.5828,-4.0719 -8.02547,-3.69016 -4.44266,0.38175 -1.71974,1.27248 0.57325,1.65422 2.293,0.38173 7.88215,5.08985 7.88215,5.08985 0,0 -8.16878,-1.01798 -12.46813,0 -4.29935,1.01796 -1.14649,1.01796 0.85987,1.52695 2.00637,0.50898 11.17833,1.39971 15.33437,1.90869 4.15604,0.50898 1.28981,2.41769 -0.85987,2.92667 -2.14967,0.50898 -7.73884,3.18116 -9.7452,4.45361 -2.00637,1.27247 -3.72611,1.9087 -5.44585,1.9087 -1.71974,0 -7.59553,1.27246 -11.32164,4.32638 -3.7261,3.05392 -0.14331,1.78144 1.71974,0.50898 1.86306,-1.27246 5.73247,-2.41768 10.03183,-3.30839 -1.14649,0.50898 -6.30572,5.47157 -9.88851,10.81592 -3.5828,5.34434 0,3.8174 2.86623,-0.50899 2.86624,-4.32636 11.17832,-9.92521 15.04775,-11.70664 -0.71656,2.41767 -2.72293,7.50752 -6.01911,12.72461 -3.29616,5.2171 1.00319,2.1632 2.43631,0.63623 1.43312,-1.52695 4.01273,-7.38028 6.44904,-12.47012 2.43629,-5.08986 6.30572,-5.47161 12.18149,-7.25304 5.87579,-1.78146 16.33755,4.58085 21.06684,8.52549 4.72929,3.94463 8.4554,8.90725 8.31208,17.05101 -0.1433,8.14375 -2.57961,19.08694 -5.58916,26.9762 -3.00954,7.88928 -2.72292,7.63477 -16.76748,-1.27245 -14.04455,-8.90726 -31.81522,-17.68724 -39.98399,-22.14086 -8.16877,-4.45362 -15.19105,-13.48811 -20.06366,-19.21418 -4.8726,-5.72609 -3.58279,-5.98058 -1.71974,-8.52552 1.86305,-2.5449 0.42994,-2.5449 6.73566,-4.32636 6.30572,-1.78144 13.75793,-7.88927 22.49995,-15.39679 8.74203,-7.50754 14.18787,-17.43274 14.90443,-20.99564 0.71656,-3.5629 -0.57325,-2.29043 -1.43312,0.50898 -0.85987,2.79942 -6.16241,9.54347 -11.46494,15.14232 -5.30254,5.59883 -15.04774,12.85186 -21.64009,16.28751 -6.59234,3.43565 -4.01273,2.29043 2.14968,-9.79797 6.16241,-12.08839 5.73248,-27.86692 3.86942,-31.04807 -1.86305,-3.18117 -1.43312,0 -1.00318,0.89072 0.42993,0.89071 0.42993,2.79941 -0.28663,10.05244 -0.71655,7.25305 -3.58279,14.50608 -6.44903,21.3774 -4.29935,-5.9806 -1.86305,-13.48812 -0.28662,-18.95972 1.57642,-5.47158 -1.1465,-1.52696 -2.29299,0.2545 -1.1465,1.78145 -3.43949,10.05246 -2.57961,18.06896 0.85987,8.01653 0.28662,8.52551 -1.43312,10.68869 -1.71974,2.1632 -3.86942,4.58088 -6.44903,6.99855 -5.30254,-4.19913 -24.64963,-16.92374 -30.38211,-19.72317 -5.732467,-2.79942 -4.29935,-0.38173 -0.57324,1.78144 3.7261,2.16319 13.4713,8.78 16.91079,12.08841 -8.74202,0.50899 -21.49677,-2.54492 -29.378921,-6.74406 -7.882145,-4.19912 -9.601887,-12.59738 -11.035013,-15.65129 -1.433115,-3.05391 -1.863047,-1.01798 -1.863047,0.63624 0,1.65418 1.146495,5.21709 3.582788,10.43418 -7.165587,-4.32637 -15.047732,-13.23361 -18.917152,-16.28751 4.299351,14.76056 23.789763,22.39534 27.802493,23.92229 -4.585978,1.9087 -13.328002,0.50899 -18.200601,0.12725 -4.872604,-0.38173 -3.009552,1.14522 0.429931,1.90869 3.439484,0.76347 16.050928,1.65421 19.060469,1.78145 3.009552,0.12724 6.019099,-0.50899 10.748393,1.01797 4.72928,1.52694 18.2006,3.18116 23.21651,2.92667 2.4363,1.65419 6.59234,9.03448 8.88533,13.2336 2.29299,4.19913 2.72292,6.87131 -6.73565,3.94464 -9.45858,-2.92665 -25.36619,-2.16318 -30.812042,-1.6542 -5.445845,0.50898 -6.449035,0.12725 -10.46176,-1.27245 -4.012731,-1.39972 -20.6369,-3.05392 -23.933073,-2.92667 -3.296173,0.12725 -5.302538,2.54491 1.146494,2.41766 6.44903,-0.12724 14.331175,2.41769 18.343906,3.5629 -4.442662,0.38175 -15.62098,2.67219 -23.646444,4.83537 -8.02546,2.16317 -9.171955,4.07188 5.732475,0.38173 14.904428,-3.69014 39.124124,-2.29043 39.124124,-2.29043 0,0 -6.305722,0.63623 -13.757936,3.94463 -7.452219,3.3084 -7.308903,5.85333 6.735651,0.50898 14.044555,-5.34434 36.831135,1.01799 48.726015,8.90725 11.89489,7.88927 7.73884,8.01651 -2.29298,9.28897 -10.03183,1.27248 -28.37574,5.85333 -33.53497,8.78 -5.15923,2.92665 -6.59235,3.3084 -9.60189,3.8174 -3.009548,0.50898 -15.04774,5.98056 -19.777034,10.68867 -4.729283,4.70812 -1.433115,3.8174 1.719741,1.01797 3.152869,-2.79942 11.751577,-5.34434 11.751577,-5.34434 0,0 -8.742024,5.72609 -12.611445,12.3429 -3.869414,6.61679 0.429937,2.79941 2.722926,-0.12726 2.292989,-2.92666 11.751566,-10.17971 16.624165,-12.72462 4.8726,-2.54492 -1.00317,3.94462 -2.722915,5.34433 -1.719742,1.39972 -5.732472,12.85188 2.292985,1.9087 8.02546,-10.94319 19.92035,-15.26954 27.65918,-16.28752 7.73884,-1.01797 29.52223,-2.16319 47.14958,5.98058 17.62736,8.14376 31.591,25.09504 33.41506,29.95377 1.82406,4.85875 -16.8219,2.06947 -24.32082,0.98975 -7.49892,-1.07972 -10.53902,-3.68904 -14.5925,-7.19814 -4.05347,-3.50909 -5.26951,-6.5683 -7.60025,-7.91795 -2.33074,-1.34965 -5.67486,-3.95896 -8.20828,-7.738 -2.53341,-3.77901 -10.13367,-9.80745 -12.66709,-11.517 -2.53342,-1.70957 -2.93877,0 -0.91203,1.25966 2.02674,1.25968 6.58689,6.20839 8.61362,9.35758 -1.1147,-1.07971 -11.45105,-6.02843 -14.99784,-7.28811 -3.54679,-1.25967 -7.70159,-0.26993 -1.41871,1.61958 6.28288,1.88951 17.9366,10.16737 19.0513,10.97715 1.11471,0.80979 1.92541,1.61959 -0.60801,1.97949 -2.53342,0.35991 -11.14705,-0.3599 -14.08581,-0.89977 -3.0401,-2.87924 -12.97111,-9.89743 -17.93661,-10.61724 -4.9655,-0.71983 -1.1147,1.25967 1.72273,2.15944 2.83743,0.89977 6.8909,4.76876 8.8163,7.19813 -5.7762,-0.35991 -12.86977,-5.03869 -16.31522,-7.01819 -3.44545,-1.97947 -3.14144,0.44989 0.10133,2.60934 3.24278,2.15943 13.37646,8.00792 17.12591,8.99766 -2.53342,0.53986 -7.29624,-0.3599 -13.17377,-0.80979 -5.87753,-0.44988 -3.44545,0.89978 -0.81069,1.70956 2.63475,0.80979 13.98446,1.70956 17.02457,1.34965 3.0401,-0.3599 6.08021,-1.43962 10.43769,-0.89976 4.35747,0.53986 13.07244,-0.44989 13.07244,-0.44989 0,0 1.9254,3.23915 3.74945,6.2084 1.82407,2.96923 2.7361,4.31887 1.41872,5.84848 -1.31738,1.52961 -3.14144,2.42938 -4.86417,2.42938 -1.72272,0 -12.46441,4.5888 -12.46441,4.5888 0,0 -4.05348,0.44989 -9.72833,1.25968 -5.67486,0.80978 -10.33636,3.4191 -11.24838,3.50909 -0.91203,0.09 -9.12031,-0.98976 -14.89651,-0.53987 -5.77618,0.44988 -3.0401,1.52961 -0.60801,1.43964 2.43208,-0.09 6.48555,0.62983 9.62699,1.5296 -0.60803,0.80979 -2.12808,1.34965 -4.96551,2.87926 -2.83743,1.52959 -1.31737,2.78927 2.22941,0.98973 3.54679,-1.79953 13.7818,-5.84848 18.84864,-6.29836 -0.8107,0.17995 -7.29624,4.22891 -12.16041,9.17762 -4.86416,4.94872 -0.81069,3.41911 1.41872,1.34965 2.22941,-2.06946 8.10693,-5.66854 11.45104,-7.28811 3.34412,-1.61958 22.19276,-7.82797 39.31866,-6.47832 17.12592,1.34965 10.13369,5.48857 6.08021,8.09789 -4.05347,2.60934 -6.99224,2.78929 -10.43769,2.87926 -3.44544,0.09 -12.46442,0.98974 -23.81413,2.42937 -11.34972,1.43964 -20.57136,6.02844 -23.20612,10.61726 -2.63475,4.58881 5.06685,-1.52961 10.84303,-4.22891 5.7762,-2.6993 24.11815,-3.50908 28.6783,-3.41912 4.56016,0.0899 4.35748,1.25968 3.85081,2.51935 -0.50669,1.25968 -8.51229,7.73799 -21.88875,11.33706 -13.37644,3.59906 -18.64595,1.16971 -22.39542,-0.26992 -3.74946,-1.43964 -2.12807,0.44989 -1.1147,1.5296 1.01336,1.07972 4.9655,2.06946 6.99224,3.14919 -3.64813,0.98974 -5.57352,0 -6.8909,0.53985 -1.31738,0.53985 -1.41872,1.07972 -0.20268,1.34965 1.21604,0.26993 9.42432,1.34966 12.46442,1.25968 -1.31738,1.07972 -3.0401,1.34965 -6.8909,3.05921 -3.85079,1.70955 -0.70935,1.88951 1.82406,1.5296 2.53342,-0.3599 9.01897,-2.60932 23.10479,-8.00793 14.0858,-5.3986 14.28847,0.53986 14.28847,7.55805 0,7.01818 -5.77619,12.14685 -11.0457,13.67646 -5.26951,1.5296 -0.91203,1.70955 1.04709,1.54583 1.9218,0 5.12478,-1.13758 5.12478,-1.13758 0,0 -1.28119,0.94798 -3.84358,5.11908 -2.5624,4.1711 0,2.84393 2.34886,1.13756 2.34885,-1.70634 5.97891,-6.25664 5.97891,-6.25664 0,0 1.49473,3.22313 1.28119,4.73988 -0.21353,1.51676 -1.49473,12.3237 0.64061,10.23815 2.13532,-2.08554 1.28119,-4.1711 1.28119,-6.63583 0,-2.46474 1.06766,-11.18612 1.49473,-13.08208 0.42706,-1.89595 2.98946,-9.66935 3.20299,-19.33871 0.21353,-9.66935 5.97892,-11.37572 7.90071,-13.08207 1.92179,-1.70635 23.70212,-20.47629 50.60724,0.18959 26.90511,20.66589 21.78033,49.48436 20.9262,52.89707 -0.85413,3.41271 -4.48419,18.01155 -30.32164,14.21964 -25.83745,-3.7919 -33.95169,-3.7919 -62.138,-15.92599 -28.18631,-12.13408 -30.32163,-17.82194 -38.64941,-26.35374 -7.26011,-26.54333 -16.22848,-36.21268 -18.57734,-39.05661 -2.34886,-2.84392 -2.98946,-4.92947 -3.630059,-7.20462 -0.6406,-2.27514 -5.12478,-11.18612 -9.1819,-16.30518 -4.057126,-5.11908 -4.057126,-1.32718 -1.067666,2.65434 2.989453,3.98148 5.76538,13.46124 5.76538,13.46124 0,0 -5.551847,-3.7919 -10.249567,-5.11906 -4.697719,-1.32716 -8.754839,-1.32716 -1.921793,1.51676 6.833046,2.84393 16.228485,11.9445 19.004405,17.06356 -5.551846,-0.94798 -6.833045,-3.03352 -9.822499,-5.30867 -2.989459,-2.27512 -3.416526,-0.56877 -1.494727,1.51676 1.921793,2.08555 6.192446,4.5503 9.181896,6.06706 2.98946,1.51676 4.91126,1.13758 6.40598,3.60231 1.49473,2.46474 4.91126,9.10057 6.40598,20.47628 1.49473,11.37572 -15.587882,-5.68786 -20.712662,-10.80692 -5.124786,-5.11907 -8.754834,-15.16763 -10.249572,-20.66588 -1.494727,-5.49826 -2.135321,1.13756 -1.708255,3.22311 0.427067,2.08555 2.562388,8.91098 4.270653,12.89247 -3.630059,-0.18959 -9.395438,-2.08554 -13.879625,-3.7919 -4.484186,-1.70635 -14.733751,-18.20113 -18.150274,-17.82194 -3.416522,0.37918 0.427065,2.08555 3.843588,3.9815 3.416522,1.89595 8.541307,11.18611 8.541307,11.18611 0,0 -2.775926,-0.75838 -7.260112,-4.36069 -4.484185,-3.60231 -4.484185,-2.27515 -2.135326,1.70637 2.348859,3.98149 11.317231,7.77338 15.587884,9.66934 4.270653,1.89596 -12.81196,2.08556 -18.577341,1.13759 -5.765382,-0.94799 -14.093155,-1.13759 -3.20299,1.32716 10.890165,2.46473 24.342718,1.32716 29.681037,0 1.067661,0.37918 5.124786,1.51676 8.327773,1.70635 7.473646,13.84045 30.748705,29.19766 37.795275,33.17916 -25.196849,2.27514 -34.165216,-1.89595 -39.503535,-3.03352 -5.338314,-1.13758 -3.41652,1.89595 -0.427067,2.27515 2.98946,0.37918 7.47364,1.51676 11.530766,3.03351 -4.911253,-0.37919 -26.691584,2.84393 -33.73816,10.80693 -7.046576,7.96301 2.775923,0 7.687175,-2.08554 4.911247,-2.08554 14.733758,-3.22313 14.733758,-3.22313 0,0 -3.630059,1.32718 -7.473645,4.92949 -3.843592,3.6023 -1.921799,5.11905 1.494727,2.46473 3.41652,-2.65433 8.968372,-5.68786 16.228485,-7.96301 7.260106,-2.27514 11.317226,-0.75837 27.972766,-0.75837 16.65556,0 32.02991,13.27166 39.93061,18.95952 7.90071,5.68786 0,6.06706 -22.63446,12.70288 -22.63446,6.63583 -52.101962,22.37224 -56.372616,22.75142 -4.270653,0.37919 -17.082611,4.73989 -25.410387,10.61734 -8.327774,5.87745 -1.921794,4.17108 1.067663,2.08554 2.989458,-2.08554 16.442012,-6.06705 16.442012,-6.06705 0,0 -7.260106,5.11908 -18.577338,15.35722 -11.317231,10.23815 -18.150276,25.59535 -6.833045,11.18612 11.317231,-14.40923 27.759243,-23.69942 27.759243,-23.69942 0,0 -4.05712,3.79191 -8.327773,12.13412 -4.270652,8.34218 -0.427066,5.30866 1.494727,2.08554 1.921794,-3.22312 11.744293,-17.25317 33.524624,-24.45779 21.78033,-7.20462 40.5712,-12.89247 57.86735,-11.18611 17.29615,1.70635 -7.26011,11.94449 -23.91566,18.01155 -16.65554,6.06704 -21.78032,4.73987 -27.5457,2.65433 -5.76538,-2.08556 -0.6406,2.08554 -0.6406,2.08554 0,0 -2.34886,-0.94798 -9.8225,-1.32718 -7.473643,-0.37917 6.19244,3.03354 10.89016,3.98152 4.69772,0.94797 -2.98946,1.70635 -6.83305,3.22312 -3.84359,1.51677 -28.186305,6.44623 -11.530753,4.73987 16.655543,-1.70635 24.769783,-5.87745 27.118643,-6.06704 2.34885,-0.1896 11.10369,-1.70637 17.50967,-3.22312 -5.97891,5.68786 -12.38489,11.94449 -16.44201,14.40923 -4.05712,2.46475 -9.1819,5.30867 -11.95783,11.37571 -2.77593,6.06705 -0.42707,6.82543 0.42707,4.55029 0.85413,-2.27514 1.92179,-3.41271 4.69772,-6.06705 -3.84359,4.92949 -4.48419,10.42773 -4.48419,13.27167 0,2.84393 1.92179,10.23814 2.56239,0.94798 0.6406,-9.29016 8.11424,-15.54681 11.7443,-19.52831 1.70825,3.7919 3.20299,13.27167 1.92179,18.20114 -1.2812,4.92948 -0.21354,8.91097 1.9218,1.89596 2.13532,-7.01502 1.49472,-15.16762 1.2812,-18.95952 -0.21354,-3.79191 -0.42707,-6.44625 2.98945,-9.10058 3.41652,-2.65433 21.99386,-20.0971 15.37435,-10.04854 -6.61951,10.04854 0.85413,29.95604 0.42706,32.42077 -0.42706,2.46474 -2.98946,6.44625 -1.70826,13.84045 1.2812,7.39421 3.84359,7.58382 3.20299,2.08555 -0.64059,-5.49826 0.6406,-7.3942 2.13533,-11.7549 3.63005,7.20462 8.5413,10.42773 11.74429,12.3237 3.203,1.89593 8.11424,1.89593 2.77593,-1.51678 -5.33831,-3.41271 -9.8225,-10.23813 -10.67663,-16.11558 5.97891,5.30866 14.73375,5.87745 14.73375,5.87745 -9.45219,-6.10101 -19.11558,-10.92731 -17.90765,-24.33372 1.20791,-13.4064 15.09903,-31.63911 41.67334,-35.39291 26.57431,-3.75379 51.33673,13.94267 50.73277,36.46543 -0.60396,22.52276 11.47527,70.78582 -23.5545,167.84819 l 10.55344,-5.8033 c 6.83305,-18.95952 22.06048,-83.75148 19.64464,-132.01453 -2.41585,-48.26307 -6.40562,-57.20149 -26.90475,-65.16448 -20.49913,-7.96301 -69.7291,-6.69386 -75.16475,37.27914 0.30197,-10.99326 2.11386,-16.3558 3.32178,-19.57334 1.20793,-3.21754 -2.41584,-3.7538 -5.58664,-1.20658 -3.1708,2.54721 -4.37872,2.27909 -4.83169,1.60876 -0.45297,-0.67031 0.90594,-1.60876 -8.90844,0.4022 6.94557,-2.14502 24.46045,-9.38449 32.31194,-13.67455 7.85151,-4.29005 14.22948,-10.1443 2.27165,-12.41944 -11.95783,-2.27515 -24.76979,-0.3792 -37.58174,2.84392 -12.81197,3.22312 -40.357678,14.40923 -24.55626,6.63584 15.80142,-7.77342 30.53517,-13.27168 41.8524,-15.926 6.83305,-1.89596 25.19685,-4.1711 24.98332,-8.91099 -0.21353,-4.73988 -2.98946,-5.68785 -18.15027,-14.40922 -15.16083,-8.72139 -19.21795,-11.56532 -29.68105,-11.94451 3.63006,-0.94798 7.04658,-3.41271 2.5624,-6.06704 -4.48419,-2.65434 -12.17137,-6.44624 -20.49914,-13.65086 4.91125,1.89596 9.60897,0.94797 9.18191,-6.06704 2.13533,9.29017 8.11424,20.09709 37.15468,32.79997 29.04044,12.70288 39.07648,14.59882 60.2162,17.44275 21.13974,2.84393 39.29001,5.87746 44.20126,-21.04506 4.91126,-26.92252 -24.98331,-62.56643 -51.24783,-60.86006 -14.52022,1.32715 -14.09315,-0.75838 -26.47805,9.66935 -12.3849,10.42774 -9.8225,6.25664 -10.4631,17.63236 -0.6406,11.3757 -1.06766,11.56531 -1.49473,12.32369 0.6406,-7.01502 3.41652,-25.97455 -19.645,-13.27166 7.47364,-3.60232 22.84799,-10.23816 22.84799,-13.08209 0,-2.84392 0.6406,-4.55027 -3.84359,-5.68784 6.40598,-0.1896 15.37436,-1.13757 22.42093,-7.77342 7.04658,-6.63582 -4.48418,-8.34217 -12.38489,-8.53178 -7.90071,-0.18959 -18.15028,0.37919 -25.83746,1.70636 8.96838,-3.03352 15.37435,-3.03352 16.01495,-3.98149 0.6406,-0.94798 1.70826,-1.51677 -1.06766,-5.11907 -2.77593,-3.60231 -6.19245,-9.47976 0.6406,-2.08556 6.83305,7.39421 9.1819,7.01503 22.63446,8.1526 13.45256,1.13757 32.24343,4.73989 21.78033,-9.29017 -10.46309,-14.03005 -30.1081,-39.81498 -83.27774,-33.93754 20.9262,-4.73987 21.78034,-4.36069 24.98333,-4.1711 3.20299,0.18961 9.8225,-0.18959 5.33831,-6.63584 -4.48418,-6.44622 -19.645,-14.97801 -45.48245,-19.14909 10.24957,0.56878 13.45256,0.56878 20.2856,3.2231 6.83305,2.65434 9.18191,-2.65432 9.39543,-5.11906 3.8436,7.58381 12.81197,14.40924 21.35327,18.39073 8.54131,3.9815 27.11865,13.27167 38.64941,20.85548 11.53077,7.5838 16.86909,12.13409 20.49913,0.18959 3.63006,-13.27167 6.19245,-33.93755 4.05713,-37.16066 -5.76538,-9.10056 -6.19245,-8.72139 -2.98946,-7.77341 3.20299,0.94798 4.69772,-1.51676 3.41652,-10.42773 3.41653,11.9445 2.13533,13.46126 3.8436,15.926 1.70825,2.46474 5.12477,6.06704 12.59842,-8.15259 3.20298,-6.63585 4.05712,-6.82543 2.56239,-1.32717 -1.49473,5.49826 -5.55185,9.10057 -10.46311,16.1156 -4.91124,7.01501 -5.76537,16.68437 -5.9789,29.57684 -0.21354,12.89248 -1.9218,30.90401 14.52022,47.5884 16.44201,16.68437 27.54571,17.06356 28.8269,4.36068 1.2812,-12.70287 4.91126,-37.16065 0.6406,-46.07163 -4.27065,-8.91097 -7.90071,-13.84044 -7.68717,-23.13061 2.34886,5.30867 2.34886,16.1156 8.96836,16.30518 6.61952,0.18961 7.47365,-13.46126 8.11424,-18.39073 0.6406,-4.92947 4.05713,-14.97801 5.1248,-8.53179 1.06766,6.44625 5.33831,2.84393 5.33831,2.84393 0,0 4.48419,-1.32717 -0.85413,3.41272 -5.33832,4.73988 -10.4631,4.17109 -10.67664,23.6994 -0.21352,19.52831 -2.18598,43.91706 -1.884,49.81588 0.30198,5.89882 7.8515,17.96458 22.64856,-5.6307 14.79706,-23.59527 9.05942,-24.93591 7.54952,-31.10286 -1.50991,-6.16694 -3.01981,-8.04384 -0.90594,-15.2833 1.20792,8.84824 5.43565,24.13154 11.47526,16.08769 6.03962,-8.04384 6.3416,-4.55817 -1.20792,7.77572 -7.54952,12.3339 -13.89111,27.34907 5.43566,16.89206 19.32677,-10.45698 39.55948,-33.78413 36.23769,-41.02359 -3.32179,-7.23947 -2.71782,-10.457 -2.71782,-10.457 3.32178,8.04384 3.62376,10.457 9.36139,7.50759 -1.5099,4.55818 -19.93073,35.39291 -41.67335,47.7268 -5.73762,2.68128 -19.62874,6.16695 -26.5743,22.25464 -6.94555,16.08768 -11.47526,25.20404 -7.8515,30.56661 3.62377,5.36255 10.56933,12.33389 41.37137,-19.0371 30.80204,-31.37099 32.00996,-34.58853 32.9159,-43.43675 0.90595,-8.84823 14.49508,-35.12479 18.42083,-38.0742 -5.13368,9.65261 -14.49508,24.93591 -14.1931,35.66104 0.30198,10.72512 17.81686,-3.48566 19.93073,-3.7538 -5.43566,4.82631 -16.30696,13.13827 -24.15846,21.18213 -7.8515,8.04384 -10.56932,15.01517 5.13367,12.33388 15.703,-2.68126 39.2575,-9.65259 39.2575,-9.65259 -2.11386,2.14502 -2.71782,4.02191 0.90594,4.82631 -8.15347,0.80437 -21.13865,0.80437 -30.50005,5.36254 -9.3614,4.55818 0.30198,9.38448 7.24753,17.96459 6.94556,8.58009 9.96537,14.74705 21.44064,13.94266 11.47527,-0.80437 13.28715,0.53626 13.28715,0.53626 0,0 -15.09903,-1.07251 -12.38121,6.43508 -4.52971,-3.21755 -11.77725,-10.457 -13.89112,-3.48567 -3.62376,-6.97133 -16.30696,-29.4941 -27.78223,-28.68971 -12.16191,-0.1275 -16.43256,4.04359 -30.09865,16.17768 -13.66609,12.13409 -24.76979,25.40576 -35.87349,55.36181 -11.1037,29.95604 -15.26068,55.28511 -14.05276,111.05576 1.20792,55.77065 1.20792,90.62731 15.703,114.75885 3.01981,-2.14503 7.24754,-4.29006 7.24754,-4.29006 z"
       id="path3390"
       inkscape:connector-curvature="0"
       sodipodi:nodetypes="ccsscsssssssscsscssscssssscsssssscsscssssssssscsscsscccssssscssscsssssssscsscsssscsssssssssscssccssssscsscsssssssssssssscsscsssscssscsssscsscsscsssscsssssssssssssscsssssssscsscsssssscsssscccssscsscsssscssssssssssssssssssssscsscsssssssscsssscscssssssssssssssssssscsscsssssssccsccscsscssscscccscsssscsccscccccssscssccssscsscsscccssccsscsscssssscssscsscssccccsscccssccccsssscccsssscscscscscsscsscccsssscsscccsscssscscscscsscssssssscsssccsscsscsscccssscsscssccsc"
       inkscape:export-filename="C:\Users\annarose\projects\IoTflowerpot\flowerPot\images\backgroundTree.png"
       inkscape:export-xdpi="90"
       inkscape:export-ydpi="90" />
    <path
       style="fill:#000000;fill-rule:evenodd;stroke:none;stroke-width:1px;stroke-linecap:butt;stroke-linejoin:miter;stroke-opacity:1"
       d="m 286.7403,436.82879 c -2.77592,-6.06705 -12.59842,-8.1526 -19.43147,-2.08554 -6.83304,6.06703 -11.53076,15.1676 -12.59842,24.26817 -1.06767,9.10058 -2.34886,34.69593 16.65554,34.12714 19.00441,-0.56878 20.2856,-21.80344 20.71267,-26.54333 0.42706,-4.73988 0.42706,-15.7364 -4.91125,-20.09709 -5.33832,-4.36069 -14.73375,-3.03353 -19.00441,6.06705 -4.27065,9.10057 -4.27065,24.83697 7.04658,23.69939 11.31723,-1.13756 11.31723,-15.1676 10.4631,-18.01153 -0.85414,-2.84393 -3.63006,-6.06706 -8.75484,-4.55029 -5.12479,1.51675 -5.33832,7.963 -2.77592,9.10056 2.56238,1.13759 5.55185,0.18961 3.84358,-1.32716 -1.70826,-1.51676 -2.77592,-3.03352 -1.49472,-4.55028 1.28119,-1.51676 4.48418,-3.22312 5.9789,0.56879 1.49474,3.7919 0.21354,10.23813 -3.20298,12.70288 -3.41652,2.46473 -10.4631,2.08554 -10.89017,-5.30867 -0.42706,-7.39421 2.5624,-14.97803 6.40598,-17.44276 3.84359,-2.46474 10.24957,-2.84393 14.09316,5.49825 3.84358,8.3422 -2.77593,26.54335 -7.26011,30.14564 -4.48419,3.60232 -16.01495,9.85896 -21.99387,-4.92947 -5.97891,-14.78843 0.85414,-31.2832 5.55185,-37.72944 4.69772,-6.44624 10.4631,-7.963 14.09316,-7.20462 3.63005,0.75838 7.47364,5.68787 7.47364,3.60231 z"
       id="path3392"
       inkscape:connector-curvature="0"
       inkscape:export-filename="C:\Users\annarose\projects\IoTflowerpot\flowerPot\images\backgroundTree.png"
       inkscape:export-xdpi="90"
       inkscape:export-ydpi="90" />
  </g>
</svg>
