<?xml version="1.0" encoding="UTF-8" standalone="no"?>
<!-- Created with Inkscape (http://www.inkscape.org/) -->

<svg
   xmlns:dc="http://purl.org/dc/elements/1.1/"
   xmlns:cc="http://creativecommons.org/ns#"
   xmlns:rdf="http://www.w3.org/1999/02/22-rdf-syntax-ns#"
   xmlns:svg="http://www.w3.org/2000/svg"
   xmlns="http://www.w3.org/2000/svg"
   xmlns:sodipodi="http://sodipodi.sourceforge.net/DTD/sodipodi-0.dtd"
   xmlns:inkscape="http://www.inkscape.org/namespaces/inkscape"
   width="234.69986"
   height="597.43243"
   id="svg2"
   version="1.1"
   inkscape:version="0.48.4 r9939"
   sodipodi:docname="wine bottle.svg">
  <defs
     id="defs4" />
  <sodipodi:namedview
     id="base"
     pagecolor="#ffffff"
     bordercolor="#666666"
     borderopacity="1.0"
     inkscape:pageopacity="0.0"
     inkscape:pageshadow="2"
     inkscape:zoom="1"
     inkscape:cx="185.48283"
     inkscape:cy="305.62305"
     inkscape:document-units="px"
     inkscape:current-layer="layer1"
     showgrid="true"
     inkscape:window-width="1304"
     inkscape:window-height="746"
     inkscape:window-x="-8"
     inkscape:window-y="-8"
     inkscape:window-maximized="1"
     fit-margin-top="50"
     fit-margin-left="50"
     fit-margin-bottom="50"
     fit-margin-right="50" />
  <metadata
     id="metadata7">
    <rdf:RDF>
      <cc:Work
         rdf:about="">
        <dc:format>image/svg+xml</dc:format>
        <dc:type
           rdf:resource="http://purl.org/dc/dcmitype/StillImage" />
      </cc:Work>
    </rdf:RDF>
  </metadata>
  <g
     inkscape:label="colour"
     inkscape:groupmode="layer"
     id="layer1"
     transform="translate(-839.71904,1470.5533)"
     style="display:inline">
    <path
       style="fill:#d90000;fill-opacity:1;stroke:none"
       d="m 894.77677,-960.30445 c 0,42.16419 126.49263,42.16419 126.49263,0 l 0,-252.98515 c 0,-42.1642 -42.16424,-48.4888 -42.16424,-69.5709 0,0 0.13176,-14.2041 0,-16.0488 -11.8587,5.4023 -26.61617,6.0611 -42.16419,0.3953 l 0,15.6535 c 0,21.0821 -42.1642,27.4067 -42.1642,69.5709 z"
       id="path3026"
       inkscape:connector-curvature="0"
       sodipodi:nodetypes="ccccccccc" />
    <path
       id="path3802"
       style="fill:#cc0000;fill-opacity:1;fill-rule:nonzero;stroke:none"
       d="m 955.33132,-971.20187 c -12.68416,0.3223 -36.75835,3.22179 -36.64459,10.51246 0.0626,4.01456 5.21144,5.08131 7.9931,6.71032 -3.57918,-5.20474 1.4453,-9.77668 7.31094,-11.52329 10.85881,-3.2334 28.43765,-6.48235 58.45479,0.12779 -11.09673,-4.84952 -24.61623,-6.14483 -37.11424,-5.82728 z m 62.52998,8.91317 c -3.8787,-6.66331 -22.58685,-14.62644 -60.37069,-14.62644 -18.4293,0 -40.3057,6.40643 -40.46374,8.70624 -0.046,0.67006 0.0198,12.57118 0.0198,12.57118 -0.16344,3.59555 55.73967,32.98546 105.60063,-3.10286 -0.1,44.4069 -130.37301,40.56322 -130.03769,3.6471 0,-4.86828 -0.53174,-251.39712 -0.25608,-257.51892 0.7372,-16.3709 5.01771,-32.5534 28.16608,-49.3319 16.65051,-12.0688 15.83741,-17.5024 15.2157,-35.6682 2.88315,1.7216 12.14839,3.2943 12.14839,3.2943 0.39529,17.1791 -1.30962,26.6191 -13.2536,36.0097 -8.85232,6.9599 -13.46749,12.9375 -16.05226,30.6125 -0.78948,5.3984 -0.18045,19.6375 -0.18045,19.6375 0,0 -1.30746,229.1413 -1.33823,231.91899 10.25164,-3.09831 24.22988,-4.85411 39.77768,-4.85411 37.78389,0 58.94436,7.3646 61.02446,18.70492 z"
       inkscape:connector-curvature="0"
       sodipodi:nodetypes="sscscscsscccssccssccsc" />
    <path
       style="fill:#b20000;fill-opacity:1;stroke:none"
       d="m 934.83276,-1411.4614 c 0,2.1083 0,67.6965 0,107.5187 0,10.5411 46.3806,10.5411 46.3806,0 0,-40.0559 0,-105.4104 0,-107.5187 0,-10.541 -46.3806,-10.541 -46.3806,0 z"
       id="path3030"
       inkscape:connector-curvature="0"
       sodipodi:nodetypes="cccccc" />
    <path
       style="fill:#ffabab;fill-opacity:1;stroke:none"
       d="m 965.34342,-1405.5395 0,3.8937 3.00467,0.8089 -3.00467,1.6179 0,1.7335 2.31128,1.04 -2.31128,1.2712 0,101.2824 1.51055,-0.317 c 0,0 0.27243,7.3017 0.23116,10.9142 -0.30171,26.4037 42.25497,29.9491 42.21547,72.1133 l -0.2311,246.45746 c -0.013,13.92646 -4.7213,17.38919 -23.20435,22.11611 11.13762,-2.68058 33.90955,-7.7543 33.80145,-24.22432 l -1.6179,-246.45745 c -0.2886,-43.9575 -41.70193,-45.0219 -41.70193,-69.5709 l 0,-13.579 2.77356,-1.4678 0,-99.9249 -2.1957,0.4622 2.1957,-2.4268 0,-2.5424 -2.1957,0.3467 2.1957,-2.0802 c 0,0 0,-5.193 0,-7.3887 -0.57781,3.3514 -6.26526,5.2285 -13.77691,5.9219 z"
       id="path4056"
       inkscape:connector-curvature="0"
       sodipodi:nodetypes="cccccccccssscssscccccccccc" />
    <path
       style="fill:#4d0000;fill-opacity:1;stroke:none"
       d="m 1005.7035,-1155.808 c -24.21496,13.2369 -70.63443,13.2914 -95.03413,0.1647 -0.0704,5.5875 -0.0712,126.8172 -0.19764,131.6643 24.32104,13.2197 70.83183,13.2315 95.13297,0 -0.1589,-4.8294 -0.1353,-126.0763 0.099,-131.829 z m -16.22982,26.4775 c -0.60049,0.8242 -7.23064,-3.7098 -10.51805,-1.1789 -4.84434,3.7295 -2.08494,9.4959 0.0327,13.9339 2.17923,4.5666 7.18354,10.1981 11.92453,6.1929 4.12705,-3.4866 0.91169,-9.4063 -2.23996,-13.1763 -2.6874,-3.2148 -11.01125,-4.646 -8.10343,1.8447 1.46311,3.2658 4.8977,-1.0298 5.69872,0.7246 1.95861,4.2896 -6.20332,2.8238 -7.08222,-1.2517 -1.29879,-6.0222 4.44953,-5.8079 8.43283,-3.8212 6.22919,3.1071 8.2572,9.609 5.46818,15.3834 -2.40591,4.9811 -10.2971,4.6705 -12.74809,0.4282 -2.7254,-4.7171 -6.18555,-9.8307 -5.567,-15.548 0.57766,-5.3391 6.6656,-7.4056 11.32664,-5.536 -1.26359,-1.8999 -10.81958,-2.7033 -11.93759,4.9213 -1.19688,8.1627 4.54652,13.8115 6.54029,21.4003 1.25483,4.7763 6.81061,15.2732 1.08704,15.7457 -4.75215,0.3924 -7.35123,-6.7423 -7.93872,-10.6728 -0.55257,-3.6967 -3.10017,-11.0435 -5.83053,-5.2376 -2.30685,4.9054 0.90375,10.3308 2.89877,14.9222 1.55895,3.5876 9.00356,13.0797 5.66583,15.1198 -3.48828,2.1322 -6.69315,-11.4623 -8.43284,-14.8563 -1.16139,-2.2658 -3.05523,-12.1063 -5.13872,-7.3787 -2.80809,6.3716 2.11185,13.5386 3.6564,20.1597 1.10794,4.7497 4.63975,13.8968 -0.1647,16.701 -4.75173,2.7734 -7.70458,-9.2158 -9.19047,-12.9457 -2.16989,-5.4468 -1.20984,7.6071 -2.63529,5.6987 -2.8079,-3.7591 -1.22126,-9.477 0.79057,-13.4398 1.14883,-2.2629 2.77987,5.4639 4.0188,8.7293 1.10216,2.905 5.19132,14.2545 7.34579,9.6517 2.9125,-6.2223 -1.91084,-15.8923 -4.0318,-22.296 -1.73154,-5.2279 -4.35571,-12.0076 0.40829,-14.2024 4.7209,-2.175 1.63778,-6.8693 5.73171,-8.8281 5.56695,-2.6637 6.78243,5.7984 7.24697,9.6186 0.76582,6.2977 2.992,6.1199 3.78821,0.099 1.05762,-7.9979 -4.87539,-14.5645 -7.27991,-21.8397 -1.83725,-5.5588 1.42323,-12.2334 7.37873,-12.9458 4.2672,-0.5103 10.21379,2.1799 9.39808,3.8802 z m -48.49879,25.2066 c 1.18665,0.04 -0.36046,1.0052 -1.02116,3.1953 -2.26443,7.5059 0.82674,14.9503 3.20827,22.4345 2.52843,7.9457 7.3575,15.3189 11.51624,22.3979 2.31985,3.797 13.15494,23.0184 9.48698,21.4774 -4.13746,-2.0345 -7.28131,-6.5308 -10.00218,-10.2925 -4.43234,-6.1278 -7.53188,-12.3734 -12.58526,-17.7122 -3.747,-3.9586 -6.62232,-9.3357 -11.63805,-11.4584 -5.01107,-2.1207 -11.92489,0.1366 -12.58338,6.4893 -0.54606,5.2682 2.19248,12.494 7.87285,13.0775 6.43962,0.6615 6.51478,-6.8414 2.33879,-10.4422 -4.3346,-3.7375 -3.95953,2.3734 -1.91056,4.447 1.75058,1.7716 -4.15133,-0.016 -4.15054,-2.7011 0.002,-5.9373 8.87805,-4.6098 10.67281,0.1647 1.97769,5.261 -2.56028,10.8079 -7.37873,10.6398 -5.09137,-0.1775 -8.24589,-6.2734 -9.13266,-10.8145 -0.95986,-4.9154 1.35722,-12.2575 7.18915,-13.1005 5.2945,-0.7653 10.07419,0.2938 13.6555,4.1624 5.66802,6.1228 11.57818,12.88 16.58413,19.555 2.75256,3.6702 7.26715,11.8577 8.16931,11.0352 0.90144,-0.8219 -5.22113,-10.4659 -8.36695,-15.3834 -6.58633,-10.2956 -12.32214,-21.2031 -15.28452,-33.1714 -1.0451,-4.2223 -4.00462,-11.5739 0.42823,-13.0116 0.97183,-0.3061 2.06222,-0.6892 2.93173,-0.9882 z m 8.49874,0.1976 c 1.56733,-0.1594 3.72359,0.2016 4.94918,1.14 5.11585,3.9168 1.46489,11.155 -2.7751,12.3658 -1.94585,0.5556 3.68515,-4.6366 2.83289,-7.5435 -2.00157,-6.8268 -11.15351,-2.3828 -8.16931,3.7553 2.97944,6.1282 7.02963,-6.8117 3.09646,-3.7223 -2.0871,1.6394 -3.33273,2.1009 -1.25179,-0.4282 4.65724,-5.6602 5.50214,8.1682 -0.0328,6.9175 -5.32399,-1.203 -4.09402,-11.9307 1.35062,-12.4846 z"
       id="path3036"
       inkscape:connector-curvature="0"
       sodipodi:nodetypes="sccccscssssssssssscsssssssssssssssssssssssccccsssssssssssssssssssccsssssssss" />
    <path
       style="fill:#990000;fill-opacity:1;stroke:none"
       d="m 952.56114,-1419.1657 c -10.48569,0.6561 -17.71324,3.4489 -17.71324,7.7043 l 0,107.5188 c 0,1.36 0.76331,2.5485 2.10822,3.5575 l 0,17.5246 c 0,21.0821 -42.1642,27.4067 -42.1642,69.5709 l 0,252.98516 c 0,28.20473 58.07319,37.49254 94.07886,28.0326 27.36202,-7.18896 30.67902,-19.05693 32.31142,-25.32004 -25.44938,41.87188 -117.95744,20.42751 -117.95744,-2.71256 l 0,-255.09336 c 0,-38.2419 38.56869,-43.3083 38.56869,-64.3904 l 0,-14.6257 c 0.89508,0.3086 2.6149,0.4852 2.6149,0.4852 0,0 0,-71.1696 0,-102.1701 2.65797,0.6934 6.53157,1.0013 9.93851,-0.1156 -3.59144,-0.3396 -10.05405,-1.1556 -9.93851,-2.7735 l 0,-1.04 c 2.77355,1.2712 7.27269,1.0306 10.40074,0.3466 -3.55932,-0.4362 -10.40074,-1.3867 -10.40074,-2.7735 l 0,-1.3867 c 5.08483,1.04 10.28521,0.1155 10.51632,-1.3868 -11.33165,-0.3953 -17.92441,-2.8796 -17.87884,-6.1013 0.0818,-5.7825 10.43297,-6.8315 15.51531,-7.8361 z"
       id="path4061"
       inkscape:connector-curvature="0"
       sodipodi:nodetypes="csscsssscsssccccccccccsc" />
    <path
       sodipodi:nodetypes="cccccccccssccsscccccccccc"
       inkscape:connector-curvature="0"
       id="path3812"
       d="m 970.21357,-1406.3485 0,4.7027 1.54199,1.04 -1.54199,1.3868 0,1.7335 1.88869,0.8089 -1.88869,1.0401 0,100.7045 0.85684,-0.2014 c 0,0 0.27238,8.2262 0.23111,11.8387 -0.30166,26.4037 40.67288,29.9494 40.82868,72.1133 l 0.6934,187.6307 c -0.035,7.0111 1.2706,8.9479 1.2118,-2.1083 l 0.9245,-187.6306 c 0.1872,-38.0034 -42.16421,-45.0219 -42.16421,-69.5709 l 0,-12.4234 1.6179,-0.6588 0,-100.2716 -1.24317,-0.5779 1.24317,-1.1556 0,-2.3113 -1.35871,-0.5778 1.35871,-1.2712 0,-5.3085 c -0.80893,0.6934 -4.20002,1.0681 -4.20002,1.0681 z"
       style="fill:#ffffff;fill-opacity:1;stroke:none" />
    <path
       style="fill:#4d0000;fill-opacity:1;stroke:none"
       d="m 936.94097,-1411.4614 c 0,8.4329 42.16419,8.4329 42.16419,0 0,-8.4328 -42.16419,-8.4328 -42.16419,0 z"
       id="path3038"
       inkscape:connector-curvature="0"
       sodipodi:nodetypes="sss" />
  </g>
  <g
     inkscape:groupmode="layer"
     id="layer2"
     inkscape:label="outline"
     transform="translate(-839.71904,2022.9155)"
     style="display:inline">
    <path
       id="path4017"
       style="fill:#000000;stroke:none;display:inline"
       d="m 1007.6009,-1710.8548 c -25.24922,13.1563 -55.87089,11.7695 -77.77321,7.5435 -7.42785,-1.6945 -15.16051,-4.3597 -21.79414,-8.1364 -0.17301,31.4138 -0.55576,107.6376 -0.81086,139.0505 24.06791,12.2978 54.15024,11.5089 80.21841,6.0536 7.08227,-1.6228 13.8339,-4.6771 20.1927,-8.248 -0.2619,-45.7283 -0.034,-90.5348 -0.033,-136.2632 z m -1.9106,2.7011 c -0.2341,5.7527 -0.2248,126.9667 -0.066,131.7961 -24.30115,13.2315 -70.84485,13.2527 -95.16589,0.033 0.12639,-4.8471 0.12723,-126.0767 0.19765,-131.6642 24.39969,13.1267 70.81913,13.0721 95.03414,-0.1647 z m -47.66532,-262.0109 c -10.54102,0 -21.08208,2.1082 -21.08208,6.3246 0,8.4329 42.16226,8.4493 42.16419,0 0,-4.2164 -10.54103,-6.3246 -21.08211,-6.3246 z m 20.02608,6.341 c 0,6.3247 -39.00188,5.2706 -39.00188,0 0,-3.1622 9.48695,-5.2704 18.97388,-5.2704 10.54107,0 20.028,2.1082 20.028,5.2704 z m -20.028,-9.0916 c -15.79759,0.047 -26.07256,3.1458 -26.07256,7.7575 0.0815,36.2793 0.26071,74.3142 0.13335,111.7351 3.49391,4.8326 2.73284,14.6667 1.93968,20.7199 -1.222,9.3259 -16.61101,15.1981 -24.6809,23.1327 -12.62951,10.0645 -19.36848,33.2849 -18.02676,49.1723 0.15675,69.5984 -2.05312,185.0803 -1.51102,254.6525 2.65222,15.2271 19.88223,22.6082 33.30714,26.3197 26.01476,6.4314 56.67125,5.3043 81.35951,-5.6822 10.7539,-4.7718 18.8933,-11.3521 19.9474,-22.2884 -0.1789,-71.1824 -0.1216,-192.5501 -0.7408,-263.7198 0,-16.8656 -9.6168,-29.8712 -26.78301,-43.702 -7.40884,-5.9694 -15.99496,-10.9179 -15.99496,-22.5131 0,-6.3246 0.0616,-13.4838 2.3017,-16.9771 0.14722,-27.5332 0.0905,-82.462 -0.27369,-109.5155 -0.11625,-8.6392 -19.74083,-9.1069 -24.90508,-9.0916 z m -23.18837,32.2655 0,-10.4422 c 0,-0.3755 2.10628,0.2774 2.10628,-0.082 0,-0.3766 -2.10628,-1.766 -2.10628,-2.1246 l 0,-2.2071 c 0,-0.3168 2.10628,0.4112 2.10628,0.1153 0,-0.3524 -2.10628,-1.7043 -2.10628,-2.0258 l 0,-6.4235 c 0,-5.2705 11.59517,-7.9058 23.19029,-7.9058 11.59518,0 23.1903,2.6353 23.1903,7.9058 l 0,6.4235 c 0,0.3494 -2.11012,1.6401 -2.11012,2.0258 0,0.2961 2.11012,-0.333 2.11012,-0.016 l 0,2.207 c 0,0.3295 -2.11012,1.6813 -2.11012,2.0259 0,0.3598 2.11012,-0.2931 2.11012,0.082 l 0,10.4422 c 0,9.5033 -46.38252,9.5033 -46.38059,0 z m 46.37867,1.8611 0,4.4636 c 0,10.5575 -46.38256,10.5575 -46.38063,0 l -0.002,-4.1062 c -4e-5,9.7884 46.38059,8.0755 46.38063,-0.3574 z m 0,7.6423 0,74.825 c 0,10.5575 -46.38256,10.5575 -46.38063,0 l -0.002,-74.0724 c 7.31858,10.9524 42.82343,6.712 46.38058,-0.7526 z m -2.10627,95.9071 c 0,21.0821 42.16421,27.4067 42.16421,69.5709 l 0,252.9852 c 0,42.1642 -126.49259,42.1642 -126.49259,0 l 0,-251.8905 c 0,-42.1642 42.98519,-49.5835 42.98519,-70.6656 0,0 -0.002,-10.9908 -0.002,-13.099 -4e-5,6.3246 41.34315,4.6826 41.34319,-1.642 0,2.1082 0,14.741 0,14.741 z"
       inkscape:connector-curvature="0"
       sodipodi:nodetypes="ccccccccsccccscssccsccscccccccccssccsscssssssssssssscccccccccccccccsccccccc" />
  </g>
</svg>
